<?xml version="1.0" encoding="UTF-8" standalone="no"?><svg xmlns="http://www.w3.org/2000/svg" xmlns:xlink="http://www.w3.org/1999/xlink" clip-rule="evenodd" stroke-miterlimit="4.00" viewBox="0 0 1920 1080"><desc>SVG generated by Keynote</desc><defs></defs><g transform="matrix(1.00, 0.00, -0.00, -1.00, 0.0, 1080.0)"><g><clipPath id="clip-48"><path d="M 0.0 1080.0 L 1920.0 1080.0 L 1920.0 0.0 L 0.0 0.0 Z M 0.0 1080.0 "></path></clipPath><g clip-path="url(#clip-48)"><image xlink:href="../../A172C229-966A-4E8A-A457-DFB78DE74FB5/assets/4B0075050CC9D0F3DC006F0CDE78D676.jpeg" width="1365.00" height="767.00" transform="matrix(1.41, 0.00, -0.00, -1.41, 0.0, 1080.0)"></image></g></g><image xlink:href="../../626647B6-AB4E-4ACF-89AC-808063E2EA4C/assets/400F9F3DAE4B6299C674A6420BEF1D0E.png" width="700.00" height="525.00" transform="matrix(2.06, 0.00, -0.00, -2.06, 279.0, 996.0)"></image><g><clipPath id="clip-49"><path d="M 431.0 956.0 L 1489.0 956.0 L 1489.0 -44.0 L 431.0 -44.0 Z M 430.7 955.7 "></path></clipPath><g clip-path="url(#clip-49)"><image xlink:href="../../626647B6-AB4E-4ACF-89AC-808063E2EA4C/assets/A116C9D8AF5E2E9BC83CE5B4A2EA2864.jpeg" width="576.00" height="769.00" transform="matrix(2.05, 0.00, -0.00, -2.04, 396.0, 1155.0)"></image></g></g><image xlink:href="../../626647B6-AB4E-4ACF-89AC-808063E2EA4C/assets/3EC15B289CC99337E289AE27062E452F.jpeg" width="1025.00" height="768.00" transform="matrix(1.33, 0.00, -0.00, -1.33, 280.0, 935.0)"></image><g><clipPath id="clip-50"><path d="M 254.0 921.0 L 1744.0 921.0 L 1744.0 -9.0 L 254.0 -9.0 Z M 254.4 921.0 "></path></clipPath><g clip-path="url(#clip-50)"><image xlink:href="../../626647B6-AB4E-4ACF-89AC-808063E2EA4C/assets/3DDCF1A3DB1367A7C20131EA0F10F023.png" width="1024.00" height="768.00" transform="matrix(1.46, 0.00, -0.00, -1.45, 254.0, 921.0)"></image></g></g><image xlink:href="../../626647B6-AB4E-4ACF-89AC-808063E2EA4C/assets/0C8511BBC6E31FE80A2DEC71BE2A87D7.png" width="1024.00" height="768.00" transform="matrix(1.29, 0.00, -0.00, -1.29, 388.0, 951.0)"></image><image xlink:href="../../626647B6-AB4E-4ACF-89AC-808063E2EA4C/assets/1E409E93C8BC62D6C055892263C67497.png" width="800.00" height="600.00" transform="matrix(1.65, 0.00, -0.00, -1.65, 388.0, 951.0)"></image><image xlink:href="../../6278D0E2-2BCE-466F-B838-179C6008E081/assets/C49917DA5CA45C299859255BC2D8C00A.png" width="859.00" height="83.00" transform="matrix(1.00, 0.00, -0.00, -1.00, 116.0, 953.0)"></image><text xml:space="preserve" font-family="HelveticaNeue-Light" font-size="100.0" fill="#FEFFFE" transform="matrix(1.00, 0.00, -0.00, -1.00, 120.0, 879.0)">W</text><text xml:space="preserve" font-family="HelveticaNeue-Light" font-size="100.0" fill="#FEFFFE" transform="matrix(1.00, 0.00, -0.00, -1.00, 210.7, 879.0)">h</text><text xml:space="preserve" font-family="HelveticaNeue-Light" font-size="100.0" fill="#FEFFFE" transform="matrix(1.00, 0.00, -0.00, -1.00, 264.4, 879.0)">a</text><text xml:space="preserve" font-family="HelveticaNeue-Light" font-size="100.0" fill="#FEFFFE" transform="matrix(1.00, 0.00, -0.00, -1.00, 316.3, 879.0)">t</text><text xml:space="preserve" font-family="HelveticaNeue-Light" font-size="100.0" fill="#FEFFFE" transform="matrix(1.00, 0.00, -0.00, -1.00, 345.9, 879.0)"> </text><text xml:space="preserve" font-family="HelveticaNeue-Light" font-size="100.0" fill="#FEFFFE" transform="matrix(1.00, 0.00, -0.00, -1.00, 373.7, 879.0)">i</text><text xml:space="preserve" font-family="HelveticaNeue-Light" font-size="100.0" fill="#FEFFFE" transform="matrix(1.00, 0.00, -0.00, -1.00, 392.2, 879.0)">s</text><text xml:space="preserve" font-family="HelveticaNeue-Light" font-size="100.0" fill="#FEFFFE" transform="matrix(1.00, 0.00, -0.00, -1.00, 440.3, 879.0)"> </text><text xml:space="preserve" font-family="HelveticaNeue-Light" font-size="100.0" fill="#FEFFFE" transform="matrix(1.00, 0.00, -0.00, -1.00, 468.1, 879.0)">a</text><text xml:space="preserve" font-family="HelveticaNeue-Light" font-size="100.0" fill="#FEFFFE" transform="matrix(1.00, 0.00, -0.00, -1.00, 520.0, 879.0)"> </text><text xml:space="preserve" font-family="HelveticaNeue-Light" font-size="100.0" fill="#FEFFFE" transform="matrix(1.00, 0.00, -0.00, -1.00, 547.8, 879.0)">“</text><text xml:space="preserve" font-family="HelveticaNeue-Light" font-size="100.0" fill="#FEFFFE" transform="matrix(1.00, 0.00, -0.00, -1.00, 584.8, 879.0)">S</text><text xml:space="preserve" font-family="HelveticaNeue-Light" font-size="100.0" fill="#FEFFFE" transform="matrix(1.00, 0.00, -0.00, -1.00, 647.8, 879.0)">t</text><text xml:space="preserve" font-family="HelveticaNeue-Light" font-size="100.0" fill="#FEFFFE" transform="matrix(1.00, 0.00, -0.00, -1.00, 677.4, 879.0)">a</text><text xml:space="preserve" font-family="HelveticaNeue-Light" font-size="100.0" fill="#FEFFFE" transform="matrix(1.00, 0.00, -0.00, -1.00, 729.3, 879.0)">t</text><text xml:space="preserve" font-family="HelveticaNeue-Light" font-size="100.0" fill="#FEFFFE" transform="matrix(1.00, 0.00, -0.00, -1.00, 758.9, 879.0)">i</text><text xml:space="preserve" font-family="HelveticaNeue-Light" font-size="100.0" fill="#FEFFFE" transform="matrix(1.00, 0.00, -0.00, -1.00, 777.4, 879.0)">o</text><text xml:space="preserve" font-family="HelveticaNeue-Light" font-size="100.0" fill="#FEFFFE" transform="matrix(1.00, 0.00, -0.00, -1.00, 833.0, 879.0)">n</text><text xml:space="preserve" font-family="HelveticaNeue-Light" font-size="100.0" fill="#FEFFFE" transform="matrix(1.00, 0.00, -0.00, -1.00, 886.7, 879.0)">?</text><text xml:space="preserve" font-family="HelveticaNeue-Light" font-size="100.0" fill="#FEFFFE" transform="matrix(1.00, 0.00, -0.00, -1.00, 940.4, 879.0)">”</text></g></svg>