<?xml version="1.0" encoding="UTF-8" standalone="no"?><svg xmlns="http://www.w3.org/2000/svg" xmlns:xlink="http://www.w3.org/1999/xlink" clip-rule="evenodd" stroke-miterlimit="4.00" viewBox="0 0 1920 1080"><desc>SVG generated by Keynote</desc><defs></defs><g transform="matrix(1.00, 0.00, -0.00, -1.00, 0.0, 1080.0)"><g><clipPath id="clip-340"><path d="M 0.0 1080.0 L 1920.0 1080.0 L 1920.0 0.0 L 0.0 0.0 Z M 0.0 1080.0 "></path></clipPath><g clip-path="url(#clip-340)"><image xlink:href="../../A172C229-966A-4E8A-A457-DFB78DE74FB5/assets/4B0075050CC9D0F3DC006F0CDE78D676.jpeg" width="1365.00" height="767.00" transform="matrix(1.41, 0.00, -0.00, -1.41, 0.0, 1080.0)"></image></g></g><image xlink:href="../../55E5F442-F8AC-4127-9035-DEDF228AB74E/assets/9EA96DE8341B4565C3EDDBE97D7C77CA.png" width="246.00" height="46.00" transform="matrix(1.00, 0.00, -0.00, -1.00, 840.0, 588.0)"></image><text xml:space="preserve" font-family="HelveticaNeue-Light" font-size="50.0" fill="#FEFFFE" transform="matrix(1.00, 0.00, -0.00, -1.00, 839.0, 551.0)">Q</text><text xml:space="preserve" font-family="HelveticaNeue-Light" font-size="50.0" fill="#FEFFFE" transform="matrix(1.00, 0.00, -0.00, -1.00, 876.0, 551.0)">u</text><text xml:space="preserve" font-family="HelveticaNeue-Light" font-size="50.0" fill="#FEFFFE" transform="matrix(1.00, 0.00, -0.00, -1.00, 902.9, 551.0)">e</text><text xml:space="preserve" font-family="HelveticaNeue-Light" font-size="50.0" fill="#FEFFFE" transform="matrix(1.00, 0.00, -0.00, -1.00, 928.9, 551.0)">s</text><text xml:space="preserve" font-family="HelveticaNeue-Light" font-size="50.0" fill="#FEFFFE" transform="matrix(1.00, 0.00, -0.00, -1.00, 952.9, 551.0)">t</text><text xml:space="preserve" font-family="HelveticaNeue-Light" font-size="50.0" fill="#FEFFFE" transform="matrix(1.00, 0.00, -0.00, -1.00, 967.7, 551.0)">i</text><text xml:space="preserve" font-family="HelveticaNeue-Light" font-size="50.0" fill="#FEFFFE" transform="matrix(1.00, 0.00, -0.00, -1.00, 977.0, 551.0)">o</text><text xml:space="preserve" font-family="HelveticaNeue-Light" font-size="50.0" fill="#FEFFFE" transform="matrix(1.00, 0.00, -0.00, -1.00, 1004.8, 551.0)">n</text><text xml:space="preserve" font-family="HelveticaNeue-Light" font-size="50.0" fill="#FEFFFE" transform="matrix(1.00, 0.00, -0.00, -1.00, 1031.6, 551.0)">s</text><text xml:space="preserve" font-family="HelveticaNeue-Light" font-size="50.0" fill="#FEFFFE" transform="matrix(1.00, 0.00, -0.00, -1.00, 1055.7, 551.0)">?</text><image xlink:href="../../55E5F442-F8AC-4127-9035-DEDF228AB74E/assets/7945FC3EECF5949F45C494B936796DAA.png" width="1128.00" height="63.00" transform="matrix(1.00, 0.00, -0.00, -1.00, 396.0, 689.0)"></image><text xml:space="preserve" font-family="HelveticaNeue-Light" font-size="58.0" fill="#FEFFFE" transform="matrix(1.00, 0.00, -0.00, -1.00, 397.0, 645.0)">h</text><text xml:space="preserve" font-family="HelveticaNeue-Light" font-size="58.0" fill="#FEFFFE" transform="matrix(1.00, 0.00, -0.00, -1.00, 428.1, 645.0)">t</text><text xml:space="preserve" font-family="HelveticaNeue-Light" font-size="58.0" fill="#FEFFFE" transform="matrix(1.00, 0.00, -0.00, -1.00, 445.3, 645.0)">t</text><text xml:space="preserve" font-family="HelveticaNeue-Light" font-size="58.0" fill="#FEFFFE" transform="matrix(1.00, 0.00, -0.00, -1.00, 462.5, 645.0)">p</text><text xml:space="preserve" font-family="HelveticaNeue-Light" font-size="58.0" fill="#FEFFFE" transform="matrix(1.00, 0.00, -0.00, -1.00, 495.8, 645.0)">:</text><text xml:space="preserve" font-family="HelveticaNeue-Light" font-size="58.0" fill="#FEFFFE" transform="matrix(1.00, 0.00, -0.00, -1.00, 511.9, 645.0)">/</text><text xml:space="preserve" font-family="HelveticaNeue-Light" font-size="58.0" fill="#FEFFFE" transform="matrix(1.00, 0.00, -0.00, -1.00, 531.2, 645.0)">/</text><text xml:space="preserve" font-family="HelveticaNeue-Light" font-size="58.0" fill="#FEFFFE" transform="matrix(1.00, 0.00, -0.00, -1.00, 550.5, 645.0)">g</text><text xml:space="preserve" font-family="HelveticaNeue-Light" font-size="58.0" fill="#FEFFFE" transform="matrix(1.00, 0.00, -0.00, -1.00, 582.8, 645.0)">i</text><text xml:space="preserve" font-family="HelveticaNeue-Light" font-size="58.0" fill="#FEFFFE" transform="matrix(1.00, 0.00, -0.00, -1.00, 593.5, 645.0)">t</text><text xml:space="preserve" font-family="HelveticaNeue-Light" font-size="58.0" fill="#FEFFFE" transform="matrix(1.00, 0.00, -0.00, -1.00, 610.7, 645.0)">h</text><text xml:space="preserve" font-family="HelveticaNeue-Light" font-size="58.0" fill="#FEFFFE" transform="matrix(1.00, 0.00, -0.00, -1.00, 641.8, 645.0)">u</text><text xml:space="preserve" font-family="HelveticaNeue-Light" font-size="58.0" fill="#FEFFFE" transform="matrix(1.00, 0.00, -0.00, -1.00, 673.0, 645.0)">b</text><text xml:space="preserve" font-family="HelveticaNeue-Light" font-size="58.0" fill="#FEFFFE" transform="matrix(1.00, 0.00, -0.00, -1.00, 706.3, 645.0)">.</text><text xml:space="preserve" font-family="HelveticaNeue-Light" font-size="58.0" fill="#FEFFFE" transform="matrix(1.00, 0.00, -0.00, -1.00, 722.4, 645.0)">c</text><text xml:space="preserve" font-family="HelveticaNeue-Light" font-size="58.0" fill="#FEFFFE" transform="matrix(1.00, 0.00, -0.00, -1.00, 752.5, 645.0)">o</text><text xml:space="preserve" font-family="HelveticaNeue-Light" font-size="58.0" fill="#FEFFFE" transform="matrix(1.00, 0.00, -0.00, -1.00, 784.7, 645.0)">m</text><text xml:space="preserve" font-family="HelveticaNeue-Light" font-size="58.0" fill="#FEFFFE" transform="matrix(1.00, 0.00, -0.00, -1.00, 833.0, 645.0)">/</text><text xml:space="preserve" font-family="HelveticaNeue-Light" font-size="58.0" fill="#FEFFFE" transform="matrix(1.00, 0.00, -0.00, -1.00, 852.4, 645.0)">a</text><text xml:space="preserve" font-family="HelveticaNeue-Light" font-size="58.0" fill="#FEFFFE" transform="matrix(1.00, 0.00, -0.00, -1.00, 882.5, 645.0)">l</text><text xml:space="preserve" font-family="HelveticaNeue-Light" font-size="58.0" fill="#FEFFFE" transform="matrix(1.00, 0.00, -0.00, -1.00, 893.2, 645.0)">e</text><text xml:space="preserve" font-family="HelveticaNeue-Light" font-size="58.0" fill="#FEFFFE" transform="matrix(1.00, 0.00, -0.00, -1.00, 923.3, 645.0)">x</text><text xml:space="preserve" font-family="HelveticaNeue-Light" font-size="58.0" fill="#FEFFFE" transform="matrix(1.00, 0.00, -0.00, -1.00, 951.2, 645.0)">a</text><text xml:space="preserve" font-family="HelveticaNeue-Light" font-size="58.0" fill="#FEFFFE" transform="matrix(1.00, 0.00, -0.00, -1.00, 981.3, 645.0)">n</text><text xml:space="preserve" font-family="HelveticaNeue-Light" font-size="58.0" fill="#FEFFFE" transform="matrix(1.00, 0.00, -0.00, -1.00, 1012.4, 645.0)">d</text><text xml:space="preserve" font-family="HelveticaNeue-Light" font-size="58.0" fill="#FEFFFE" transform="matrix(1.00, 0.00, -0.00, -1.00, 1045.7, 645.0)">e</text><text xml:space="preserve" font-family="HelveticaNeue-Light" font-size="58.0" fill="#FEFFFE" transform="matrix(1.00, 0.00, -0.00, -1.00, 1075.8, 645.0)">r</text><text xml:space="preserve" font-family="HelveticaNeue-Light" font-size="58.0" fill="#FEFFFE" transform="matrix(1.00, 0.00, -0.00, -1.00, 1094.1, 645.0)">s</text><text xml:space="preserve" font-family="HelveticaNeue-Light" font-size="58.0" fill="#FEFFFE" transform="matrix(1.00, 0.00, -0.00, -1.00, 1122.0, 645.0)">o</text><text xml:space="preserve" font-family="HelveticaNeue-Light" font-size="58.0" fill="#FEFFFE" transform="matrix(1.00, 0.00, -0.00, -1.00, 1154.2, 645.0)">n</text><text xml:space="preserve" font-family="HelveticaNeue-Light" font-size="58.0" fill="#FEFFFE" transform="matrix(1.00, 0.00, -0.00, -1.00, 1185.4, 645.0)">1</text><text xml:space="preserve" font-family="HelveticaNeue-Light" font-size="58.0" fill="#FEFFFE" transform="matrix(1.00, 0.00, -0.00, -1.00, 1217.6, 645.0)">9</text><text xml:space="preserve" font-family="HelveticaNeue-Light" font-size="58.0" fill="#FEFFFE" transform="matrix(1.00, 0.00, -0.00, -1.00, 1249.9, 645.0)">9</text><text xml:space="preserve" font-family="HelveticaNeue-Light" font-size="58.0" fill="#FEFFFE" transform="matrix(1.00, 0.00, -0.00, -1.00, 1282.1, 645.0)">3</text><text xml:space="preserve" font-family="HelveticaNeue-Light" font-size="58.0" fill="#FEFFFE" transform="matrix(1.00, 0.00, -0.00, -1.00, 1314.4, 645.0)">/</text><text xml:space="preserve" font-family="HelveticaNeue-Light" font-size="58.0" fill="#FEFFFE" transform="matrix(1.00, 0.00, -0.00, -1.00, 1333.7, 645.0)">t</text><text xml:space="preserve" font-family="HelveticaNeue-Light" font-size="58.0" fill="#FEFFFE" transform="matrix(1.00, 0.00, -0.00, -1.00, 1350.9, 645.0)">h</text><text xml:space="preserve" font-family="HelveticaNeue-Light" font-size="58.0" fill="#FEFFFE" transform="matrix(1.00, 0.00, -0.00, -1.00, 1382.0, 645.0)">o</text><text xml:space="preserve" font-family="HelveticaNeue-Light" font-size="58.0" fill="#FEFFFE" transform="matrix(1.00, 0.00, -0.00, -1.00, 1414.3, 645.0)">r</text><text xml:space="preserve" font-family="HelveticaNeue-Light" font-size="58.0" fill="#FEFFFE" transform="matrix(1.00, 0.00, -0.00, -1.00, 1432.5, 645.0)">i</text><text xml:space="preserve" font-family="HelveticaNeue-Light" font-size="58.0" fill="#FEFFFE" transform="matrix(1.00, 0.00, -0.00, -1.00, 1443.3, 645.0)">u</text><text xml:space="preserve" font-family="HelveticaNeue-Light" font-size="58.0" fill="#FEFFFE" transform="matrix(1.00, 0.00, -0.00, -1.00, 1474.4, 645.0)">m</text><g><clipPath id="clip-341"><path d="M 396.1 636.4 L 1522.9 636.4 L 1522.9 641.3 L 396.1 641.3 Z M 396.1 636.4 "></path></clipPath><g clip-path="url(#clip-341)"><path d="M 4.5 65.8 L 1130.2 65.8 " fill="none" stroke="#FEFFFE" stroke-width="2.90" stroke-miterlimit="0.00" transform="matrix(1.00, 0.00, 0.00, -1.00, 392.6, 704.6)"></path></g></g></g></svg>