<?xml version="1.0" encoding="UTF-8" standalone="no"?><svg xmlns="http://www.w3.org/2000/svg" xmlns:xlink="http://www.w3.org/1999/xlink" clip-rule="evenodd" stroke-miterlimit="4.00" viewBox="0 0 401 464"><desc>SVG generated by Keynote</desc><defs></defs><g transform="matrix(1.00, 0.00, -0.00, -1.00, 0.0, 464.0)"><g><clipPath id="clip-156"><path d="M 1.0 463.0 L 399.0 463.0 L 399.0 1.0 L 1.0 1.0 Z M 1.1 462.5 "></path></clipPath><g clip-path="url(#clip-156)"><g><clipPath id="clip-157"><path d="M 221.1 3.7 C 213.8 7.4 213.5 14.5 220.4 21.7 C 223.7 25.2 225.8 29.4 225.5 31.7 C 224.5 37.7 228.8 41.6 236.2 41.6 C 244.4 41.6 248.3 37.3 246.5 30.3 C 245.7 27.2 246.5 20.8 248.4 15.1 C 250.2 9.7 251.1 4.3 250.4 3.2 C 248.6 0.3 227.1 0.7 221.1 3.7 M 351.6 11.3 C 346.0 12.2 333.7 13.0 324.1 13.1 C 313.1 13.2 305.5 14.3 303.1 16.0 C 299.6 18.6 299.6 19.1 303.8 31.3 C 309.1 46.6 308.3 57.0 300.0 82.1 C 296.9 91.5 293.7 102.0 293.0 105.3 L 291.8 111.0 L 317.3 111.0 L 342.8 111.0 L 341.5 106.4 C 340.8 103.6 339.7 87.6 339.1 70.8 L 337.9 40.3 L 358.0 28.8 C 369.1 22.5 378.7 17.3 379.4 17.3 C 380.1 17.3 383.2 16.4 386.3 15.2 C 399.6 10.1 376.0 7.5 351.6 11.3 M 230.2 49.6 C 228.2 52.8 233.0 104.3 236.4 116.5 C 238.2 122.9 243.2 132.7 247.6 138.6 L 255.6 149.1 L 253.2 161.2 C 250.5 175.1 251.6 193.9 256.5 215.1 C 259.5 228.5 260.8 230.7 270.8 240.3 C 282.4 251.3 283.6 254.1 278.7 258.1 C 277.1 259.5 276.0 262.7 276.0 265.2 L 276.0 269.8 L 290.2 266.0 C 299.7 263.5 311.7 262.0 324.6 262.0 L 345.0 262.0 L 345.0 256.6 C 345.0 253.6 346.4 241.5 348.7 229.8 C 354.6 200.5 354.7 173.3 349.1 160.0 C 346.8 154.4 344.4 145.3 343.8 139.7 C 343.2 134.0 341.6 127.0 340.3 124.0 C 337.8 118.6 337.5 119.0 318.6 119.0 L 299.5 119.0 L 302.5 123.0 C 304.1 125.5 308.1 129.0 311.3 130.8 C 316.4 133.7 317.1 135.2 316.7 142.0 C 316.4 146.3 314.3 154.6 312.0 160.3 C 308.8 168.2 308.3 171.7 309.8 174.7 C 313.3 181.2 318.6 218.1 316.3 220.4 C 313.9 222.8 311.7 217.6 306.0 195.0 C 300.5 173.7 296.2 165.5 283.8 153.1 C 278.2 147.5 273.7 141.9 273.7 140.6 C 273.7 139.4 271.4 135.6 268.6 132.2 C 264.6 127.6 264.0 125.5 265.7 123.4 C 268.8 119.7 265.3 103.9 257.2 85.6 C 253.7 77.5 250.5 66.1 249.9 59.5 L 248.8 48.0 L 240.1 48.0 C 235.3 48.0 230.9 48.5 230.2 49.6 M 221.6 150.7 C 207.6 166.9 196.2 171.3 162.8 173.2 C 145.4 174.2 132.3 175.9 127.7 177.9 C 109.7 185.7 101.6 199.0 97.9 226.9 C 95.5 245.4 90.8 260.6 85.2 268.5 C 82.3 272.7 82.0 274.3 84.0 276.0 C 85.3 277.1 104.2 286.8 125.9 297.5 L 165.4 317.0 L 166.6 311.3 C 170.1 294.7 180.0 285.0 208.5 270.3 C 230.5 258.9 232.8 256.7 241.1 238.4 C 242.3 235.9 243.9 233.8 244.8 233.8 C 245.6 233.8 247.5 233.0 249.0 232.1 C 251.1 230.7 250.9 228.1 247.6 218.5 C 241.8 201.1 238.8 175.8 240.9 162.1 C 242.5 152.2 242.2 150.0 238.8 145.7 C 236.7 143.0 233.9 140.8 232.5 140.8 C 231.2 140.8 226.3 145.2 221.6 150.7 M 1.5 235.1 C 4.5 248.7 19.2 274.8 31.3 287.6 C 57.6 315.8 118.9 348.7 177.6 366.3 C 187.6 369.2 196.8 372.0 198.0 372.4 C 202.4 373.8 198.2 363.1 193.7 361.3 C 187.3 358.9 181.6 350.9 178.6 340.2 C 177.2 335.1 175.2 331.0 174.3 331.0 C 171.3 331.0 101.4 297.5 79.4 285.5 C 52.2 270.8 28.1 254.5 12.5 240.4 C 0.9 229.8 0.3 229.6 1.5 235.1 M 360.7 236.5 C 354.5 239.6 350.6 252.3 354.4 256.9 C 355.8 258.5 360.5 260.5 365.0 261.2 C 374.6 262.8 376.6 266.4 371.9 273.5 C 369.8 276.7 368.7 281.7 369.1 286.8 C 369.5 293.2 368.8 295.4 365.7 297.1 C 363.5 298.2 361.5 299.4 361.2 299.6 C 360.9 299.8 362.4 304.0 364.7 308.9 C 366.9 313.8 368.7 320.2 368.7 323.1 C 368.8 326.0 370.6 330.0 372.8 332.0 C 378.1 336.8 378.1 348.2 372.8 356.9 C 367.4 365.8 364.7 363.5 366.1 351.2 C 367.5 339.5 367.2 339.3 350.6 345.2 C 337.2 349.9 320.2 350.2 301.0 346.1 C 280.1 341.7 275.5 342.2 263.9 350.2 L 253.6 357.2 L 250.5 352.8 C 248.8 350.3 247.4 346.6 247.4 344.6 C 247.4 338.7 239.6 325.3 234.2 321.7 C 231.1 319.7 227.3 318.9 224.2 319.6 C 219.1 320.9 215.3 318.1 219.1 315.8 C 220.2 315.1 224.7 307.5 229.0 299.0 C 241.2 274.8 247.6 267.0 256.6 265.6 C 264.3 264.3 273.7 257.4 273.7 252.9 C 273.7 249.4 260.0 237.9 255.8 237.9 C 250.5 237.9 241.3 248.4 241.3 254.4 C 241.3 260.2 236.7 263.8 209.5 279.3 C 191.1 289.8 183.8 297.1 180.8 308.0 C 179.0 314.3 179.6 316.7 185.8 328.3 C 189.6 335.5 192.7 343.1 192.7 345.0 C 192.7 349.6 199.0 355.3 204.2 355.3 C 209.5 355.3 211.4 357.3 208.8 360.4 C 203.6 366.8 215.8 380.5 228.8 382.8 C 238.7 384.6 243.7 387.4 242.0 390.1 C 241.1 391.6 242.9 392.0 247.9 391.2 C 252.9 390.3 256.0 390.9 257.6 392.9 C 260.9 396.9 267.4 396.5 276.8 391.7 C 287.4 386.2 292.3 388.0 285.1 394.7 C 282.1 397.4 279.7 401.0 279.7 402.7 C 279.7 406.8 281.5 406.7 286.1 402.5 C 291.5 397.6 308.0 396.6 315.8 400.6 L 322.0 403.9 L 322.0 396.1 C 322.0 386.4 323.2 385.5 330.4 388.0 C 336.7 390.2 342.1 388.3 350.1 381.0 C 352.6 378.7 354.6 377.6 354.6 378.4 C 354.6 379.3 356.0 378.9 357.7 377.5 C 359.9 375.7 360.1 374.3 358.6 372.4 C 355.8 369.0 359.9 366.4 367.0 367.1 C 379.1 368.4 390.1 350.9 385.5 337.6 C 384.1 333.4 384.5 330.0 387.3 323.9 C 392.2 313.0 392.0 309.4 385.9 303.8 C 380.2 298.5 381.0 297.0 389.8 297.1 C 392.9 297.1 396.3 295.8 397.3 294.3 C 400.6 289.2 399.2 278.3 394.0 268.7 C 375.7 234.6 375.2 233.9 368.8 233.9 C 367.1 233.9 363.5 235.1 360.7 236.5 M 299.0 271.1 C 286.9 274.9 278.1 280.0 275.8 284.3 C 272.7 289.9 273.2 297.7 276.7 300.6 C 280.9 304.1 278.6 306.7 271.4 306.7 C 267.3 306.7 262.9 309.0 257.3 314.3 L 249.2 321.9 L 252.3 329.4 C 254.0 333.5 255.0 339.2 255.0 342.0 L 255.0 347.1 L 262.8 342.1 C 274.6 334.0 282.4 332.8 297.7 336.3 C 313.7 340.1 342.6 339.3 351.6 334.8 C 356.7 332.3 357.6 330.8 357.1 325.2 C 356.8 321.6 354.4 313.3 351.6 306.8 C 348.9 300.3 345.9 289.2 345.1 282.1 L 343.5 269.0 L 325.3 269.0 C 314.8 268.8 303.6 269.6 299.0 271.1 M 257.2 271.9 C 253.6 272.3 250.1 275.0 246.9 280.0 C 240.3 290.0 232.8 310.3 235.2 311.7 C 236.2 312.4 242.5 308.7 249.2 303.5 C 259.8 295.2 261.5 293.0 262.6 285.4 C 264.4 273.5 263.5 271.2 257.2 271.9 M 364.4 374.9 C 365.8 375.5 367.6 375.4 368.2 374.7 C 368.9 374.0 367.7 373.6 365.6 373.6 C 363.2 373.7 362.7 374.2 364.4 374.9 M 287.5 410.4 C 283.8 417.5 282.5 458.5 286.0 460.7 C 290.5 463.5 314.9 462.9 319.1 459.8 C 322.4 457.4 322.7 454.8 321.8 436.7 C 320.5 409.2 318.3 405.9 302.0 405.9 C 291.6 405.9 289.7 406.5 287.5 410.4 "></path></clipPath><g clip-path="url(#clip-157)"><image xlink:href="A21D2F77BDEB84E688E75014E855AD0B.png" width="512.00" height="512.00" transform="matrix(1.00, 0.00, -0.00, -1.00, -16.0, 487.0)"></image></g></g></g></g></g></svg>