<?xml version="1.0" encoding="UTF-8" standalone="no"?><svg xmlns="http://www.w3.org/2000/svg" xmlns:xlink="http://www.w3.org/1999/xlink" clip-rule="evenodd" stroke-miterlimit="4.00" viewBox="0 0 1920 1080"><desc>SVG generated by Keynote</desc><defs></defs><g transform="matrix(1.00, 0.00, -0.00, -1.00, 0.0, 1080.0)"><g><clipPath id="clip-160"><path d="M 0.0 1080.0 L 1920.0 1080.0 L 1920.0 0.0 L 0.0 0.0 Z M 0.0 1080.0 "></path></clipPath><g clip-path="url(#clip-160)"><image xlink:href="../../A172C229-966A-4E8A-A457-DFB78DE74FB5/assets/4B0075050CC9D0F3DC006F0CDE78D676.jpeg" width="1365.00" height="767.00" transform="matrix(1.41, 0.00, -0.00, -1.41, 0.0, 1080.0)"></image></g></g><image xlink:href="../../BA8823DC-31EE-477B-B094-8CADCFCB1586/assets/CE405161B0F27CA5CDD6DAB9A0A12266.png" width="757.00" height="83.00" transform="matrix(1.00, 0.00, -0.00, -1.00, 116.0, 953.0)"></image><text xml:space="preserve" font-family="HelveticaNeue-Light" font-size="100.0" fill="#FEFFFE" transform="matrix(1.00, 0.00, -0.00, -1.00, 120.0, 879.0)">W</text><text xml:space="preserve" font-family="HelveticaNeue-Light" font-size="100.0" fill="#FEFFFE" transform="matrix(1.00, 0.00, -0.00, -1.00, 210.7, 879.0)">h</text><text xml:space="preserve" font-family="HelveticaNeue-Light" font-size="100.0" fill="#FEFFFE" transform="matrix(1.00, 0.00, -0.00, -1.00, 264.4, 879.0)">a</text><text xml:space="preserve" font-family="HelveticaNeue-Light" font-size="100.0" fill="#FEFFFE" transform="matrix(1.00, 0.00, -0.00, -1.00, 316.3, 879.0)">t</text><text xml:space="preserve" font-family="HelveticaNeue-Light" font-size="100.0" fill="#FEFFFE" transform="matrix(1.00, 0.00, -0.00, -1.00, 345.9, 879.0)"> </text><text xml:space="preserve" font-family="HelveticaNeue-Light" font-size="100.0" fill="#FEFFFE" transform="matrix(1.00, 0.00, -0.00, -1.00, 373.7, 879.0)">i</text><text xml:space="preserve" font-family="HelveticaNeue-Light" font-size="100.0" fill="#FEFFFE" transform="matrix(1.00, 0.00, -0.00, -1.00, 392.2, 879.0)">s</text><text xml:space="preserve" font-family="HelveticaNeue-Light" font-size="100.0" fill="#FEFFFE" transform="matrix(1.00, 0.00, -0.00, -1.00, 440.3, 879.0)"> </text><text xml:space="preserve" font-family="HelveticaNeue-Light" font-size="100.0" fill="#FEFFFE" transform="matrix(1.00, 0.00, -0.00, -1.00, 468.1, 879.0)">T</text><text xml:space="preserve" font-family="HelveticaNeue-Light" font-size="100.0" fill="#FEFFFE" transform="matrix(1.00, 0.00, -0.00, -1.00, 523.7, 879.0)">h</text><text xml:space="preserve" font-family="HelveticaNeue-Light" font-size="100.0" fill="#FEFFFE" transform="matrix(1.00, 0.00, -0.00, -1.00, 577.4, 879.0)">o</text><text xml:space="preserve" font-family="HelveticaNeue-Light" font-size="100.0" fill="#FEFFFE" transform="matrix(1.00, 0.00, -0.00, -1.00, 633.0, 879.0)">r</text><text xml:space="preserve" font-family="HelveticaNeue-Light" font-size="100.0" fill="#FEFFFE" transform="matrix(1.00, 0.00, -0.00, -1.00, 664.5, 879.0)">i</text><text xml:space="preserve" font-family="HelveticaNeue-Light" font-size="100.0" fill="#FEFFFE" transform="matrix(1.00, 0.00, -0.00, -1.00, 683.0, 879.0)">u</text><text xml:space="preserve" font-family="HelveticaNeue-Light" font-size="100.0" fill="#FEFFFE" transform="matrix(1.00, 0.00, -0.00, -1.00, 736.7, 879.0)">m</text><text xml:space="preserve" font-family="HelveticaNeue-Light" font-size="100.0" fill="#FEFFFE" transform="matrix(1.00, 0.00, -0.00, -1.00, 820.0, 879.0)">?</text><image xlink:href="../../7C8B3ACE-4E10-4C72-BB87-19FFF49BB2E2/assets/CA842691EEC31AE386E5F5C3732B001D.png" width="16.00" height="17.00" transform="matrix(1.00, 0.00, -0.00, -1.00, 120.0, 746.0)"></image><g><clipPath id="clip-161"><path d="M 120.0 729.7 L 135.7 729.7 L 135.7 745.4 L 120.0 745.4 Z M 120.0 729.7 "></path></clipPath><g clip-path="url(#clip-161)"><g><g><clipPath id="clip-162"><path d="M 120.0 745.4 L 135.7 745.4 L 135.7 729.7 L 120.0 729.7 Z M 120.0 745.4 "></path></clipPath><g clip-path="url(#clip-162)"><g><clipPath id="clip-163"><path d="M 116.0 722.0 L 140.0 722.0 L 140.0 753.0 L 116.0 753.0 Z M 116.0 722.0 "></path></clipPath><g clip-path="url(#clip-163)"><path d="M 135.7 742.3 C 135.7 743.0 135.3 743.6 134.7 744.4 C 134.0 745.1 133.3 745.4 132.5 745.4 C 132.2 745.4 131.7 745.2 130.9 744.9 C 129.7 744.3 128.6 744.0 127.8 744.0 C 126.9 744.0 125.9 744.3 124.7 744.9 C 124.0 745.2 123.4 745.4 123.1 745.4 C 122.3 745.4 121.6 745.1 121.0 744.4 C 120.3 743.7 120.0 743.0 120.0 742.3 C 120.0 741.9 120.2 741.3 120.6 740.5 C 121.1 739.4 121.3 738.4 121.3 737.5 C 121.3 736.7 121.1 735.7 120.6 734.5 C 120.2 733.7 120.0 733.2 120.0 732.8 C 120.0 732.1 120.3 731.4 121.0 730.7 C 121.6 730.0 122.3 729.7 123.1 729.7 C 123.4 729.7 124.0 729.9 124.7 730.2 C 125.9 730.8 126.9 731.1 127.8 731.1 C 128.6 731.1 129.7 730.8 130.9 730.2 C 131.7 729.9 132.2 729.7 132.5 729.7 C 133.3 729.7 134.0 730.0 134.7 730.7 C 135.3 731.4 135.7 732.1 135.7 732.8 C 135.7 733.2 135.5 733.7 135.1 734.5 C 134.5 735.7 134.3 736.7 134.3 737.5 C 134.3 738.4 134.5 739.4 135.1 740.5 C 135.5 741.3 135.7 741.9 135.7 742.3 " fill="#FFFFFF"></path></g></g></g></g></g></g></g><image xlink:href="../../7C8B3ACE-4E10-4C72-BB87-19FFF49BB2E2/assets/114F0D147379D1E4461DF3ACAD7CBC53.png" width="286.00" height="41.00" transform="matrix(1.00, 0.00, -0.00, -1.00, 163.0, 756.0)"></image><text xml:space="preserve" font-family="HelveticaNeue-Light" font-size="44.5" fill="#FEFFFE" transform="matrix(1.00, 0.00, -0.00, -1.00, 164.0, 723.0)">R</text><text xml:space="preserve" font-family="HelveticaNeue-Light" font-size="44.5" fill="#FEFFFE" transform="matrix(1.00, 0.00, -0.00, -1.00, 193.7, 723.0)">e</text><text xml:space="preserve" font-family="HelveticaNeue-Light" font-size="44.5" fill="#FEFFFE" transform="matrix(1.00, 0.00, -0.00, -1.00, 216.8, 723.0)">a</text><text xml:space="preserve" font-family="HelveticaNeue-Light" font-size="44.5" fill="#FEFFFE" transform="matrix(1.00, 0.00, -0.00, -1.00, 239.9, 723.0)">c</text><text xml:space="preserve" font-family="HelveticaNeue-Light" font-size="44.5" fill="#FEFFFE" transform="matrix(1.00, 0.00, -0.00, -1.00, 263.0, 723.0)">t</text><text xml:space="preserve" font-family="HelveticaNeue-Light" font-size="44.5" fill="#FEFFFE" transform="matrix(1.00, 0.00, -0.00, -1.00, 276.1, 723.0)"> </text><text xml:space="preserve" font-family="HelveticaNeue-Light" font-size="44.5" fill="#FEFFFE" transform="matrix(1.00, 0.00, -0.00, -1.00, 288.5, 723.0)">f</text><text xml:space="preserve" font-family="HelveticaNeue-Light" font-size="44.5" fill="#FEFFFE" transform="matrix(1.00, 0.00, -0.00, -1.00, 300.0, 723.0)">r</text><text xml:space="preserve" font-family="HelveticaNeue-Light" font-size="44.5" fill="#FEFFFE" transform="matrix(1.00, 0.00, -0.00, -1.00, 313.3, 723.0)">o</text><text xml:space="preserve" font-family="HelveticaNeue-Light" font-size="44.5" fill="#FEFFFE" transform="matrix(1.00, 0.00, -0.00, -1.00, 338.0, 723.0)">n</text><text xml:space="preserve" font-family="HelveticaNeue-Light" font-size="44.5" fill="#FEFFFE" transform="matrix(1.00, 0.00, -0.00, -1.00, 361.9, 723.0)">t</text><text xml:space="preserve" font-family="HelveticaNeue-Light" font-size="44.5" fill="#FEFFFE" transform="matrix(1.00, 0.00, -0.00, -1.00, 375.1, 723.0)">e</text><text xml:space="preserve" font-family="HelveticaNeue-Light" font-size="44.5" fill="#FEFFFE" transform="matrix(1.00, 0.00, -0.00, -1.00, 398.2, 723.0)">n</text><text xml:space="preserve" font-family="HelveticaNeue-Light" font-size="44.5" fill="#FEFFFE" transform="matrix(1.00, 0.00, -0.00, -1.00, 422.1, 723.0)">d</text><text xml:space="preserve" font-family="HelveticaNeue-Light" font-size="44.5" fill="#FEFFFE" transform="matrix(1.00, 0.00, -0.00, -1.00, 447.6, 723.0)"> </text><image xlink:href="../../7C8B3ACE-4E10-4C72-BB87-19FFF49BB2E2/assets/66D441CBAB14CE7FD6A231CA8729368C.png" width="16.00" height="17.00" transform="matrix(1.00, 0.00, -0.00, -1.00, 120.0, 648.0)"></image><g><clipPath id="clip-164"><path d="M 120.0 631.3 L 135.7 631.3 L 135.7 647.0 L 120.0 647.0 Z M 120.0 631.3 "></path></clipPath><g clip-path="url(#clip-164)"><g><g><clipPath id="clip-165"><path d="M 120.0 647.0 L 135.7 647.0 L 135.7 631.3 L 120.0 631.3 Z M 120.0 647.0 "></path></clipPath><g clip-path="url(#clip-165)"><g><clipPath id="clip-166"><path d="M 116.0 624.0 L 140.0 624.0 L 140.0 655.0 L 116.0 655.0 Z M 116.0 624.0 "></path></clipPath><g clip-path="url(#clip-166)"><path d="M 135.7 643.9 C 135.7 644.6 135.3 645.3 134.7 646.0 C 134.0 646.7 133.3 647.0 132.5 647.0 C 132.2 647.0 131.7 646.8 130.9 646.5 C 129.7 645.9 128.6 645.6 127.8 645.6 C 126.9 645.6 125.9 645.9 124.7 646.5 C 124.0 646.8 123.4 647.0 123.1 647.0 C 122.3 647.0 121.6 646.7 121.0 646.0 C 120.3 645.3 120.0 644.6 120.0 643.9 C 120.0 643.5 120.2 642.9 120.6 642.1 C 121.1 641.0 121.3 640.0 121.3 639.2 C 121.3 638.3 121.1 637.3 120.6 636.1 C 120.2 635.3 120.0 634.8 120.0 634.4 C 120.0 633.7 120.3 633.0 121.0 632.3 C 121.6 631.6 122.3 631.3 123.1 631.3 C 123.4 631.3 124.0 631.5 124.7 631.8 C 125.9 632.4 126.9 632.7 127.8 632.7 C 128.6 632.7 129.7 632.4 130.9 631.8 C 131.7 631.5 132.2 631.3 132.5 631.3 C 133.3 631.3 134.0 631.6 134.7 632.3 C 135.3 633.0 135.7 633.7 135.7 634.4 C 135.7 634.8 135.5 635.3 135.1 636.1 C 134.5 637.3 134.3 638.3 134.3 639.2 C 134.3 640.0 134.5 641.0 135.1 642.1 C 135.5 642.9 135.7 643.5 135.7 643.9 " fill="#FFFFFF"></path></g></g></g></g></g></g></g><image xlink:href="../../7C8B3ACE-4E10-4C72-BB87-19FFF49BB2E2/assets/230D3E78C91D2442CFF10D7715291B18.png" width="445.00" height="50.00" transform="matrix(1.00, 0.00, -0.00, -1.00, 159.0, 658.0)"></image><text xml:space="preserve" font-family="HelveticaNeue-Light" font-size="44.5" fill="#FEFFFE" transform="matrix(1.00, 0.00, -0.00, -1.00, 164.0, 624.0)">A</text><text xml:space="preserve" font-family="HelveticaNeue-Light" font-size="44.5" fill="#FEFFFE" transform="matrix(1.00, 0.00, -0.00, -1.00, 192.0, 624.0)">p</text><text xml:space="preserve" font-family="HelveticaNeue-Light" font-size="44.5" fill="#FEFFFE" transform="matrix(1.00, 0.00, -0.00, -1.00, 217.6, 624.0)">o</text><text xml:space="preserve" font-family="HelveticaNeue-Light" font-size="44.5" fill="#FEFFFE" transform="matrix(1.00, 0.00, -0.00, -1.00, 242.3, 624.0)">l</text><text xml:space="preserve" font-family="HelveticaNeue-Light" font-size="44.5" fill="#FEFFFE" transform="matrix(1.00, 0.00, -0.00, -1.00, 250.6, 624.0)">l</text><text xml:space="preserve" font-family="HelveticaNeue-Light" font-size="44.5" fill="#FEFFFE" transform="matrix(1.00, 0.00, -0.00, -1.00, 258.8, 624.0)">o</text><text xml:space="preserve" font-family="HelveticaNeue-Light" font-size="44.5" fill="#FEFFFE" transform="matrix(1.00, 0.00, -0.00, -1.00, 283.5, 624.0)">-</text><text xml:space="preserve" font-family="HelveticaNeue-Light" font-size="44.5" fill="#FEFFFE" transform="matrix(1.00, 0.00, -0.00, -1.00, 300.0, 624.0)">C</text><text xml:space="preserve" font-family="HelveticaNeue-Light" font-size="44.5" fill="#FEFFFE" transform="matrix(1.00, 0.00, -0.00, -1.00, 331.3, 624.0)">l</text><text xml:space="preserve" font-family="HelveticaNeue-Light" font-size="44.5" fill="#FEFFFE" transform="matrix(1.00, 0.00, -0.00, -1.00, 339.6, 624.0)">i</text><text xml:space="preserve" font-family="HelveticaNeue-Light" font-size="44.5" fill="#FEFFFE" transform="matrix(1.00, 0.00, -0.00, -1.00, 347.8, 624.0)">e</text><text xml:space="preserve" font-family="HelveticaNeue-Light" font-size="44.5" fill="#FEFFFE" transform="matrix(1.00, 0.00, -0.00, -1.00, 370.9, 624.0)">n</text><text xml:space="preserve" font-family="HelveticaNeue-Light" font-size="44.5" fill="#FEFFFE" transform="matrix(1.00, 0.00, -0.00, -1.00, 394.8, 624.0)">t</text><text xml:space="preserve" font-family="HelveticaNeue-Light" font-size="44.5" fill="#FEFFFE" transform="matrix(1.00, 0.00, -0.00, -1.00, 407.9, 624.0)"> </text><text xml:space="preserve" font-family="HelveticaNeue-Light" font-size="44.5" fill="#FEFFFE" transform="matrix(1.00, 0.00, -0.00, -1.00, 420.3, 624.0)">d</text><text xml:space="preserve" font-family="HelveticaNeue-Light" font-size="44.5" fill="#FEFFFE" transform="matrix(1.00, 0.00, -0.00, -1.00, 445.9, 624.0)">a</text><text xml:space="preserve" font-family="HelveticaNeue-Light" font-size="44.5" fill="#FEFFFE" transform="matrix(1.00, 0.00, -0.00, -1.00, 469.0, 624.0)">t</text><text xml:space="preserve" font-family="HelveticaNeue-Light" font-size="44.5" fill="#FEFFFE" transform="matrix(1.00, 0.00, -0.00, -1.00, 482.1, 624.0)">a</text><text xml:space="preserve" font-family="HelveticaNeue-Light" font-size="44.5" fill="#FEFFFE" transform="matrix(1.00, 0.00, -0.00, -1.00, 505.2, 624.0)">s</text><text xml:space="preserve" font-family="HelveticaNeue-Light" font-size="44.5" fill="#FEFFFE" transform="matrix(1.00, 0.00, -0.00, -1.00, 526.6, 624.0)">t</text><text xml:space="preserve" font-family="HelveticaNeue-Light" font-size="44.5" fill="#FEFFFE" transform="matrix(1.00, 0.00, -0.00, -1.00, 539.8, 624.0)">o</text><text xml:space="preserve" font-family="HelveticaNeue-Light" font-size="44.5" fill="#FEFFFE" transform="matrix(1.00, 0.00, -0.00, -1.00, 564.5, 624.0)">r</text><text xml:space="preserve" font-family="HelveticaNeue-Light" font-size="44.5" fill="#FEFFFE" transform="matrix(1.00, 0.00, -0.00, -1.00, 577.8, 624.0)">e</text><text xml:space="preserve" font-family="HelveticaNeue-Light" font-size="44.5" fill="#FEFFFE" transform="matrix(1.00, 0.00, -0.00, -1.00, 600.9, 624.0)"> </text><text xml:space="preserve" font-family="HelveticaNeue-Light" font-size="44.5" fill="#FEFFFE" transform="matrix(1.00, 0.00, -0.00, -1.00, 613.2, 624.0)"> </text><image xlink:href="../../7C8B3ACE-4E10-4C72-BB87-19FFF49BB2E2/assets/FDA31D14C6885FC4A34BA57E75E6E9C8.png" width="8.00" height="8.00" transform="matrix(1.00, 0.00, -0.00, -1.00, 170.0, 556.0)"></image><g><clipPath id="clip-167"><path d="M 170.0 548.1 L 177.8 548.1 L 177.8 555.9 L 170.0 555.9 Z M 170.0 548.1 "></path></clipPath><g clip-path="url(#clip-167)"><g><g><clipPath id="clip-168"><path d="M 170.0 555.9 L 177.8 555.9 L 177.8 548.1 L 170.0 548.1 Z M 170.0 555.9 "></path></clipPath><g clip-path="url(#clip-168)"><g><clipPath id="clip-169"><path d="M 166.0 541.0 L 182.0 541.0 L 182.0 563.0 L 166.0 563.0 Z M 166.0 541.0 "></path></clipPath><g clip-path="url(#clip-169)"><path d="M 177.8 554.4 C 177.8 554.7 177.7 555.0 177.3 555.4 C 177.0 555.8 176.7 555.9 176.3 555.9 C 176.1 555.9 175.8 555.8 175.4 555.7 C 174.8 555.4 174.3 555.2 173.9 555.2 C 173.5 555.2 172.9 555.4 172.4 555.7 C 172.0 555.8 171.7 555.9 171.5 555.9 C 171.2 555.9 170.8 555.8 170.5 555.4 C 170.2 555.1 170.0 554.7 170.0 554.4 C 170.0 554.2 170.1 553.9 170.3 553.5 C 170.5 552.9 170.7 552.4 170.7 552.0 C 170.7 551.6 170.5 551.1 170.3 550.5 C 170.1 550.1 170.0 549.8 170.0 549.6 C 170.0 549.3 170.2 548.9 170.5 548.6 C 170.8 548.2 171.2 548.1 171.5 548.1 C 171.7 548.1 172.0 548.1 172.4 548.3 C 172.9 548.6 173.5 548.8 173.9 548.8 C 174.3 548.8 174.8 548.6 175.4 548.3 C 175.8 548.1 176.1 548.1 176.3 548.1 C 176.7 548.1 177.0 548.2 177.3 548.6 C 177.7 548.9 177.8 549.3 177.8 549.6 C 177.8 549.8 177.7 550.1 177.6 550.5 C 177.3 551.1 177.1 551.6 177.1 552.0 C 177.1 552.4 177.3 552.9 177.6 553.5 C 177.7 553.9 177.8 554.2 177.8 554.4 " fill="#FFFFFF"></path></g></g></g></g></g></g></g><image xlink:href="../../7C8B3ACE-4E10-4C72-BB87-19FFF49BB2E2/assets/1C46E4DACF961732325FD83717EC682D.png" width="167.00" height="25.00" transform="matrix(1.00, 0.00, -0.00, -1.00, 211.0, 563.0)"></image><text xml:space="preserve" font-family="HelveticaNeue-Light" font-size="22.2" fill="#FEFFFE" transform="matrix(1.00, 0.00, -0.00, -1.00, 214.0, 546.0)">B</text><text xml:space="preserve" font-family="HelveticaNeue-Light" font-size="22.2" fill="#FEFFFE" transform="matrix(1.00, 0.00, -0.00, -1.00, 228.8, 546.0)">a</text><text xml:space="preserve" font-family="HelveticaNeue-Light" font-size="22.2" fill="#FEFFFE" transform="matrix(1.00, 0.00, -0.00, -1.00, 240.4, 546.0)">s</text><text xml:space="preserve" font-family="HelveticaNeue-Light" font-size="22.2" fill="#FEFFFE" transform="matrix(1.00, 0.00, -0.00, -1.00, 251.1, 546.0)">e</text><text xml:space="preserve" font-family="HelveticaNeue-Light" font-size="22.2" fill="#FEFFFE" transform="matrix(1.00, 0.00, -0.00, -1.00, 262.6, 546.0)">d</text><text xml:space="preserve" font-family="HelveticaNeue-Light" font-size="22.2" fill="#FEFFFE" transform="matrix(1.00, 0.00, -0.00, -1.00, 275.4, 546.0)"> </text><text xml:space="preserve" font-family="HelveticaNeue-Light" font-size="22.2" fill="#FEFFFE" transform="matrix(1.00, 0.00, -0.00, -1.00, 281.6, 546.0)">o</text><text xml:space="preserve" font-family="HelveticaNeue-Light" font-size="22.2" fill="#FEFFFE" transform="matrix(1.00, 0.00, -0.00, -1.00, 294.0, 546.0)">n</text><text xml:space="preserve" font-family="HelveticaNeue-Light" font-size="22.2" fill="#FEFFFE" transform="matrix(1.00, 0.00, -0.00, -1.00, 305.9, 546.0)"> </text><text xml:space="preserve" font-family="HelveticaNeue-Light" font-size="22.2" fill="#FEFFFE" transform="matrix(1.00, 0.00, -0.00, -1.00, 312.1, 546.0)">R</text><text xml:space="preserve" font-family="HelveticaNeue-Light" font-size="22.2" fill="#FEFFFE" transform="matrix(1.00, 0.00, -0.00, -1.00, 326.9, 546.0)">e</text><text xml:space="preserve" font-family="HelveticaNeue-Light" font-size="22.2" fill="#FEFFFE" transform="matrix(1.00, 0.00, -0.00, -1.00, 338.5, 546.0)">d</text><text xml:space="preserve" font-family="HelveticaNeue-Light" font-size="22.2" fill="#FEFFFE" transform="matrix(1.00, 0.00, -0.00, -1.00, 351.3, 546.0)">u</text><text xml:space="preserve" font-family="HelveticaNeue-Light" font-size="22.2" fill="#FEFFFE" transform="matrix(1.00, 0.00, -0.00, -1.00, 363.2, 546.0)">x</text><text xml:space="preserve" font-family="HelveticaNeue-Light" font-size="22.2" fill="#FEFFFE" transform="matrix(1.00, 0.00, -0.00, -1.00, 373.9, 546.0)"> </text><image xlink:href="../../7C8B3ACE-4E10-4C72-BB87-19FFF49BB2E2/assets/1C55DFE55FE34B2F9F20557FDCC13893.png" width="16.00" height="17.00" transform="matrix(1.00, 0.00, -0.00, -1.00, 120.0, 476.0)"></image><g><clipPath id="clip-170"><path d="M 120.0 459.5 L 135.7 459.5 L 135.7 475.3 L 120.0 475.3 Z M 120.0 459.5 "></path></clipPath><g clip-path="url(#clip-170)"><g><g><clipPath id="clip-171"><path d="M 120.0 475.3 L 135.7 475.3 L 135.7 459.5 L 120.0 459.5 Z M 120.0 475.3 "></path></clipPath><g clip-path="url(#clip-171)"><g><clipPath id="clip-172"><path d="M 116.0 452.0 L 140.0 452.0 L 140.0 483.0 L 116.0 483.0 Z M 116.0 452.0 "></path></clipPath><g clip-path="url(#clip-172)"><path d="M 135.7 472.1 C 135.7 472.8 135.3 473.5 134.7 474.2 C 134.0 474.9 133.3 475.3 132.5 475.3 C 132.2 475.3 131.7 475.1 130.9 474.7 C 129.7 474.1 128.6 473.8 127.8 473.8 C 126.9 473.8 125.9 474.1 124.7 474.7 C 124.0 475.1 123.4 475.3 123.1 475.3 C 122.3 475.3 121.6 474.9 121.0 474.2 C 120.3 473.5 120.0 472.8 120.0 472.1 C 120.0 471.7 120.2 471.2 120.6 470.4 C 121.1 469.2 121.3 468.2 121.3 467.4 C 121.3 466.5 121.1 465.5 120.6 464.3 C 120.2 463.6 120.0 463.0 120.0 462.7 C 120.0 461.9 120.3 461.2 121.0 460.5 C 121.6 459.8 122.3 459.5 123.1 459.5 C 123.4 459.5 124.0 459.7 124.7 460.1 C 125.9 460.6 126.9 460.9 127.8 460.9 C 128.6 460.9 129.7 460.6 130.9 460.1 C 131.7 459.7 132.2 459.5 132.5 459.5 C 133.3 459.5 134.0 459.8 134.7 460.5 C 135.3 461.2 135.7 461.9 135.7 462.7 C 135.7 463.0 135.5 463.6 135.1 464.3 C 134.5 465.5 134.3 466.5 134.3 467.4 C 134.3 468.2 134.5 469.2 135.1 470.4 C 135.5 471.2 135.7 471.7 135.7 472.1 " fill="#FFFFFF"></path></g></g></g></g></g></g></g><image xlink:href="../../7C8B3ACE-4E10-4C72-BB87-19FFF49BB2E2/assets/9BB343846909882D580C9A35E90F8D8E.png" width="667.00" height="50.00" transform="matrix(1.00, 0.00, -0.00, -1.00, 161.0, 487.0)"></image><text xml:space="preserve" font-family="HelveticaNeue-Light" font-size="44.5" fill="#FEFFFE" transform="matrix(1.00, 0.00, -0.00, -1.00, 164.0, 453.0)">G</text><text xml:space="preserve" font-family="HelveticaNeue-Light" font-size="44.5" fill="#FEFFFE" transform="matrix(1.00, 0.00, -0.00, -1.00, 197.0, 453.0)">r</text><text xml:space="preserve" font-family="HelveticaNeue-Light" font-size="44.5" fill="#FEFFFE" transform="matrix(1.00, 0.00, -0.00, -1.00, 211.0, 453.0)">a</text><text xml:space="preserve" font-family="HelveticaNeue-Light" font-size="44.5" fill="#FEFFFE" transform="matrix(1.00, 0.00, -0.00, -1.00, 234.1, 453.0)">p</text><text xml:space="preserve" font-family="HelveticaNeue-Light" font-size="44.5" fill="#FEFFFE" transform="matrix(1.00, 0.00, -0.00, -1.00, 259.6, 453.0)">h</text><text xml:space="preserve" font-family="HelveticaNeue-Light" font-size="44.5" fill="#FEFFFE" transform="matrix(1.00, 0.00, -0.00, -1.00, 283.5, 453.0)">Q</text><text xml:space="preserve" font-family="HelveticaNeue-Light" font-size="44.5" fill="#FEFFFE" transform="matrix(1.00, 0.00, -0.00, -1.00, 316.5, 453.0)">L</text><text xml:space="preserve" font-family="HelveticaNeue-Light" font-size="44.5" fill="#FEFFFE" transform="matrix(1.00, 0.00, -0.00, -1.00, 340.4, 453.0)"> </text><text xml:space="preserve" font-family="HelveticaNeue-Light" font-size="44.5" fill="#FEFFFE" transform="matrix(1.00, 0.00, -0.00, -1.00, 352.8, 453.0)">f</text><text xml:space="preserve" font-family="HelveticaNeue-Light" font-size="44.5" fill="#FEFFFE" transform="matrix(1.00, 0.00, -0.00, -1.00, 364.3, 453.0)">o</text><text xml:space="preserve" font-family="HelveticaNeue-Light" font-size="44.5" fill="#FEFFFE" transform="matrix(1.00, 0.00, -0.00, -1.00, 389.0, 453.0)">r</text><text xml:space="preserve" font-family="HelveticaNeue-Light" font-size="44.5" fill="#FEFFFE" transform="matrix(1.00, 0.00, -0.00, -1.00, 403.1, 453.0)"> </text><text xml:space="preserve" font-family="HelveticaNeue-Light" font-size="44.5" fill="#FEFFFE" transform="matrix(1.00, 0.00, -0.00, -1.00, 415.4, 453.0)">t</text><text xml:space="preserve" font-family="HelveticaNeue-Light" font-size="44.5" fill="#FEFFFE" transform="matrix(1.00, 0.00, -0.00, -1.00, 428.6, 453.0)">h</text><text xml:space="preserve" font-family="HelveticaNeue-Light" font-size="44.5" fill="#FEFFFE" transform="matrix(1.00, 0.00, -0.00, -1.00, 452.5, 453.0)">e</text><text xml:space="preserve" font-family="HelveticaNeue-Light" font-size="44.5" fill="#FEFFFE" transform="matrix(1.00, 0.00, -0.00, -1.00, 475.6, 453.0)"> </text><text xml:space="preserve" font-family="HelveticaNeue-Light" font-size="44.5" fill="#FEFFFE" transform="matrix(1.00, 0.00, -0.00, -1.00, 488.0, 453.0)">d</text><text xml:space="preserve" font-family="HelveticaNeue-Light" font-size="44.5" fill="#FEFFFE" transform="matrix(1.00, 0.00, -0.00, -1.00, 513.5, 453.0)">a</text><text xml:space="preserve" font-family="HelveticaNeue-Light" font-size="44.5" fill="#FEFFFE" transform="matrix(1.00, 0.00, -0.00, -1.00, 536.6, 453.0)">t</text><text xml:space="preserve" font-family="HelveticaNeue-Light" font-size="44.5" fill="#FEFFFE" transform="matrix(1.00, 0.00, -0.00, -1.00, 549.8, 453.0)">a</text><text xml:space="preserve" font-family="HelveticaNeue-Light" font-size="44.5" fill="#FEFFFE" transform="matrix(1.00, 0.00, -0.00, -1.00, 572.9, 453.0)"> </text><text xml:space="preserve" font-family="HelveticaNeue-Light" font-size="44.5" fill="#FEFFFE" transform="matrix(1.00, 0.00, -0.00, -1.00, 585.2, 453.0)">t</text><text xml:space="preserve" font-family="HelveticaNeue-Light" font-size="44.5" fill="#FEFFFE" transform="matrix(1.00, 0.00, -0.00, -1.00, 598.4, 453.0)">r</text><text xml:space="preserve" font-family="HelveticaNeue-Light" font-size="44.5" fill="#FEFFFE" transform="matrix(1.00, 0.00, -0.00, -1.00, 612.4, 453.0)">a</text><text xml:space="preserve" font-family="HelveticaNeue-Light" font-size="44.5" fill="#FEFFFE" transform="matrix(1.00, 0.00, -0.00, -1.00, 635.5, 453.0)">n</text><text xml:space="preserve" font-family="HelveticaNeue-Light" font-size="44.5" fill="#FEFFFE" transform="matrix(1.00, 0.00, -0.00, -1.00, 659.4, 453.0)">s</text><text xml:space="preserve" font-family="HelveticaNeue-Light" font-size="44.5" fill="#FEFFFE" transform="matrix(1.00, 0.00, -0.00, -1.00, 680.8, 453.0)">m</text><text xml:space="preserve" font-family="HelveticaNeue-Light" font-size="44.5" fill="#FEFFFE" transform="matrix(1.00, 0.00, -0.00, -1.00, 717.9, 453.0)">i</text><text xml:space="preserve" font-family="HelveticaNeue-Light" font-size="44.5" fill="#FEFFFE" transform="matrix(1.00, 0.00, -0.00, -1.00, 726.1, 453.0)">s</text><text xml:space="preserve" font-family="HelveticaNeue-Light" font-size="44.5" fill="#FEFFFE" transform="matrix(1.00, 0.00, -0.00, -1.00, 747.5, 453.0)">s</text><text xml:space="preserve" font-family="HelveticaNeue-Light" font-size="44.5" fill="#FEFFFE" transform="matrix(1.00, 0.00, -0.00, -1.00, 768.9, 453.0)">i</text><text xml:space="preserve" font-family="HelveticaNeue-Light" font-size="44.5" fill="#FEFFFE" transform="matrix(1.00, 0.00, -0.00, -1.00, 777.2, 453.0)">o</text><text xml:space="preserve" font-family="HelveticaNeue-Light" font-size="44.5" fill="#FEFFFE" transform="matrix(1.00, 0.00, -0.00, -1.00, 801.9, 453.0)">n</text><text xml:space="preserve" font-family="HelveticaNeue-Light" font-size="44.5" fill="#FEFFFE" transform="matrix(1.00, 0.00, -0.00, -1.00, 825.8, 453.0)"> </text><image xlink:href="../../7C8B3ACE-4E10-4C72-BB87-19FFF49BB2E2/assets/CF9F31B605C162A896F4355A5C0564F6.png" width="16.00" height="16.00" transform="matrix(1.00, 0.00, -0.00, -1.00, 120.0, 377.0)"></image><g><clipPath id="clip-173"><path d="M 120.0 361.1 L 135.7 361.1 L 135.7 376.9 L 120.0 376.9 Z M 120.0 361.1 "></path></clipPath><g clip-path="url(#clip-173)"><g><g><clipPath id="clip-174"><path d="M 120.0 376.9 L 135.7 376.9 L 135.7 361.1 L 120.0 361.1 Z M 120.0 376.9 "></path></clipPath><g clip-path="url(#clip-174)"><g><clipPath id="clip-175"><path d="M 116.0 354.0 L 140.0 354.0 L 140.0 384.0 L 116.0 384.0 Z M 116.0 354.0 "></path></clipPath><g clip-path="url(#clip-175)"><path d="M 135.7 373.7 C 135.7 374.4 135.3 375.1 134.7 375.8 C 134.0 376.5 133.3 376.9 132.5 376.9 C 132.2 376.9 131.7 376.7 130.9 376.3 C 129.7 375.7 128.6 375.4 127.8 375.4 C 126.9 375.4 125.9 375.7 124.7 376.3 C 124.0 376.7 123.4 376.9 123.1 376.9 C 122.3 376.9 121.6 376.5 121.0 375.8 C 120.3 375.2 120.0 374.4 120.0 373.7 C 120.0 373.3 120.2 372.8 120.6 372.0 C 121.1 370.8 121.3 369.8 121.3 369.0 C 121.3 368.1 121.1 367.1 120.6 365.9 C 120.2 365.2 120.0 364.6 120.0 364.3 C 120.0 363.5 120.3 362.8 121.0 362.1 C 121.6 361.4 122.3 361.1 123.1 361.1 C 123.4 361.1 124.0 361.3 124.7 361.7 C 125.9 362.2 126.9 362.5 127.8 362.5 C 128.6 362.5 129.7 362.2 130.9 361.7 C 131.7 361.3 132.2 361.1 132.5 361.1 C 133.3 361.1 134.0 361.4 134.7 362.1 C 135.3 362.8 135.7 363.5 135.7 364.3 C 135.7 364.6 135.5 365.2 135.1 365.9 C 134.5 367.1 134.3 368.1 134.3 369.0 C 134.3 369.8 134.5 370.8 135.1 372.0 C 135.5 372.8 135.7 373.3 135.7 373.7 " fill="#FFFFFF"></path></g></g></g></g></g></g></g><image xlink:href="../../7C8B3ACE-4E10-4C72-BB87-19FFF49BB2E2/assets/88C8BBE2BC74F0EFC2227824D5D4EB86.png" width="696.00" height="41.00" transform="matrix(1.00, 0.00, -0.00, -1.00, 163.0, 387.0)"></image><text xml:space="preserve" font-family="HelveticaNeue-Light" font-size="44.5" fill="#FEFFFE" transform="matrix(1.00, 0.00, -0.00, -1.00, 164.0, 354.0)">P</text><text xml:space="preserve" font-family="HelveticaNeue-Light" font-size="44.5" fill="#FEFFFE" transform="matrix(1.00, 0.00, -0.00, -1.00, 192.0, 354.0)">h</text><text xml:space="preserve" font-family="HelveticaNeue-Light" font-size="44.5" fill="#FEFFFE" transform="matrix(1.00, 0.00, -0.00, -1.00, 215.9, 354.0)">o</text><text xml:space="preserve" font-family="HelveticaNeue-Light" font-size="44.5" fill="#FEFFFE" transform="matrix(1.00, 0.00, -0.00, -1.00, 240.7, 354.0)">e</text><text xml:space="preserve" font-family="HelveticaNeue-Light" font-size="44.5" fill="#FEFFFE" transform="matrix(1.00, 0.00, -0.00, -1.00, 263.8, 354.0)">n</text><text xml:space="preserve" font-family="HelveticaNeue-Light" font-size="44.5" fill="#FEFFFE" transform="matrix(1.00, 0.00, -0.00, -1.00, 287.7, 354.0)">i</text><text xml:space="preserve" font-family="HelveticaNeue-Light" font-size="44.5" fill="#FEFFFE" transform="matrix(1.00, 0.00, -0.00, -1.00, 295.9, 354.0)">x</text><text xml:space="preserve" font-family="HelveticaNeue-Light" font-size="44.5" fill="#FEFFFE" transform="matrix(1.00, 0.00, -0.00, -1.00, 317.3, 354.0)"> </text><text xml:space="preserve" font-family="HelveticaNeue-Light" font-size="44.5" fill="#FEFFFE" transform="matrix(1.00, 0.00, -0.00, -1.00, 329.7, 354.0)">F</text><text xml:space="preserve" font-family="HelveticaNeue-Light" font-size="44.5" fill="#FEFFFE" transform="matrix(1.00, 0.00, -0.00, -1.00, 353.6, 354.0)">r</text><text xml:space="preserve" font-family="HelveticaNeue-Light" font-size="44.5" fill="#FEFFFE" transform="matrix(1.00, 0.00, -0.00, -1.00, 367.6, 354.0)">a</text><text xml:space="preserve" font-family="HelveticaNeue-Light" font-size="44.5" fill="#FEFFFE" transform="matrix(1.00, 0.00, -0.00, -1.00, 390.7, 354.0)">m</text><text xml:space="preserve" font-family="HelveticaNeue-Light" font-size="44.5" fill="#FEFFFE" transform="matrix(1.00, 0.00, -0.00, -1.00, 427.8, 354.0)">e</text><text xml:space="preserve" font-family="HelveticaNeue-Light" font-size="44.5" fill="#FEFFFE" transform="matrix(1.00, 0.00, -0.00, -1.00, 450.8, 354.0)">w</text><text xml:space="preserve" font-family="HelveticaNeue-Light" font-size="44.5" fill="#FEFFFE" transform="matrix(1.00, 0.00, -0.00, -1.00, 483.8, 354.0)">o</text><text xml:space="preserve" font-family="HelveticaNeue-Light" font-size="44.5" fill="#FEFFFE" transform="matrix(1.00, 0.00, -0.00, -1.00, 508.6, 354.0)">r</text><text xml:space="preserve" font-family="HelveticaNeue-Light" font-size="44.5" fill="#FEFFFE" transform="matrix(1.00, 0.00, -0.00, -1.00, 522.6, 354.0)">k</text><text xml:space="preserve" font-family="HelveticaNeue-Light" font-size="44.5" fill="#FEFFFE" transform="matrix(1.00, 0.00, -0.00, -1.00, 544.8, 354.0)"> </text><text xml:space="preserve" font-family="HelveticaNeue-Light" font-size="44.5" fill="#FEFFFE" transform="matrix(1.00, 0.00, -0.00, -1.00, 557.2, 354.0)">w</text><text xml:space="preserve" font-family="HelveticaNeue-Light" font-size="44.5" fill="#FEFFFE" transform="matrix(1.00, 0.00, -0.00, -1.00, 590.2, 354.0)">e</text><text xml:space="preserve" font-family="HelveticaNeue-Light" font-size="44.5" fill="#FEFFFE" transform="matrix(1.00, 0.00, -0.00, -1.00, 613.3, 354.0)">b</text><text xml:space="preserve" font-family="HelveticaNeue-Light" font-size="44.5" fill="#FEFFFE" transform="matrix(1.00, 0.00, -0.00, -1.00, 638.8, 354.0)"> </text><text xml:space="preserve" font-family="HelveticaNeue-Light" font-size="44.5" fill="#FEFFFE" transform="matrix(1.00, 0.00, -0.00, -1.00, 651.2, 354.0)">f</text><text xml:space="preserve" font-family="HelveticaNeue-Light" font-size="44.5" fill="#FEFFFE" transform="matrix(1.00, 0.00, -0.00, -1.00, 662.7, 354.0)">r</text><text xml:space="preserve" font-family="HelveticaNeue-Light" font-size="44.5" fill="#FEFFFE" transform="matrix(1.00, 0.00, -0.00, -1.00, 676.7, 354.0)">a</text><text xml:space="preserve" font-family="HelveticaNeue-Light" font-size="44.5" fill="#FEFFFE" transform="matrix(1.00, 0.00, -0.00, -1.00, 699.8, 354.0)">m</text><text xml:space="preserve" font-family="HelveticaNeue-Light" font-size="44.5" fill="#FEFFFE" transform="matrix(1.00, 0.00, -0.00, -1.00, 736.9, 354.0)">e</text><text xml:space="preserve" font-family="HelveticaNeue-Light" font-size="44.5" fill="#FEFFFE" transform="matrix(1.00, 0.00, -0.00, -1.00, 760.0, 354.0)">w</text><text xml:space="preserve" font-family="HelveticaNeue-Light" font-size="44.5" fill="#FEFFFE" transform="matrix(1.00, 0.00, -0.00, -1.00, 793.0, 354.0)">o</text><text xml:space="preserve" font-family="HelveticaNeue-Light" font-size="44.5" fill="#FEFFFE" transform="matrix(1.00, 0.00, -0.00, -1.00, 817.7, 354.0)">r</text><text xml:space="preserve" font-family="HelveticaNeue-Light" font-size="44.5" fill="#FEFFFE" transform="matrix(1.00, 0.00, -0.00, -1.00, 831.7, 354.0)">k</text><text xml:space="preserve" font-family="HelveticaNeue-Light" font-size="44.5" fill="#FEFFFE" transform="matrix(1.00, 0.00, -0.00, -1.00, 854.0, 354.0)"> </text><image xlink:href="../../7C8B3ACE-4E10-4C72-BB87-19FFF49BB2E2/assets/74BD53DC77DBB8954B4DCD60341F7C0D.png" width="16.00" height="17.00" transform="matrix(1.00, 0.00, -0.00, -1.00, 120.0, 279.0)"></image><g><clipPath id="clip-176"><path d="M 120.0 262.7 L 135.7 262.7 L 135.7 278.5 L 120.0 278.5 Z M 120.0 262.7 "></path></clipPath><g clip-path="url(#clip-176)"><g><g><clipPath id="clip-177"><path d="M 120.0 278.5 L 135.7 278.5 L 135.7 262.7 L 120.0 262.7 Z M 120.0 278.5 "></path></clipPath><g clip-path="url(#clip-177)"><g><clipPath id="clip-178"><path d="M 116.0 255.0 L 140.0 255.0 L 140.0 286.0 L 116.0 286.0 Z M 116.0 255.0 "></path></clipPath><g clip-path="url(#clip-178)"><path d="M 135.7 275.3 C 135.7 276.0 135.3 276.7 134.7 277.4 C 134.0 278.1 133.3 278.5 132.5 278.5 C 132.2 278.5 131.7 278.3 130.9 277.9 C 129.7 277.3 128.6 277.1 127.8 277.1 C 126.9 277.1 125.9 277.3 124.7 277.9 C 124.0 278.3 123.4 278.5 123.1 278.5 C 122.3 278.5 121.6 278.1 121.0 277.4 C 120.3 276.8 120.0 276.1 120.0 275.3 C 120.0 275.0 120.2 274.4 120.6 273.6 C 121.1 272.4 121.3 271.4 121.3 270.6 C 121.3 269.8 121.1 268.7 120.6 267.5 C 120.2 266.8 120.0 266.2 120.0 265.9 C 120.0 265.1 120.3 264.4 121.0 263.7 C 121.6 263.1 122.3 262.7 123.1 262.7 C 123.4 262.7 124.0 262.9 124.7 263.3 C 125.9 263.8 126.9 264.1 127.8 264.1 C 128.6 264.1 129.7 263.8 130.9 263.3 C 131.7 262.9 132.2 262.7 132.5 262.7 C 133.3 262.7 134.0 263.1 134.7 263.7 C 135.3 264.4 135.7 265.1 135.7 265.9 C 135.7 266.2 135.5 266.8 135.1 267.5 C 134.5 268.7 134.3 269.8 134.3 270.6 C 134.3 271.4 134.5 272.4 135.1 273.6 C 135.5 274.4 135.7 275.0 135.7 275.3 " fill="#FFFFFF"></path></g></g></g></g></g></g></g><image xlink:href="../../7C8B3ACE-4E10-4C72-BB87-19FFF49BB2E2/assets/2C9E737CEAB3D48850AF4F4FA3507501.png" width="221.00" height="41.00" transform="matrix(1.00, 0.00, -0.00, -1.00, 163.0, 289.0)"></image><text xml:space="preserve" font-family="HelveticaNeue-Light" font-size="44.5" fill="#FEFFFE" transform="matrix(1.00, 0.00, -0.00, -1.00, 164.0, 256.0)">E</text><text xml:space="preserve" font-family="HelveticaNeue-Light" font-size="44.5" fill="#FEFFFE" transform="matrix(1.00, 0.00, -0.00, -1.00, 190.4, 256.0)">l</text><text xml:space="preserve" font-family="HelveticaNeue-Light" font-size="44.5" fill="#FEFFFE" transform="matrix(1.00, 0.00, -0.00, -1.00, 198.6, 256.0)">i</text><text xml:space="preserve" font-family="HelveticaNeue-Light" font-size="44.5" fill="#FEFFFE" transform="matrix(1.00, 0.00, -0.00, -1.00, 206.9, 256.0)">x</text><text xml:space="preserve" font-family="HelveticaNeue-Light" font-size="44.5" fill="#FEFFFE" transform="matrix(1.00, 0.00, -0.00, -1.00, 228.3, 256.0)">i</text><text xml:space="preserve" font-family="HelveticaNeue-Light" font-size="44.5" fill="#FEFFFE" transform="matrix(1.00, 0.00, -0.00, -1.00, 236.5, 256.0)">r</text><text xml:space="preserve" font-family="HelveticaNeue-Light" font-size="44.5" fill="#FEFFFE" transform="matrix(1.00, 0.00, -0.00, -1.00, 250.5, 256.0)"> </text><text xml:space="preserve" font-family="HelveticaNeue-Light" font-size="44.5" fill="#FEFFFE" transform="matrix(1.00, 0.00, -0.00, -1.00, 262.9, 256.0)">s</text><text xml:space="preserve" font-family="HelveticaNeue-Light" font-size="44.5" fill="#FEFFFE" transform="matrix(1.00, 0.00, -0.00, -1.00, 284.3, 256.0)">e</text><text xml:space="preserve" font-family="HelveticaNeue-Light" font-size="44.5" fill="#FEFFFE" transform="matrix(1.00, 0.00, -0.00, -1.00, 307.4, 256.0)">r</text><text xml:space="preserve" font-family="HelveticaNeue-Light" font-size="44.5" fill="#FEFFFE" transform="matrix(1.00, 0.00, -0.00, -1.00, 321.4, 256.0)">v</text><text xml:space="preserve" font-family="HelveticaNeue-Light" font-size="44.5" fill="#FEFFFE" transform="matrix(1.00, 0.00, -0.00, -1.00, 342.0, 256.0)">e</text><text xml:space="preserve" font-family="HelveticaNeue-Light" font-size="44.5" fill="#FEFFFE" transform="matrix(1.00, 0.00, -0.00, -1.00, 365.1, 256.0)">r</text><text xml:space="preserve" font-family="HelveticaNeue-Light" font-size="44.5" fill="#FEFFFE" transform="matrix(1.00, 0.00, -0.00, -1.00, 379.1, 256.0)"> </text><image xlink:href="../../7C8B3ACE-4E10-4C72-BB87-19FFF49BB2E2/assets/443D070DEE1714E4EC680C9752DD87D6.png" width="16.00" height="17.00" transform="matrix(1.00, 0.00, -0.00, -1.00, 120.0, 181.0)"></image><g><clipPath id="clip-179"><path d="M 120.0 164.3 L 135.7 164.3 L 135.7 180.1 L 120.0 180.1 Z M 120.0 164.3 "></path></clipPath><g clip-path="url(#clip-179)"><g><g><clipPath id="clip-180"><path d="M 120.0 180.1 L 135.7 180.1 L 135.7 164.3 L 120.0 164.3 Z M 120.0 180.1 "></path></clipPath><g clip-path="url(#clip-180)"><g><clipPath id="clip-181"><path d="M 116.0 157.0 L 140.0 157.0 L 140.0 188.0 L 116.0 188.0 Z M 116.0 157.0 "></path></clipPath><g clip-path="url(#clip-181)"><path d="M 135.7 176.9 C 135.7 177.6 135.3 178.3 134.7 179.0 C 134.0 179.7 133.3 180.1 132.5 180.1 C 132.2 180.1 131.7 179.9 130.9 179.5 C 129.7 179.0 128.6 178.7 127.8 178.7 C 126.9 178.7 125.9 179.0 124.7 179.5 C 124.0 179.9 123.4 180.1 123.1 180.1 C 122.3 180.1 121.6 179.7 121.0 179.1 C 120.3 178.4 120.0 177.7 120.0 176.9 C 120.0 176.6 120.2 176.0 120.6 175.2 C 121.1 174.0 121.3 173.0 121.3 172.2 C 121.3 171.4 121.1 170.3 120.6 169.1 C 120.2 168.4 120.0 167.8 120.0 167.5 C 120.0 166.7 120.3 166.0 121.0 165.4 C 121.6 164.7 122.3 164.3 123.1 164.3 C 123.4 164.3 124.0 164.5 124.7 164.9 C 125.9 165.5 126.9 165.7 127.8 165.7 C 128.6 165.7 129.7 165.5 130.9 164.9 C 131.7 164.5 132.2 164.3 132.5 164.3 C 133.3 164.3 134.0 164.7 134.7 165.4 C 135.3 166.0 135.7 166.7 135.7 167.5 C 135.7 167.8 135.5 168.4 135.1 169.1 C 134.5 170.3 134.3 171.4 134.3 172.2 C 134.3 173.0 134.5 174.0 135.1 175.2 C 135.5 176.0 135.7 176.6 135.7 176.9 " fill="#FFFFFF"></path></g></g></g></g></g></g></g><image xlink:href="../../7C8B3ACE-4E10-4C72-BB87-19FFF49BB2E2/assets/00374BA087507FEE3810DC345EAA8B48.png" width="399.00" height="41.00" transform="matrix(1.00, 0.00, -0.00, -1.00, 163.0, 190.0)"></image><text xml:space="preserve" font-family="HelveticaNeue-Light" font-size="44.5" fill="#FEFFFE" transform="matrix(1.00, 0.00, -0.00, -1.00, 164.0, 157.0)">R</text><text xml:space="preserve" font-family="HelveticaNeue-Light" font-size="44.5" fill="#FEFFFE" transform="matrix(1.00, 0.00, -0.00, -1.00, 193.7, 157.0)">e</text><text xml:space="preserve" font-family="HelveticaNeue-Light" font-size="44.5" fill="#FEFFFE" transform="matrix(1.00, 0.00, -0.00, -1.00, 216.8, 157.0)">t</text><text xml:space="preserve" font-family="HelveticaNeue-Light" font-size="44.5" fill="#FEFFFE" transform="matrix(1.00, 0.00, -0.00, -1.00, 229.9, 157.0)">h</text><text xml:space="preserve" font-family="HelveticaNeue-Light" font-size="44.5" fill="#FEFFFE" transform="matrix(1.00, 0.00, -0.00, -1.00, 253.8, 157.0)">i</text><text xml:space="preserve" font-family="HelveticaNeue-Light" font-size="44.5" fill="#FEFFFE" transform="matrix(1.00, 0.00, -0.00, -1.00, 262.1, 157.0)">n</text><text xml:space="preserve" font-family="HelveticaNeue-Light" font-size="44.5" fill="#FEFFFE" transform="matrix(1.00, 0.00, -0.00, -1.00, 286.0, 157.0)">k</text><text xml:space="preserve" font-family="HelveticaNeue-Light" font-size="44.5" fill="#FEFFFE" transform="matrix(1.00, 0.00, -0.00, -1.00, 308.2, 157.0)">D</text><text xml:space="preserve" font-family="HelveticaNeue-Light" font-size="44.5" fill="#FEFFFE" transform="matrix(1.00, 0.00, -0.00, -1.00, 338.7, 157.0)">B</text><text xml:space="preserve" font-family="HelveticaNeue-Light" font-size="44.5" fill="#FEFFFE" transform="matrix(1.00, 0.00, -0.00, -1.00, 368.4, 157.0)"> </text><text xml:space="preserve" font-family="HelveticaNeue-Light" font-size="44.5" fill="#FEFFFE" transform="matrix(1.00, 0.00, -0.00, -1.00, 380.8, 157.0)">d</text><text xml:space="preserve" font-family="HelveticaNeue-Light" font-size="44.5" fill="#FEFFFE" transform="matrix(1.00, 0.00, -0.00, -1.00, 406.3, 157.0)">a</text><text xml:space="preserve" font-family="HelveticaNeue-Light" font-size="44.5" fill="#FEFFFE" transform="matrix(1.00, 0.00, -0.00, -1.00, 429.4, 157.0)">t</text><text xml:space="preserve" font-family="HelveticaNeue-Light" font-size="44.5" fill="#FEFFFE" transform="matrix(1.00, 0.00, -0.00, -1.00, 442.6, 157.0)">a</text><text xml:space="preserve" font-family="HelveticaNeue-Light" font-size="44.5" fill="#FEFFFE" transform="matrix(1.00, 0.00, -0.00, -1.00, 465.7, 157.0)">b</text><text xml:space="preserve" font-family="HelveticaNeue-Light" font-size="44.5" fill="#FEFFFE" transform="matrix(1.00, 0.00, -0.00, -1.00, 491.2, 157.0)">a</text><text xml:space="preserve" font-family="HelveticaNeue-Light" font-size="44.5" fill="#FEFFFE" transform="matrix(1.00, 0.00, -0.00, -1.00, 514.3, 157.0)">s</text><text xml:space="preserve" font-family="HelveticaNeue-Light" font-size="44.5" fill="#FEFFFE" transform="matrix(1.00, 0.00, -0.00, -1.00, 535.7, 157.0)">e</text><image xlink:href="../../B7F9B98D-F7BC-4C2C-9FD7-85ABEEFC4F7B/assets/4DD679189E85980A4DF554AA380A4C3A.png" width="424.00" height="424.00" transform="matrix(1.00, 0.00, -0.00, -1.00, 864.0, 1060.0)"></image><image xlink:href="../../B7F9B98D-F7BC-4C2C-9FD7-85ABEEFC4F7B/assets/6335F4A52429E67829B52D20AADF1F6D.png" width="794.00" height="277.00" transform="matrix(1.00, 0.00, -0.00, -1.00, 826.0, 675.0)" opacity="0.50"></image><g><clipPath id="clip-182"><path d="M 827.0 675.0 L 1613.0 675.0 L 1613.0 405.0 L 827.0 405.0 Z M 826.5 674.5 "></path></clipPath><g clip-path="url(#clip-182)"><image xlink:href="../../B7F9B98D-F7BC-4C2C-9FD7-85ABEEFC4F7B/assets/9103DEF5CF66B406FBAA305AE33282E0.png" width="787.00" height="269.00" transform="matrix(1.00, 0.00, -0.00, -1.00, 826.0, 675.0)"></image></g></g><g><clipPath id="clip-183"><path d="M 1199.0 1024.0 L 1644.0 1024.0 L 1644.0 601.0 L 1199.0 601.0 Z M 1199.0 1023.7 "></path></clipPath><g clip-path="url(#clip-183)"><image xlink:href="../../B7F9B98D-F7BC-4C2C-9FD7-85ABEEFC4F7B/assets/FB37E083FD153CF91F1F827235E00F0B.png" width="429.00" height="217.00" transform="matrix(1.95, 0.00, -0.00, -1.95, 1199.0, 1024.0)"></image></g></g><image xlink:href="../../B7F9B98D-F7BC-4C2C-9FD7-85ABEEFC4F7B/assets/3834E61385E74B28BB21153D98B11B50.png" width="480.00" height="245.00" transform="matrix(1.00, 0.00, -0.00, -1.00, 1360.0, 440.0)"></image><image xlink:href="../../B7F9B98D-F7BC-4C2C-9FD7-85ABEEFC4F7B/assets/F748816F8B5B20A56B470D42E8A40817.png" width="408.00" height="408.00" transform="matrix(1.00, 0.00, -0.00, -1.00, 980.4, 503.7)" opacity="0.50"></image><image xlink:href="../../B7F9B98D-F7BC-4C2C-9FD7-85ABEEFC4F7B/assets/A6E390ED90468A0E9465F013249F6A48.png" width="400.00" height="400.00" transform="matrix(1.00, 0.00, -0.00, -1.00, 981.0, 503.0)"></image><image xlink:href="../../B7F9B98D-F7BC-4C2C-9FD7-85ABEEFC4F7B/assets/35731FB796D919C419B90F3688FB11BD.png" width="500.00" height="150.00" transform="matrix(1.00, 0.00, -0.00, -1.00, 878.0, 184.0)"></image><image xlink:href="../../B7F9B98D-F7BC-4C2C-9FD7-85ABEEFC4F7B/assets/D7BAE83D38251B168510CA31777AEBF3.png" width="910.00" height="380.00" transform="matrix(1.00, 0.00, -0.00, -1.00, 1112.0, 1067.0)"></image><image xlink:href="../../B7F9B98D-F7BC-4C2C-9FD7-85ABEEFC4F7B/assets/08A258FFB219E80B7F6F668A3D738448.png" width="256.00" height="256.00" transform="matrix(1.00, 0.00, -0.00, -1.00, 1121.0, 753.0)"></image><g><clipPath id="clip-184"><path d="M 796.0 809.0 L 1391.0 809.0 L 1391.0 271.0 L 796.0 271.0 Z M 795.8 809.5 "></path></clipPath><g clip-path="url(#clip-184)"><g><clipPath id="clip-185"><path d="M 982.0 809.4 C 956.8 810.1 937.6 796.0 928.4 767.6 C 921.7 746.9 920.9 707.3 926.5 673.4 C 929.5 655.2 930.1 646.6 928.6 644.8 C 927.5 643.4 921.2 641.2 914.7 640.0 C 883.7 633.9 844.8 617.8 824.2 602.7 C 790.7 577.9 786.4 542.2 813.4 511.8 C 825.7 498.0 857.1 477.6 865.0 478.4 C 870.1 478.9 871.2 479.9 871.7 485.2 C 872.2 491.0 871.3 492.1 858.7 499.4 C 841.9 509.3 826.6 522.8 819.2 534.5 C 801.3 562.7 826.4 593.0 884.2 613.1 C 909.6 621.9 932.2 626.8 934.9 624.2 C 936.1 622.9 941.4 608.9 946.7 593.0 C 952.0 577.0 957.9 560.2 959.8 555.6 L 963.2 547.2 L 953.0 526.8 C 899.5 420.0 888.1 326.8 924.8 295.3 C 935.4 286.2 947.1 283.1 966.5 284.3 C 984.1 285.4 1002.0 292.0 1025.8 306.1 C 1042.2 315.9 1047.2 322.0 1043.9 328.2 C 1040.6 334.3 1034.6 333.4 1022.3 325.2 C 996.4 308.0 967.4 298.0 951.9 300.9 C 940.5 303.1 928.0 316.1 923.8 330.3 C 915.2 359.2 924.2 413.3 946.9 469.9 C 957.1 495.4 968.6 519.9 971.0 521.4 C 972.1 522.1 978.8 510.9 986.0 496.6 C 1047.4 374.0 1128.7 283.8 1188.7 272.0 C 1215.7 266.6 1238.0 276.8 1249.8 299.9 C 1270.3 340.2 1261.7 422.2 1227.5 513.9 C 1214.5 548.5 1200.8 578.1 1197.1 579.5 C 1192.3 581.3 1185.2 577.5 1185.2 573.1 C 1185.2 570.9 1189.2 560.1 1194.0 549.3 C 1214.9 502.8 1233.0 446.0 1240.0 405.2 C 1244.1 381.8 1243.4 331.8 1238.9 319.3 C 1221.5 270.6 1177.5 278.7 1114.3 342.2 C 1087.7 369.0 1059.9 404.5 1037.8 439.9 C 1024.8 460.9 992.5 522.2 986.2 538.0 L 982.9 546.4 L 996.8 569.5 C 1004.4 582.2 1017.9 602.9 1026.7 615.5 L 1042.7 638.3 L 1079.1 637.1 C 1133.3 635.2 1178.9 629.4 1224.6 618.6 C 1319.4 596.1 1380.8 553.1 1369.0 517.4 C 1365.1 505.3 1347.9 490.1 1325.1 478.4 C 1304.2 467.6 1300.9 464.3 1304.5 457.6 C 1307.4 452.1 1312.6 452.8 1330.0 460.8 C 1360.1 474.7 1379.3 492.5 1385.3 512.1 C 1386.5 516.1 1388.5 521.5 1389.7 524.0 C 1391.4 527.4 1391.4 529.2 1389.6 531.0 C 1388.3 532.3 1387.2 534.9 1387.2 536.7 C 1387.2 538.5 1384.5 545.6 1381.0 552.4 C 1355.1 604.4 1231.9 648.0 1095.7 653.2 C 1077.1 654.0 1061.3 655.4 1060.7 656.3 C 1058.9 659.3 1064.8 666.6 1090.7 693.6 C 1144.6 749.5 1190.6 779.3 1223.2 779.3 C 1241.5 779.3 1254.7 768.4 1260.0 749.0 C 1263.1 737.8 1263.2 707.6 1260.2 691.7 C 1257.7 677.9 1259.6 672.1 1266.9 672.1 C 1274.0 672.1 1275.6 675.5 1278.3 695.4 C 1285.4 749.2 1271.7 785.6 1240.9 794.5 C 1195.7 807.7 1125.9 764.8 1052.7 679.0 L 1031.9 654.6 L 1009.0 653.2 C 996.4 652.5 978.5 650.9 969.1 649.7 C 949.0 646.9 948.4 647.3 945.0 667.1 C 930.3 751.2 948.1 800.5 989.8 791.5 C 1003.1 788.6 1021.6 779.3 1036.4 767.9 C 1050.8 756.7 1058.6 756.3 1059.6 766.5 C 1060.1 772.2 1058.9 773.8 1049.5 781.0 C 1024.7 799.5 1001.6 808.9 982.0 809.4 Z M 1005.8 635.6 C 1011.3 635.7 1013.7 635.0 1014.5 633.7 C 1015.1 632.7 1009.4 622.4 1001.8 611.0 C 994.2 599.6 985.4 585.9 982.3 580.6 C 979.3 575.3 975.9 571.0 975.0 571.0 C 971.3 571.0 953.5 623.2 955.5 628.2 C 956.2 630.1 963.6 631.7 978.5 633.3 C 991.8 634.8 1000.4 635.5 1005.8 635.6 Z M 1094.7 567.0 C 1076.7 567.0 1065.1 557.2 1062.7 540.0 C 1060.9 526.8 1067.4 514.1 1078.7 508.5 C 1089.6 503.1 1097.3 503.2 1108.4 508.8 C 1136.4 523.2 1126.2 566.9 1094.7 567.0 Z M 1094.7 567.0 "></path></clipPath><g clip-path="url(#clip-185)"><image xlink:href="../../B7F9B98D-F7BC-4C2C-9FD7-85ABEEFC4F7B/assets/6CAB681F275D49FCA231D5BAB6FBEBC7.png" width="600.00" height="550.00" transform="matrix(1.00, 0.00, -0.00, -1.00, 791.0, 816.0)"></image></g></g></g></g><g><clipPath id="clip-186"><path d="M 1070.0 515.0 L 1640.0 515.0 L 1640.0 92.0 L 1070.0 92.0 Z M 1069.5 514.6 "></path></clipPath><g clip-path="url(#clip-186)"><g><clipPath id="clip-187"><path d="M 1327.1 514.6 C 1289.5 514.7 1274.4 511.7 1235.7 496.6 C 1144.8 461.1 1081.1 405.8 1070.7 353.6 C 1068.9 344.3 1069.1 340.3 1071.7 331.2 C 1079.1 305.7 1098.6 284.7 1145.3 251.9 C 1160.6 241.1 1175.5 230.5 1178.3 228.3 C 1183.3 224.3 1183.3 224.2 1179.3 221.0 C 1177.1 219.3 1170.7 215.6 1165.1 212.7 C 1149.2 204.6 1123.6 187.3 1112.0 176.9 C 1091.0 157.8 1083.2 130.2 1092.7 108.5 C 1097.4 97.9 1101.7 95.0 1115.3 92.7 C 1147.8 87.4 1187.0 107.1 1203.2 136.8 C 1214.4 157.4 1217.9 188.3 1211.6 209.8 C 1209.9 215.6 1208.9 221.1 1209.5 222.1 C 1211.7 225.6 1243.8 242.5 1245.4 241.0 C 1246.3 240.1 1245.6 234.8 1243.9 229.3 C 1236.6 204.9 1238.2 178.9 1248.2 158.1 C 1254.2 145.9 1261.8 141.8 1272.5 145.3 C 1279.5 147.6 1283.9 154.4 1295.8 180.4 C 1299.8 189.1 1303.9 196.2 1304.9 196.1 C 1306.0 196.0 1307.4 188.0 1308.0 178.2 C 1309.4 157.5 1310.7 153.8 1317.0 152.2 C 1322.4 150.8 1327.4 153.2 1333.4 159.8 C 1340.1 167.2 1363.4 211.4 1376.8 242.1 C 1394.7 283.0 1393.9 282.3 1400.2 260.4 C 1402.6 252.2 1406.8 240.5 1409.6 234.3 L 1414.7 223.1 L 1401.5 206.9 C 1375.9 175.8 1372.6 171.2 1372.6 166.5 C 1372.6 150.8 1424.0 166.0 1434.9 185.0 C 1440.2 194.3 1440.9 212.6 1436.5 225.1 C 1433.7 232.9 1433.8 233.1 1441.6 244.8 C 1446.1 251.3 1454.0 264.6 1459.3 274.3 C 1464.6 284.1 1470.2 292.1 1471.7 292.1 C 1473.5 292.1 1475.5 287.7 1477.3 280.1 C 1478.7 273.6 1482.3 263.0 1485.1 256.7 L 1490.3 245.1 L 1479.3 233.9 C 1465.4 219.6 1457.7 204.5 1457.7 191.4 C 1457.7 182.8 1458.3 181.4 1462.8 179.7 C 1474.8 175.1 1505.3 192.1 1513.9 208.1 C 1518.0 215.7 1518.5 218.8 1517.4 227.3 C 1514.8 245.7 1515.0 247.3 1520.5 249.9 C 1528.9 254.0 1553.0 257.0 1566.0 255.6 C 1593.7 252.7 1613.5 243.4 1624.7 228.3 C 1635.9 213.1 1636.2 198.6 1625.5 185.2 C 1621.2 179.9 1620.3 177.9 1622.9 179.3 C 1631.4 183.8 1639.9 198.5 1639.9 208.6 C 1639.9 227.7 1624.7 249.4 1604.8 258.8 C 1580.0 270.6 1551.0 271.3 1521.3 260.8 C 1514.8 258.5 1509.1 256.6 1508.8 256.6 C 1508.4 256.6 1505.0 263.2 1501.1 271.3 C 1495.3 283.4 1494.1 288.2 1494.1 299.4 C 1494.1 306.8 1495.5 316.7 1497.2 321.5 C 1502.0 335.3 1501.8 335.6 1487.3 335.6 C 1472.6 335.6 1470.3 334.0 1468.4 322.2 C 1466.0 307.3 1431.4 245.0 1427.1 247.7 C 1425.9 248.4 1423.1 253.2 1420.9 258.4 C 1415.6 270.5 1415.1 294.4 1419.9 307.1 C 1423.8 317.4 1422.5 319.3 1411.9 319.4 C 1396.9 319.5 1393.8 317.7 1391.1 307.6 C 1388.4 297.2 1357.0 225.5 1343.0 197.4 C 1338.1 187.7 1333.2 179.7 1332.1 179.7 C 1324.9 179.7 1327.3 203.7 1338.2 241.5 C 1340.4 249.3 1342.3 257.2 1342.3 259.1 C 1342.3 263.7 1333.1 266.1 1329.0 262.7 C 1324.5 258.9 1323.8 260.8 1323.4 276.9 C 1323.0 293.7 1320.2 297.1 1307.4 297.1 C 1296.3 297.1 1284.7 290.5 1268.4 274.9 C 1257.9 264.8 1247.2 257.5 1227.2 246.6 L 1200.2 231.9 L 1191.8 239.9 C 1187.1 244.4 1172.7 256.3 1159.8 266.4 C 1119.4 298.1 1107.2 314.9 1107.2 338.5 C 1107.2 361.2 1116.0 378.7 1139.3 401.7 C 1166.4 428.6 1224.8 462.7 1266.4 476.0 C 1315.5 491.8 1364.1 491.0 1386.3 474.0 C 1401.1 462.7 1405.0 445.4 1397.2 425.0 C 1383.1 388.0 1340.8 355.4 1289.9 342.5 C 1256.9 334.1 1229.1 336.7 1211.0 349.8 C 1201.0 357.0 1200.1 354.8 1209.0 344.7 C 1223.2 328.5 1249.0 322.1 1285.1 325.8 C 1347.5 332.1 1393.8 361.7 1416.6 409.8 C 1423.0 423.2 1424.2 428.0 1424.9 443.1 C 1425.4 454.0 1424.8 463.6 1423.2 468.5 C 1417.1 487.4 1401.7 500.5 1375.4 509.2 C 1360.9 514.0 1356.5 514.6 1327.1 514.6 Z M 1306.5 278.2 C 1310.4 277.9 1311.9 274.0 1310.6 267.0 C 1308.8 257.2 1295.7 219.4 1286.6 197.7 C 1282.6 188.1 1277.2 178.2 1274.5 175.8 L 1269.7 171.2 L 1266.1 176.7 C 1252.0 198.3 1272.8 262.1 1298.4 275.9 C 1300.8 277.2 1302.9 277.9 1304.7 278.2 C 1305.3 278.3 1305.9 278.3 1306.5 278.2 Z M 1492.5 229.5 C 1494.9 229.5 1496.1 226.7 1496.1 220.9 C 1496.1 210.8 1490.7 200.5 1482.2 194.8 C 1473.6 188.9 1472.1 188.7 1470.4 193.2 C 1468.8 197.3 1480.1 219.8 1487.0 226.2 C 1489.2 228.3 1491.1 229.4 1492.5 229.5 Z M 1190.0 208.8 C 1192.7 209.0 1193.8 206.5 1195.2 197.3 C 1200.0 166.2 1178.4 130.4 1148.0 118.8 C 1134.5 113.7 1129.1 113.9 1122.2 119.8 C 1117.4 124.0 1116.6 126.1 1116.9 133.9 C 1117.4 146.5 1125.9 161.4 1140.1 174.7 C 1153.3 186.9 1184.8 208.4 1190.0 208.8 Z M 1416.8 204.4 C 1418.8 204.9 1419.4 203.0 1418.2 198.4 C 1416.3 190.7 1409.7 182.2 1400.4 175.5 C 1395.9 172.3 1391.6 169.6 1390.7 169.6 C 1386.5 169.6 1387.5 173.6 1393.1 178.9 C 1396.5 182.1 1402.9 189.6 1407.4 195.4 C 1411.6 200.8 1414.9 203.9 1416.8 204.4 Z M 1416.8 204.4 "></path></clipPath><g clip-path="url(#clip-187)"><image xlink:href="../../B7F9B98D-F7BC-4C2C-9FD7-85ABEEFC4F7B/assets/D675C653C4D794AB7E8FA363B582B2EB.png" width="800.00" height="400.00" transform="matrix(1.50, 0.00, -0.00, -1.50, 753.0, 605.0)"></image></g></g></g></g><image xlink:href="../../B7F9B98D-F7BC-4C2C-9FD7-85ABEEFC4F7B/assets/47489333D8374517D60CF336D80D9BD0.png" width="160.00" height="160.00" transform="matrix(2.44, 0.00, -0.00, -2.44, 1521.0, 1044.0)"></image><image xlink:href="../../B7F9B98D-F7BC-4C2C-9FD7-85ABEEFC4F7B/assets/535663C3AF8BE86A953E70FA36658DE0.png" width="400.00" height="400.00" transform="matrix(1.00, 0.00, -0.00, -1.00, 1517.0, 656.0)"></image><image xlink:href="../../B7F9B98D-F7BC-4C2C-9FD7-85ABEEFC4F7B/assets/184E6D20511236659388BED7C060DDFF.png" width="500.00" height="227.00" transform="matrix(1.22, 0.00, -0.00, -1.22, 558.0, 348.0)"></image><g><clipPath id="clip-188"><path d="M 773.0 1021.0 L 1171.0 1021.0 L 1171.0 559.0 L 773.0 559.0 Z M 773.1 1020.5 "></path></clipPath><g clip-path="url(#clip-188)"><g><clipPath id="clip-189"><path d="M 993.1 561.7 C 985.8 565.4 985.5 572.5 992.4 579.7 C 995.7 583.2 997.8 587.4 997.5 589.7 C 996.5 595.7 1000.8 599.6 1008.2 599.6 C 1016.4 599.6 1020.3 595.3 1018.5 588.3 C 1017.7 585.2 1018.5 578.8 1020.4 573.1 C 1022.2 567.7 1023.1 562.3 1022.4 561.2 C 1020.6 558.3 999.1 558.7 993.1 561.7 M 1123.6 569.3 C 1118.0 570.2 1105.7 571.0 1096.1 571.1 C 1085.1 571.2 1077.5 572.3 1075.1 574.0 C 1071.6 576.6 1071.6 577.1 1075.8 589.3 C 1081.1 604.6 1080.3 615.0 1072.0 640.1 C 1068.9 649.5 1065.7 660.0 1065.0 663.3 L 1063.8 669.0 L 1089.3 669.0 L 1114.8 669.0 L 1113.5 664.4 C 1112.8 661.6 1111.7 645.6 1111.1 628.8 L 1109.9 598.3 L 1130.0 586.8 C 1141.1 580.5 1150.7 575.3 1151.4 575.3 C 1152.1 575.3 1155.2 574.4 1158.3 573.2 C 1171.6 568.1 1148.0 565.5 1123.6 569.3 M 1002.2 607.6 C 1000.2 610.8 1005.0 662.3 1008.4 674.5 C 1010.2 680.9 1015.2 690.7 1019.6 696.6 L 1027.6 707.1 L 1025.2 719.2 C 1022.5 733.1 1023.6 751.9 1028.5 773.1 C 1031.5 786.5 1032.8 788.7 1042.8 798.3 C 1054.4 809.3 1055.6 812.1 1050.7 816.1 C 1049.1 817.5 1048.0 820.7 1048.0 823.2 L 1048.0 827.8 L 1062.2 824.0 C 1071.7 821.5 1083.7 820.0 1096.6 820.0 L 1117.0 820.0 L 1117.0 814.6 C 1117.0 811.6 1118.4 799.5 1120.7 787.8 C 1126.6 758.5 1126.7 731.3 1121.1 718.0 C 1118.8 712.4 1116.4 703.3 1115.8 697.7 C 1115.2 692.0 1113.6 685.0 1112.3 682.0 C 1109.8 676.6 1109.5 677.0 1090.6 677.0 L 1071.5 677.0 L 1074.5 681.0 C 1076.1 683.5 1080.1 687.0 1083.3 688.8 C 1088.4 691.7 1089.1 693.2 1088.7 700.0 C 1088.4 704.3 1086.3 712.6 1084.0 718.3 C 1080.8 726.2 1080.3 729.7 1081.8 732.7 C 1085.3 739.2 1090.6 776.1 1088.3 778.4 C 1085.9 780.8 1083.7 775.6 1078.0 753.0 C 1072.5 731.7 1068.2 723.5 1055.8 711.1 C 1050.2 705.5 1045.7 699.9 1045.7 698.6 C 1045.7 697.4 1043.4 693.6 1040.5 690.2 C 1036.6 685.6 1036.0 683.5 1037.7 681.4 C 1040.8 677.7 1037.3 661.9 1029.2 643.6 C 1025.7 635.5 1022.5 624.1 1021.9 617.5 L 1020.8 606.0 L 1012.1 606.0 C 1007.3 606.0 1002.9 606.5 1002.2 607.6 M 993.6 708.7 C 979.6 724.9 968.2 729.3 934.8 731.2 C 917.4 732.2 904.3 733.9 899.7 735.9 C 881.7 743.7 873.6 757.0 869.9 784.9 C 867.5 803.4 862.8 818.6 857.2 826.5 C 854.3 830.7 854.0 832.3 856.0 834.0 C 857.3 835.1 876.2 844.8 897.9 855.5 L 937.4 875.0 L 938.6 869.3 C 942.1 852.7 952.0 843.0 980.5 828.3 C 1002.5 816.9 1004.8 814.7 1013.1 796.4 C 1014.3 793.9 1015.9 791.8 1016.8 791.8 C 1017.6 791.8 1019.5 791.0 1021.0 790.1 C 1023.1 788.7 1022.9 786.1 1019.6 776.5 C 1013.8 759.1 1010.8 733.8 1012.9 720.1 C 1014.5 710.2 1014.2 708.0 1010.8 703.7 C 1008.7 701.0 1005.9 698.8 1004.5 698.8 C 1003.2 698.8 998.3 703.2 993.6 708.7 M 773.5 793.1 C 776.5 806.7 791.2 832.8 803.3 845.6 C 829.6 873.8 890.9 906.7 949.6 924.3 C 959.6 927.2 968.8 930.0 970.0 930.4 C 974.4 931.8 970.2 921.1 965.7 919.3 C 959.3 916.9 953.6 908.9 950.6 898.2 C 949.2 893.1 947.2 889.0 946.3 889.0 C 943.3 889.0 873.4 855.5 851.4 843.5 C 824.2 828.8 800.1 812.5 784.5 798.4 C 772.9 787.8 772.3 787.6 773.5 793.1 M 1132.7 794.5 C 1126.5 797.6 1122.6 810.3 1126.4 814.9 C 1127.8 816.5 1132.5 818.5 1137.0 819.2 C 1146.6 820.8 1148.6 824.4 1143.9 831.5 C 1141.8 834.7 1140.7 839.7 1141.1 844.8 C 1141.5 851.2 1140.8 853.4 1137.7 855.1 C 1135.5 856.2 1133.5 857.4 1133.2 857.6 C 1132.9 857.8 1134.4 862.0 1136.7 866.9 C 1138.9 871.8 1140.7 878.2 1140.7 881.1 C 1140.8 884.0 1142.6 888.0 1144.8 890.0 C 1150.1 894.8 1150.1 906.2 1144.8 914.9 C 1139.4 923.8 1136.7 921.5 1138.1 909.2 C 1139.5 897.5 1139.2 897.3 1122.6 903.2 C 1109.2 907.9 1092.2 908.2 1073.0 904.1 C 1052.1 899.7 1047.5 900.2 1035.9 908.2 L 1025.6 915.2 L 1022.5 910.8 C 1020.8 908.3 1019.4 904.6 1019.4 902.6 C 1019.4 896.7 1011.6 883.3 1006.2 879.7 C 1003.1 877.7 999.3 876.9 996.2 877.6 C 991.1 878.9 987.3 876.1 991.1 873.8 C 992.2 873.1 996.7 865.5 1001.0 857.0 C 1013.2 832.8 1019.6 825.0 1028.6 823.6 C 1036.3 822.3 1045.7 815.4 1045.7 810.9 C 1045.7 807.4 1032.0 795.9 1027.8 795.9 C 1022.5 795.9 1013.3 806.4 1013.3 812.4 C 1013.3 818.2 1008.7 821.8 981.5 837.3 C 963.1 847.8 955.8 855.1 952.8 866.0 C 951.0 872.3 951.6 874.7 957.8 886.3 C 961.6 893.5 964.7 901.1 964.7 903.0 C 964.7 907.6 971.0 913.3 976.2 913.3 C 981.5 913.3 983.4 915.3 980.8 918.4 C 975.6 924.8 987.8 938.5 1000.8 940.8 C 1010.7 942.6 1015.7 945.4 1014.0 948.1 C 1013.1 949.6 1014.9 950.0 1019.9 949.2 C 1024.9 948.3 1028.0 948.9 1029.6 950.9 C 1032.9 954.9 1039.4 954.5 1048.8 949.7 C 1059.4 944.2 1064.3 946.0 1057.1 952.7 C 1054.1 955.4 1051.7 959.0 1051.7 960.7 C 1051.7 964.8 1053.5 964.7 1058.1 960.5 C 1063.5 955.6 1080.0 954.6 1087.8 958.6 L 1094.0 961.9 L 1094.0 954.1 C 1094.0 944.4 1095.2 943.5 1102.4 946.0 C 1108.7 948.2 1114.1 946.3 1122.1 939.0 C 1124.6 936.7 1126.6 935.6 1126.6 936.4 C 1126.6 937.3 1128.0 936.9 1129.7 935.5 C 1131.9 933.7 1132.1 932.3 1130.6 930.4 C 1127.8 927.0 1131.9 924.4 1139.0 925.1 C 1151.1 926.4 1162.1 908.9 1157.5 895.6 C 1156.1 891.4 1156.5 888.0 1159.3 881.9 C 1164.2 871.0 1164.0 867.4 1157.9 861.8 C 1152.2 856.5 1153.0 855.0 1161.8 855.1 C 1164.9 855.1 1168.3 853.8 1169.3 852.3 C 1172.6 847.2 1171.2 836.3 1166.0 826.7 C 1147.7 792.6 1147.2 791.9 1140.8 791.9 C 1139.1 791.9 1135.5 793.1 1132.7 794.5 M 1071.0 829.1 C 1058.9 832.9 1050.1 838.0 1047.8 842.3 C 1044.7 847.9 1045.2 855.7 1048.7 858.6 C 1052.9 862.1 1050.6 864.7 1043.4 864.7 C 1039.3 864.7 1034.9 867.0 1029.3 872.3 L 1021.2 879.9 L 1024.3 887.4 C 1026.0 891.5 1027.0 897.2 1027.0 900.0 L 1027.0 905.1 L 1034.8 900.1 C 1046.6 892.0 1054.4 890.8 1069.7 894.3 C 1085.7 898.1 1114.6 897.3 1123.6 892.8 C 1128.7 890.3 1129.6 888.8 1129.1 883.2 C 1128.8 879.6 1126.4 871.3 1123.6 864.8 C 1120.9 858.3 1117.9 847.2 1117.1 840.1 L 1115.5 827.0 L 1097.3 827.0 C 1086.8 826.8 1075.6 827.6 1071.0 829.1 M 1029.2 829.9 C 1025.6 830.3 1022.1 833.0 1018.9 838.0 C 1012.3 848.0 1004.8 868.3 1007.2 869.7 C 1008.2 870.4 1014.5 866.7 1021.2 861.5 C 1031.8 853.2 1033.5 851.0 1034.6 843.4 C 1036.4 831.5 1035.5 829.2 1029.2 829.9 M 1136.4 932.9 C 1137.8 933.5 1139.6 933.4 1140.2 932.7 C 1140.9 932.0 1139.7 931.6 1137.6 931.6 C 1135.2 931.7 1134.7 932.2 1136.4 932.9 M 1059.5 968.4 C 1055.8 975.5 1054.5 1016.5 1058.0 1018.7 C 1062.5 1021.5 1086.9 1020.9 1091.1 1017.8 C 1094.4 1015.4 1094.7 1012.8 1093.8 994.7 C 1092.5 967.2 1090.3 963.9 1074.0 963.9 C 1063.6 963.9 1061.7 964.5 1059.5 968.4 "></path></clipPath><g clip-path="url(#clip-189)"><image xlink:href="../../B7F9B98D-F7BC-4C2C-9FD7-85ABEEFC4F7B/assets/A21D2F77BDEB84E688E75014E855AD0B.png" width="512.00" height="512.00" transform="matrix(1.00, 0.00, -0.00, -1.00, 756.0, 1045.0)"></image></g></g></g></g><image xlink:href="../../B7F9B98D-F7BC-4C2C-9FD7-85ABEEFC4F7B/assets/B2B86996ABDF5346654CCC204CED356C.png" width="698.00" height="312.00" transform="matrix(1.00, 0.00, -0.00, -1.00, 1030.0, 226.0)"></image><g><clipPath id="clip-190"><path d="M 933.0 469.0 L 1523.0 469.0 L 1523.0 46.0 L 933.0 46.0 Z M 932.9 469.0 "></path></clipPath><g clip-path="url(#clip-190)"><g><clipPath id="clip-191"><path d="M 1263.7 469.0 C 1256.9 468.8 1250.1 467.6 1242.3 465.3 L 1221.0 459.1 L 1238.4 453.5 C 1261.0 446.3 1267.7 446.4 1289.2 454.1 L 1307.1 460.6 L 1285.3 466.1 C 1277.2 468.1 1270.5 469.1 1263.7 469.0 Z M 1437.4 468.1 C 1430.2 468.2 1423.2 467.4 1416.2 465.7 L 1395.7 460.6 L 1413.6 454.1 C 1423.4 450.6 1432.2 447.5 1433.0 447.3 C 1433.9 447.1 1445.6 449.7 1458.9 453.1 L 1483.1 459.2 L 1459.9 465.0 C 1451.9 467.0 1444.5 468.0 1437.4 468.1 Z M 1336.0 441.2 L 1308.8 432.0 L 1281.7 422.8 L 1280.1 380.8 C 1279.3 357.7 1280.7 338.8 1283.1 338.8 C 1285.6 338.8 1298.4 342.5 1311.7 347.0 L 1336.0 355.2 L 1336.0 398.2 L 1336.0 441.2 Z M 1366.9 441.2 L 1367.0 398.3 L 1367.0 355.6 L 1394.0 345.8 L 1418.9 336.9 C 1419.9 337.7 1420.7 339.0 1421.3 340.5 L 1422.6 376.8 C 1423.5 399.3 1422.3 419.3 1420.1 421.3 C 1417.8 423.3 1404.9 428.6 1391.4 433.1 L 1366.9 441.2 Z M 1194.4 439.5 C 1193.1 435.8 1192.5 424.8 1192.0 411.7 L 1192.0 396.6 L 1193.8 352.5 L 1219.6 343.5 C 1233.9 338.5 1246.0 334.3 1246.7 334.1 C 1247.5 333.8 1248.0 353.9 1248.0 378.7 L 1248.0 423.7 L 1219.4 432.1 L 1194.4 439.5 Z M 1503.5 436.6 C 1501.9 436.6 1490.3 434.0 1477.7 430.8 L 1455.0 425.1 L 1455.0 381.4 L 1455.0 337.7 L 1467.4 340.9 C 1506.7 350.7 1506.4 350.3 1506.4 395.3 C 1506.4 418.0 1505.1 436.6 1503.5 436.6 Z M 1000.6 322.7 C 993.7 322.5 987.1 321.7 982.0 320.2 C 961.8 314.3 961.6 314.1 974.2 309.2 C 981.3 306.4 990.6 303.1 994.9 301.7 C 1002.7 299.2 1030.2 306.3 1037.5 312.7 C 1044.0 318.5 1021.1 323.2 1000.6 322.7 Z M 1176.2 322.7 C 1169.4 322.5 1162.8 321.7 1157.6 320.2 C 1137.4 314.3 1137.3 314.1 1149.9 309.2 C 1157.0 306.4 1166.3 303.1 1170.6 301.7 C 1178.3 299.2 1205.9 306.3 1213.2 312.7 C 1219.7 318.5 1196.8 323.2 1176.2 322.7 Z M 940.1 290.7 C 934.3 293.0 933.0 285.2 933.0 250.1 L 933.0 206.7 L 957.4 198.6 C 970.9 194.1 983.7 190.2 985.9 190.0 C 986.4 189.9 986.9 191.0 987.4 193.2 C 987.4 193.2 987.4 193.3 987.4 193.4 L 988.7 227.2 C 989.5 249.9 989.1 271.0 987.9 274.3 C 987.6 274.9 986.8 275.8 985.8 276.6 L 968.5 281.7 C 956.9 285.2 944.0 289.2 940.1 290.7 Z M 1065.2 290.7 C 1061.2 289.2 1048.4 285.2 1036.8 281.7 L 1016.0 275.4 L 1016.0 232.5 L 1016.0 231.8 C 1016.0 196.7 1017.0 188.9 1022.8 191.1 C 1026.8 192.6 1039.5 196.7 1051.2 200.2 L 1072.0 206.5 L 1072.0 250.1 C 1072.0 285.2 1071.0 293.0 1065.2 290.7 Z M 1115.7 290.7 C 1109.9 293.0 1109.0 285.2 1109.0 250.1 L 1109.0 206.7 L 1133.1 198.6 C 1146.6 194.1 1159.4 190.2 1161.5 190.0 C 1162.1 189.9 1162.6 191.0 1163.1 193.2 C 1163.1 193.2 1163.0 193.3 1163.1 193.4 L 1164.3 227.2 C 1165.2 249.9 1164.8 271.0 1163.5 274.3 C 1163.3 274.9 1162.5 275.8 1161.5 276.6 L 1144.2 281.7 C 1132.5 285.2 1119.7 289.2 1115.7 290.7 Z M 1240.8 290.7 C 1236.9 289.2 1224.1 285.2 1212.5 281.7 L 1191.0 275.4 L 1191.0 232.5 L 1191.0 231.8 C 1191.0 196.7 1192.6 188.9 1198.5 191.1 C 1202.4 192.6 1215.2 196.7 1226.8 200.2 L 1248.0 206.5 L 1248.0 250.1 C 1248.0 285.2 1246.6 293.0 1240.8 290.7 Z M 1086.7 178.8 C 1080.7 178.5 1074.8 177.7 1069.8 176.2 C 1049.6 170.2 1049.4 169.9 1062.0 165.0 C 1069.1 162.3 1078.4 158.9 1082.7 157.6 C 1091.5 154.8 1124.1 163.7 1124.1 168.9 C 1124.1 175.3 1104.8 179.6 1086.7 178.8 Z M 1022.4 148.2 C 1021.5 148.2 1021.0 129.0 1021.0 105.4 L 1021.0 62.6 L 1045.3 54.4 C 1058.8 49.9 1070.4 46.1 1071.1 45.8 C 1071.8 45.5 1072.0 64.7 1072.0 88.5 L 1072.0 131.9 L 1048.2 140.0 C 1034.9 144.5 1023.3 148.2 1022.4 148.2 Z M 1153.0 146.6 C 1149.0 145.0 1136.3 141.0 1124.6 137.5 L 1103.0 131.2 L 1103.0 88.3 L 1103.0 87.7 C 1103.0 52.5 1104.8 44.7 1110.6 46.9 C 1114.6 48.4 1127.3 52.5 1139.0 56.0 L 1160.0 62.3 L 1160.0 105.9 C 1160.0 141.0 1158.8 148.8 1153.0 146.6 Z M 1461.1 94.5 C 1459.6 94.1 1458.2 93.2 1457.3 91.7 C 1455.5 88.9 1457.8 86.5 1462.2 86.5 C 1471.3 86.5 1472.6 89.6 1465.4 94.0 C 1464.1 94.8 1462.5 94.9 1461.1 94.5 Z M 1713.1 91.6 C 1707.4 91.6 1702.7 89.3 1702.7 86.5 C 1702.7 83.6 1707.4 81.3 1713.1 81.3 C 1718.8 81.3 1723.4 83.6 1723.4 86.5 C 1723.4 89.3 1718.8 91.6 1713.1 91.6 Z M 2023.1 91.6 C 2017.4 91.6 2012.7 89.3 2012.7 86.5 C 2012.7 83.6 2017.4 81.3 2023.1 81.3 C 2028.8 81.3 2033.4 83.6 2033.4 86.5 C 2033.4 89.3 2028.8 91.6 2023.1 91.6 Z M 2023.1 91.6 "></path></clipPath><g clip-path="url(#clip-191)"><image xlink:href="../../B7F9B98D-F7BC-4C2C-9FD7-85ABEEFC4F7B/assets/144146D59F77F946945557CF6CE0059D.png" width="600.00" height="300.00" transform="matrix(2.56, 0.00, -0.00, -2.56, 788.0, 637.0)"></image></g></g></g></g><image xlink:href="../../B7F9B98D-F7BC-4C2C-9FD7-85ABEEFC4F7B/assets/68B8BB4D6317FDBDF753A9E72ED2DD57.png" width="497.00" height="270.00" transform="matrix(1.53, 0.00, -0.00, -1.53, 777.0, 481.0)"></image><image xlink:href="../../B7F9B98D-F7BC-4C2C-9FD7-85ABEEFC4F7B/assets/5D3AC2C13E7C97906E67704CA31CBDF1.png" width="360.00" height="140.00" transform="matrix(1.00, 0.00, -0.00, -1.00, 880.0, 587.0)"></image><image xlink:href="../../B7F9B98D-F7BC-4C2C-9FD7-85ABEEFC4F7B/assets/A3DE2F14C0A68C76432870E04702156D.png" width="400.00" height="400.00" transform="matrix(1.00, 0.00, -0.00, -1.00, 1179.0, 827.0)"></image><image xlink:href="../../B7F9B98D-F7BC-4C2C-9FD7-85ABEEFC4F7B/assets/4AEB769B6312BE37C834C5936FBFB566.png" width="443.00" height="436.00" transform="matrix(1.00, 0.00, -0.00, -1.00, 1404.0, 461.0)"></image></g></svg>