<?xml version="1.0" encoding="UTF-8" standalone="no"?><svg xmlns="http://www.w3.org/2000/svg" xmlns:xlink="http://www.w3.org/1999/xlink" clip-rule="evenodd" stroke-miterlimit="4.00" viewBox="0 0 598 542"><desc>SVG generated by Keynote</desc><defs></defs><g transform="matrix(1.00, 0.00, -0.00, -1.00, 0.0, 542.0)"><g><clipPath id="clip-152"><path d="M 2.0 540.0 L 597.0 540.0 L 597.0 2.0 L 2.0 2.0 Z M 1.8 540.5 "></path></clipPath><g clip-path="url(#clip-152)"><g><clipPath id="clip-153"><path d="M 188.0 540.4 C 162.8 541.1 143.6 527.0 134.4 498.6 C 127.7 477.9 126.9 438.3 132.5 404.4 C 135.5 386.2 136.1 377.6 134.6 375.8 C 133.5 374.4 127.2 372.2 120.7 371.0 C 89.7 364.9 50.8 348.8 30.2 333.7 C -3.3 308.9 -7.6 273.2 19.4 242.8 C 31.7 229.0 63.1 208.6 71.0 209.4 C 76.1 209.9 77.2 210.9 77.7 216.2 C 78.2 222.0 77.3 223.1 64.7 230.4 C 47.9 240.3 32.6 253.8 25.2 265.5 C 7.3 293.7 32.4 324.0 90.2 344.1 C 115.6 352.9 138.2 357.8 140.9 355.2 C 142.1 353.9 147.4 339.9 152.7 324.0 C 158.0 308.0 163.9 291.2 165.8 286.6 L 169.2 278.2 L 159.0 257.8 C 105.5 151.0 94.1 57.8 130.8 26.3 C 141.4 17.2 153.1 14.1 172.5 15.3 C 190.1 16.4 208.0 23.0 231.8 37.1 C 248.2 46.9 253.2 53.0 249.9 59.2 C 246.6 65.3 240.6 64.4 228.3 56.2 C 202.4 39.0 173.4 29.0 157.9 31.9 C 146.5 34.1 134.0 47.1 129.8 61.3 C 121.2 90.2 130.2 144.3 152.9 200.9 C 163.1 226.4 174.6 250.9 177.0 252.4 C 178.1 253.1 184.8 241.9 192.0 227.6 C 253.4 105.0 334.7 14.8 394.7 3.0 C 421.7 -2.4 444.0 7.8 455.8 30.9 C 476.3 71.2 467.7 153.2 433.5 244.9 C 420.5 279.5 406.8 309.1 403.1 310.5 C 398.3 312.3 391.2 308.5 391.2 304.1 C 391.2 301.9 395.2 291.1 400.0 280.3 C 420.9 233.8 439.0 177.0 446.0 136.2 C 450.1 112.8 449.4 62.8 444.9 50.3 C 427.5 1.6 383.5 9.7 320.3 73.2 C 293.7 100.0 265.9 135.5 243.8 170.9 C 230.8 191.9 198.5 253.2 192.2 269.0 L 188.9 277.4 L 202.8 300.5 C 210.4 313.2 223.9 333.9 232.7 346.5 L 248.7 369.3 L 285.1 368.1 C 339.3 366.2 384.9 360.4 430.6 349.6 C 525.4 327.1 586.8 284.1 575.0 248.4 C 571.1 236.3 553.9 221.1 531.1 209.4 C 510.2 198.6 506.9 195.3 510.5 188.6 C 513.4 183.1 518.6 183.8 536.0 191.8 C 566.1 205.7 585.3 223.5 591.3 243.1 C 592.5 247.1 594.5 252.5 595.7 255.0 C 597.4 258.4 597.4 260.2 595.6 262.0 C 594.3 263.3 593.2 265.9 593.2 267.7 C 593.2 269.5 590.5 276.6 587.0 283.4 C 561.1 335.4 437.9 379.0 301.7 384.2 C 283.1 385.0 267.3 386.4 266.7 387.3 C 264.9 390.3 270.8 397.6 296.7 424.6 C 350.6 480.5 396.6 510.3 429.2 510.3 C 447.5 510.3 460.7 499.4 466.0 480.0 C 469.1 468.8 469.2 438.6 466.2 422.7 C 463.7 408.9 465.6 403.1 472.9 403.1 C 480.0 403.1 481.6 406.5 484.3 426.4 C 491.4 480.2 477.7 516.6 446.9 525.5 C 401.7 538.7 331.9 495.8 258.7 410.0 L 237.9 385.6 L 215.0 384.2 C 202.4 383.5 184.5 381.9 175.1 380.7 C 155.0 377.9 154.4 378.3 151.0 398.1 C 136.3 482.2 154.1 531.5 195.8 522.5 C 209.1 519.6 227.6 510.3 242.4 498.9 C 256.8 487.7 264.6 487.3 265.6 497.5 C 266.1 503.2 264.9 504.8 255.5 512.0 C 230.7 530.5 207.6 539.9 188.0 540.4 Z M 211.8 366.6 C 217.3 366.7 219.7 366.0 220.5 364.7 C 221.1 363.7 215.4 353.4 207.8 342.0 C 200.2 330.6 191.4 316.9 188.3 311.6 C 185.3 306.3 181.9 302.0 181.0 302.0 C 177.3 302.0 159.5 354.2 161.5 359.2 C 162.2 361.1 169.6 362.7 184.5 364.3 C 197.8 365.8 206.4 366.5 211.8 366.6 Z M 300.7 298.0 C 282.7 298.0 271.1 288.2 268.7 271.0 C 266.9 257.8 273.4 245.1 284.7 239.5 C 295.6 234.1 303.3 234.2 314.4 239.8 C 342.4 254.2 332.2 297.9 300.7 298.0 Z M 300.7 298.0 "></path></clipPath><g clip-path="url(#clip-153)"><image xlink:href="6CAB681F275D49FCA231D5BAB6FBEBC7.png" width="600.00" height="550.00" transform="matrix(1.00, 0.00, -0.00, -1.00, -3.0, 547.0)"></image></g></g></g></g></g></svg>