<?xml version="1.0" encoding="UTF-8" standalone="no"?><svg xmlns="http://www.w3.org/2000/svg" xmlns:xlink="http://www.w3.org/1999/xlink" clip-rule="evenodd" stroke-miterlimit="4.00" viewBox="0 0 912 86"><desc>SVG generated by Keynote</desc><defs></defs><g transform="matrix(1.00, 0.00, -0.00, -1.00, 0.0, 86.0)"><image xlink:href="../../EE232DFB-60A5-496D-ADBA-B0DFFB0BB1FA/assets/4D9D2858B262741BCC95E5EAEC950D15.png" width="909.00" height="83.00" transform="matrix(1.00, 0.00, -0.00, -1.00, 1.0, 84.0)"></image><text xml:space="preserve" font-family="HelveticaNeue-Light" font-size="100.0" fill="#FEFFFE" transform="matrix(1.00, 0.00, -0.00, -1.00, 5.0, 10.0)">W</text><text xml:space="preserve" font-family="HelveticaNeue-Light" font-size="100.0" fill="#FEFFFE" transform="matrix(1.00, 0.00, -0.00, -1.00, 95.7, 10.0)">h</text><text xml:space="preserve" font-family="HelveticaNeue-Light" font-size="100.0" fill="#FEFFFE" transform="matrix(1.00, 0.00, -0.00, -1.00, 149.4, 10.0)">a</text><text xml:space="preserve" font-family="HelveticaNeue-Light" font-size="100.0" fill="#FEFFFE" transform="matrix(1.00, 0.00, -0.00, -1.00, 201.3, 10.0)">t</text><text xml:space="preserve" font-family="HelveticaNeue-Light" font-size="100.0" fill="#FEFFFE" transform="matrix(1.00, 0.00, -0.00, -1.00, 230.9, 10.0)"> </text><text xml:space="preserve" font-family="HelveticaNeue-Light" font-size="100.0" fill="#FEFFFE" transform="matrix(1.00, 0.00, -0.00, -1.00, 258.7, 10.0)">i</text><text xml:space="preserve" font-family="HelveticaNeue-Light" font-size="100.0" fill="#FEFFFE" transform="matrix(1.00, 0.00, -0.00, -1.00, 277.2, 10.0)">s</text><text xml:space="preserve" font-family="HelveticaNeue-Light" font-size="100.0" fill="#FEFFFE" transform="matrix(1.00, 0.00, -0.00, -1.00, 325.3, 10.0)"> </text><text xml:space="preserve" font-family="HelveticaNeue-Light" font-size="100.0" fill="#FEFFFE" transform="matrix(1.00, 0.00, -0.00, -1.00, 353.1, 10.0)">a</text><text xml:space="preserve" font-family="HelveticaNeue-Light" font-size="100.0" fill="#FEFFFE" transform="matrix(1.00, 0.00, -0.00, -1.00, 405.0, 10.0)"> </text><text xml:space="preserve" font-family="HelveticaNeue-Light" font-size="100.0" fill="#FEFFFE" transform="matrix(1.00, 0.00, -0.00, -1.00, 432.8, 10.0)">“</text><text xml:space="preserve" font-family="HelveticaNeue-Light" font-size="100.0" fill="#FEFFFE" transform="matrix(1.00, 0.00, -0.00, -1.00, 469.8, 10.0)">S</text><text xml:space="preserve" font-family="HelveticaNeue-Light" font-size="100.0" fill="#FEFFFE" transform="matrix(1.00, 0.00, -0.00, -1.00, 532.8, 10.0)">i</text><text xml:space="preserve" font-family="HelveticaNeue-Light" font-size="100.0" fill="#FEFFFE" transform="matrix(1.00, 0.00, -0.00, -1.00, 551.3, 10.0)">m</text><text xml:space="preserve" font-family="HelveticaNeue-Light" font-size="100.0" fill="#FEFFFE" transform="matrix(1.00, 0.00, -0.00, -1.00, 634.6, 10.0)">u</text><text xml:space="preserve" font-family="HelveticaNeue-Light" font-size="100.0" fill="#FEFFFE" transform="matrix(1.00, 0.00, -0.00, -1.00, 688.3, 10.0)">l</text><text xml:space="preserve" font-family="HelveticaNeue-Light" font-size="100.0" fill="#FEFFFE" transform="matrix(1.00, 0.00, -0.00, -1.00, 706.8, 10.0)">a</text><text xml:space="preserve" font-family="HelveticaNeue-Light" font-size="100.0" fill="#FEFFFE" transform="matrix(1.00, 0.00, -0.00, -1.00, 758.7, 10.0)">t</text><text xml:space="preserve" font-family="HelveticaNeue-Light" font-size="100.0" fill="#FEFFFE" transform="matrix(1.00, 0.00, -0.00, -1.00, 788.3, 10.0)">o</text><text xml:space="preserve" font-family="HelveticaNeue-Light" font-size="100.0" fill="#FEFFFE" transform="matrix(1.00, 0.00, -0.00, -1.00, 843.9, 10.0)">r</text><text xml:space="preserve" font-family="HelveticaNeue-Light" font-size="100.0" fill="#FEFFFE" transform="matrix(1.00, 0.00, -0.00, -1.00, 875.4, 10.0)">”</text></g></svg>