<?xml version="1.0" encoding="utf-8"?>
<!-- Generator: Adobe Illustrator 14.0.0, SVG Export Plug-In . SVG Version: 6.00 Build 43363)  -->
<!DOCTYPE svg PUBLIC "-//W3C//DTD SVG 1.1//EN" "http://www.w3.org/Graphics/SVG/1.1/DTD/svg11.dtd">
<svg version="1.1" id="Layer_1" xmlns="http://www.w3.org/2000/svg" xmlns:xlink="http://www.w3.org/1999/xlink" x="0px" y="0px"
	 width="34px" height="34px" viewBox="0 0 34 34" enable-background="new 0 0 34 34" xml:space="preserve">
<path fill="#231F20" d="M22.528,14.898V4.223c0-0.211-0.171-0.381-0.381-0.381H4.223c-0.211,0-0.381,0.17-0.381,0.381v17.926
	c0,0.21,0.17,0.381,0.381,0.381h10.676v7.629h15.26v-15.26H22.528z M4.604,21.768V4.604h17.163v10.295h-6.868v6.869H4.604z"/>
<path fill="#231F20" d="M104.948,4.657H87.023c-0.211,0-0.381,0.17-0.381,0.381v17.925c0,0.209,0.17,0.381,0.381,0.381h17.925
	c0.21,0,0.381-0.172,0.381-0.381V5.039C105.329,4.827,105.158,4.657,104.948,4.657 M104.566,22.583H87.404V5.419h17.162V22.583z"/>
<polygon fill="#231F20" points="104.566,15.714 104.566,22.583 97.699,22.583 97.699,30.974 112.959,30.974 112.959,15.714 "/>
</svg>
