<?xml version="1.0" encoding="utf-8"?>
<!-- Generator: Adobe Illustrator 14.0.0, SVG Export Plug-In . SVG Version: 6.00 Build 43363)  -->
<!DOCTYPE svg PUBLIC "-//W3C//DTD SVG 1.1//EN" "http://www.w3.org/Graphics/SVG/1.1/DTD/svg11.dtd">
<svg version="1.1" id="Layer_1" xmlns="http://www.w3.org/2000/svg" xmlns:xlink="http://www.w3.org/1999/xlink" x="0px" y="0px"
	 width="30px" height="30px" viewBox="0 0 30 30" enable-background="new 0 0 30 30" xml:space="preserve">
<path fill="#231F20" d="M21.523,2.875H8.476c-0.207,0-0.375-0.168-0.375-0.375s0.168-0.375,0.375-0.375h13.047
	c0.207,0,0.375,0.168,0.375,0.375S21.73,2.875,21.523,2.875"/>
<path fill="#231F20" d="M28.516,7.875H1.484c-0.206,0-0.375-0.168-0.375-0.375s0.169-0.375,0.375-0.375h27.032
	c0.207,0,0.375,0.168,0.375,0.375S28.723,7.875,28.516,7.875"/>
<path fill="#231F20" d="M28.422,12.875H1.578c-0.207,0-0.375-0.168-0.375-0.375s0.168-0.375,0.375-0.375h26.844
	c0.207,0,0.375,0.168,0.375,0.375S28.629,12.875,28.422,12.875"/>
<path fill="#231F20" d="M25.91,17.875H4.089c-0.206,0-0.375-0.168-0.375-0.375s0.169-0.375,0.375-0.375H25.91
	c0.207,0,0.375,0.168,0.375,0.375S26.117,17.875,25.91,17.875"/>
<path fill="#231F20" d="M28.234,22.875H1.765c-0.207,0-0.375-0.168-0.375-0.375s0.168-0.375,0.375-0.375h26.469
	c0.207,0,0.375,0.168,0.375,0.375S28.441,22.875,28.234,22.875"/>
<path fill="#231F20" d="M25.949,27.875h-21.9c-0.207,0-0.375-0.168-0.375-0.375s0.168-0.375,0.375-0.375h21.9
	c0.207,0,0.375,0.168,0.375,0.375S26.156,27.875,25.949,27.875"/>
</svg>
