<?xml version="1.0" encoding="utf-8"?>
<!-- Generator: Adobe Illustrator 14.0.0, SVG Export Plug-In . SVG Version: 6.00 Build 43363)  -->
<!DOCTYPE svg PUBLIC "-//W3C//DTD SVG 1.1//EN" "http://www.w3.org/Graphics/SVG/1.1/DTD/svg11.dtd">
<svg version="1.1" id="Layer_1" xmlns="http://www.w3.org/2000/svg" xmlns:xlink="http://www.w3.org/1999/xlink" x="0px" y="0px"
	 width="30px" height="30px" viewBox="0 0 30 30" enable-background="new 0 0 30 30" xml:space="preserve">
<polygon fill="#178DED" points="9.914,17.716 17.799,10.392 19.822,13.753 24.217,10.08 27.75,15.519 26.459,20.861 "/>
<polygon fill="#999999" points="0.693,6.945 5.26,22.024 14.394,19.095 5.864,17.285 5.476,16.897 7.544,4.834 8.449,1.775 
	22.494,4.102 20.943,0.612 14.206,2.163 8.492,1.301 7.759,2.292 6.984,5.049 "/>
<ellipse fill="#FFFF00" cx="12.291" cy="8.249" rx="1.915" ry="1.831"/>
<path d="M12.774,5.719c-0.16-0.028-0.323-0.042-0.486-0.042c-1.271,0-2.362,0.907-2.595,2.156c-0.268,1.433,0.68,2.815,2.111,3.083
	c0.162,0.03,0.326,0.047,0.487,0.047c1.273,0,2.363-0.912,2.597-2.164c0.129-0.692-0.021-1.393-0.419-1.977
	C14.071,6.242,13.47,5.85,12.774,5.719 M13.689,8.576c-0.144,0.762-0.871,1.291-1.661,1.141c-0.771-0.144-1.283-0.888-1.138-1.66
	c0.125-0.673,0.714-1.165,1.397-1.165c0.088,0,0.174,0.011,0.263,0.027c0.374,0.068,0.698,0.278,0.913,0.594
	C13.679,7.826,13.76,8.206,13.689,8.576"/>
<path d="M28.789,4.701l-5.937-1.106l-0.825-2.637c-0.219-0.706-1.005-1.12-1.712-0.896L14.19,1.979L8.853,0.984
	C8.1,0.846,7.394,1.346,7.26,2.076L6.85,4.275l-5.89,1.842C0.24,6.343-0.163,7.113,0.063,7.83l4.333,13.846
	c0.179,0.574,0.704,0.958,1.304,0.96c0.138,0,0.275-0.022,0.409-0.062l1.754-0.551c-0.003-0.133,0.001-0.268,0.036-0.402
	c0.078-0.308,0.179-0.611,0.299-0.917l0.026-0.07l-2.478,0.773c-0.016,0.005-0.033,0.009-0.045,0.009
	c-0.054,0-0.119-0.032-0.141-0.103L1.227,7.47C1.2,7.388,1.246,7.304,1.322,7.283l5.274-1.648l-2,10.703
	c-0.135,0.739,0.355,1.456,1.096,1.594l5.214,0.973l-0.115-0.422c-0.077-0.281-0.053-0.568,0.04-0.833l-0.064-0.012l0.107-0.104
	c0.117-0.257,0.305-0.485,0.559-0.634c0.081-0.049,0.173-0.086,0.258-0.133l5.96-5.604l1.643,3.366
	c0.089,0.182,0.259,0.308,0.457,0.337c0.196,0.026,0.4-0.041,0.536-0.189l3.829-4.104l2.633,5.86l-0.725,3.898
	c-0.016,0.078-0.084,0.121-0.145,0.121l-3.808-0.711c0.241,0.43,0.436,0.884,0.592,1.353l2.963,0.554
	c0.086,0.015,0.17,0.024,0.253,0.024c0.657,0,1.222-0.471,1.343-1.116l2.658-14.261C30.018,5.556,29.53,4.84,28.789,4.701
	 M20.722,1.217c0.055,0,0.121,0.033,0.138,0.106l0.635,2.017l-4.737-0.882L20.722,1.217z M27.143,14.336L24.851,9.24
	c-0.083-0.184-0.255-0.316-0.454-0.348c-0.201-0.037-0.408,0.035-0.546,0.183l-3.848,4.123l-1.617-3.313
	c-0.084-0.173-0.246-0.295-0.438-0.334c-0.189-0.034-0.388,0.024-0.527,0.155L9.283,17.36l-3.366-0.626
	c-0.082-0.014-0.134-0.094-0.121-0.173L8.458,2.299C8.47,2.224,8.539,2.181,8.621,2.181h0.007l19.94,3.721
	c0.078,0.016,0.133,0.093,0.115,0.173L27.143,14.336z"/>
<path d="M16.279,21.112c-0.292-0.12-0.6-0.182-0.911-0.182c-0.981,0-1.855,0.587-2.229,1.497c-0.241,0.593-0.24,1.247,0.009,1.84
	c0.247,0.595,0.713,1.055,1.309,1.298c0.289,0.12,0.597,0.18,0.911,0.18c0.98,0,1.855-0.586,2.228-1.494
	C18.095,23.022,17.509,21.613,16.279,21.112 M16.638,23.859c-0.213,0.52-0.71,0.853-1.27,0.853c-0.179,0-0.354-0.032-0.519-0.104
	c-0.34-0.137-0.605-0.401-0.747-0.738c-0.143-0.339-0.143-0.713-0.005-1.051c0.213-0.52,0.712-0.854,1.272-0.854
	c0.177,0,0.353,0.035,0.52,0.104C16.589,22.355,16.924,23.157,16.638,23.859"/>
<path fill="#FFFFFF" d="M22.149,23.668l-0.622-0.355l0.618-0.358c0.546-0.32,0.813-0.969,0.653-1.578
	c-0.183-0.688-0.46-1.347-0.822-1.957c-0.251-0.425-0.714-0.691-1.211-0.691c-0.12,0-0.24,0.018-0.356,0.047l-0.704,0.193
	l0.185-0.696c0.16-0.608-0.108-1.258-0.655-1.575c-0.307-0.178-0.63-0.338-0.954-0.471c-0.321-0.134-0.662-0.244-1.011-0.334
	c-0.108-0.028-0.229-0.042-0.349-0.042c-0.501,0-0.968,0.271-1.221,0.707l-0.357,0.626l-0.362-0.622
	c-0.249-0.433-0.714-0.701-1.216-0.701c-0.122,0-0.244,0.016-0.361,0.049c-0.31,0.08-0.624,0.187-0.932,0.312l-0.143,0.058
	c-0.313,0.136-0.61,0.285-0.883,0.449c-0.539,0.319-0.805,0.969-0.636,1.58l0.188,0.695l-0.697-0.183
	c-0.117-0.03-0.239-0.048-0.362-0.048c-0.495,0-0.962,0.267-1.212,0.697c-0.161,0.273-0.303,0.56-0.429,0.858l-0.08,0.19
	c-0.119,0.307-0.216,0.609-0.296,0.916c-0.157,0.608,0.115,1.258,0.666,1.569l0.627,0.359L8.59,23.728
	c-0.547,0.316-0.815,0.965-0.655,1.574c0.083,0.314,0.188,0.628,0.315,0.935l0.057,0.139c0.136,0.311,0.286,0.604,0.45,0.886
	c0.251,0.423,0.718,0.686,1.212,0.686c0.122,0,0.244-0.014,0.362-0.045l0.704-0.191l-0.187,0.695
	c-0.162,0.611,0.11,1.259,0.653,1.576c0.312,0.182,0.63,0.338,0.955,0.471c0.324,0.13,0.666,0.243,1.01,0.332
	c0.119,0.03,0.233,0.044,0.349,0.044c0.501,0,0.972-0.271,1.219-0.707l0.359-0.627l0.361,0.621c0.251,0.431,0.716,0.699,1.214,0.699
	c0.124,0,0.248-0.015,0.364-0.046c0.683-0.183,1.342-0.46,1.956-0.822c0.54-0.32,0.806-0.969,0.64-1.58l-0.189-0.693l0.693,0.184
	c0.118,0.031,0.238,0.047,0.358,0.047c0.502,0,0.965-0.267,1.218-0.699c0.18-0.306,0.336-0.63,0.473-0.954
	c0.13-0.32,0.24-0.662,0.33-1.013C22.97,24.628,22.696,23.981,22.149,23.668 M12.165,22.848c0.047-0.307-0.01-0.618-0.153-0.883
	c0.29-0.089,0.549-0.272,0.732-0.526c0.195-0.272,0.432-0.513,0.706-0.711c0.256-0.188,0.434-0.446,0.521-0.735
	c0.198,0.106,0.425,0.166,0.655,0.166h0.073l0.153-0.02c0.172-0.028,0.345-0.042,0.519-0.042c0.162,0,0.326,0.013,0.486,0.038
	l0.068,0.011l0.148,0.007c0.238,0,0.468-0.061,0.67-0.171c0.091,0.29,0.269,0.549,0.522,0.73c0.272,0.196,0.511,0.436,0.711,0.709
	c0.184,0.249,0.446,0.429,0.735,0.518c-0.14,0.267-0.196,0.576-0.146,0.887c0.056,0.332,0.056,0.669,0.004,1.001
	c-0.047,0.309,0.014,0.619,0.156,0.886c-0.291,0.089-0.55,0.27-0.733,0.524c-0.196,0.273-0.436,0.512-0.702,0.711
	c-0.256,0.183-0.436,0.445-0.519,0.734c-0.2-0.106-0.429-0.163-0.662-0.163h-0.073l-0.157,0.017
	c-0.169,0.028-0.341,0.042-0.516,0.042c-0.16,0-0.324-0.012-0.484-0.038l-0.066-0.011l-0.148-0.003c-0.237,0-0.467,0.059-0.67,0.171
	c-0.089-0.288-0.269-0.548-0.521-0.73c-0.273-0.196-0.516-0.436-0.712-0.705c-0.187-0.255-0.45-0.433-0.739-0.52
	c0.143-0.267,0.197-0.578,0.146-0.889C12.115,23.521,12.113,23.181,12.165,22.848"/>
<path d="M21.727,24.449l-1.198-0.687c0.023-0.297,0.022-0.594-0.004-0.891l1.192-0.694c0.201-0.114,0.301-0.354,0.241-0.58
	c-0.161-0.607-0.408-1.191-0.728-1.735c-0.118-0.201-0.356-0.293-0.582-0.234l-1.329,0.364c-0.192-0.228-0.405-0.438-0.637-0.632
	l0.356-1.329c0.061-0.228-0.04-0.465-0.24-0.581c-0.28-0.16-0.563-0.302-0.848-0.419c-0.285-0.115-0.586-0.217-0.896-0.295
	c-0.224-0.06-0.463,0.043-0.577,0.245l-0.683,1.194c-0.298-0.022-0.596-0.022-0.895,0.008l-0.695-1.194
	c-0.116-0.2-0.354-0.301-0.577-0.239c-0.278,0.071-0.554,0.166-0.831,0.277l-0.133,0.057c-0.267,0.113-0.526,0.244-0.773,0.391
	c-0.2,0.119-0.297,0.356-0.234,0.582l0.363,1.33c-0.229,0.194-0.44,0.406-0.631,0.635l-1.334-0.347
	c-0.225-0.064-0.461,0.036-0.58,0.236c-0.137,0.239-0.267,0.493-0.379,0.761l-0.074,0.176c-0.101,0.262-0.189,0.529-0.259,0.804
	c-0.057,0.226,0.043,0.461,0.245,0.577l1.197,0.684c-0.025,0.299-0.025,0.598,0.004,0.896l-1.191,0.694
	c-0.2,0.117-0.299,0.354-0.24,0.578c0.073,0.277,0.166,0.556,0.277,0.826l0.056,0.133c0.116,0.268,0.248,0.53,0.394,0.774
	c0.12,0.203,0.358,0.297,0.583,0.237l1.331-0.362c0.192,0.227,0.406,0.439,0.635,0.628l-0.353,1.333
	c-0.059,0.226,0.039,0.461,0.242,0.58c0.273,0.158,0.558,0.301,0.841,0.416c0.287,0.116,0.589,0.216,0.9,0.297
	c0.042,0.008,0.086,0.015,0.129,0.015c0.181,0,0.354-0.098,0.448-0.26l0.683-1.196c0.299,0.02,0.596,0.02,0.894-0.006l0.694,1.191
	c0.117,0.203,0.352,0.3,0.578,0.24c0.61-0.162,1.192-0.407,1.735-0.729c0.201-0.116,0.297-0.357,0.237-0.58l-0.364-1.33
	c0.227-0.192,0.438-0.405,0.625-0.634l1.336,0.354c0.224,0.059,0.461-0.041,0.578-0.24c0.162-0.276,0.303-0.562,0.418-0.848
	c0.118-0.283,0.217-0.586,0.295-0.895C22.027,24.8,21.928,24.562,21.727,24.449 M20.72,25.528c-0.052,0.126-0.112,0.25-0.17,0.376
	l-1.272-0.336c-0.205-0.057-0.423,0.023-0.55,0.196c-0.252,0.351-0.558,0.658-0.905,0.911c-0.173,0.127-0.249,0.349-0.191,0.556
	l0.346,1.266c-0.244,0.124-0.5,0.231-0.758,0.316l-0.66-1.134c-0.108-0.186-0.317-0.287-0.53-0.251
	c-0.422,0.071-0.861,0.071-1.285,0.008c-0.213-0.035-0.421,0.068-0.527,0.254l-0.652,1.142c-0.132-0.045-0.263-0.092-0.386-0.144
	c-0.126-0.05-0.251-0.105-0.373-0.169l0.336-1.269c0.054-0.207-0.025-0.426-0.197-0.55c-0.352-0.253-0.659-0.559-0.914-0.907
	c-0.128-0.174-0.347-0.249-0.555-0.193l-1.267,0.347c-0.051-0.102-0.103-0.207-0.145-0.311l-0.052-0.122
	c-0.043-0.108-0.084-0.215-0.12-0.326l1.134-0.658c0.186-0.108,0.285-0.32,0.251-0.528c-0.07-0.43-0.072-0.863-0.007-1.291
	c0.032-0.212-0.068-0.421-0.254-0.527l-1.14-0.649c0.034-0.104,0.069-0.203,0.107-0.302l0.069-0.162
	c0.042-0.1,0.087-0.197,0.135-0.298l1.269,0.337c0.209,0.057,0.427-0.022,0.552-0.197c0.252-0.353,0.559-0.658,0.91-0.913
	c0.171-0.128,0.249-0.346,0.193-0.557l-0.347-1.265c0.099-0.05,0.203-0.1,0.308-0.143l0.121-0.052
	c0.108-0.045,0.219-0.086,0.328-0.124l0.661,1.137c0.106,0.186,0.313,0.284,0.53,0.251c0.426-0.069,0.863-0.071,1.286-0.005
	c0.212,0.032,0.423-0.068,0.527-0.256l0.653-1.139c0.13,0.041,0.259,0.089,0.382,0.14c0.126,0.052,0.253,0.107,0.378,0.17
	l-0.337,1.271c-0.056,0.208,0.024,0.426,0.198,0.552c0.347,0.252,0.655,0.556,0.91,0.906c0.128,0.172,0.347,0.25,0.556,0.193
	l1.266-0.347c0.124,0.244,0.229,0.496,0.314,0.757l-1.133,0.662c-0.185,0.105-0.286,0.318-0.251,0.53
	c0.069,0.427,0.071,0.855,0.004,1.283c-0.03,0.211,0.071,0.422,0.255,0.527l1.142,0.652C20.818,25.275,20.77,25.402,20.72,25.528"/>
</svg>
