<?xml version="1.0" encoding="utf-8"?>
<!-- Generator: Adobe Illustrator 14.0.0, SVG Export Plug-In . SVG Version: 6.00 Build 43363)  -->
<!DOCTYPE svg PUBLIC "-//W3C//DTD SVG 1.1//EN" "http://www.w3.org/Graphics/SVG/1.1/DTD/svg11.dtd">
<svg version="1.1" id="Layer_1" xmlns="http://www.w3.org/2000/svg" xmlns:xlink="http://www.w3.org/1999/xlink" x="0px" y="0px"
	 width="31px" height="40px" viewBox="-0.5 -5 31 40" enable-background="new -0.5 -5 31 40" xml:space="preserve">
<polygon fill="#178DED" points="9.955,23.08 17.84,15.758 19.863,19.117 24.259,15.445 27.792,20.884 26.5,26.227 "/>
<polygon fill="#999999" points="0.735,12.311 5.302,27.39 14.436,24.46 5.905,22.65 5.517,22.263 7.585,10.199 8.49,7.14 
	22.536,9.467 20.984,5.977 14.247,7.528 8.533,6.666 7.801,7.657 7.025,10.414 "/>
<ellipse fill="#FFFF00" cx="12.332" cy="13.614" rx="1.915" ry="1.831"/>
<path d="M28.889,9.992l-5.961-1.111L22.1,6.234c-0.222-0.712-1.01-1.127-1.721-0.902l-6.152,1.925L8.87,6.259
	c-0.757-0.14-1.465,0.365-1.602,1.098L6.857,9.562l-5.914,1.853c-0.723,0.226-1.127,0.998-0.9,1.721l4.351,13.904
	C4.574,27.613,5.101,28,5.703,28c0.14,0,0.276-0.021,0.411-0.062l9.172-2.873l10.429,1.945c0.087,0.016,0.174,0.025,0.256,0.025
	c0.659,0,1.227-0.471,1.348-1.119l2.67-14.322C30.126,10.851,29.633,10.13,28.889,9.992 M20.79,6.49c0.053,0,0.119,0.036,0.142,0.11
	l0.635,2.023l-4.76-0.888L20.79,6.49z M5.746,26.768c-0.014,0.004-0.031,0.008-0.044,0.008c-0.053,0-0.119-0.031-0.141-0.106
	L1.21,12.77c-0.025-0.08,0.019-0.166,0.097-0.186l5.296-1.657l-2.006,10.75c-0.138,0.74,0.354,1.463,1.099,1.599l7.021,1.312
	L5.746,26.768z M25.969,25.809l-15.176-2.826l6.914-6.502l1.648,3.381c0.088,0.183,0.26,0.309,0.459,0.34
	c0.197,0.025,0.399-0.041,0.537-0.19l3.848-4.121l2.646,5.884l-0.732,3.918C26.1,25.77,26.029,25.809,25.969,25.809 M27.236,19.667
	l-2.301-5.119c-0.086-0.185-0.258-0.317-0.461-0.351c-0.199-0.035-0.406,0.037-0.545,0.188l-3.863,4.141l-1.625-3.33
	c-0.084-0.177-0.246-0.295-0.438-0.334c-0.19-0.033-0.39,0.024-0.53,0.154l-8.172,7.686l-3.38-0.627
	c-0.083-0.015-0.135-0.094-0.12-0.172L8.473,7.578c0.012-0.077,0.079-0.119,0.165-0.119h0.008l20.021,3.738
	c0.079,0.014,0.134,0.09,0.119,0.172L27.236,19.667z"/>
<path d="M12.808,11.014c-0.161-0.029-0.326-0.045-0.49-0.045c-1.276,0-2.37,0.914-2.605,2.166c-0.268,1.439,0.685,2.829,2.122,3.098
	c0.163,0.03,0.326,0.045,0.49,0.045c1.276,0,2.372-0.914,2.605-2.17c0.13-0.695-0.02-1.398-0.42-1.986
	C14.108,11.537,13.504,11.146,12.808,11.014 M13.727,13.883c-0.144,0.766-0.877,1.296-1.668,1.145
	c-0.774-0.144-1.289-0.891-1.145-1.668c0.127-0.677,0.717-1.168,1.403-1.168c0.088,0,0.176,0.01,0.266,0.027
	c0.376,0.068,0.701,0.28,0.917,0.596C13.716,13.128,13.795,13.51,13.727,13.883"/>
</svg>
