<?xml version="1.0" encoding="utf-8"?>
<!-- Generator: Adobe Illustrator 14.0.0, SVG Export Plug-In . SVG Version: 6.00 Build 43363)  -->
<!DOCTYPE svg PUBLIC "-//W3C//DTD SVG 1.1//EN" "http://www.w3.org/Graphics/SVG/1.1/DTD/svg11.dtd">
<svg version="1.1" id="Layer_1" xmlns="http://www.w3.org/2000/svg" xmlns:xlink="http://www.w3.org/1999/xlink" x="0px" y="0px"
	 width="31px" height="40px" viewBox="-0.5 -5 31 40" enable-background="new -0.5 -5 31 40" xml:space="preserve">
<path stroke="#000000" stroke-width="0.75" stroke-miterlimit="10" d="M3.136-0.205h24.105l0.227,7.244h-1.019
	c-0.501-2.277-1.137-3.758-1.904-4.449c-0.771-0.682-2.393-1.026-4.859-1.026h-2.375v21.812c0,1.645,0.256,2.662,0.771,3.056
	c0.513,0.396,1.64,0.653,3.371,0.776V28H9.028v-0.791c1.802-0.134,2.926-0.432,3.371-0.893c0.442-0.454,0.667-1.604,0.667-3.438
	V1.564h-2.394c-2.359,0-3.969,0.338-4.822,1.02C4.994,3.266,4.356,4.748,3.925,7.04H2.886L3.136-0.205z"/>
</svg>
