<?xml version="1.0" encoding="utf-8"?>
<!-- Generator: Adobe Illustrator 14.0.0, SVG Export Plug-In . SVG Version: 6.00 Build 43363)  -->
<!DOCTYPE svg PUBLIC "-//W3C//DTD SVG 1.1//EN" "http://www.w3.org/Graphics/SVG/1.1/DTD/svg11.dtd">
<svg version="1.1" id="Layer_1" xmlns="http://www.w3.org/2000/svg" xmlns:xlink="http://www.w3.org/1999/xlink" x="0px" y="0px"
	 width="31px" height="40px" viewBox="-3.5 -8 31 40" enable-background="new -3.5 -8 31 40" xml:space="preserve">
<g>
	<g>
		<g>
			<defs>
				<path id="SVGID_1_" d="M1.366-0.005l6.35,6.926c1.261-1.165,2.443-2.073,4.293-2.073c2.125,0,3.121,0.584,4.419,2.072
					l6.554-6.386C20.207-2.41,16.27-4.245,11.91-4.245C7.822-4.245,4.106-2.632,1.366-0.005"/>
			</defs>
			<clipPath id="SVGID_2_">
				<use xlink:href="#SVGID_1_"  overflow="visible"/>
			</clipPath>
			
				<linearGradient id="SVGID_3_" gradientUnits="userSpaceOnUse" x1="-554.9424" y1="-250.1826" x2="-553.1729" y2="-250.1826" gradientTransform="matrix(12.2129 0 0 12.2129 6778.8193 3056.5088)">
				<stop  offset="0" style="stop-color:#EC1C24"/>
				<stop  offset="0.82" style="stop-color:#F6921E"/>
				<stop  offset="1" style="stop-color:#F6921E"/>
			</linearGradient>
			<rect x="1.366" y="-4.245" clip-path="url(#SVGID_2_)" fill="url(#SVGID_3_)" width="21.613" height="10.612"/>
		</g>
	</g>
	<g>
		<g>
			<defs>
				<path id="SVGID_4_" d="M15.685,6.549c1.164,1.267,1.966,2.276,1.966,4.133c0,2.132-0.485,2.902-1.966,4.205l6.178,6.946
					c2.938-2.79,4.767-6.738,4.767-11.118c0-4.102-1.613-7.825-4.229-10.572L15.685,6.549z"/>
			</defs>
			<clipPath id="SVGID_5_">
				<use xlink:href="#SVGID_4_"  overflow="visible"/>
			</clipPath>
			
				<linearGradient id="SVGID_6_" gradientUnits="userSpaceOnUse" x1="-540.9419" y1="-344.1021" x2="-539.1651" y2="-344.1021" gradientTransform="matrix(1.7766 9.5867 -9.5867 1.7766 -2317.437 5798.772)">
				<stop  offset="0" style="stop-color:#F6921E"/>
				<stop  offset="0.0135" style="stop-color:#F6921E"/>
				<stop  offset="0.4741" style="stop-color:#FFF100"/>
				<stop  offset="0.9886" style="stop-color:#8BC53F"/>
				<stop  offset="1" style="stop-color:#8BC53F"/>
			</linearGradient>
			<polygon clip-path="url(#SVGID_5_)" fill="url(#SVGID_6_)" points="27.01,-1.76 31.232,21.111 17.132,23.735 12.91,0.862 			"/>
		</g>
	</g>
	<g>
		<g>
			<defs>
				<path id="SVGID_7_" d="M1.159,20.399c2.781,2.945,6.714,4.778,11.076,4.778c4.088,0,7.801-1.614,10.541-4.242l-6.56-6.209
					c-1.262,1.17-2.19,1.646-4.042,1.646c-2.126,0-3.525-0.743-4.826-2.23L1.159,20.399z"/>
			</defs>
			<clipPath id="SVGID_8_">
				<use xlink:href="#SVGID_7_"  overflow="visible"/>
			</clipPath>
			
				<linearGradient id="SVGID_9_" gradientUnits="userSpaceOnUse" x1="-554.9741" y1="-249.5312" x2="-553.2041" y2="-249.5312" gradientTransform="matrix(12.2129 0 0 12.2129 6778.5537 3067.3604)">
				<stop  offset="0" style="stop-color:#26A9E0"/>
				<stop  offset="0.9886" style="stop-color:#8BC53F"/>
				<stop  offset="1" style="stop-color:#8BC53F"/>
			</linearGradient>
			<rect x="0.708" y="14.561" clip-path="url(#SVGID_8_)" fill="url(#SVGID_9_)" width="21.616" height="10.617"/>
		</g>
	</g>
	<g>
		<g>
			<defs>
				<path id="SVGID_10_" d="M-2.93,10.961c0,4.099,1.607,7.828,4.225,10.578l6.317-7.184c-1.161-1.27-1.193-2.163-1.193-4.023
					c0-2.136,0.508-2.744,1.99-4.049L1.833-0.153C-1.101,2.636-2.93,6.584-2.93,10.961"/>
			</defs>
			<clipPath id="SVGID_11_">
				<use xlink:href="#SVGID_10_"  overflow="visible"/>
			</clipPath>
			
				<linearGradient id="SVGID_12_" gradientUnits="userSpaceOnUse" x1="-646.9653" y1="-242.8936" x2="-645.189" y2="-242.8936" gradientTransform="matrix(-5.000000e-07 -12.2129 12.2129 -5.000000e-07 2969.7275 -7879.7568)">
				<stop  offset="0" style="stop-color:#26A9E0"/>
				<stop  offset="0.6244" style="stop-color:#90278E"/>
				<stop  offset="1" style="stop-color:#EC1C24"/>
			</linearGradient>
			<polygon clip-path="url(#SVGID_11_)" fill="url(#SVGID_12_)" points="-2.93,21.539 -2.93,-0.153 9.525,-0.153 8.993,19.56 			"/>
		</g>
	</g>
	<g>
		<path fill="#231F20" d="M11.968-3.658c3.965,0,7.651,1.592,10.379,4.484c2.524,2.672,3.916,6.175,3.916,9.865
			c0,3.646-1.362,7.121-3.835,9.785c-2.697,2.901-6.509,4.568-10.462,4.568c-3.676,0-7.169-1.399-9.835-3.937
			c-2.876-2.736-4.461-6.438-4.462-10.417c0-3.957,1.569-7.64,4.417-10.371C4.759-2.246,8.268-3.658,11.968-3.658 M11.968,16.847
			c1.835,0,3.558-0.812,4.726-2.23c0.908-1.103,1.409-2.495,1.409-3.925c0-1.494-0.541-2.936-1.523-4.059
			c-1.168-1.332-2.849-2.096-4.613-2.096c-1.541,0-3.017,0.578-4.151,1.626c-1.262,1.16-1.985,2.81-1.985,4.527
			c0,1.795,0.778,3.494,2.133,4.664C9.077,16.316,10.498,16.847,11.968,16.847 M11.968-4.614C7.878-4.614,4.166-3,1.426-0.37
			c-2.905,2.784-4.712,6.715-4.712,11.061c0.001,4.376,1.829,8.32,4.759,11.109C4.208,24.402,7.9,26,11.968,26
			c4.404,0,8.376-1.875,11.161-4.874c2.537-2.733,4.09-6.398,4.09-10.435c0-4.075-1.585-7.782-4.176-10.522
			C20.262-2.778,16.331-4.614,11.968-4.614L11.968-4.614z M11.968,15.892c-1.292,0-2.472-0.475-3.377-1.26
			c-1.104-0.954-1.803-2.364-1.803-3.94c0-1.514,0.646-2.877,1.675-3.824c0.922-0.85,2.153-1.374,3.505-1.374
			c1.552,0,2.944,0.685,3.894,1.77c0.8,0.916,1.286,2.115,1.286,3.428c0,1.259-0.449,2.417-1.191,3.317
			C15.009,15.162,13.572,15.892,11.968,15.892L11.968,15.892z"/>
	</g>
</g>
</svg>
