<?xml version="1.0" encoding="utf-8"?>
<!-- Generator: Adobe Illustrator 14.0.0, SVG Export Plug-In . SVG Version: 6.00 Build 43363)  -->
<!DOCTYPE svg PUBLIC "-//W3C//DTD SVG 1.1//EN" "http://www.w3.org/Graphics/SVG/1.1/DTD/svg11.dtd">
<svg version="1.1" id="Layer_1" xmlns="http://www.w3.org/2000/svg" xmlns:xlink="http://www.w3.org/1999/xlink" x="0px" y="0px"
	 width="45px" height="45px" viewBox="-7.5 -7.5 45 45" enable-background="new -7.5 -7.5 45 45" xml:space="preserve">
<path stroke="#000000" stroke-width="0.75" stroke-miterlimit="10" d="M-3.013-6.304h36.414l0.343,10.943h-1.539
	c-0.757-3.439-1.717-5.678-2.876-6.721c-1.166-1.03-3.615-1.55-7.341-1.55H18.4v32.951c0,2.484,0.387,4.021,1.164,4.615
	c0.774,0.598,2.477,0.987,5.092,1.173v1.195H5.888v-1.195c2.722-0.202,4.42-0.651,5.092-1.348c0.667-0.687,1.008-2.423,1.008-5.193
	V-3.632H8.372c-3.563,0-5.996,0.51-7.284,1.541c-1.293,1.029-2.257,3.268-2.908,6.73h-1.57L-3.013-6.304z"/>
</svg>
