<?xml version="1.0" encoding="utf-8"?>
<!-- Generator: Adobe Illustrator 14.0.0, SVG Export Plug-In . SVG Version: 6.00 Build 43363)  -->
<!DOCTYPE svg PUBLIC "-//W3C//DTD SVG 1.1//EN" "http://www.w3.org/Graphics/SVG/1.1/DTD/svg11.dtd">
<svg version="1.1" id="Layer_1" xmlns="http://www.w3.org/2000/svg" xmlns:xlink="http://www.w3.org/1999/xlink" x="0px" y="0px"
	 width="45px" height="45px" viewBox="-10.5 -10.5 45 45" enable-background="new -10.5 -10.5 45 45" xml:space="preserve">
<g>
	<g>
		<g>
			<defs>
				<path id="SVGID_1_" d="M-3.394-3.493L5.807,6.543C7.634,4.854,9.348,3.54,12.028,3.54c3.079,0,4.521,0.846,6.404,3.001
					l9.496-9.252c-4.021-4.267-9.727-6.926-16.045-6.926C5.96-9.638,0.577-7.299-3.394-3.493"/>
			</defs>
			<clipPath id="SVGID_2_">
				<use xlink:href="#SVGID_1_"  overflow="visible"/>
			</clipPath>
			
				<linearGradient id="SVGID_3_" gradientUnits="userSpaceOnUse" x1="-475.332" y1="-330.4292" x2="-472.7676" y2="-330.4292" gradientTransform="matrix(12.2129 0 0 12.2129 5801.7871 4033.5408)">
				<stop  offset="0" style="stop-color:#EC1C24"/>
				<stop  offset="0.82" style="stop-color:#F6921E"/>
				<stop  offset="1" style="stop-color:#F6921E"/>
			</linearGradient>
			<rect x="-3.394" y="-9.638" clip-path="url(#SVGID_2_)" fill="url(#SVGID_3_)" width="31.32" height="15.378"/>
		</g>
	</g>
	<g>
		<g>
			<defs>
				<path id="SVGID_4_" d="M17.354,6.003c1.687,1.836,2.848,3.299,2.848,5.988c0,3.089-0.703,4.207-2.848,6.094l8.951,10.066
					c4.257-4.044,6.908-9.765,6.908-16.111c0-5.943-2.338-11.34-6.129-15.32L17.354,6.003z"/>
			</defs>
			<clipPath id="SVGID_5_">
				<use xlink:href="#SVGID_4_"  overflow="visible"/>
			</clipPath>
			
				<linearGradient id="SVGID_6_" gradientUnits="userSpaceOnUse" x1="-461.1509" y1="-424.5327" x2="-458.5766" y2="-424.5327" gradientTransform="matrix(1.7766 9.5867 -9.5867 1.7766 -3226.4973 5173.9639)">
				<stop  offset="0" style="stop-color:#F6921E"/>
				<stop  offset="0.0135" style="stop-color:#F6921E"/>
				<stop  offset="0.4741" style="stop-color:#FFF100"/>
				<stop  offset="0.9886" style="stop-color:#8BC53F"/>
				<stop  offset="1" style="stop-color:#8BC53F"/>
			</linearGradient>
			<polygon clip-path="url(#SVGID_5_)" fill="url(#SVGID_6_)" points="33.766,-6.036 39.884,27.106 19.452,30.908 13.334,-2.237 			
				"/>
		</g>
	</g>
	<g>
		<g>
			<defs>
				<path id="SVGID_7_" d="M-3.695,26.074c4.03,4.268,9.73,6.925,16.05,6.925c5.923,0,11.304-2.34,15.275-6.147l-9.506-8.998
					c-1.828,1.695-3.174,2.387-5.858,2.387c-3.081,0-5.109-1.077-6.993-3.232L-3.695,26.074z"/>
			</defs>
			<clipPath id="SVGID_8_">
				<use xlink:href="#SVGID_7_"  overflow="visible"/>
			</clipPath>
			
				<linearGradient id="SVGID_9_" gradientUnits="userSpaceOnUse" x1="-475.3882" y1="-329.0859" x2="-472.8237" y2="-329.0859" gradientTransform="matrix(12.2129 0 0 12.2129 5801.5215 4044.3923)">
				<stop  offset="0" style="stop-color:#26A9E0"/>
				<stop  offset="0.9886" style="stop-color:#8BC53F"/>
				<stop  offset="1" style="stop-color:#8BC53F"/>
			</linearGradient>
			<rect x="-4.347" y="17.613" clip-path="url(#SVGID_8_)" fill="url(#SVGID_9_)" width="31.322" height="15.386"/>
		</g>
	</g>
	<g>
		<g>
			<defs>
				<path id="SVGID_10_" d="M-9.62,12.398c0,5.938,2.33,11.342,6.123,15.328l9.153-10.41c-1.682-1.84-1.728-3.135-1.728-5.831
					c0-3.094,0.735-3.976,2.882-5.866l-9.528-9.327C-6.97,0.334-9.62,6.054-9.62,12.398"/>
			</defs>
			<clipPath id="SVGID_11_">
				<use xlink:href="#SVGID_10_"  overflow="visible"/>
			</clipPath>
			
				<linearGradient id="SVGID_12_" gradientUnits="userSpaceOnUse" x1="-567.4731" y1="-323.2124" x2="-564.8994" y2="-323.2124" gradientTransform="matrix(-5.000000e-07 -12.2129 12.2129 -5.000000e-07 3946.7595 -6902.7246)">
				<stop  offset="0" style="stop-color:#26A9E0"/>
				<stop  offset="0.6244" style="stop-color:#90278E"/>
				<stop  offset="1" style="stop-color:#EC1C24"/>
			</linearGradient>
			<polygon clip-path="url(#SVGID_11_)" fill="url(#SVGID_12_)" points="-9.62,27.727 -9.62,-3.707 8.428,-3.707 7.658,24.857 			
				"/>
		</g>
	</g>
	<g>
		<path fill="#231F20" d="M11.969-8.786c5.746,0,11.087,2.307,15.04,6.498c3.658,3.872,5.675,8.948,5.675,14.296
			c0,5.283-1.974,10.318-5.558,14.179c-3.908,4.204-9.431,6.619-15.159,6.619c-5.326,0-10.389-2.027-14.252-5.703
			c-4.168-3.966-6.464-9.328-6.466-15.095c0-5.734,2.273-11.071,6.401-15.03C1.523-6.74,6.607-8.786,11.969-8.786 M11.969,20.927
			c2.66,0,5.156-1.178,6.849-3.231c1.316-1.599,2.041-3.617,2.041-5.689c0-2.165-0.782-4.253-2.207-5.88
			c-1.692-1.931-4.127-3.039-6.685-3.039c-2.233,0-4.371,0.838-6.015,2.356c-1.828,1.681-2.876,4.071-2.876,6.56
			c0,2.601,1.127,5.063,3.091,6.758C7.779,20.158,9.837,20.927,11.969,20.927 M11.969-10.171c-5.927,0-11.306,2.338-15.276,6.15
			c-4.209,4.034-6.828,9.73-6.828,16.029c0.001,6.34,2.65,12.056,6.896,16.098c3.962,3.77,9.312,6.085,15.208,6.085
			c6.381,0,12.139-2.718,16.173-7.062c3.676-3.961,5.927-9.272,5.927-15.12c0-5.906-2.298-11.277-6.051-15.248
			C23.986-7.512,18.29-10.171,11.969-10.171L11.969-10.171z M11.969,19.542c-1.873,0-3.581-0.688-4.895-1.825
			c-1.599-1.382-2.611-3.426-2.611-5.71c0-2.192,0.935-4.168,2.427-5.541c1.335-1.232,3.12-1.99,5.079-1.99
			c2.249,0,4.266,0.993,5.644,2.565c1.158,1.326,1.863,3.064,1.863,4.966c0,1.825-0.651,3.502-1.727,4.808
			C16.375,18.484,14.294,19.542,11.969,19.542L11.969,19.542z"/>
	</g>
</g>
</svg>
