<?xml version="1.0" encoding="utf-8"?>
<!-- Generator: Adobe Illustrator 14.0.0, SVG Export Plug-In . SVG Version: 6.00 Build 43363)  -->
<!DOCTYPE svg PUBLIC "-//W3C//DTD SVG 1.1//EN" "http://www.w3.org/Graphics/SVG/1.1/DTD/svg11.dtd">
<svg version="1.1" id="Layer_1" xmlns="http://www.w3.org/2000/svg" xmlns:xlink="http://www.w3.org/1999/xlink" x="0px" y="0px"
	 width="23px" height="18px" viewBox="0 0 23 18" enable-background="new 0 0 23 18" xml:space="preserve">
<path fill="#CE4141" d="M11.047,0c-4.95,0-8.962,4.012-8.962,8.962c0,4.949,4.012,8.962,8.962,8.962
	c4.949,0,8.962-4.013,8.962-8.962C20.009,4.012,15.996,0,11.047,0z M4.089,8.962c0-1.583,0.535-3.037,1.425-4.206l9.74,9.739
	c-1.169,0.89-2.624,1.425-4.207,1.425C7.204,15.92,4.089,12.805,4.089,8.962z M16.58,13.168L6.84,3.429
	c1.169-0.89,2.624-1.425,4.207-1.425c3.843,0,6.958,3.115,6.958,6.958C18.005,10.545,17.471,11.999,16.58,13.168z"/>
</svg>
