<?xml version="1.0" encoding="utf-8"?>
<!-- Generator: Adobe Illustrator 14.0.0, SVG Export Plug-In . SVG Version: 6.00 Build 43363)  -->
<!DOCTYPE svg PUBLIC "-//W3C//DTD SVG 1.1//EN" "http://www.w3.org/Graphics/SVG/1.1/DTD/svg11.dtd">
<svg version="1.1" id="Layer_1" xmlns="http://www.w3.org/2000/svg" xmlns:xlink="http://www.w3.org/1999/xlink" x="0px" y="0px"
	 width="192.57px" height="99.877px" viewBox="0 0 192.57 99.877" enable-background="new 0 0 192.57 99.877" xml:space="preserve">
<path fill="#FFFFFF" d="M2.975,0.707h16.007c8.27,0,14.824,3.901,14.824,12.643v16.065c0,9.333-6.555,13.408-14.766,13.408H2.975
	V0.707z M18.036,34.967c4.193,0,5.906-3.012,5.906-5.847V14.353c0-3.366-2.068-5.788-6.025-5.788h-5.139v26.402H18.036z"/>
<polygon fill="#FFFFFF" points="40.183,0.707 67.412,0.707 67.412,8.623 49.987,8.623 49.987,17.484 63.81,17.484 63.81,25.398 
	49.987,25.398 49.987,34.85 67.472,34.85 67.472,42.823 40.183,42.823 "/>
<path fill="#FFFFFF" d="M71.012,38.334l5.021-6.793c2.659,2.127,5.73,4.135,10.102,4.135c3.188,0,5.61-1.358,5.61-3.84
	c0-2.657-1.771-3.721-4.902-5.08l-5.492-2.361c-5.553-2.364-8.565-5.848-8.565-11.459C72.785,5.966,78.337,0,87.315,0
	c4.902,0,9.45,1.418,13.113,4.607l-5.08,6.674c-2.362-1.949-5.436-3.839-8.446-3.839c-3.132,0-4.668,1.417-4.668,3.957
	c0,2.482,2.541,3.604,5.671,4.962l4.195,1.832c6.142,2.657,9.567,6.733,9.567,11.99c0,8.86-7.619,13.348-15.651,13.348
	C80.228,43.531,75.029,42.174,71.012,38.334"/>
<rect x="107.867" y="0.707" fill="#FFFFFF" width="9.805" height="42.116"/>
<path fill="#FFFFFF" d="M124.051,29.711V13.703C124.051,4.725,131.374,0,139.822,0c7.735,0,15.001,3.545,15.001,11.873v2.895h-8.978
	v-1.655c0-3.308-2.423-5.316-5.73-5.316c-3.839,0-6.26,2.363-6.26,6.084v15.652c0,3.782,2.186,6.262,6.142,6.262
	c4.075,0,5.73-1.95,5.73-5.258v-3.84h-6.557v-6.969h15.712v11.577c0,8.329-7.146,12.226-15.003,12.226
	C131.434,43.531,124.051,39.457,124.051,29.711"/>
<polygon fill="#FFFFFF" points="161.317,0.707 170.946,0.707 184.235,23.627 184.355,23.627 184.355,0.707 193.096,0.707 
	193.096,42.823 184.944,42.823 170.179,17.602 170.06,17.602 170.06,42.823 161.317,42.823 "/>
<polygon fill="#FFFFFF" points="8.191,65.979 0,48.495 7.131,48.495 12.023,59.986 16.872,48.495 23.19,48.495 14.956,66.019 
	14.956,77.551 8.191,77.551 "/>
<path fill="#FFFFFF" d="M24.573,68.219V57.99c0-6.684,4.972-9.984,10.963-9.984c5.869,0,11.085,2.771,11.085,9.861v10.189
	c0,7.01-5.216,9.984-11.044,9.984C29.627,78.041,24.573,75.351,24.573,68.219 M39.815,68.219V57.664
	c0-2.689-1.834-4.156-4.279-4.156c-2.729,0-4.157,1.588-4.157,4.32v10.351c0,2.688,1.468,4.319,4.239,4.319
	C38.227,72.498,39.815,70.826,39.815,68.219"/>
<path fill="#FFFFFF" d="M50.777,68.381V48.494h6.766v19.604c0,3.219,1.956,4.523,4.279,4.523c2.444,0,4.156-1.672,4.074-4.483
	V48.494h6.521v19.521c0,6.521-4.442,10.025-10.841,10.025C55.178,78.041,50.777,75.146,50.777,68.381"/>
<path fill="#FFFFFF" d="M77.143,48.494h11.454c6.439,0,9.617,3.627,9.617,8.885c0,3.912-1.629,6.969-5.053,8.272l5.868,11.899
	h-7.336l-4.687-10.717h-3.098v10.717h-6.767V48.494z M87.66,61.943c2.566,0,3.912-1.387,3.912-4.115
	c0-2.447-1.224-4.076-3.791-4.076h-3.872v8.191H87.66z"/>
<path fill="#FFFFFF" d="M109.584,68.219V57.99c0-6.684,4.971-9.984,10.962-9.984c5.87,0,11.086,2.771,11.086,9.861v10.189
	c0,7.01-5.216,9.984-11.045,9.984C114.637,78.041,109.584,75.351,109.584,68.219 M124.825,68.219V57.664
	c0-2.689-1.834-4.156-4.279-4.156c-2.729,0-4.157,1.588-4.157,4.32v10.351c0,2.688,1.468,4.319,4.239,4.319
	C123.237,72.498,124.825,70.826,124.825,68.219"/>
<polygon fill="#FFFFFF" points="133.913,48.494 140.516,48.494 143.939,66.264 144.061,66.264 147.811,48.494 154.208,48.494 
	157.755,66.223 157.794,66.223 161.177,48.494 167.372,48.494 161.096,77.635 154.696,77.635 150.703,58.846 150.54,58.846 
	146.466,77.635 140.148,77.635 "/>
<polygon fill="#FFFFFF" points="170.591,48.494 177.233,48.494 186.402,64.307 186.485,64.307 186.485,48.494 192.516,48.494 
	192.516,77.551 186.892,77.551 176.704,60.15 176.622,60.15 176.622,77.551 170.591,77.551 "/>
<path fill="#FFFFFF" d="M2.82,82.611h7.676c3.003,0,4.747,1.721,4.747,4.311c0,1.985-1.162,3.631-2.907,4.117v0.049
	c1.89,0.436,3.077,2.129,3.077,4.043c0,2.881-1.891,4.746-4.819,4.746H2.82V82.611z M9.141,89.658c1.234,0,2.107-0.751,2.107-2.131
	c0-1.21-0.8-1.865-1.962-1.865H6.814v3.996H9.141z M9.335,96.777c1.233,0,2.009-0.822,2.009-2.154s-0.945-1.961-2.179-1.961H6.814
	v4.115H9.335z"/>
<polygon fill="#FFFFFF" points="17.907,82.611 21.925,82.611 21.925,96.608 29.096,96.608 29.096,99.877 17.907,99.877 "/>
<polygon fill="#FFFFFF" points="31.394,82.611 42.558,82.611 42.558,85.856 35.414,85.856 35.414,89.488 41.081,89.488 
	41.081,92.733 35.414,92.733 35.414,96.608 42.581,96.608 42.581,99.877 31.394,99.877 "/>
<polygon fill="#FFFFFF" points="45.124,82.611 49.071,82.611 54.52,92.008 54.568,92.008 54.568,82.611 58.152,82.611 
	58.152,99.877 54.811,99.877 48.756,89.537 48.708,89.537 48.708,99.877 45.124,99.877 "/>
<path fill="#FFFFFF" d="M61.058,82.611h6.562c3.39,0,6.078,1.6,6.078,5.182v6.588c0,3.825-2.688,5.496-6.055,5.496h-6.586V82.611z
	 M67.233,96.656c1.719,0,2.421-1.234,2.421-2.396v-6.054c0-1.381-0.848-2.375-2.471-2.375h-2.106v10.825H67.233z"/>
<polygon fill="#FFFFFF" points="76.314,82.611 87.477,82.611 87.477,85.856 80.333,85.856 80.333,89.488 85.999,89.488 
	85.999,92.733 80.333,92.733 80.333,96.608 87.501,96.608 87.501,99.877 76.314,99.877 "/>
<path fill="#FFFFFF" d="M90.043,82.611h6.805c3.827,0,5.715,2.156,5.715,5.279c0,2.322-0.969,4.141-3.003,4.915l3.486,7.071h-4.358
	l-2.784-6.369h-1.841v6.369h-4.02V82.611z M96.29,90.603c1.526,0,2.326-0.823,2.326-2.446c0-1.451-0.727-2.422-2.253-2.422h-2.301
	v4.868H96.29z"/>
<path fill="#FFFFFF" d="M109.609,82.611h7.677c3.002,0,4.746,1.721,4.746,4.311c0,1.985-1.163,3.631-2.905,4.117v0.049
	c1.888,0.436,3.075,2.129,3.075,4.043c0,2.881-1.892,4.746-4.82,4.746h-7.772V82.611z M115.929,89.658
	c1.236,0,2.107-0.751,2.107-2.131c0-1.21-0.8-1.865-1.962-1.865h-2.469v3.996H115.929z M116.123,96.777
	c1.234,0,2.009-0.822,2.009-2.154s-0.944-1.961-2.179-1.961h-2.348v4.115H116.123z"/>
<path fill="#FFFFFF" d="M124.405,94.332v-6.078c0-3.972,2.951-5.933,6.514-5.933c3.487,0,6.587,1.647,6.587,5.86v6.053
	c0,4.166-3.1,5.934-6.562,5.934C127.407,100.168,124.405,98.57,124.405,94.332 M133.46,94.332v-6.271
	c0-1.599-1.089-2.472-2.541-2.472c-1.623,0-2.471,0.946-2.471,2.567v6.152c0,1.598,0.87,2.565,2.519,2.565
	C132.517,96.874,133.46,95.883,133.46,94.332"/>
<polygon fill="#FFFFFF" points="143.365,85.808 138.885,85.808 138.885,82.611 151.866,82.611 151.866,85.808 147.409,85.808 
	147.409,99.877 143.365,99.877 "/>
<polygon fill="#FFFFFF" points="157.41,85.808 152.931,85.808 152.931,82.611 165.91,82.611 165.91,85.808 161.454,85.808 
	161.454,99.877 157.41,99.877 "/>
<polygon fill="#FFFFFF" points="167.895,82.611 171.914,82.611 171.914,96.608 179.082,96.608 179.082,99.877 167.895,99.877 "/>
<polygon fill="#FFFFFF" points="181.382,82.611 192.546,82.611 192.546,85.856 185.402,85.856 185.402,89.488 191.068,89.488 
	191.068,92.733 185.402,92.733 185.402,96.608 192.57,96.608 192.57,99.877 181.382,99.877 "/>
</svg>
