<?xml version="1.0" encoding="utf-8"?>
<!-- Generator: Adobe Illustrator 14.0.0, SVG Export Plug-In . SVG Version: 6.00 Build 43363)  -->
<!DOCTYPE svg PUBLIC "-//W3C//DTD SVG 1.1//EN" "http://www.w3.org/Graphics/SVG/1.1/DTD/svg11.dtd">
<svg version="1.1" id="Layer_1" xmlns="http://www.w3.org/2000/svg" xmlns:xlink="http://www.w3.org/1999/xlink" x="0px" y="0px"
	 width="32px" height="32px" viewBox="0 0 32 32" enable-background="new 0 0 32 32" xml:space="preserve">
<g>
	<defs>
		<rect id="SVGID_1_" x="-44.667" y="-44.667" width="121.335" height="121.335"/>
	</defs>
	<clipPath id="SVGID_2_">
		<use xlink:href="#SVGID_1_"  overflow="visible"/>
	</clipPath>
	<path clip-path="url(#SVGID_2_)" d="M24.771,6.894c-1.112-1.109-2.915-1.113-4.027-0.004l-2.561,2.555l-0.388-0.389
		c-0.208-0.208-0.544-0.209-0.753-0.002c-0.21,0.209-0.21,0.547-0.001,0.755l4.799,4.814c0.141,0.141,0.339,0.185,0.517,0.139
		c0.089-0.023,0.172-0.069,0.239-0.137c0.208-0.209,0.208-0.547,0-0.755L22.2,13.474l2.562-2.557
		C25.872,9.81,25.877,8.006,24.771,6.894"/>
	<polygon clip-path="url(#SVGID_2_)" fill="#E6E7E8" points="6.86,23.291 9.627,19.582 18.884,10.797 20.816,13.106 12.518,21.405 
		8.4,24.579 	"/>
	<path clip-path="url(#SVGID_2_)" d="M19.486,10.677c-0.279-0.283-0.679-0.374-1.035-0.276c-0.173,0.044-0.335,0.136-0.471,0.268
		l-8.33,8.235c-0.074,0.056-0.144,0.119-0.202,0.195l-2.817,3.568c-0.334,0.426-0.298,1.032,0.082,1.413L7.5,24.87
		c0.277,0.279,0.675,0.373,1.035,0.276c0.133-0.038,0.264-0.099,0.379-0.19l3.412-2.676c0.098-0.048,0.191-0.114,0.273-0.195
		l8.438-8.339c0.203-0.198,0.314-0.471,0.318-0.754c0-0.283-0.112-0.556-0.312-0.757L19.486,10.677z M11.849,21.325l-0.017-0.017
		l-3.578,2.808l-0.785-0.787l2.818-3.57l0.008,0.009l8.433-8.339l1.558,1.559L11.849,21.325z"/>
</g>
</svg>
