<?xml version="1.0" encoding="utf-8"?>
<!-- Generator: Adobe Illustrator 14.0.0, SVG Export Plug-In . SVG Version: 6.00 Build 43363)  -->
<!DOCTYPE svg PUBLIC "-//W3C//DTD SVG 1.1//EN" "http://www.w3.org/Graphics/SVG/1.1/DTD/svg11.dtd">
<svg version="1.1" id="Layer_1" xmlns="http://www.w3.org/2000/svg" xmlns:xlink="http://www.w3.org/1999/xlink" x="0px" y="0px"
	 width="31px" height="40px" viewBox="-3.5 -8 31 40" enable-background="new -3.5 -8 31 40" xml:space="preserve">
<g>
	<g display="none">
		<g display="inline">
			<g>
				<g>
					<defs>
						<path id="SVGID_1_" d="M1.399,0.075l6.33,6.904c1.257-1.161,2.436-2.066,4.279-2.066c2.118,0,3.111,0.582,4.406,2.065
							l6.533-6.366c-2.768-2.935-6.691-4.765-11.039-4.765C7.835-4.152,4.131-2.543,1.399,0.075"/>
					</defs>
					<clipPath id="SVGID_2_">
						<use xlink:href="#SVGID_1_"  overflow="visible"/>
					</clipPath>
					
						<linearGradient id="SVGID_3_" gradientUnits="userSpaceOnUse" x1="-512.8013" y1="-187.2998" x2="-511.0371" y2="-187.2998" gradientTransform="matrix(12.2129 0 0 12.2129 6264.1006 2288.5088)">
						<stop  offset="0" style="stop-color:#EC1C24"/>
						<stop  offset="0.82" style="stop-color:#F6921E"/>
						<stop  offset="1" style="stop-color:#F6921E"/>
					</linearGradient>
					<rect x="1.399" y="-4.152" clip-path="url(#SVGID_2_)" fill="url(#SVGID_3_)" width="21.546" height="10.58"/>
				</g>
			</g>
		</g>
	</g>
	<g display="none">
		<g display="inline">
			<g>
				<g>
					<defs>
						<path id="SVGID_4_" d="M15.673,6.608c1.16,1.263,1.96,2.27,1.96,4.12c0,2.125-0.484,2.893-1.96,4.192l6.158,6.925
							c2.932-2.782,4.753-6.718,4.753-11.084c0-4.088-1.608-7.801-4.217-10.54L15.673,6.608z"/>
					</defs>
					<clipPath id="SVGID_5_">
						<use xlink:href="#SVGID_4_"  overflow="visible"/>
					</clipPath>
					
						<linearGradient id="SVGID_6_" gradientUnits="userSpaceOnUse" x1="-458.4985" y1="-389.0513" x2="-456.7272" y2="-389.0513" gradientTransform="matrix(1.7766 9.5867 -9.5867 1.7766 -2894.7729 5088.2954)">
						<stop  offset="0" style="stop-color:#F6921E"/>
						<stop  offset="0.0135" style="stop-color:#F6921E"/>
						<stop  offset="0.4741" style="stop-color:#FFF100"/>
						<stop  offset="0.9886" style="stop-color:#8BC53F"/>
						<stop  offset="1" style="stop-color:#8BC53F"/>
					</linearGradient>
					<polygon clip-path="url(#SVGID_5_)" fill="url(#SVGID_6_)" points="26.964,-1.674 31.173,21.126 17.116,23.741 12.907,0.939 
											"/>
				</g>
			</g>
		</g>
	</g>
	<g display="none">
		<g display="inline">
			<g>
				<g>
					<defs>
						<path id="SVGID_7_" d="M1.192,20.416c2.773,2.937,6.694,4.764,11.042,4.764c4.075,0,7.776-1.609,10.51-4.229l-6.539-6.19
							c-1.257,1.166-2.184,1.642-4.03,1.642c-2.119,0-3.515-0.741-4.811-2.224L1.192,20.416z"/>
					</defs>
					<clipPath id="SVGID_8_">
						<use xlink:href="#SVGID_7_"  overflow="visible"/>
					</clipPath>
					
						<linearGradient id="SVGID_9_" gradientUnits="userSpaceOnUse" x1="-512.8271" y1="-186.6494" x2="-511.0625" y2="-186.6494" gradientTransform="matrix(12.2129 0 0 12.2129 6263.835 2299.3604)">
						<stop  offset="0" style="stop-color:#26A9E0"/>
						<stop  offset="0.9886" style="stop-color:#8BC53F"/>
						<stop  offset="1" style="stop-color:#8BC53F"/>
					</linearGradient>
					<rect x="0.744" y="14.596" clip-path="url(#SVGID_8_)" fill="url(#SVGID_9_)" width="21.548" height="10.584"/>
				</g>
			</g>
		</g>
	</g>
	<g display="none">
		<g display="inline">
			<g>
				<g>
					<defs>
						<path id="SVGID_10_" d="M-2.884,11.008c0,4.085,1.603,7.803,4.212,10.545l6.297-7.164c-1.157-1.266-1.189-2.154-1.189-4.012
							c0-2.129,0.506-2.736,1.984-4.035L1.865-0.072C-1.061,2.707-2.884,6.643-2.884,11.008"/>
					</defs>
					<clipPath id="SVGID_11_">
						<use xlink:href="#SVGID_10_"  overflow="visible"/>
					</clipPath>
					
						<linearGradient id="SVGID_12_" gradientUnits="userSpaceOnUse" x1="-715.8516" y1="-194.7461" x2="-714.0811" y2="-194.7461" gradientTransform="matrix(-5.000000e-07 -12.2129 12.2129 -5.000000e-07 2381.7275 -8721.0381)">
						<stop  offset="0" style="stop-color:#26A9E0"/>
						<stop  offset="0.6244" style="stop-color:#90278E"/>
						<stop  offset="1" style="stop-color:#EC1C24"/>
					</linearGradient>
					<polygon clip-path="url(#SVGID_11_)" fill="url(#SVGID_12_)" points="-2.884,21.553 -2.884,-0.072 9.532,-0.072 9.002,19.579 
											"/>
				</g>
			</g>
		</g>
	</g>
	<g>
		<path fill="#939598" d="M11.968-3.566c3.953,0,7.627,1.587,10.347,4.47c2.517,2.663,3.903,6.155,3.903,9.835
			c0,3.635-1.354,7.1-3.822,9.755c-2.689,2.893-6.489,4.554-10.43,4.554c-3.664,0-7.147-1.395-9.805-3.924
			c-2.868-2.726-4.447-6.417-4.448-10.385c0-3.944,1.564-7.616,4.404-10.339C4.782-2.159,8.28-3.566,11.968-3.566 M11.968,16.875
			c1.83,0,3.547-0.811,4.711-2.224c0.905-1.1,1.404-2.488,1.404-3.913c0-1.49-0.538-2.926-1.519-4.045
			c-1.164-1.329-2.839-2.091-4.599-2.091c-1.536,0-3.007,0.576-4.138,1.621C6.571,7.38,5.85,9.023,5.85,10.736
			c0,1.789,0.775,3.483,2.126,4.649C9.085,16.347,10.502,16.875,11.968,16.875 M11.968-4.52c-4.078,0-7.778,1.609-10.509,4.231
			c-2.896,2.774-4.697,6.693-4.697,11.026c0.001,4.362,1.823,8.295,4.744,11.075C4.231,24.407,7.913,26,11.968,26
			c4.39,0,8.35-1.87,11.126-4.859c2.528-2.725,4.077-6.379,4.077-10.402c0-4.062-1.581-7.758-4.16-10.489
			C20.235-2.69,16.317-4.52,11.968-4.52L11.968-4.52z M11.968,15.922c-1.288,0-2.464-0.473-3.367-1.256
			c-1.1-0.95-1.797-2.354-1.797-3.928c0-1.509,0.644-2.868,1.669-3.812c0.919-0.848,2.147-1.369,3.495-1.369
			c1.547,0,2.934,0.684,3.882,1.765c0.797,0.913,1.284,2.108,1.284,3.417c0,1.255-0.45,2.409-1.189,3.308
			C14.999,15.195,13.567,15.922,11.968,15.922L11.968,15.922z"/>
	</g>
</g>
</svg>
