<?xml version="1.0" encoding="utf-8"?>
<!-- Generator: Adobe Illustrator 14.0.0, SVG Export Plug-In . SVG Version: 6.00 Build 43363)  -->
<!DOCTYPE svg PUBLIC "-//W3C//DTD SVG 1.1//EN" "http://www.w3.org/Graphics/SVG/1.1/DTD/svg11.dtd">
<svg version="1.1" id="Layer_1" xmlns="http://www.w3.org/2000/svg" xmlns:xlink="http://www.w3.org/1999/xlink" x="0px" y="0px"
	 width="45px" height="45px" viewBox="-10.5 -10.5 45 45" enable-background="new -10.5 -10.5 45 45" xml:space="preserve">
<g>
	<g display="none">
		<g display="inline">
			<g>
				<defs>
					<path id="SVGID_1_" d="M-3.228-3.325l9.102,9.927c1.807-1.67,3.502-2.971,6.153-2.971c3.046,0,4.473,0.837,6.336,2.969
						l9.394-9.152c-3.979-4.22-9.622-6.851-15.872-6.851C6.025-9.403,0.7-7.09-3.228-3.325"/>
				</defs>
				<clipPath id="SVGID_2_">
					<use xlink:href="#SVGID_1_"  overflow="visible"/>
				</clipPath>
				
					<linearGradient id="SVGID_3_" gradientUnits="userSpaceOnUse" x1="-454.2456" y1="325.9727" x2="-451.709" y2="325.9727" gradientTransform="matrix(12.2129 0 0 -12.2129 5544.4277 3979.2874)">
					<stop  offset="0" style="stop-color:#EC1C24"/>
					<stop  offset="0.82" style="stop-color:#F6921E"/>
					<stop  offset="1" style="stop-color:#F6921E"/>
				</linearGradient>
				<rect x="-3.228" y="-9.403" clip-path="url(#SVGID_2_)" fill="url(#SVGID_3_)" width="30.98" height="15.211"/>
			</g>
		</g>
	</g>
	<g display="none">
		<g display="inline">
			<g>
				<defs>
					<path id="SVGID_4_" d="M17.296,6.068c1.668,1.816,2.817,3.263,2.817,5.923c0,3.056-0.696,4.161-2.817,6.029l8.854,9.957
						c4.213-4,6.834-9.659,6.834-15.937c0-5.879-2.312-11.217-6.062-15.154L17.296,6.068z"/>
				</defs>
				<clipPath id="SVGID_5_">
					<use xlink:href="#SVGID_4_"  overflow="visible"/>
				</clipPath>
				
					<linearGradient id="SVGID_6_" gradientUnits="userSpaceOnUse" x1="-419.9185" y1="473.9883" x2="-417.3719" y2="473.9883" gradientTransform="matrix(1.7766 9.5867 9.5867 -1.7766 -3774.0112 4866.6934)">
					<stop  offset="0" style="stop-color:#F6921E"/>
					<stop  offset="0.0135" style="stop-color:#F6921E"/>
					<stop  offset="0.4741" style="stop-color:#FFF100"/>
					<stop  offset="0.9886" style="stop-color:#8BC53F"/>
					<stop  offset="1" style="stop-color:#8BC53F"/>
				</linearGradient>
				<polygon clip-path="url(#SVGID_5_)" fill="url(#SVGID_6_)" points="33.53,-5.84 39.582,26.943 19.371,30.704 13.319,-2.083 				
					"/>
			</g>
		</g>
	</g>
	<g display="none">
		<g display="inline">
			<g>
				<defs>
					<path id="SVGID_7_" d="M-3.526,25.923c3.987,4.221,9.625,6.849,15.876,6.849c5.859,0,11.181-2.313,15.111-6.08L18.06,17.79
						c-1.808,1.678-3.14,2.36-5.795,2.36c-3.047,0-5.053-1.064-6.917-3.197L-3.526,25.923z"/>
				</defs>
				<clipPath id="SVGID_8_">
					<use xlink:href="#SVGID_7_"  overflow="visible"/>
				</clipPath>
				
					<linearGradient id="SVGID_9_" gradientUnits="userSpaceOnUse" x1="-454.3013" y1="324.6543" x2="-451.7642" y2="324.6543" gradientTransform="matrix(12.2129 0 0 -12.2129 5544.1621 3990.1389)">
					<stop  offset="0" style="stop-color:#26A9E0"/>
					<stop  offset="0.9886" style="stop-color:#8BC53F"/>
					<stop  offset="1" style="stop-color:#8BC53F"/>
				</linearGradient>
				<rect x="-4.171" y="17.553" clip-path="url(#SVGID_8_)" fill="url(#SVGID_9_)" width="30.983" height="15.219"/>
			</g>
		</g>
	</g>
	<g display="none">
		<g display="inline">
			<g>
				<defs>
					<path id="SVGID_10_" d="M-9.387,12.394c0,5.875,2.304,11.219,6.056,15.163l9.055-10.3c-1.664-1.819-1.709-3.099-1.709-5.767
						c0-3.061,0.727-3.934,2.851-5.803l-9.424-9.224C-6.765,0.46-9.387,6.119-9.387,12.394"/>
				</defs>
				<clipPath id="SVGID_11_">
					<use xlink:href="#SVGID_10_"  overflow="visible"/>
				</clipPath>
				
					<linearGradient id="SVGID_12_" gradientUnits="userSpaceOnUse" x1="-601.8994" y1="326.1289" x2="-599.3535" y2="326.1289" gradientTransform="matrix(-5.000000e-07 -12.2129 -12.2129 5.000000e-07 3982.5061 -7323.3652)">
					<stop  offset="0" style="stop-color:#26A9E0"/>
					<stop  offset="0.6244" style="stop-color:#90278E"/>
					<stop  offset="1" style="stop-color:#EC1C24"/>
				</linearGradient>
				<polygon clip-path="url(#SVGID_11_)" fill="url(#SVGID_12_)" points="-9.387,27.557 -9.387,-3.537 8.466,-3.537 7.705,24.718 
									"/>
			</g>
		</g>
	</g>
	<g>
		<path fill="#939598" d="M11.969-8.562c5.684,0,10.967,2.282,14.878,6.428c3.618,3.83,5.612,8.851,5.612,14.142
			c0,5.226-1.949,10.207-5.496,14.025c-3.866,4.158-9.33,6.548-14.996,6.548c-5.269,0-10.276-2.006-14.098-5.642
			c-4.123-3.922-6.395-9.228-6.396-14.932c0-5.672,2.249-10.952,6.332-14.867C1.636-6.537,6.665-8.562,11.969-8.562 M11.969,20.83
			c2.632,0,5.101-1.165,6.774-3.196c1.302-1.581,2.02-3.577,2.02-5.627c0-2.141-0.774-4.207-2.184-5.816
			c-1.674-1.91-4.082-3.005-6.612-3.005c-2.209,0-4.324,0.829-5.95,2.331c-1.808,1.663-2.845,4.027-2.845,6.489
			c0,2.573,1.115,5.008,3.057,6.685C7.824,20.07,9.861,20.83,11.969,20.83 M11.969-9.932c-5.863,0-11.184,2.313-15.111,6.084
			c-4.163,3.99-6.754,9.625-6.754,15.855c0.002,6.271,2.622,11.926,6.822,15.924c3.919,3.729,9.211,6.02,15.043,6.02
			c6.312,0,12.007-2.688,15.998-6.986c3.636-3.918,5.862-9.173,5.862-14.957c0-5.842-2.272-11.155-5.983-15.083
			C23.856-7.301,18.222-9.932,11.969-9.932L11.969-9.932z M11.969,19.46c-1.852,0-3.542-0.68-4.841-1.806
			c-1.582-1.366-2.583-3.386-2.583-5.648c0-2.169,0.925-4.123,2.4-5.481c1.321-1.219,3.087-1.969,5.024-1.969
			c2.225,0,4.22,0.982,5.582,2.537c1.146,1.312,1.845,3.031,1.845,4.913c0,1.805-0.646,3.464-1.709,4.756
			C16.327,18.415,14.269,19.46,11.969,19.46L11.969,19.46z"/>
	</g>
</g>
</svg>
