<?xml version="1.0" encoding="utf-8"?>
<!-- Generator: Adobe Illustrator 14.0.0, SVG Export Plug-In . SVG Version: 6.00 Build 43363)  -->
<!DOCTYPE svg PUBLIC "-//W3C//DTD SVG 1.1//EN" "http://www.w3.org/Graphics/SVG/1.1/DTD/svg11.dtd">
<svg version="1.1" id="Layer_1" xmlns="http://www.w3.org/2000/svg" xmlns:xlink="http://www.w3.org/1999/xlink" x="0px" y="0px"
	 width="45px" height="45px" viewBox="0 0 45 45" enable-background="new 0 0 45 45" xml:space="preserve">
<pattern  x="-227.5" y="272.5" width="69.698" height="69.698" patternUnits="userSpaceOnUse" id="Unnamed_Pattern_5" viewBox="0 -69.698 69.698 69.698" overflow="visible">
	<g>
		<polygon fill="none" points="0,-69.698 69.698,-69.698 69.698,0 0,0 		"/>
		<polygon fill="#F2E90B" points="0,0 69.698,0 69.698,-69.698 0,-69.698 		"/>
	</g>
</pattern>
<pattern  x="-227.5" y="272.5" width="69.698" height="69.698" patternUnits="userSpaceOnUse" id="Unnamed_Pattern_6" viewBox="0 -69.698 69.698 69.698" overflow="visible">
	<g>
		<polygon fill="none" points="0,-69.698 69.698,-69.698 69.698,0 0,0 		"/>
		<polygon fill="#036DB6" points="0,0 69.698,0 69.698,-69.698 0,-69.698 		"/>
	</g>
</pattern>
<pattern  id="SVGID_1_" xlink:href="#Unnamed_Pattern_5" patternTransform="matrix(1.2828 0 0 -1.2828 5016.9355 4091.1982)">
</pattern>
<path display="none" fill="url(#SVGID_1_)" d="M12.859,18.28c0,1.732-1.402,3.134-3.134,3.134c-1.73,0-3.133-1.402-3.133-3.134
	c0-1.731,1.402-3.134,3.133-3.134C11.457,15.146,12.859,16.548,12.859,18.28"/>
<path fill="#929497" d="M30.318,37.648c0.008,0.006,0.015,0.007,0.022,0.012c0.004,0.007,0.006,0.016,0.012,0.021
	c0.044,0.042,0.096,0.064,0.146,0.092c0.028,0.016,0.05,0.038,0.078,0.049c0.088,0.036,0.18,0.055,0.273,0.055
	c0.092,0,0.185-0.019,0.271-0.055c0.028-0.011,0.05-0.033,0.077-0.049c0.051-0.027,0.103-0.05,0.146-0.092
	c0.006-0.005,0.009-0.014,0.014-0.021c0.007-0.005,0.015-0.006,0.019-0.012l13.289-14.204c0.273-0.294,0.258-0.751-0.034-1.024
	c-0.294-0.275-0.75-0.261-1.024,0.034L30.85,36.093l-5.642-6.031c-0.276-0.293-0.732-0.308-1.026-0.034
	c-0.292,0.273-0.306,0.732-0.032,1.024L30.318,37.648"/>
<path fill="#929497" d="M9.725,14.337c-2.172,0-3.941,1.77-3.941,3.941c0,2.175,1.769,3.945,3.941,3.945
	c2.175,0,3.944-1.77,3.944-3.945C13.669,16.106,11.9,14.337,9.725,14.337 M9.725,20.774c-1.375,0-2.494-1.118-2.494-2.496
	c0-1.373,1.12-2.492,2.494-2.492c1.377,0,2.494,1.12,2.494,2.492C12.219,19.656,11.102,20.774,9.725,20.774z"/>
<pattern  id="SVGID_2_" xlink:href="#Unnamed_Pattern_6" patternTransform="matrix(1.2828 0 0 -1.2828 5016.9355 4091.1982)">
</pattern>
<path display="none" fill="url(#SVGID_2_)" d="M22.978,32.148c-0.877-0.94-0.827-2.416,0.109-3.292c0.435-0.406,1-0.628,1.592-0.628
	c0.639,0,1.257,0.268,1.695,0.734l4.476,4.781l5.131-5.485l-0.102-2.139l-7.109-9.911l-5.558,8.434l-4.275-5.261L7.871,33.992
	h14.432l2.383-0.021L22.978,32.148"/>
<path fill="#929497" d="M30.318,37.648c0.008,0.006,0.015,0.007,0.022,0.012c0.004,0.007,0.006,0.016,0.012,0.021
	c0.044,0.042,0.096,0.064,0.146,0.092c0.028,0.016,0.05,0.038,0.078,0.049c0.088,0.036,0.18,0.055,0.273,0.055
	c0.092,0,0.185-0.019,0.271-0.055c0.028-0.011,0.05-0.033,0.077-0.049c0.051-0.027,0.103-0.05,0.146-0.092
	c0.006-0.005,0.009-0.014,0.014-0.021c0.007-0.005,0.015-0.006,0.019-0.012l13.289-14.204c0.273-0.294,0.258-0.751-0.034-1.024
	c-0.294-0.275-0.75-0.261-1.024,0.034L30.85,36.093l-5.642-6.031c-0.276-0.293-0.732-0.308-1.026-0.034
	c-0.292,0.273-0.306,0.732-0.032,1.024L30.318,37.648"/>
<path fill="#929497" d="M9.681,33.338l9.216-12.592l3.726,5.028c0.142,0.192,0.365,0.312,0.607,0.293
	c0.239-0.008,0.458-0.135,0.586-0.336l4.961-7.8l6.026,8.523v3.063l1.449-1.499V9.926c0-1.061-0.862-1.922-1.921-1.922H2.259
	c-1.061,0-1.922,0.862-1.922,1.922v22.939c0,1.06,0.862,1.922,1.922,1.922H25.45l-1.379-1.449H9.681 M2.259,33.338
	c-0.261,0-0.475-0.214-0.475-0.473V9.926c0-0.262,0.214-0.473,0.475-0.473h32.073c0.261,0,0.472,0.211,0.472,0.473v14.137
	l-5.46-7.853c-0.139-0.202-0.381-0.317-0.608-0.311c-0.242,0.003-0.467,0.131-0.597,0.334l-4.979,7.832l-3.685-4.973
	c-0.136-0.183-0.353-0.292-0.583-0.292c0,0,0,0-0.001,0c-0.229,0-0.446,0.111-0.583,0.297L7.885,33.338H2.259z"/>
<path fill="#929497" d="M30.003,38.025c0.007,0.007,0.015,0.008,0.021,0.015c0.005,0.006,0.008,0.016,0.013,0.021
	c0.045,0.042,0.097,0.063,0.146,0.092c0.026,0.016,0.049,0.036,0.077,0.049c0.089,0.035,0.179,0.055,0.272,0.055
	c0.093,0,0.185-0.02,0.272-0.055c0.027-0.013,0.05-0.033,0.078-0.049c0.05-0.028,0.101-0.05,0.145-0.092
	c0.007-0.005,0.01-0.015,0.015-0.021c0.006-0.007,0.014-0.008,0.02-0.015L44.35,23.823c0.272-0.293,0.257-0.752-0.035-1.026
	c-0.292-0.273-0.749-0.259-1.022,0.035l-12.76,13.639l-5.642-6.031c-0.274-0.292-0.732-0.306-1.024-0.032s-0.306,0.73-0.032,1.022
	L30.003,38.025"/>
</svg>
