<?xml version="1.0" encoding="utf-8"?>
<!-- Generator: Adobe Illustrator 14.0.0, SVG Export Plug-In . SVG Version: 6.00 Build 43363)  -->
<!DOCTYPE svg PUBLIC "-//W3C//DTD SVG 1.1//EN" "http://www.w3.org/Graphics/SVG/1.1/DTD/svg11.dtd">
<svg version="1.1" id="Layer_1" xmlns="http://www.w3.org/2000/svg" xmlns:xlink="http://www.w3.org/1999/xlink" x="0px" y="0px"
	 width="45px" height="45px" viewBox="0 0 45 45" enable-background="new 0 0 45 45" xml:space="preserve">
<path fill="#929497" stroke="#929497" stroke-width="0.75" stroke-miterlimit="10" d="M32.404,3.586H12.591
	c-0.314,0-0.569-0.255-0.569-0.57s0.255-0.569,0.569-0.569h19.813c0.314,0,0.57,0.255,0.57,0.569S32.719,3.586,32.404,3.586z"/>
<path fill="#929497" stroke="#929497" stroke-width="0.75" stroke-miterlimit="10" d="M43.023,11.351H1.973
	c-0.314,0-0.569-0.255-0.569-0.57s0.255-0.569,0.569-0.569h41.051c0.314,0,0.569,0.255,0.569,0.569S43.338,11.351,43.023,11.351z"/>
<path fill="#929497" stroke="#929497" stroke-width="0.75" stroke-miterlimit="10" d="M42.881,19.116H2.115
	c-0.314,0-0.569-0.255-0.569-0.57c0-0.314,0.255-0.569,0.569-0.569h40.766c0.314,0,0.569,0.255,0.569,0.569
	C43.45,18.861,43.195,19.116,42.881,19.116z"/>
<path fill="#929497" stroke="#929497" stroke-width="0.75" stroke-miterlimit="10" d="M39.066,26.882H5.93
	c-0.314,0-0.57-0.255-0.57-0.569s0.255-0.569,0.57-0.569h33.137c0.314,0,0.569,0.255,0.569,0.569S39.381,26.882,39.066,26.882z"/>
<path fill="#929497" stroke="#929497" stroke-width="0.75" stroke-miterlimit="10" d="M42.596,34.647H2.4
	c-0.314,0-0.569-0.255-0.569-0.569s0.255-0.57,0.569-0.57h40.196c0.314,0,0.57,0.256,0.57,0.57S42.91,34.647,42.596,34.647z"/>
<path fill="#929497" stroke="#929497" stroke-width="0.75" stroke-miterlimit="10" d="M39.126,42.412H5.867
	c-0.314,0-0.569-0.255-0.569-0.569s0.255-0.569,0.569-0.569h33.259c0.314,0,0.569,0.255,0.569,0.569S39.44,42.412,39.126,42.412z"/>
</svg>
