<?xml version="1.0" encoding="utf-8"?>
<!-- Generator: Adobe Illustrator 14.0.0, SVG Export Plug-In . SVG Version: 6.00 Build 43363)  -->
<!DOCTYPE svg PUBLIC "-//W3C//DTD SVG 1.1//EN" "http://www.w3.org/Graphics/SVG/1.1/DTD/svg11.dtd">
<svg version="1.1" id="Layer_1" xmlns="http://www.w3.org/2000/svg" xmlns:xlink="http://www.w3.org/1999/xlink" x="0px" y="0px"
	 width="30px" height="30px" viewBox="0 0 30 30" enable-background="new 0 0 30 30" xml:space="preserve">
<path fill="#231F20" d="M1.485,7.875h27.029c0.207,0,0.375-0.168,0.375-0.375s-0.168-0.375-0.375-0.375H1.485
	C1.278,7.125,1.11,7.293,1.11,7.5S1.278,7.875,1.485,7.875"/>
<path fill="#231F20" d="M1.485,2.875h27.029c0.207,0,0.375-0.168,0.375-0.375s-0.168-0.375-0.375-0.375H1.485
	C1.278,2.125,1.11,2.293,1.11,2.5S1.278,2.875,1.485,2.875"/>
<path fill="#231F20" d="M1.673,12.875h26.842c0.207,0,0.375-0.168,0.375-0.375s-0.168-0.375-0.375-0.375H1.673
	c-0.207,0-0.375,0.168-0.375,0.375S1.466,12.875,1.673,12.875"/>
<path fill="#231F20" d="M1.673,17.875h26.842c0.207,0,0.375-0.168,0.375-0.375s-0.168-0.375-0.375-0.375H1.673
	c-0.207,0-0.375,0.168-0.375,0.375S1.466,17.875,1.673,17.875"/>
<path fill="#231F20" d="M1.673,22.875h26.842c0.207,0,0.375-0.168,0.375-0.375s-0.168-0.375-0.375-0.375H1.673
	c-0.207,0-0.375,0.168-0.375,0.375S1.466,22.875,1.673,22.875"/>
<path fill="#231F20" d="M1.673,27.875h26.842c0.207,0,0.375-0.168,0.375-0.375s-0.168-0.375-0.375-0.375H1.673
	c-0.207,0-0.375,0.168-0.375,0.375S1.466,27.875,1.673,27.875"/>
</svg>
