<?xml version="1.0" encoding="utf-8"?>
<!-- Generator: Adobe Illustrator 14.0.0, SVG Export Plug-In . SVG Version: 6.00 Build 43363)  -->
<!DOCTYPE svg PUBLIC "-//W3C//DTD SVG 1.1//EN" "http://www.w3.org/Graphics/SVG/1.1/DTD/svg11.dtd">
<svg version="1.1" id="Layer_1" xmlns="http://www.w3.org/2000/svg" xmlns:xlink="http://www.w3.org/1999/xlink" x="0px" y="0px"
	 width="30px" height="30px" viewBox="0 0 30 30" enable-background="new 0 0 30 30" xml:space="preserve">
<path fill="#231F20" d="M14.625,2.875H1.579c-0.207,0-0.375-0.168-0.375-0.375s0.168-0.375,0.375-0.375h13.047
	C14.833,2.125,15,2.293,15,2.5S14.833,2.875,14.625,2.875"/>
<path fill="#231F20" d="M28.609,7.875H1.579c-0.207,0-0.375-0.168-0.375-0.375s0.168-0.375,0.375-0.375h27.03
	c0.207,0,0.375,0.168,0.375,0.375S28.816,7.875,28.609,7.875"/>
<path fill="#231F20" d="M28.422,12.875H1.578c-0.207,0-0.375-0.168-0.375-0.375s0.168-0.375,0.375-0.375h26.844
	c0.207,0,0.375,0.168,0.375,0.375S28.629,12.875,28.422,12.875"/>
<path fill="#231F20" d="M23.398,17.875H1.579c-0.207,0-0.375-0.168-0.375-0.375s0.168-0.375,0.375-0.375h21.819
	c0.207,0,0.375,0.168,0.375,0.375S23.605,17.875,23.398,17.875"/>
<path fill="#231F20" d="M28.047,22.875H1.578c-0.207,0-0.375-0.168-0.375-0.375s0.168-0.375,0.375-0.375h26.469
	c0.207,0,0.375,0.168,0.375,0.375S28.254,22.875,28.047,22.875"/>
<path fill="#231F20" d="M23.291,27.875H1.392c-0.207,0-0.375-0.168-0.375-0.375s0.168-0.375,0.375-0.375h21.899
	c0.207,0,0.375,0.168,0.375,0.375S23.498,27.875,23.291,27.875"/>
</svg>
