<?xml version="1.0" standalone="no"?>
<!DOCTYPE svg PUBLIC "-//W3C//DTD SVG 1.1//EN" "http://www.w3.org/Graphics/SVG/1.1/DTD/svg11.dtd">
<svg width="11.5" height="17" viewBox="0 0 115 170" version="1.1" xmlns="http://www.w3.org/2000/svg" xmlns:xlink="http://www.w3.org/1999/xlink" xml:space="preserve" style="fill-rule:evenodd;clip-rule:evenodd;stroke-linejoin:round;stroke-miterlimit:1.41421;">
    <g id="Layer1">
        <path d="M90.091,132.483L90.1282,133.673L88.3427,153.908C88.2497,155.545 87.3198,155.545 87.0222,155.545L27.9897,155.545C27.6921,155.545 26.7994,155.545 26.632,153.741L24.9209,132.52L24.9767,132.445L18.7089,66.1966L96.3402,65.9363L90.091,132.483ZM112.186,42.3158C112.112,41.4789 111.926,40.7907 111.647,40.2514C111.424,39.712 110.215,37.0524 108.281,35.2111C107.183,34.1882 105.788,33.2024 103.836,32.2539C103.017,31.9005 102.236,31.7517 101.585,31.7517L101.566,31.7517L101.362,23.3265C102.627,23.0289 103.594,22.8243 103.668,22.8243C106.7,22.0804 108.69,19.3277 108.429,16.2775L107.964,11.0513L107.406,8.76365C106.849,6.82937 105.379,5.22988 103.519,4.54173C99.0742,2.94223 93.0296,2.10529 85.5343,2.10529C69.744,2.10529 50.9592,5.60186 43.3709,7.23855C40.9531,5.08109 37.0101,2.47726 31.7839,2.10529L30.8911,2.03089C21.1082,2.03089 17.1094,9.99116 15.8075,12.5764C14.9706,14.2503 14.1708,17.8398 13.7431,32.8119C11.4368,33.314 9.63274,33.965 8.25644,34.8019C4.10891,37.35 3.10458,41.3487 2.86279,42.9854L2.19324,59.2221C2.15604,61.4354 3.29056,63.537 5.13184,64.6715L6.15477,65.2853L11.8832,125.657L14.2824,154.597C14.58,159.99 18.523,167.969 27.9897,167.969L87.0222,167.969C96.4518,167.969 100.395,160.009 100.73,154.745L108.969,64.0392L109.843,63.4998C111.777,62.3467 112.912,60.1892 112.8,57.976L112.186,42.3158Z" style="fill:rgb(35,31,32);fill-rule:nonzero;"/>
    </g>
</svg>
