<?xml version="1.0" encoding="utf-8"?>
<!-- Generator: Adobe Illustrator 14.0.0, SVG Export Plug-In . SVG Version: 6.00 Build 43363)  -->
<!DOCTYPE svg PUBLIC "-//W3C//DTD SVG 1.1//EN" "http://www.w3.org/Graphics/SVG/1.1/DTD/svg11.dtd">
<svg version="1.1" id="Layer_1" xmlns="http://www.w3.org/2000/svg" xmlns:xlink="http://www.w3.org/1999/xlink" x="0px" y="0px"
	 width="30px" height="30px" viewBox="0 0 30 30" enable-background="new 0 0 30 30" xml:space="preserve">
<path fill="#231F20" d="M15.374,2.875h13.047c0.207,0,0.375-0.168,0.375-0.375s-0.168-0.375-0.375-0.375H15.374
	c-0.207,0-0.375,0.168-0.375,0.375S15.167,2.875,15.374,2.875"/>
<path fill="#231F20" d="M1.392,7.875h27.029c0.207,0,0.375-0.168,0.375-0.375s-0.168-0.375-0.375-0.375H1.392
	c-0.207,0-0.375,0.168-0.375,0.375S1.185,7.875,1.392,7.875"/>
<path fill="#231F20" d="M1.579,12.875h26.842c0.207,0,0.375-0.168,0.375-0.375s-0.168-0.375-0.375-0.375H1.579
	c-0.207,0-0.375,0.168-0.375,0.375S1.372,12.875,1.579,12.875"/>
<path fill="#231F20" d="M6.601,17.875h21.82c0.207,0,0.375-0.168,0.375-0.375s-0.168-0.375-0.375-0.375H6.601
	c-0.207,0-0.375,0.168-0.375,0.375S6.394,17.875,6.601,17.875"/>
<path fill="#231F20" d="M1.954,22.875h26.467c0.207,0,0.375-0.168,0.375-0.375s-0.168-0.375-0.375-0.375H1.954
	c-0.207,0-0.375,0.168-0.375,0.375S1.747,22.875,1.954,22.875"/>
<path fill="#231F20" d="M6.708,27.875h21.899c0.207,0,0.375-0.168,0.375-0.375s-0.168-0.375-0.375-0.375H6.708
	c-0.207,0-0.375,0.168-0.375,0.375S6.501,27.875,6.708,27.875"/>
</svg>
