<?xml version="1.0" standalone="no"?>
<!DOCTYPE svg PUBLIC "-//W3C//DTD SVG 1.1//EN" "http://www.w3.org/Graphics/SVG/1.1/DTD/svg11.dtd">
<svg width="43" height="48.25" viewBox="0 0 172 193" version="1.1" xmlns="http://www.w3.org/2000/svg" xmlns:xlink="http://www.w3.org/1999/xlink" xml:space="preserve" style="fill-rule:evenodd;clip-rule:evenodd;stroke-linejoin:round;stroke-miterlimit:1.41421;">
    <g id="Layer1">
        <path d="M30.7375,46.8258C30.7375,46.7925 31.0208,45.83 32.1042,45.1717C33.3167,44.4175 36.175,43.8133 37.8083,43.6258C38.6875,43.5258 39.5042,43.0717 40.0708,42.3883L43.2375,38.455C43.7083,37.8675 43.9708,37.1342 43.9958,36.3758C44.1833,26.8758 44.7917,15.4592 45.4667,13.5508C47.0958,10.3383 49.2125,6.92583 54.4583,6.92583C54.4667,6.92583 54.4833,6.93417 54.4917,6.93417C59.9208,7.33 63.875,12.455 63.9167,12.5092C64.7375,13.5758 66.1292,14.0883 67.4,13.7717C67.7083,13.7092 97.4375,6.93833 120.417,6.93833C127.279,6.93833 132.821,7.53833 136.921,8.7175L137.142,11.1092C135.571,11.3967 133.779,11.6925 132.412,11.6592C131.454,11.4967 130.492,11.8717 129.779,12.5342C129.062,13.1842 128.654,14.1133 128.662,15.0883L128.867,34.7925C128.883,35.5675 129.15,36.3217 129.646,36.9258L133.504,41.5925C134.121,42.3383 135.025,42.7925 135.996,42.83L138.754,42.9383C139.283,43.2383 140.008,43.6967 140.546,44.205C140.992,44.6258 141.562,45.5425 141.933,46.28L142.571,62.4217L30.1208,63.0217L30.7375,46.8258ZM143.279,87.505L145.029,68.9425L147.867,67.155C148.9,66.5133 149.521,65.355 149.462,64.13L148.721,45.2925C148.712,44.855 148.608,44.4342 148.429,44.0383C148.2,43.53 146.987,40.9008 145.246,39.2633C143.521,37.6133 141.3,36.5717 141.067,36.4592C140.65,36.2717 140.225,36.1675 139.779,36.1508L137.792,36.0758L135.679,33.5133L135.521,18.2842C138.267,17.9383 141.154,17.2592 141.571,17.155C143.204,16.7633 144.304,15.2508 144.175,13.5758L143.692,7.85083L143.017,5.19667C142.742,4.09667 141.933,3.2175 140.879,2.83C135.912,1.03 129.029,0.113333 120.417,0.113333C99.8958,0.113333 75.0417,5.13417 67.8542,6.68833C65.6333,4.3925 61.05,0.58 54.9542,0.121667L53.9292,0.0883333C44.6375,0.0883333 40.8125,7.62583 39.2917,10.63C37.9542,13.2592 37.4125,25.1175 37.1917,35.0717L35.5958,37.0508C33.775,37.3633 30.65,38.0467 28.55,39.3467C24.95,41.53 24.1542,44.9675 24.0083,45.9008L23.1917,65.5467C23.1458,66.7758 23.7542,67.9467 24.8042,68.5925L26.0167,69.3342C26.5375,69.655 27.1167,69.805 27.7167,69.83L29.4125,87.5425C15.5375,90.9342 -0.104167,96.9967 -0.104167,107.263C-0.104167,122.968 37.6375,131.276 74.5458,132.684L57.1792,150.059C55.8583,151.368 55.8583,153.501 57.1792,154.834C57.8375,155.497 58.7,155.83 59.5708,155.83C60.4333,155.83 61.2958,155.497 61.9625,154.834L85.2708,131.513C85.5958,131.201 85.8417,130.838 86.0208,130.422C86.3625,129.593 86.3625,128.663 86.0208,127.843C85.8417,127.426 85.5958,127.051 85.2708,126.734L61.9625,103.418C60.6458,102.109 58.5042,102.109 57.1792,103.418C55.8583,104.734 55.8583,106.876 57.1792,108.205L74.0542,125.076C32.675,123.43 7.47917,113.851 7.47917,107.263C7.47917,104.988 12.4333,99.7008 30.1333,95.2008L31.675,111.409C31.8458,113.167 33.3333,114.497 35.0667,114.497C35.1792,114.497 35.2875,114.488 35.3917,114.488C37.2708,114.309 38.6458,112.638 38.4667,110.759L34.5708,69.83L138.117,69.5133L134.162,111.297C133.992,113.167 135.367,114.838 137.246,115.017C137.354,115.026 137.467,115.034 137.575,115.034C139.308,115.034 140.796,113.705 140.958,111.938L142.554,95.1633C160.367,99.6508 165.342,104.972 165.342,107.263C165.342,112.559 147.192,121.705 108.246,124.555C106.162,124.709 104.592,126.522 104.754,128.605C104.892,130.609 106.558,132.13 108.529,132.13C108.617,132.13 108.708,132.13 108.812,132.122C139.796,129.859 172.917,122.138 172.917,107.263C172.917,96.9383 157.171,90.8758 143.279,87.505" style="fill:rgb(148,149,153);fill-rule:nonzero;"/>
        <path d="M135.035,136.045C133.147,135.907 131.51,137.291 131.347,139.17L128.005,180.862C127.964,181.478 127.468,186.832 122.243,186.832L86.3846,186.832L86.2637,186.832L50.4221,186.832C45.3929,186.832 44.7346,181.845 44.6554,180.803L41.2262,139.17C41.0804,137.282 39.4762,135.932 37.5512,136.045C35.6679,136.199 34.2679,137.853 34.4304,139.732L37.8512,181.307C38.1262,185.582 41.1054,193.662 50.4221,193.662L122.243,193.662C131.551,193.662 134.53,185.582 134.805,181.357L138.168,139.724C138.314,137.837 136.905,136.191 135.035,136.045" style="fill:rgb(148,149,153);fill-rule:nonzero;"/>
        <path d="M30.7375,46.8258C30.7375,46.7925 31.0208,45.83 32.1042,45.1717C33.3167,44.4175 36.175,43.8133 37.8083,43.6258C38.6875,43.5258 39.5042,43.0717 40.0708,42.3883L43.2375,38.455C43.7083,37.8675 43.9708,37.1342 43.9958,36.3758C44.1833,26.8758 44.7917,15.4592 45.4667,13.5508C47.0958,10.3383 49.2125,6.92583 54.4583,6.92583C54.4667,6.92583 54.4833,6.93417 54.4917,6.93417C59.9208,7.33 63.875,12.455 63.9167,12.5092C64.7375,13.5758 66.1292,14.0883 67.4,13.7717C67.7083,13.7092 97.4375,6.93833 120.417,6.93833C127.279,6.93833 132.821,7.53833 136.921,8.7175L137.142,11.1092C135.571,11.3967 133.779,11.6925 132.412,11.6592C131.454,11.4967 130.492,11.8717 129.779,12.5342C129.062,13.1842 128.654,14.1133 128.662,15.0883L128.867,34.7925C128.883,35.5675 129.15,36.3217 129.646,36.9258L133.504,41.5925C134.121,42.3383 135.025,42.7925 135.996,42.83L138.754,42.9383C139.283,43.2383 140.008,43.6967 140.546,44.205C140.992,44.6258 141.562,45.5425 141.933,46.28L142.571,62.4217L30.1208,63.0217L30.7375,46.8258ZM143.279,87.505L145.029,68.9425L147.867,67.155C148.9,66.5133 149.521,65.355 149.462,64.13L148.721,45.2925C148.712,44.855 148.608,44.4342 148.429,44.0383C148.2,43.53 146.987,40.9008 145.246,39.2633C143.521,37.6133 141.3,36.5717 141.067,36.4592C140.65,36.2717 140.225,36.1675 139.779,36.1508L137.792,36.0758L135.679,33.5133L135.521,18.2842C138.267,17.9383 141.154,17.2592 141.571,17.155C143.204,16.7633 144.304,15.2508 144.175,13.5758L143.692,7.85083L143.017,5.19667C142.742,4.09667 141.933,3.2175 140.879,2.83C135.912,1.03 129.029,0.113333 120.417,0.113333C99.8958,0.113333 75.0417,5.13417 67.8542,6.68833C65.6333,4.3925 61.05,0.58 54.9542,0.121667L53.9292,0.0883333C44.6375,0.0883333 40.8125,7.62583 39.2917,10.63C37.9542,13.2592 37.4125,25.1175 37.1917,35.0717L35.5958,37.0508C33.775,37.3633 30.65,38.0467 28.55,39.3467C24.95,41.53 24.1542,44.9675 24.0083,45.9008L23.1917,65.5467C23.1458,66.7758 23.7542,67.9467 24.8042,68.5925L26.0167,69.3342C26.5375,69.655 27.1167,69.805 27.7167,69.83L29.4125,87.5425C15.5375,90.9342 -0.104167,96.9967 -0.104167,107.263C-0.104167,122.968 37.6375,131.276 74.5458,132.684L57.1792,150.059C55.8583,151.368 55.8583,153.501 57.1792,154.834C57.8375,155.497 58.7,155.83 59.5708,155.83C60.4333,155.83 61.2958,155.497 61.9625,154.834L85.2708,131.513C85.5958,131.201 85.8417,130.838 86.0208,130.422C86.3625,129.593 86.3625,128.663 86.0208,127.843C85.8417,127.426 85.5958,127.051 85.2708,126.734L61.9625,103.418C60.6458,102.109 58.5042,102.109 57.1792,103.418C55.8583,104.734 55.8583,106.876 57.1792,108.205L74.0542,125.076C32.675,123.43 7.47917,113.851 7.47917,107.263C7.47917,104.988 12.4333,99.7008 30.1333,95.2008L31.675,111.409C31.8458,113.167 33.3333,114.497 35.0667,114.497C35.1792,114.497 35.2875,114.488 35.3917,114.488C37.2708,114.309 38.6458,112.638 38.4667,110.759L34.5708,69.83L138.117,69.5133L134.162,111.297C133.992,113.167 135.367,114.838 137.246,115.017C137.354,115.026 137.467,115.034 137.575,115.034C139.308,115.034 140.796,113.705 140.958,111.938L142.554,95.1633C160.367,99.6508 165.342,104.972 165.342,107.263C165.342,112.559 147.192,121.705 108.246,124.555C106.162,124.709 104.592,126.522 104.754,128.605C104.892,130.609 106.558,132.13 108.529,132.13C108.617,132.13 108.708,132.13 108.812,132.122C139.796,129.859 172.917,122.138 172.917,107.263C172.917,96.9383 157.171,90.8758 143.279,87.505" style="fill:rgb(148,149,153);fill-rule:nonzero;"/>
        <path d="M135.035,136.045C133.147,135.907 131.51,137.291 131.347,139.17L128.005,180.862C127.964,181.478 127.468,186.832 122.243,186.832L86.3846,186.832L86.2637,186.832L50.4221,186.832C45.3929,186.832 44.7346,181.845 44.6554,180.803L41.2262,139.17C41.0804,137.282 39.4762,135.932 37.5512,136.045C35.6679,136.199 34.2679,137.853 34.4304,139.732L37.8512,181.307C38.1262,185.582 41.1054,193.662 50.4221,193.662L122.243,193.662C131.551,193.662 134.53,185.582 134.805,181.357L138.168,139.724C138.314,137.837 136.905,136.191 135.035,136.045" style="fill:rgb(148,149,153);fill-rule:nonzero;"/>
    </g>
</svg>
