<?xml version="1.0" encoding="utf-8"?>
<!-- Generator: Adobe Illustrator 14.0.0, SVG Export Plug-In . SVG Version: 6.00 Build 43363)  -->
<!DOCTYPE svg PUBLIC "-//W3C//DTD SVG 1.1//EN" "http://www.w3.org/Graphics/SVG/1.1/DTD/svg11.dtd">
<svg version="1.1" id="Layer_1" xmlns="http://www.w3.org/2000/svg" xmlns:xlink="http://www.w3.org/1999/xlink" x="0px" y="0px"
	 width="12px" height="12px" viewBox="0 0 12 12" enable-background="new 0 0 12 12" xml:space="preserve">
<rect fill="#FFFFFF" width="12" height="12"/>
<path d="M11.577,1.314c-0.001-0.094-0.054-0.182-0.138-0.224c-0.084-0.043-0.186-0.035-0.263,0.02l-0.995,0.713l-0.078,0.057
	C9.031,0.809,7.561,0.14,5.93,0.14C2.66,0.14,0,2.8,0,6.07C0,9.339,2.66,12,5.93,12c1.972,0,3.81-0.978,4.917-2.614
	c0.044-0.065,0.061-0.146,0.046-0.223c-0.016-0.077-0.061-0.146-0.126-0.189L9.283,7.944c-0.146-0.097-0.342-0.06-0.439,0.085
	c-0.656,0.97-1.743,1.549-2.908,1.549c-1.935,0-3.509-1.574-3.509-3.508c0-1.934,1.574-3.508,3.509-3.508
	c0.816,0,1.565,0.284,2.161,0.753L7.93,3.436L6.934,4.149C6.857,4.204,6.817,4.298,6.831,4.392C6.845,4.485,6.91,4.563,7,4.594
	l4.259,1.451c0.077,0.027,0.162,0.014,0.229-0.034c0.066-0.048,0.105-0.125,0.104-0.206L11.577,1.314z"/>
</svg>
