<?xml version="1.0" encoding="utf-8"?>
<!-- Generator: Adobe Illustrator 14.0.0, SVG Export Plug-In . SVG Version: 6.00 Build 43363)  -->
<!DOCTYPE svg PUBLIC "-//W3C//DTD SVG 1.1//EN" "http://www.w3.org/Graphics/SVG/1.1/DTD/svg11.dtd">
<svg version="1.1" id="Layer_1" xmlns="http://www.w3.org/2000/svg" xmlns:xlink="http://www.w3.org/1999/xlink" x="0px" y="0px"
	 width="23px" height="18px" viewBox="-0.043 -0.102 23 18" enable-background="new -0.043 -0.102 23 18" xml:space="preserve">
<path fill="#939598" d="M22.914,6.051c0,0-0.002-0.051-0.004-0.056c-0.062-0.897-0.703-2.591-2.664-2.591h-4.392
	C15.594,1.688,14.682,0,12.807,0L7.216,0.001L7.137,0.006c-0.219,0.021-2.064,0.3-2.4,3.406L2.811,3.435
	C1.682,3.483,0.003,4.282,0.003,6.287l0.002,8.781c-0.018,0.266-0.022,1.188,0.642,1.918c0.488,0.537,1.172,0.811,2.033,0.811
	h17.584c0.014,0,0.06-0.004,0.071-0.005c0.894-0.087,2.576-0.757,2.576-2.673V6.051H22.914z M21.987,15.119
	c0,1.562-1.668,1.744-1.737,1.75L2.68,16.87c-0.588,0-1.041-0.17-1.347-0.507c-0.43-0.473-0.412-1.112-0.403-1.266V6.287
	c0-1.823,1.844-1.924,1.907-1.927L5.17,4.334C5.413,4.332,5.614,4.14,5.627,3.897C5.79,1.105,7.172,0.934,7.211,0.93l0.033-0.003
	h5.562c1.768,0,2.111,2.282,2.176,2.982c0.021,0.238,0.221,0.422,0.461,0.422h4.801c1.598,0,1.736,1.66,1.742,1.74L21.987,15.119
	L21.987,15.119z"/>
<path fill="#939598" d="M10.042,5.28c-2.822,0-5.117,2.295-5.117,5.116c0,2.819,2.295,5.114,5.117,5.114
	c2.82,0,5.116-2.295,5.116-5.114C15.158,7.575,12.862,5.28,10.042,5.28 M10.042,14.585c-2.311,0-4.188-1.88-4.188-4.188
	c0-2.311,1.878-4.188,4.188-4.188c2.309,0,4.187,1.879,4.187,4.188C14.228,12.705,12.35,14.585,10.042,14.585"/>
<path fill="#939598" d="M17.662,6.11c-0.777,0-1.412,0.632-1.412,1.41s0.635,1.411,1.412,1.411c0.778,0,1.412-0.633,1.412-1.411
	S18.44,6.11,17.662,6.11 M17.662,8.006c-0.269,0-0.484-0.218-0.484-0.485s0.217-0.484,0.484-0.484c0.267,0,0.483,0.217,0.483,0.484
	S17.928,8.006,17.662,8.006"/>
<path fill="#939598" d="M10.055,7.07C9.167,7.043,8.287,7.386,7.659,8.015C7.02,8.652,6.686,9.504,6.715,10.411
	c0.008,0.251,0.215,0.448,0.463,0.448c0.006,0,0.01,0,0.016-0.002c0.256-0.008,0.457-0.223,0.447-0.478
	C7.619,9.732,7.86,9.125,8.315,8.67C8.75,8.232,9.328,7.995,9.948,7.995c0.031,0,0.061,0.002,0.094,0.002
	c0.247,0,0.454-0.198,0.463-0.448C10.512,7.293,10.311,7.078,10.055,7.07"/>
</svg>
