<?xml version="1.0" encoding="utf-8"?>
<!-- Generator: Adobe Illustrator 14.0.0, SVG Export Plug-In . SVG Version: 6.00 Build 43363)  -->
<!DOCTYPE svg PUBLIC "-//W3C//DTD SVG 1.1//EN" "http://www.w3.org/Graphics/SVG/1.1/DTD/svg11.dtd">
<svg version="1.1" id="Layer_1" xmlns="http://www.w3.org/2000/svg" xmlns:xlink="http://www.w3.org/1999/xlink" x="0px" y="0px"
	 width="34px" height="34px" viewBox="0 0 34 34" enable-background="new 0 0 34 34" xml:space="preserve">
<path fill="#231F20" d="M25.963,7.657H8.037c-0.209,0-0.38,0.17-0.38,0.381v17.925c0,0.209,0.171,0.381,0.38,0.381h17.926
	c0.211,0,0.381-0.172,0.381-0.381V8.039C26.344,7.827,26.174,7.657,25.963,7.657 M25.582,25.583H8.419V8.419h17.163V25.583z"/>
<polygon fill="#231F20" points="8.419,8.419 15.287,8.419 15.287,0.027 0.027,0.027 0.027,15.287 8.419,15.287 "/>
<polygon fill="#231F20" points="25.582,18.714 25.582,25.583 18.714,25.583 18.714,33.975 33.975,33.975 33.975,18.714 "/>
</svg>
