<?xml version="1.0" encoding="UTF-8" standalone="no"?><svg xmlns="http://www.w3.org/2000/svg" xmlns:xlink="http://www.w3.org/1999/xlink" clip-rule="evenodd" stroke-miterlimit="4.00" viewBox="0 0 1920 1080"><desc>SVG generated by Keynote</desc><defs></defs><g transform="matrix(1.00, 0.00, -0.00, -1.00, 0.0, 1080.0)"><g><clipPath id="clip-81"><path d="M 0.0 1080.0 L 1920.0 1080.0 L 1920.0 0.0 L 0.0 0.0 Z M 0.0 1080.0 "></path></clipPath><g clip-path="url(#clip-81)"><image xlink:href="../../A172C229-966A-4E8A-A457-DFB78DE74FB5/assets/4B0075050CC9D0F3DC006F0CDE78D676.jpeg" width="1365.00" height="767.00" transform="matrix(1.41, 0.00, -0.00, -1.41, 0.0, 1080.0)"></image></g></g><image xlink:href="../../BA8823DC-31EE-477B-B094-8CADCFCB1586/assets/CE405161B0F27CA5CDD6DAB9A0A12266.png" width="757.00" height="83.00" transform="matrix(1.00, 0.00, -0.00, -1.00, 116.0, 953.0)"></image><text xml:space="preserve" font-family="HelveticaNeue-Light" font-size="100.0" fill="#FEFFFE" transform="matrix(1.00, 0.00, -0.00, -1.00, 120.0, 879.0)">W</text><text xml:space="preserve" font-family="HelveticaNeue-Light" font-size="100.0" fill="#FEFFFE" transform="matrix(1.00, 0.00, -0.00, -1.00, 210.7, 879.0)">h</text><text xml:space="preserve" font-family="HelveticaNeue-Light" font-size="100.0" fill="#FEFFFE" transform="matrix(1.00, 0.00, -0.00, -1.00, 264.4, 879.0)">a</text><text xml:space="preserve" font-family="HelveticaNeue-Light" font-size="100.0" fill="#FEFFFE" transform="matrix(1.00, 0.00, -0.00, -1.00, 316.3, 879.0)">t</text><text xml:space="preserve" font-family="HelveticaNeue-Light" font-size="100.0" fill="#FEFFFE" transform="matrix(1.00, 0.00, -0.00, -1.00, 345.9, 879.0)"> </text><text xml:space="preserve" font-family="HelveticaNeue-Light" font-size="100.0" fill="#FEFFFE" transform="matrix(1.00, 0.00, -0.00, -1.00, 373.7, 879.0)">i</text><text xml:space="preserve" font-family="HelveticaNeue-Light" font-size="100.0" fill="#FEFFFE" transform="matrix(1.00, 0.00, -0.00, -1.00, 392.2, 879.0)">s</text><text xml:space="preserve" font-family="HelveticaNeue-Light" font-size="100.0" fill="#FEFFFE" transform="matrix(1.00, 0.00, -0.00, -1.00, 440.3, 879.0)"> </text><text xml:space="preserve" font-family="HelveticaNeue-Light" font-size="100.0" fill="#FEFFFE" transform="matrix(1.00, 0.00, -0.00, -1.00, 468.1, 879.0)">T</text><text xml:space="preserve" font-family="HelveticaNeue-Light" font-size="100.0" fill="#FEFFFE" transform="matrix(1.00, 0.00, -0.00, -1.00, 523.7, 879.0)">h</text><text xml:space="preserve" font-family="HelveticaNeue-Light" font-size="100.0" fill="#FEFFFE" transform="matrix(1.00, 0.00, -0.00, -1.00, 577.4, 879.0)">o</text><text xml:space="preserve" font-family="HelveticaNeue-Light" font-size="100.0" fill="#FEFFFE" transform="matrix(1.00, 0.00, -0.00, -1.00, 633.0, 879.0)">r</text><text xml:space="preserve" font-family="HelveticaNeue-Light" font-size="100.0" fill="#FEFFFE" transform="matrix(1.00, 0.00, -0.00, -1.00, 664.5, 879.0)">i</text><text xml:space="preserve" font-family="HelveticaNeue-Light" font-size="100.0" fill="#FEFFFE" transform="matrix(1.00, 0.00, -0.00, -1.00, 683.0, 879.0)">u</text><text xml:space="preserve" font-family="HelveticaNeue-Light" font-size="100.0" fill="#FEFFFE" transform="matrix(1.00, 0.00, -0.00, -1.00, 736.7, 879.0)">m</text><text xml:space="preserve" font-family="HelveticaNeue-Light" font-size="100.0" fill="#FEFFFE" transform="matrix(1.00, 0.00, -0.00, -1.00, 820.0, 879.0)">?</text><image xlink:href="../../A172C229-966A-4E8A-A457-DFB78DE74FB5/assets/D78D93A8DEE9B68D58E2A0BAEAF9F97F.png" width="18.00" height="18.00" transform="matrix(1.00, 0.00, -0.00, -1.00, 120.0, 741.0)"></image><g><clipPath id="clip-82"><path d="M 120.0 723.1 L 137.6 723.1 L 137.6 740.8 L 120.0 740.8 Z M 120.0 723.1 "></path></clipPath><g clip-path="url(#clip-82)"><g><g><clipPath id="clip-83"><path d="M 120.0 740.8 L 137.6 740.8 L 137.6 723.1 L 120.0 723.1 Z M 120.0 740.8 "></path></clipPath><g clip-path="url(#clip-83)"><g><clipPath id="clip-84"><path d="M 116.0 716.0 L 142.0 716.0 L 142.0 748.0 L 116.0 748.0 Z M 116.0 716.0 "></path></clipPath><g clip-path="url(#clip-84)"><path d="M 137.6 737.3 C 137.6 738.0 137.2 738.8 136.5 739.6 C 135.8 740.4 135.0 740.8 134.1 740.8 C 133.7 740.8 133.1 740.6 132.2 740.2 C 130.9 739.5 129.7 739.2 128.8 739.2 C 127.8 739.2 126.6 739.5 125.3 740.2 C 124.5 740.6 123.9 740.8 123.4 740.8 C 122.6 740.8 121.8 740.4 121.1 739.6 C 120.4 738.9 120.0 738.1 120.0 737.3 C 120.0 736.8 120.2 736.2 120.6 735.3 C 121.2 734.0 121.5 732.9 121.5 731.9 C 121.5 731.0 121.2 729.9 120.6 728.5 C 120.2 727.7 120.0 727.1 120.0 726.6 C 120.0 725.8 120.4 725.0 121.1 724.2 C 121.8 723.5 122.6 723.1 123.4 723.1 C 123.9 723.1 124.5 723.3 125.3 723.7 C 126.6 724.4 127.8 724.7 128.8 724.7 C 129.7 724.7 130.9 724.4 132.2 723.7 C 133.1 723.3 133.7 723.1 134.1 723.1 C 135.0 723.1 135.8 723.5 136.5 724.2 C 137.2 725.0 137.6 725.8 137.6 726.6 C 137.6 727.1 137.4 727.7 137.0 728.5 C 136.3 729.9 136.0 731.0 136.0 731.9 C 136.0 732.9 136.3 734.0 137.0 735.3 C 137.4 736.2 137.6 736.8 137.6 737.3 " fill="#FFFFFF"></path></g></g></g></g></g></g></g><image xlink:href="../../BA8823DC-31EE-477B-B094-8CADCFCB1586/assets/096738E351334EA9456DC743CA3C4C97.png" width="261.00" height="46.00" transform="matrix(1.00, 0.00, -0.00, -1.00, 169.0, 753.0)"></image><text xml:space="preserve" font-family="HelveticaNeue-Light" font-size="50.0" fill="#FEFFFE" transform="matrix(1.00, 0.00, -0.00, -1.00, 170.0, 715.0)">“</text><text xml:space="preserve" font-family="HelveticaNeue-Light" font-size="50.0" fill="#FEFFFE" transform="matrix(1.00, 0.00, -0.00, -1.00, 188.5, 715.0)">S</text><text xml:space="preserve" font-family="HelveticaNeue-Light" font-size="50.0" fill="#FEFFFE" transform="matrix(1.00, 0.00, -0.00, -1.00, 220.0, 715.0)">i</text><text xml:space="preserve" font-family="HelveticaNeue-Light" font-size="50.0" fill="#FEFFFE" transform="matrix(1.00, 0.00, -0.00, -1.00, 229.2, 715.0)">m</text><text xml:space="preserve" font-family="HelveticaNeue-Light" font-size="50.0" fill="#FEFFFE" transform="matrix(1.00, 0.00, -0.00, -1.00, 270.9, 715.0)">u</text><text xml:space="preserve" font-family="HelveticaNeue-Light" font-size="50.0" fill="#FEFFFE" transform="matrix(1.00, 0.00, -0.00, -1.00, 297.8, 715.0)">l</text><text xml:space="preserve" font-family="HelveticaNeue-Light" font-size="50.0" fill="#FEFFFE" transform="matrix(1.00, 0.00, -0.00, -1.00, 307.0, 715.0)">a</text><text xml:space="preserve" font-family="HelveticaNeue-Light" font-size="50.0" fill="#FEFFFE" transform="matrix(1.00, 0.00, -0.00, -1.00, 332.9, 715.0)">t</text><text xml:space="preserve" font-family="HelveticaNeue-Light" font-size="50.0" fill="#FEFFFE" transform="matrix(1.00, 0.00, -0.00, -1.00, 347.8, 715.0)">i</text><text xml:space="preserve" font-family="HelveticaNeue-Light" font-size="50.0" fill="#FEFFFE" transform="matrix(1.00, 0.00, -0.00, -1.00, 357.0, 715.0)">o</text><text xml:space="preserve" font-family="HelveticaNeue-Light" font-size="50.0" fill="#FEFFFE" transform="matrix(1.00, 0.00, -0.00, -1.00, 384.8, 715.0)">n</text><text xml:space="preserve" font-family="HelveticaNeue-Light" font-size="50.0" fill="#FEFFFE" transform="matrix(1.00, 0.00, -0.00, -1.00, 411.6, 715.0)">"</text><text xml:space="preserve" font-family="HelveticaNeue-Light" font-size="50.0" fill="#FEFFFE" transform="matrix(1.00, 0.00, -0.00, -1.00, 430.1, 715.0)"> </text><image xlink:href="../../BA8823DC-31EE-477B-B094-8CADCFCB1586/assets/7EC71FFECFD382A172E84249BF3A95D9.png" width="179.00" height="54.00" transform="matrix(1.00, 0.00, -0.00, -1.00, 443.0, 752.0)"></image><text xml:space="preserve" font-family="HelveticaNeue-Light" font-size="50.0" fill="#FEFFFE" transform="matrix(1.00, 0.00, -0.00, -1.00, 444.1, 715.0)">p</text><text xml:space="preserve" font-family="HelveticaNeue-Light" font-size="50.0" fill="#FEFFFE" transform="matrix(1.00, 0.00, -0.00, -1.00, 472.8, 715.0)">l</text><text xml:space="preserve" font-family="HelveticaNeue-Light" font-size="50.0" fill="#FEFFFE" transform="matrix(1.00, 0.00, -0.00, -1.00, 482.0, 715.0)">a</text><text xml:space="preserve" font-family="HelveticaNeue-Light" font-size="50.0" fill="#FEFFFE" transform="matrix(1.00, 0.00, -0.00, -1.00, 507.9, 715.0)">t</text><text xml:space="preserve" font-family="HelveticaNeue-Light" font-size="50.0" fill="#FEFFFE" transform="matrix(1.00, 0.00, -0.00, -1.00, 522.8, 715.0)">f</text><text xml:space="preserve" font-family="HelveticaNeue-Light" font-size="50.0" fill="#FEFFFE" transform="matrix(1.00, 0.00, -0.00, -1.00, 535.7, 715.0)">o</text><text xml:space="preserve" font-family="HelveticaNeue-Light" font-size="50.0" fill="#FEFFFE" transform="matrix(1.00, 0.00, -0.00, -1.00, 563.5, 715.0)">r</text><text xml:space="preserve" font-family="HelveticaNeue-Light" font-size="50.0" fill="#FEFFFE" transform="matrix(1.00, 0.00, -0.00, -1.00, 579.2, 715.0)">m</text><text xml:space="preserve" font-family="HelveticaNeue-Light" font-size="50.0" fill="#FEFFFE" transform="matrix(1.00, 0.00, -0.00, -1.00, 620.9, 715.0)"> </text><image xlink:href="../../A172C229-966A-4E8A-A457-DFB78DE74FB5/assets/D78D93A8DEE9B68D58E2A0BAEAF9F97F.png" width="18.00" height="18.00" transform="matrix(1.00, 0.00, -0.00, -1.00, 120.0, 630.0)"></image><g><clipPath id="clip-85"><path d="M 120.0 612.1 L 137.6 612.1 L 137.6 629.8 L 120.0 629.8 Z M 120.0 612.1 "></path></clipPath><g clip-path="url(#clip-85)"><g><g><clipPath id="clip-86"><path d="M 120.0 629.8 L 137.6 629.8 L 137.6 612.1 L 120.0 612.1 Z M 120.0 629.8 "></path></clipPath><g clip-path="url(#clip-86)"><g><clipPath id="clip-87"><path d="M 116.0 605.0 L 142.0 605.0 L 142.0 637.0 L 116.0 637.0 Z M 116.0 605.0 "></path></clipPath><g clip-path="url(#clip-87)"><path d="M 137.6 626.3 C 137.6 627.0 137.2 627.8 136.5 628.6 C 135.8 629.4 135.0 629.8 134.1 629.8 C 133.7 629.8 133.1 629.6 132.2 629.2 C 130.9 628.5 129.7 628.2 128.8 628.2 C 127.8 628.2 126.6 628.5 125.3 629.2 C 124.5 629.6 123.9 629.8 123.4 629.8 C 122.6 629.8 121.8 629.4 121.1 628.6 C 120.4 627.9 120.0 627.1 120.0 626.3 C 120.0 625.8 120.2 625.2 120.6 624.3 C 121.2 623.0 121.5 621.9 121.5 620.9 C 121.5 620.0 121.2 618.9 120.6 617.5 C 120.2 616.7 120.0 616.1 120.0 615.6 C 120.0 614.8 120.4 614.0 121.1 613.2 C 121.8 612.5 122.6 612.1 123.4 612.1 C 123.9 612.1 124.5 612.3 125.3 612.7 C 126.6 613.4 127.8 613.7 128.8 613.7 C 129.7 613.7 130.9 613.4 132.2 612.7 C 133.1 612.3 133.7 612.1 134.1 612.1 C 135.0 612.1 135.8 612.5 136.5 613.2 C 137.2 614.0 137.6 614.8 137.6 615.6 C 137.6 616.1 137.4 616.7 137.0 617.5 C 136.3 618.9 136.0 620.0 136.0 620.9 C 136.0 621.9 136.3 623.0 137.0 624.3 C 137.4 625.2 137.6 625.8 137.6 626.3 " fill="#FFFFFF"></path></g></g></g></g></g></g></g><image xlink:href="../../BA8823DC-31EE-477B-B094-8CADCFCB1586/assets/AC3E24BA55BFAEB8123E50CFD84B3326.png" width="649.00" height="46.00" transform="matrix(1.00, 0.00, -0.00, -1.00, 167.0, 642.0)"></image><text xml:space="preserve" font-family="HelveticaNeue-Light" font-size="50.0" fill="#FEFFFE" transform="matrix(1.00, 0.00, -0.00, -1.00, 170.0, 604.0)">S</text><text xml:space="preserve" font-family="HelveticaNeue-Light" font-size="50.0" fill="#FEFFFE" transform="matrix(1.00, 0.00, -0.00, -1.00, 201.5, 604.0)">o</text><text xml:space="preserve" font-family="HelveticaNeue-Light" font-size="50.0" fill="#FEFFFE" transform="matrix(1.00, 0.00, -0.00, -1.00, 229.3, 604.0)">f</text><text xml:space="preserve" font-family="HelveticaNeue-Light" font-size="50.0" fill="#FEFFFE" transform="matrix(1.00, 0.00, -0.00, -1.00, 242.2, 604.0)">t</text><text xml:space="preserve" font-family="HelveticaNeue-Light" font-size="50.0" fill="#FEFFFE" transform="matrix(1.00, 0.00, -0.00, -1.00, 257.1, 604.0)">w</text><text xml:space="preserve" font-family="HelveticaNeue-Light" font-size="50.0" fill="#FEFFFE" transform="matrix(1.00, 0.00, -0.00, -1.00, 294.1, 604.0)">a</text><text xml:space="preserve" font-family="HelveticaNeue-Light" font-size="50.0" fill="#FEFFFE" transform="matrix(1.00, 0.00, -0.00, -1.00, 320.1, 604.0)">r</text><text xml:space="preserve" font-family="HelveticaNeue-Light" font-size="50.0" fill="#FEFFFE" transform="matrix(1.00, 0.00, -0.00, -1.00, 334.9, 604.0)">e</text><text xml:space="preserve" font-family="HelveticaNeue-Light" font-size="50.0" fill="#FEFFFE" transform="matrix(1.00, 0.00, -0.00, -1.00, 360.9, 604.0)"> </text><text xml:space="preserve" font-family="HelveticaNeue-Light" font-size="50.0" fill="#FEFFFE" transform="matrix(1.00, 0.00, -0.00, -1.00, 374.8, 604.0)">&amp;</text><text xml:space="preserve" font-family="HelveticaNeue-Light" font-size="50.0" fill="#FEFFFE" transform="matrix(1.00, 0.00, -0.00, -1.00, 405.3, 604.0)"> </text><text xml:space="preserve" font-family="HelveticaNeue-Light" font-size="50.0" fill="#FEFFFE" transform="matrix(1.00, 0.00, -0.00, -1.00, 419.2, 604.0)">H</text><text xml:space="preserve" font-family="HelveticaNeue-Light" font-size="50.0" fill="#FEFFFE" transform="matrix(1.00, 0.00, -0.00, -1.00, 454.4, 604.0)">a</text><text xml:space="preserve" font-family="HelveticaNeue-Light" font-size="50.0" fill="#FEFFFE" transform="matrix(1.00, 0.00, -0.00, -1.00, 480.4, 604.0)">r</text><text xml:space="preserve" font-family="HelveticaNeue-Light" font-size="50.0" fill="#FEFFFE" transform="matrix(1.00, 0.00, -0.00, -1.00, 495.2, 604.0)">d</text><text xml:space="preserve" font-family="HelveticaNeue-Light" font-size="50.0" fill="#FEFFFE" transform="matrix(1.00, 0.00, -0.00, -1.00, 523.9, 604.0)">w</text><text xml:space="preserve" font-family="HelveticaNeue-Light" font-size="50.0" fill="#FEFFFE" transform="matrix(1.00, 0.00, -0.00, -1.00, 561.0, 604.0)">a</text><text xml:space="preserve" font-family="HelveticaNeue-Light" font-size="50.0" fill="#FEFFFE" transform="matrix(1.00, 0.00, -0.00, -1.00, 586.9, 604.0)">r</text><text xml:space="preserve" font-family="HelveticaNeue-Light" font-size="50.0" fill="#FEFFFE" transform="matrix(1.00, 0.00, -0.00, -1.00, 601.8, 604.0)">e</text><text xml:space="preserve" font-family="HelveticaNeue-Light" font-size="50.0" fill="#FEFFFE" transform="matrix(1.00, 0.00, -0.00, -1.00, 627.7, 604.0)"> </text><text xml:space="preserve" font-family="HelveticaNeue-Light" font-size="50.0" fill="#FEFFFE" transform="matrix(1.00, 0.00, -0.00, -1.00, 641.6, 604.0)">c</text><text xml:space="preserve" font-family="HelveticaNeue-Light" font-size="50.0" fill="#FEFFFE" transform="matrix(1.00, 0.00, -0.00, -1.00, 667.5, 604.0)">o</text><text xml:space="preserve" font-family="HelveticaNeue-Light" font-size="50.0" fill="#FEFFFE" transform="matrix(1.00, 0.00, -0.00, -1.00, 695.4, 604.0)">n</text><text xml:space="preserve" font-family="HelveticaNeue-Light" font-size="50.0" fill="#FEFFFE" transform="matrix(1.00, 0.00, -0.00, -1.00, 722.2, 604.0)">t</text><text xml:space="preserve" font-family="HelveticaNeue-Light" font-size="50.0" fill="#FEFFFE" transform="matrix(1.00, 0.00, -0.00, -1.00, 737.0, 604.0)">r</text><text xml:space="preserve" font-family="HelveticaNeue-Light" font-size="50.0" fill="#FEFFFE" transform="matrix(1.00, 0.00, -0.00, -1.00, 751.9, 604.0)">o</text><text xml:space="preserve" font-family="HelveticaNeue-Light" font-size="50.0" fill="#FEFFFE" transform="matrix(1.00, 0.00, -0.00, -1.00, 779.6, 604.0)">l</text><text xml:space="preserve" font-family="HelveticaNeue-Light" font-size="50.0" fill="#FEFFFE" transform="matrix(1.00, 0.00, -0.00, -1.00, 788.9, 604.0)">s</text><text xml:space="preserve" font-family="HelveticaNeue-Light" font-size="50.0" fill="#FEFFFE" transform="matrix(1.00, 0.00, -0.00, -1.00, 812.9, 604.0)"> </text><image xlink:href="../../A172C229-966A-4E8A-A457-DFB78DE74FB5/assets/D78D93A8DEE9B68D58E2A0BAEAF9F97F.png" width="18.00" height="18.00" transform="matrix(1.00, 0.00, -0.00, -1.00, 120.0, 519.0)"></image><g><clipPath id="clip-88"><path d="M 120.0 501.1 L 137.6 501.1 L 137.6 518.8 L 120.0 518.8 Z M 120.0 501.1 "></path></clipPath><g clip-path="url(#clip-88)"><g><g><clipPath id="clip-89"><path d="M 120.0 518.8 L 137.6 518.8 L 137.6 501.1 L 120.0 501.1 Z M 120.0 518.8 "></path></clipPath><g clip-path="url(#clip-89)"><g><clipPath id="clip-90"><path d="M 116.0 494.0 L 142.0 494.0 L 142.0 526.0 L 116.0 526.0 Z M 116.0 494.0 "></path></clipPath><g clip-path="url(#clip-90)"><path d="M 137.6 515.3 C 137.6 516.0 137.2 516.8 136.5 517.6 C 135.8 518.4 135.0 518.8 134.1 518.8 C 133.7 518.8 133.1 518.6 132.2 518.2 C 130.9 517.5 129.7 517.2 128.8 517.2 C 127.8 517.2 126.6 517.5 125.3 518.2 C 124.5 518.6 123.9 518.8 123.4 518.8 C 122.6 518.8 121.8 518.4 121.1 517.6 C 120.4 516.9 120.0 516.1 120.0 515.3 C 120.0 514.8 120.2 514.2 120.6 513.3 C 121.2 512.0 121.5 510.9 121.5 509.9 C 121.5 509.0 121.2 507.9 120.6 506.5 C 120.2 505.7 120.0 505.1 120.0 504.6 C 120.0 503.8 120.4 503.0 121.1 502.2 C 121.8 501.5 122.6 501.1 123.4 501.1 C 123.9 501.1 124.5 501.3 125.3 501.7 C 126.6 502.4 127.8 502.7 128.8 502.7 C 129.7 502.7 130.9 502.4 132.2 501.7 C 133.1 501.3 133.7 501.1 134.1 501.1 C 135.0 501.1 135.8 501.5 136.5 502.2 C 137.2 503.0 137.6 503.8 137.6 504.6 C 137.6 505.1 137.4 505.7 137.0 506.5 C 136.3 507.9 136.0 509.0 136.0 509.9 C 136.0 510.9 136.3 512.0 137.0 513.3 C 137.4 514.2 137.6 514.8 137.6 515.3 " fill="#FFFFFF"></path></g></g></g></g></g></g></g><image xlink:href="../../BA8823DC-31EE-477B-B094-8CADCFCB1586/assets/579EC9D86F8C6D3894A0C9A0600CF536.png" width="376.00" height="56.00" transform="matrix(1.00, 0.00, -0.00, -1.00, 169.0, 531.0)"></image><text xml:space="preserve" font-family="HelveticaNeue-Light" font-size="50.0" fill="#FEFFFE" transform="matrix(1.00, 0.00, -0.00, -1.00, 170.0, 493.0)">L</text><text xml:space="preserve" font-family="HelveticaNeue-Light" font-size="50.0" fill="#FEFFFE" transform="matrix(1.00, 0.00, -0.00, -1.00, 196.8, 493.0)">i</text><text xml:space="preserve" font-family="HelveticaNeue-Light" font-size="50.0" fill="#FEFFFE" transform="matrix(1.00, 0.00, -0.00, -1.00, 206.1, 493.0)">g</text><text xml:space="preserve" font-family="HelveticaNeue-Light" font-size="50.0" fill="#FEFFFE" transform="matrix(1.00, 0.00, -0.00, -1.00, 233.9, 493.0)">h</text><text xml:space="preserve" font-family="HelveticaNeue-Light" font-size="50.0" fill="#FEFFFE" transform="matrix(1.00, 0.00, -0.00, -1.00, 260.8, 493.0)">t</text><text xml:space="preserve" font-family="HelveticaNeue-Light" font-size="50.0" fill="#FEFFFE" transform="matrix(1.00, 0.00, -0.00, -1.00, 275.6, 493.0)">i</text><text xml:space="preserve" font-family="HelveticaNeue-Light" font-size="50.0" fill="#FEFFFE" transform="matrix(1.00, 0.00, -0.00, -1.00, 284.8, 493.0)">n</text><text xml:space="preserve" font-family="HelveticaNeue-Light" font-size="50.0" fill="#FEFFFE" transform="matrix(1.00, 0.00, -0.00, -1.00, 311.6, 493.0)">g</text><text xml:space="preserve" font-family="HelveticaNeue-Light" font-size="50.0" fill="#FEFFFE" transform="matrix(1.00, 0.00, -0.00, -1.00, 339.5, 493.0)">/</text><text xml:space="preserve" font-family="HelveticaNeue-Light" font-size="50.0" fill="#FEFFFE" transform="matrix(1.00, 0.00, -0.00, -1.00, 356.1, 493.0)">D</text><text xml:space="preserve" font-family="HelveticaNeue-Light" font-size="50.0" fill="#FEFFFE" transform="matrix(1.00, 0.00, -0.00, -1.00, 390.4, 493.0)">M</text><text xml:space="preserve" font-family="HelveticaNeue-Light" font-size="50.0" fill="#FEFFFE" transform="matrix(1.00, 0.00, -0.00, -1.00, 431.4, 493.0)">X</text><text xml:space="preserve" font-family="HelveticaNeue-Light" font-size="50.0" fill="#FEFFFE" transform="matrix(1.00, 0.00, -0.00, -1.00, 460.1, 493.0)">5</text><text xml:space="preserve" font-family="HelveticaNeue-Light" font-size="50.0" fill="#FEFFFE" transform="matrix(1.00, 0.00, -0.00, -1.00, 487.9, 493.0)">1</text><text xml:space="preserve" font-family="HelveticaNeue-Light" font-size="50.0" fill="#FEFFFE" transform="matrix(1.00, 0.00, -0.00, -1.00, 515.7, 493.0)">2</text><text xml:space="preserve" font-family="HelveticaNeue-Light" font-size="50.0" fill="#FEFFFE" transform="matrix(1.00, 0.00, -0.00, -1.00, 543.5, 493.0)"> </text><image xlink:href="../../A172C229-966A-4E8A-A457-DFB78DE74FB5/assets/D78D93A8DEE9B68D58E2A0BAEAF9F97F.png" width="18.00" height="18.00" transform="matrix(1.00, 0.00, -0.00, -1.00, 120.0, 408.0)"></image><g><clipPath id="clip-91"><path d="M 120.0 390.1 L 137.6 390.1 L 137.6 407.8 L 120.0 407.8 Z M 120.0 390.1 "></path></clipPath><g clip-path="url(#clip-91)"><g><g><clipPath id="clip-92"><path d="M 120.0 407.8 L 137.6 407.8 L 137.6 390.1 L 120.0 390.1 Z M 120.0 407.8 "></path></clipPath><g clip-path="url(#clip-92)"><g><clipPath id="clip-93"><path d="M 116.0 383.0 L 142.0 383.0 L 142.0 415.0 L 116.0 415.0 Z M 116.0 383.0 "></path></clipPath><g clip-path="url(#clip-93)"><path d="M 137.6 404.3 C 137.6 405.0 137.2 405.8 136.5 406.6 C 135.8 407.4 135.0 407.8 134.1 407.8 C 133.7 407.8 133.1 407.6 132.2 407.2 C 130.9 406.5 129.7 406.2 128.8 406.2 C 127.8 406.2 126.6 406.5 125.3 407.2 C 124.5 407.6 123.9 407.8 123.4 407.8 C 122.6 407.8 121.8 407.4 121.1 406.6 C 120.4 405.9 120.0 405.1 120.0 404.3 C 120.0 403.8 120.2 403.2 120.6 402.3 C 121.2 401.0 121.5 399.9 121.5 398.9 C 121.5 398.0 121.2 396.9 120.6 395.5 C 120.2 394.7 120.0 394.1 120.0 393.6 C 120.0 392.8 120.4 392.0 121.1 391.2 C 121.8 390.5 122.6 390.1 123.4 390.1 C 123.9 390.1 124.5 390.3 125.3 390.7 C 126.6 391.4 127.8 391.7 128.8 391.7 C 129.7 391.7 130.9 391.4 132.2 390.7 C 133.1 390.3 133.7 390.1 134.1 390.1 C 135.0 390.1 135.8 390.5 136.5 391.2 C 137.2 392.0 137.6 392.8 137.6 393.6 C 137.6 394.1 137.4 394.7 137.0 395.5 C 136.3 396.9 136.0 398.0 136.0 398.9 C 136.0 399.9 136.3 401.0 137.0 402.3 C 137.4 403.2 137.6 403.8 137.6 404.3 " fill="#FFFFFF"></path></g></g></g></g></g></g></g><image xlink:href="../../BA8823DC-31EE-477B-B094-8CADCFCB1586/assets/7D7B94874001FCF2C2743F8BCC793971.png" width="307.00" height="46.00" transform="matrix(1.00, 0.00, -0.00, -1.00, 167.0, 420.0)"></image><text xml:space="preserve" font-family="HelveticaNeue-Light" font-size="50.0" fill="#FEFFFE" transform="matrix(1.00, 0.00, -0.00, -1.00, 170.0, 382.0)">S</text><text xml:space="preserve" font-family="HelveticaNeue-Light" font-size="50.0" fill="#FEFFFE" transform="matrix(1.00, 0.00, -0.00, -1.00, 201.5, 382.0)">o</text><text xml:space="preserve" font-family="HelveticaNeue-Light" font-size="50.0" fill="#FEFFFE" transform="matrix(1.00, 0.00, -0.00, -1.00, 229.3, 382.0)">u</text><text xml:space="preserve" font-family="HelveticaNeue-Light" font-size="50.0" fill="#FEFFFE" transform="matrix(1.00, 0.00, -0.00, -1.00, 256.1, 382.0)">n</text><text xml:space="preserve" font-family="HelveticaNeue-Light" font-size="50.0" fill="#FEFFFE" transform="matrix(1.00, 0.00, -0.00, -1.00, 283.0, 382.0)">d</text><text xml:space="preserve" font-family="HelveticaNeue-Light" font-size="50.0" fill="#FEFFFE" transform="matrix(1.00, 0.00, -0.00, -1.00, 311.7, 382.0)"> </text><text xml:space="preserve" font-family="HelveticaNeue-Light" font-size="50.0" fill="#FEFFFE" transform="matrix(1.00, 0.00, -0.00, -1.00, 325.6, 382.0)">E</text><text xml:space="preserve" font-family="HelveticaNeue-Light" font-size="50.0" fill="#FEFFFE" transform="matrix(1.00, 0.00, -0.00, -1.00, 355.2, 382.0)">f</text><text xml:space="preserve" font-family="HelveticaNeue-Light" font-size="50.0" fill="#FEFFFE" transform="matrix(1.00, 0.00, -0.00, -1.00, 367.3, 382.0)">f</text><text xml:space="preserve" font-family="HelveticaNeue-Light" font-size="50.0" fill="#FEFFFE" transform="matrix(1.00, 0.00, -0.00, -1.00, 380.2, 382.0)">e</text><text xml:space="preserve" font-family="HelveticaNeue-Light" font-size="50.0" fill="#FEFFFE" transform="matrix(1.00, 0.00, -0.00, -1.00, 406.2, 382.0)">c</text><text xml:space="preserve" font-family="HelveticaNeue-Light" font-size="50.0" fill="#FEFFFE" transform="matrix(1.00, 0.00, -0.00, -1.00, 432.1, 382.0)">t</text><text xml:space="preserve" font-family="HelveticaNeue-Light" font-size="50.0" fill="#FEFFFE" transform="matrix(1.00, 0.00, -0.00, -1.00, 446.9, 382.0)">s</text><text xml:space="preserve" font-family="HelveticaNeue-Light" font-size="50.0" fill="#FEFFFE" transform="matrix(1.00, 0.00, -0.00, -1.00, 471.0, 382.0)"> </text><image xlink:href="../../A172C229-966A-4E8A-A457-DFB78DE74FB5/assets/D78D93A8DEE9B68D58E2A0BAEAF9F97F.png" width="18.00" height="18.00" transform="matrix(1.00, 0.00, -0.00, -1.00, 120.0, 297.0)"></image><g><clipPath id="clip-94"><path d="M 120.0 279.1 L 137.6 279.1 L 137.6 296.8 L 120.0 296.8 Z M 120.0 279.1 "></path></clipPath><g clip-path="url(#clip-94)"><g><g><clipPath id="clip-95"><path d="M 120.0 296.8 L 137.6 296.8 L 137.6 279.1 L 120.0 279.1 Z M 120.0 296.8 "></path></clipPath><g clip-path="url(#clip-95)"><g><clipPath id="clip-96"><path d="M 116.0 272.0 L 142.0 272.0 L 142.0 304.0 L 116.0 304.0 Z M 116.0 272.0 "></path></clipPath><g clip-path="url(#clip-96)"><path d="M 137.6 293.3 C 137.6 294.0 137.2 294.8 136.5 295.6 C 135.8 296.4 135.0 296.8 134.1 296.8 C 133.7 296.8 133.1 296.6 132.2 296.2 C 130.9 295.5 129.7 295.2 128.8 295.2 C 127.8 295.2 126.6 295.5 125.3 296.2 C 124.5 296.6 123.9 296.8 123.4 296.8 C 122.6 296.8 121.8 296.4 121.1 295.6 C 120.4 294.9 120.0 294.1 120.0 293.3 C 120.0 292.8 120.2 292.2 120.6 291.3 C 121.2 290.0 121.5 288.9 121.5 287.9 C 121.5 287.0 121.2 285.9 120.6 284.5 C 120.2 283.7 120.0 283.1 120.0 282.6 C 120.0 281.8 120.4 281.0 121.1 280.2 C 121.8 279.5 122.6 279.1 123.4 279.1 C 123.9 279.1 124.5 279.3 125.3 279.7 C 126.6 280.4 127.8 280.7 128.8 280.7 C 129.7 280.7 130.9 280.4 132.2 279.7 C 133.1 279.3 133.7 279.1 134.1 279.1 C 135.0 279.1 135.8 279.5 136.5 280.2 C 137.2 281.0 137.6 281.8 137.6 282.6 C 137.6 283.1 137.4 283.7 137.0 284.5 C 136.3 285.9 136.0 287.0 136.0 287.9 C 136.0 288.9 136.3 290.0 137.0 291.3 C 137.4 292.2 137.6 292.8 137.6 293.3 " fill="#FFFFFF"></path></g></g></g></g></g></g></g><image xlink:href="../../BA8823DC-31EE-477B-B094-8CADCFCB1586/assets/19A044B73E552702C9C21071DB0A5B4F.png" width="301.00" height="46.00" transform="matrix(1.00, 0.00, -0.00, -1.00, 165.0, 309.0)"></image><text xml:space="preserve" font-family="HelveticaNeue-Light" font-size="50.0" fill="#FEFFFE" transform="matrix(1.00, 0.00, -0.00, -1.00, 170.0, 271.0)">A</text><text xml:space="preserve" font-family="HelveticaNeue-Light" font-size="50.0" fill="#FEFFFE" transform="matrix(1.00, 0.00, -0.00, -1.00, 201.5, 271.0)">u</text><text xml:space="preserve" font-family="HelveticaNeue-Light" font-size="50.0" fill="#FEFFFE" transform="matrix(1.00, 0.00, -0.00, -1.00, 228.3, 271.0)">d</text><text xml:space="preserve" font-family="HelveticaNeue-Light" font-size="50.0" fill="#FEFFFE" transform="matrix(1.00, 0.00, -0.00, -1.00, 257.1, 271.0)">i</text><text xml:space="preserve" font-family="HelveticaNeue-Light" font-size="50.0" fill="#FEFFFE" transform="matrix(1.00, 0.00, -0.00, -1.00, 266.3, 271.0)">o</text><text xml:space="preserve" font-family="HelveticaNeue-Light" font-size="50.0" fill="#FEFFFE" transform="matrix(1.00, 0.00, -0.00, -1.00, 294.1, 271.0)"> </text><text xml:space="preserve" font-family="HelveticaNeue-Light" font-size="50.0" fill="#FEFFFE" transform="matrix(1.00, 0.00, -0.00, -1.00, 308.0, 271.0)">C</text><text xml:space="preserve" font-family="HelveticaNeue-Light" font-size="50.0" fill="#FEFFFE" transform="matrix(1.00, 0.00, -0.00, -1.00, 343.2, 271.0)">o</text><text xml:space="preserve" font-family="HelveticaNeue-Light" font-size="50.0" fill="#FEFFFE" transform="matrix(1.00, 0.00, -0.00, -1.00, 371.0, 271.0)">n</text><text xml:space="preserve" font-family="HelveticaNeue-Light" font-size="50.0" fill="#FEFFFE" transform="matrix(1.00, 0.00, -0.00, -1.00, 397.9, 271.0)">t</text><text xml:space="preserve" font-family="HelveticaNeue-Light" font-size="50.0" fill="#FEFFFE" transform="matrix(1.00, 0.00, -0.00, -1.00, 412.6, 271.0)">r</text><text xml:space="preserve" font-family="HelveticaNeue-Light" font-size="50.0" fill="#FEFFFE" transform="matrix(1.00, 0.00, -0.00, -1.00, 427.5, 271.0)">o</text><text xml:space="preserve" font-family="HelveticaNeue-Light" font-size="50.0" fill="#FEFFFE" transform="matrix(1.00, 0.00, -0.00, -1.00, 455.3, 271.0)">l</text><text xml:space="preserve" font-family="HelveticaNeue-Light" font-size="50.0" fill="#FEFFFE" transform="matrix(1.00, 0.00, -0.00, -1.00, 464.6, 271.0)"> </text><image xlink:href="../../A172C229-966A-4E8A-A457-DFB78DE74FB5/assets/D78D93A8DEE9B68D58E2A0BAEAF9F97F.png" width="18.00" height="18.00" transform="matrix(1.00, 0.00, -0.00, -1.00, 120.0, 186.0)"></image><g><clipPath id="clip-97"><path d="M 120.0 168.1 L 137.6 168.1 L 137.6 185.8 L 120.0 185.8 Z M 120.0 168.1 "></path></clipPath><g clip-path="url(#clip-97)"><g><g><clipPath id="clip-98"><path d="M 120.0 185.8 L 137.6 185.8 L 137.6 168.1 L 120.0 168.1 Z M 120.0 185.8 "></path></clipPath><g clip-path="url(#clip-98)"><g><clipPath id="clip-99"><path d="M 116.0 161.0 L 142.0 161.0 L 142.0 193.0 L 116.0 193.0 Z M 116.0 161.0 "></path></clipPath><g clip-path="url(#clip-99)"><path d="M 137.6 182.3 C 137.6 183.0 137.2 183.8 136.5 184.6 C 135.8 185.4 135.0 185.8 134.1 185.8 C 133.7 185.8 133.1 185.6 132.2 185.2 C 130.9 184.5 129.7 184.2 128.8 184.2 C 127.8 184.2 126.6 184.5 125.3 185.2 C 124.5 185.6 123.9 185.8 123.4 185.8 C 122.6 185.8 121.8 185.4 121.1 184.6 C 120.4 183.9 120.0 183.1 120.0 182.3 C 120.0 181.8 120.2 181.2 120.6 180.3 C 121.2 179.0 121.5 177.9 121.5 176.9 C 121.5 176.0 121.2 174.9 120.6 173.5 C 120.2 172.7 120.0 172.1 120.0 171.6 C 120.0 170.8 120.4 170.0 121.1 169.2 C 121.8 168.5 122.6 168.1 123.4 168.1 C 123.9 168.1 124.5 168.3 125.3 168.7 C 126.6 169.4 127.8 169.7 128.8 169.7 C 129.7 169.7 130.9 169.4 132.2 168.7 C 133.1 168.3 133.7 168.1 134.1 168.1 C 135.0 168.1 135.8 168.5 136.5 169.2 C 137.2 170.0 137.6 170.8 137.6 171.6 C 137.6 172.1 137.4 172.7 137.0 173.5 C 136.3 174.9 136.0 176.0 136.0 176.9 C 136.0 177.9 136.3 179.0 137.0 180.3 C 137.4 181.2 137.6 181.8 137.6 182.3 " fill="#FFFFFF"></path></g></g></g></g></g></g></g><image xlink:href="../../BA8823DC-31EE-477B-B094-8CADCFCB1586/assets/F6E511CA056EBE038623B8CD23F84F9C.png" width="425.00" height="46.00" transform="matrix(1.00, 0.00, -0.00, -1.00, 165.0, 198.0)"></image><text xml:space="preserve" font-family="HelveticaNeue-Light" font-size="50.0" fill="#FEFFFE" transform="matrix(1.00, 0.00, -0.00, -1.00, 170.0, 160.0)">V</text><text xml:space="preserve" font-family="HelveticaNeue-Light" font-size="50.0" fill="#FEFFFE" transform="matrix(1.00, 0.00, -0.00, -1.00, 199.9, 160.0)">i</text><text xml:space="preserve" font-family="HelveticaNeue-Light" font-size="50.0" fill="#FEFFFE" transform="matrix(1.00, 0.00, -0.00, -1.00, 209.2, 160.0)">r</text><text xml:space="preserve" font-family="HelveticaNeue-Light" font-size="50.0" fill="#FEFFFE" transform="matrix(1.00, 0.00, -0.00, -1.00, 224.9, 160.0)">t</text><text xml:space="preserve" font-family="HelveticaNeue-Light" font-size="50.0" fill="#FEFFFE" transform="matrix(1.00, 0.00, -0.00, -1.00, 239.8, 160.0)">u</text><text xml:space="preserve" font-family="HelveticaNeue-Light" font-size="50.0" fill="#FEFFFE" transform="matrix(1.00, 0.00, -0.00, -1.00, 266.6, 160.0)">a</text><text xml:space="preserve" font-family="HelveticaNeue-Light" font-size="50.0" fill="#FEFFFE" transform="matrix(1.00, 0.00, -0.00, -1.00, 292.6, 160.0)">l</text><text xml:space="preserve" font-family="HelveticaNeue-Light" font-size="50.0" fill="#FEFFFE" transform="matrix(1.00, 0.00, -0.00, -1.00, 301.8, 160.0)"> </text><text xml:space="preserve" font-family="HelveticaNeue-Light" font-size="50.0" fill="#FEFFFE" transform="matrix(1.00, 0.00, -0.00, -1.00, 315.7, 160.0)">3</text><text xml:space="preserve" font-family="HelveticaNeue-Light" font-size="50.0" fill="#FEFFFE" transform="matrix(1.00, 0.00, -0.00, -1.00, 343.5, 160.0)">D</text><text xml:space="preserve" font-family="HelveticaNeue-Light" font-size="50.0" fill="#FEFFFE" transform="matrix(1.00, 0.00, -0.00, -1.00, 377.8, 160.0)"> </text><text xml:space="preserve" font-family="HelveticaNeue-Light" font-size="50.0" fill="#FEFFFE" transform="matrix(1.00, 0.00, -0.00, -1.00, 391.7, 160.0)">S</text><text xml:space="preserve" font-family="HelveticaNeue-Light" font-size="50.0" fill="#FEFFFE" transform="matrix(1.00, 0.00, -0.00, -1.00, 423.2, 160.0)">a</text><text xml:space="preserve" font-family="HelveticaNeue-Light" font-size="50.0" fill="#FEFFFE" transform="matrix(1.00, 0.00, -0.00, -1.00, 449.1, 160.0)">n</text><text xml:space="preserve" font-family="HelveticaNeue-Light" font-size="50.0" fill="#FEFFFE" transform="matrix(1.00, 0.00, -0.00, -1.00, 476.0, 160.0)">d</text><text xml:space="preserve" font-family="HelveticaNeue-Light" font-size="50.0" fill="#FEFFFE" transform="matrix(1.00, 0.00, -0.00, -1.00, 504.7, 160.0)">b</text><text xml:space="preserve" font-family="HelveticaNeue-Light" font-size="50.0" fill="#FEFFFE" transform="matrix(1.00, 0.00, -0.00, -1.00, 533.4, 160.0)">o</text><text xml:space="preserve" font-family="HelveticaNeue-Light" font-size="50.0" fill="#FEFFFE" transform="matrix(1.00, 0.00, -0.00, -1.00, 561.2, 160.0)">x</text><text xml:space="preserve" font-family="HelveticaNeue-Light" font-size="50.0" fill="#FEFFFE" transform="matrix(1.00, 0.00, -0.00, -1.00, 585.2, 160.0)"> </text><image xlink:href="../../A172C229-966A-4E8A-A457-DFB78DE74FB5/assets/D78D93A8DEE9B68D58E2A0BAEAF9F97F.png" width="18.00" height="18.00" transform="matrix(1.00, 0.00, -0.00, -1.00, 1002.0, 549.0)"></image><g><clipPath id="clip-100"><path d="M 1002.0 531.1 L 1019.6 531.1 L 1019.6 548.8 L 1002.0 548.8 Z M 1002.0 531.1 "></path></clipPath><g clip-path="url(#clip-100)"><g><g><clipPath id="clip-101"><path d="M 1002.0 548.8 L 1019.6 548.8 L 1019.6 531.1 L 1002.0 531.1 Z M 1002.0 548.8 "></path></clipPath><g clip-path="url(#clip-101)"><g><clipPath id="clip-102"><path d="M 998.0 524.0 L 1024.0 524.0 L 1024.0 556.0 L 998.0 556.0 Z M 998.0 524.0 "></path></clipPath><g clip-path="url(#clip-102)"><path d="M 1019.6 545.3 C 1019.6 546.0 1019.2 546.8 1018.5 547.6 C 1017.8 548.4 1017.0 548.8 1016.1 548.8 C 1015.7 548.8 1015.1 548.6 1014.2 548.2 C 1012.9 547.5 1011.7 547.2 1010.8 547.2 C 1009.8 547.2 1008.6 547.5 1007.3 548.2 C 1006.5 548.6 1005.9 548.8 1005.5 548.8 C 1004.6 548.8 1003.8 548.4 1003.1 547.6 C 1002.4 546.9 1002.0 546.1 1002.0 545.3 C 1002.0 544.8 1002.2 544.2 1002.6 543.3 C 1003.2 542.0 1003.5 540.9 1003.5 539.9 C 1003.5 539.0 1003.2 537.9 1002.6 536.5 C 1002.2 535.7 1002.0 535.1 1002.0 534.6 C 1002.0 533.8 1002.4 533.0 1003.1 532.2 C 1003.8 531.5 1004.6 531.1 1005.5 531.1 C 1005.9 531.1 1006.5 531.3 1007.3 531.7 C 1008.6 532.4 1009.8 532.7 1010.8 532.7 C 1011.7 532.7 1012.9 532.4 1014.2 531.7 C 1015.1 531.3 1015.7 531.1 1016.1 531.1 C 1017.0 531.1 1017.8 531.5 1018.5 532.2 C 1019.2 533.0 1019.6 533.8 1019.6 534.6 C 1019.6 535.1 1019.4 535.7 1019.0 536.5 C 1018.3 537.9 1018.0 539.0 1018.0 539.9 C 1018.0 540.9 1018.3 542.0 1019.0 543.3 C 1019.4 544.2 1019.6 544.8 1019.6 545.3 " fill="#FFFFFF"></path></g></g></g></g></g></g></g><image xlink:href="../../BA8823DC-31EE-477B-B094-8CADCFCB1586/assets/58CC897CDB45098B049BD3E73B657CB1.png" width="540.00" height="45.00" transform="matrix(1.00, 0.00, -0.00, -1.00, 1047.0, 560.0)"></image><text xml:space="preserve" font-family="HelveticaNeue-Light" font-size="50.0" fill="#FEFFFE" transform="matrix(1.00, 0.00, -0.00, -1.00, 1052.0, 523.0)">T</text><text xml:space="preserve" font-family="HelveticaNeue-Light" font-size="50.0" fill="#FEFFFE" transform="matrix(1.00, 0.00, -0.00, -1.00, 1081.0, 523.0)">i</text><text xml:space="preserve" font-family="HelveticaNeue-Light" font-size="50.0" fill="#FEFFFE" transform="matrix(1.00, 0.00, -0.00, -1.00, 1090.2, 523.0)">m</text><text xml:space="preserve" font-family="HelveticaNeue-Light" font-size="50.0" fill="#FEFFFE" transform="matrix(1.00, 0.00, -0.00, -1.00, 1131.9, 523.0)">e</text><text xml:space="preserve" font-family="HelveticaNeue-Light" font-size="50.0" fill="#FEFFFE" transform="matrix(1.00, 0.00, -0.00, -1.00, 1157.8, 523.0)">l</text><text xml:space="preserve" font-family="HelveticaNeue-Light" font-size="50.0" fill="#FEFFFE" transform="matrix(1.00, 0.00, -0.00, -1.00, 1167.1, 523.0)">i</text><text xml:space="preserve" font-family="HelveticaNeue-Light" font-size="50.0" fill="#FEFFFE" transform="matrix(1.00, 0.00, -0.00, -1.00, 1176.3, 523.0)">n</text><text xml:space="preserve" font-family="HelveticaNeue-Light" font-size="50.0" fill="#FEFFFE" transform="matrix(1.00, 0.00, -0.00, -1.00, 1203.2, 523.0)">e</text><text xml:space="preserve" font-family="HelveticaNeue-Light" font-size="50.0" fill="#FEFFFE" transform="matrix(1.00, 0.00, -0.00, -1.00, 1229.2, 523.0)"> </text><text xml:space="preserve" font-family="HelveticaNeue-Light" font-size="50.0" fill="#FEFFFE" transform="matrix(1.00, 0.00, -0.00, -1.00, 1243.0, 523.0)">a</text><text xml:space="preserve" font-family="HelveticaNeue-Light" font-size="50.0" fill="#FEFFFE" transform="matrix(1.00, 0.00, -0.00, -1.00, 1269.0, 523.0)">n</text><text xml:space="preserve" font-family="HelveticaNeue-Light" font-size="50.0" fill="#FEFFFE" transform="matrix(1.00, 0.00, -0.00, -1.00, 1295.9, 523.0)">d</text><text xml:space="preserve" font-family="HelveticaNeue-Light" font-size="50.0" fill="#FEFFFE" transform="matrix(1.00, 0.00, -0.00, -1.00, 1324.6, 523.0)"> </text><text xml:space="preserve" font-family="HelveticaNeue-Light" font-size="50.0" fill="#FEFFFE" transform="matrix(1.00, 0.00, -0.00, -1.00, 1338.5, 523.0)">A</text><text xml:space="preserve" font-family="HelveticaNeue-Light" font-size="50.0" fill="#FEFFFE" transform="matrix(1.00, 0.00, -0.00, -1.00, 1370.0, 523.0)">u</text><text xml:space="preserve" font-family="HelveticaNeue-Light" font-size="50.0" fill="#FEFFFE" transform="matrix(1.00, 0.00, -0.00, -1.00, 1396.8, 523.0)">t</text><text xml:space="preserve" font-family="HelveticaNeue-Light" font-size="50.0" fill="#FEFFFE" transform="matrix(1.00, 0.00, -0.00, -1.00, 1411.6, 523.0)">o</text><text xml:space="preserve" font-family="HelveticaNeue-Light" font-size="50.0" fill="#FEFFFE" transform="matrix(1.00, 0.00, -0.00, -1.00, 1439.4, 523.0)">m</text><text xml:space="preserve" font-family="HelveticaNeue-Light" font-size="50.0" fill="#FEFFFE" transform="matrix(1.00, 0.00, -0.00, -1.00, 1481.1, 523.0)">a</text><text xml:space="preserve" font-family="HelveticaNeue-Light" font-size="50.0" fill="#FEFFFE" transform="matrix(1.00, 0.00, -0.00, -1.00, 1507.0, 523.0)">t</text><text xml:space="preserve" font-family="HelveticaNeue-Light" font-size="50.0" fill="#FEFFFE" transform="matrix(1.00, 0.00, -0.00, -1.00, 1521.8, 523.0)">i</text><text xml:space="preserve" font-family="HelveticaNeue-Light" font-size="50.0" fill="#FEFFFE" transform="matrix(1.00, 0.00, -0.00, -1.00, 1531.1, 523.0)">o</text><text xml:space="preserve" font-family="HelveticaNeue-Light" font-size="50.0" fill="#FEFFFE" transform="matrix(1.00, 0.00, -0.00, -1.00, 1558.9, 523.0)">n</text><text xml:space="preserve" font-family="HelveticaNeue-Light" font-size="50.0" fill="#FEFFFE" transform="matrix(1.00, 0.00, -0.00, -1.00, 1585.7, 523.0)"> </text><image xlink:href="../../A172C229-966A-4E8A-A457-DFB78DE74FB5/assets/D78D93A8DEE9B68D58E2A0BAEAF9F97F.png" width="18.00" height="18.00" transform="matrix(1.00, 0.00, -0.00, -1.00, 1002.0, 438.0)"></image><g><clipPath id="clip-103"><path d="M 1002.0 420.1 L 1019.6 420.1 L 1019.6 437.8 L 1002.0 437.8 Z M 1002.0 420.1 "></path></clipPath><g clip-path="url(#clip-103)"><g><g><clipPath id="clip-104"><path d="M 1002.0 437.8 L 1019.6 437.8 L 1019.6 420.1 L 1002.0 420.1 Z M 1002.0 437.8 "></path></clipPath><g clip-path="url(#clip-104)"><g><clipPath id="clip-105"><path d="M 998.0 413.0 L 1024.0 413.0 L 1024.0 445.0 L 998.0 445.0 Z M 998.0 413.0 "></path></clipPath><g clip-path="url(#clip-105)"><path d="M 1019.6 434.3 C 1019.6 435.0 1019.2 435.8 1018.5 436.6 C 1017.8 437.4 1017.0 437.8 1016.1 437.8 C 1015.7 437.8 1015.1 437.6 1014.2 437.2 C 1012.9 436.5 1011.7 436.2 1010.8 436.2 C 1009.8 436.2 1008.6 436.5 1007.3 437.2 C 1006.5 437.6 1005.9 437.8 1005.5 437.8 C 1004.6 437.8 1003.8 437.4 1003.1 436.6 C 1002.4 435.9 1002.0 435.1 1002.0 434.3 C 1002.0 433.8 1002.2 433.2 1002.6 432.3 C 1003.2 431.0 1003.5 429.9 1003.5 428.9 C 1003.5 428.0 1003.2 426.9 1002.6 425.5 C 1002.2 424.7 1002.0 424.1 1002.0 423.6 C 1002.0 422.8 1002.4 422.0 1003.1 421.2 C 1003.8 420.5 1004.6 420.1 1005.5 420.1 C 1005.9 420.1 1006.5 420.3 1007.3 420.7 C 1008.6 421.4 1009.8 421.7 1010.8 421.7 C 1011.7 421.7 1012.9 421.4 1014.2 420.7 C 1015.1 420.3 1015.7 420.1 1016.1 420.1 C 1017.0 420.1 1017.8 420.5 1018.5 421.2 C 1019.2 422.0 1019.6 422.8 1019.6 423.6 C 1019.6 424.1 1019.4 424.7 1019.0 425.5 C 1018.3 426.9 1018.0 428.0 1018.0 428.9 C 1018.0 429.9 1018.3 431.0 1019.0 432.3 C 1019.4 433.2 1019.6 433.8 1019.6 434.3 " fill="#FFFFFF"></path></g></g></g></g></g></g></g><image xlink:href="../../BA8823DC-31EE-477B-B094-8CADCFCB1586/assets/0365701B52BF7A1C9BE48F37346506B6.png" width="701.00" height="55.00" transform="matrix(1.00, 0.00, -0.00, -1.00, 1047.0, 449.0)"></image><text xml:space="preserve" font-family="HelveticaNeue-Light" font-size="50.0" fill="#FEFFFE" transform="matrix(1.00, 0.00, -0.00, -1.00, 1052.0, 412.0)">A</text><text xml:space="preserve" font-family="HelveticaNeue-Light" font-size="50.0" fill="#FEFFFE" transform="matrix(1.00, 0.00, -0.00, -1.00, 1083.5, 412.0)">r</text><text xml:space="preserve" font-family="HelveticaNeue-Light" font-size="50.0" fill="#FEFFFE" transform="matrix(1.00, 0.00, -0.00, -1.00, 1099.2, 412.0)">t</text><text xml:space="preserve" font-family="HelveticaNeue-Light" font-size="50.0" fill="#FEFFFE" transform="matrix(1.00, 0.00, -0.00, -1.00, 1114.0, 412.0)">i</text><text xml:space="preserve" font-family="HelveticaNeue-Light" font-size="50.0" fill="#FEFFFE" transform="matrix(1.00, 0.00, -0.00, -1.00, 1123.3, 412.0)">ﬁ</text><text xml:space="preserve" font-family="HelveticaNeue-Light" font-size="50.0" fill="#FEFFFE" transform="matrix(1.00, 0.00, -0.00, -1.00, 1145.5, 412.0)">c</text><text xml:space="preserve" font-family="HelveticaNeue-Light" font-size="50.0" fill="#FEFFFE" transform="matrix(1.00, 0.00, -0.00, -1.00, 1171.5, 412.0)">i</text><text xml:space="preserve" font-family="HelveticaNeue-Light" font-size="50.0" fill="#FEFFFE" transform="matrix(1.00, 0.00, -0.00, -1.00, 1180.7, 412.0)">a</text><text xml:space="preserve" font-family="HelveticaNeue-Light" font-size="50.0" fill="#FEFFFE" transform="matrix(1.00, 0.00, -0.00, -1.00, 1206.7, 412.0)">l</text><text xml:space="preserve" font-family="HelveticaNeue-Light" font-size="50.0" fill="#FEFFFE" transform="matrix(1.00, 0.00, -0.00, -1.00, 1215.9, 412.0)"> </text><text xml:space="preserve" font-family="HelveticaNeue-Light" font-size="50.0" fill="#FEFFFE" transform="matrix(1.00, 0.00, -0.00, -1.00, 1229.8, 412.0)">I</text><text xml:space="preserve" font-family="HelveticaNeue-Light" font-size="50.0" fill="#FEFFFE" transform="matrix(1.00, 0.00, -0.00, -1.00, 1240.9, 412.0)">n</text><text xml:space="preserve" font-family="HelveticaNeue-Light" font-size="50.0" fill="#FEFFFE" transform="matrix(1.00, 0.00, -0.00, -1.00, 1267.8, 412.0)">t</text><text xml:space="preserve" font-family="HelveticaNeue-Light" font-size="50.0" fill="#FEFFFE" transform="matrix(1.00, 0.00, -0.00, -1.00, 1282.5, 412.0)">e</text><text xml:space="preserve" font-family="HelveticaNeue-Light" font-size="50.0" fill="#FEFFFE" transform="matrix(1.00, 0.00, -0.00, -1.00, 1308.5, 412.0)">l</text><text xml:space="preserve" font-family="HelveticaNeue-Light" font-size="50.0" fill="#FEFFFE" transform="matrix(1.00, 0.00, -0.00, -1.00, 1317.8, 412.0)">l</text><text xml:space="preserve" font-family="HelveticaNeue-Light" font-size="50.0" fill="#FEFFFE" transform="matrix(1.00, 0.00, -0.00, -1.00, 1327.0, 412.0)">i</text><text xml:space="preserve" font-family="HelveticaNeue-Light" font-size="50.0" fill="#FEFFFE" transform="matrix(1.00, 0.00, -0.00, -1.00, 1336.2, 412.0)">g</text><text xml:space="preserve" font-family="HelveticaNeue-Light" font-size="50.0" fill="#FEFFFE" transform="matrix(1.00, 0.00, -0.00, -1.00, 1364.0, 412.0)">e</text><text xml:space="preserve" font-family="HelveticaNeue-Light" font-size="50.0" fill="#FEFFFE" transform="matrix(1.00, 0.00, -0.00, -1.00, 1390.0, 412.0)">n</text><text xml:space="preserve" font-family="HelveticaNeue-Light" font-size="50.0" fill="#FEFFFE" transform="matrix(1.00, 0.00, -0.00, -1.00, 1416.8, 412.0)">c</text><text xml:space="preserve" font-family="HelveticaNeue-Light" font-size="50.0" fill="#FEFFFE" transform="matrix(1.00, 0.00, -0.00, -1.00, 1442.8, 412.0)">e</text><text xml:space="preserve" font-family="HelveticaNeue-Light" font-size="50.0" fill="#FEFFFE" transform="matrix(1.00, 0.00, -0.00, -1.00, 1468.8, 412.0)"> </text><text xml:space="preserve" font-family="HelveticaNeue-Light" font-size="50.0" fill="#FEFFFE" transform="matrix(1.00, 0.00, -0.00, -1.00, 1482.7, 412.0)">w</text><text xml:space="preserve" font-family="HelveticaNeue-Light" font-size="50.0" fill="#FEFFFE" transform="matrix(1.00, 0.00, -0.00, -1.00, 1519.7, 412.0)">i</text><text xml:space="preserve" font-family="HelveticaNeue-Light" font-size="50.0" fill="#FEFFFE" transform="matrix(1.00, 0.00, -0.00, -1.00, 1529.0, 412.0)">t</text><text xml:space="preserve" font-family="HelveticaNeue-Light" font-size="50.0" fill="#FEFFFE" transform="matrix(1.00, 0.00, -0.00, -1.00, 1543.8, 412.0)">h</text><text xml:space="preserve" font-family="HelveticaNeue-Light" font-size="50.0" fill="#FEFFFE" transform="matrix(1.00, 0.00, -0.00, -1.00, 1570.6, 412.0)"> </text><text xml:space="preserve" font-family="HelveticaNeue-Light" font-size="50.0" fill="#FEFFFE" transform="matrix(1.00, 0.00, -0.00, -1.00, 1584.5, 412.0)">M</text><text xml:space="preserve" font-family="HelveticaNeue-Light" font-size="50.0" fill="#FEFFFE" transform="matrix(1.00, 0.00, -0.00, -1.00, 1625.5, 412.0)">a</text><text xml:space="preserve" font-family="HelveticaNeue-Light" font-size="50.0" fill="#FEFFFE" transform="matrix(1.00, 0.00, -0.00, -1.00, 1651.5, 412.0)">r</text><text xml:space="preserve" font-family="HelveticaNeue-Light" font-size="50.0" fill="#FEFFFE" transform="matrix(1.00, 0.00, -0.00, -1.00, 1667.2, 412.0)">k</text><text xml:space="preserve" font-family="HelveticaNeue-Light" font-size="50.0" fill="#FEFFFE" transform="matrix(1.00, 0.00, -0.00, -1.00, 1692.2, 412.0)">o</text><text xml:space="preserve" font-family="HelveticaNeue-Light" font-size="50.0" fill="#FEFFFE" transform="matrix(1.00, 0.00, -0.00, -1.00, 1720.0, 412.0)">v</text><text xml:space="preserve" font-family="HelveticaNeue-Light" font-size="50.0" fill="#FEFFFE" transform="matrix(1.00, 0.00, -0.00, -1.00, 1743.2, 412.0)"> </text><image xlink:href="../../BA8823DC-31EE-477B-B094-8CADCFCB1586/assets/F55EB604D821FEBC4B4E433308143AF8.png" width="154.00" height="46.00" transform="matrix(1.00, 0.00, -0.00, -1.00, 1049.0, 390.0)"></image><text xml:space="preserve" font-family="HelveticaNeue-Light" font-size="50.0" fill="#FEFFFE" transform="matrix(1.00, 0.00, -0.00, -1.00, 1052.0, 352.0)">C</text><text xml:space="preserve" font-family="HelveticaNeue-Light" font-size="50.0" fill="#FEFFFE" transform="matrix(1.00, 0.00, -0.00, -1.00, 1087.2, 352.0)">h</text><text xml:space="preserve" font-family="HelveticaNeue-Light" font-size="50.0" fill="#FEFFFE" transform="matrix(1.00, 0.00, -0.00, -1.00, 1114.0, 352.0)">a</text><text xml:space="preserve" font-family="HelveticaNeue-Light" font-size="50.0" fill="#FEFFFE" transform="matrix(1.00, 0.00, -0.00, -1.00, 1140.0, 352.0)">i</text><text xml:space="preserve" font-family="HelveticaNeue-Light" font-size="50.0" fill="#FEFFFE" transform="matrix(1.00, 0.00, -0.00, -1.00, 1149.2, 352.0)">n</text><text xml:space="preserve" font-family="HelveticaNeue-Light" font-size="50.0" fill="#FEFFFE" transform="matrix(1.00, 0.00, -0.00, -1.00, 1176.1, 352.0)">s</text></g></svg>