<?xml version="1.0" standalone="no"?>
<!DOCTYPE svg PUBLIC "-//W3C//DTD SVG 1.1//EN" "http://www.w3.org/Graphics/SVG/1.1/DTD/svg11.dtd">
<svg width="1043" height="3002" viewBox="0 0 1043 3002" version="1.1" xmlns="http://www.w3.org/2000/svg" xmlns:xlink="http://www.w3.org/1999/xlink" xml:space="preserve" style="fill-rule:evenodd;clip-rule:evenodd;stroke-linejoin:round;stroke-miterlimit:1.41421;">
    <g transform="matrix(4.16667,0,0,4.16667,-1448.76,-152.424)" id="cap">
        <path d="M423.606,149.819C422.273,150.361 418.023,151.819 417.106,152.152C416.189,152.486 415.772,152.611 413.689,152.611C411.606,152.611 409.898,152.736 408.398,152.361C406.898,151.986 405.397,151.61 404.189,151.027C402.981,150.444 402.064,150.194 402.064,150.194C402.064,150.194 401.856,149.902 401.314,150.069C400.773,150.236 400.439,150.277 400.106,150.361C399.773,150.444 399.647,150.652 400.064,150.861C400.481,151.069 401.231,151.652 401.981,151.819L401.981,152.236C401.064,152.152 400.314,151.944 399.064,151.402C397.814,150.861 395.856,149.944 394.856,148.902C393.856,147.861 392.689,146.486 391.939,145.069C391.189,143.652 390.356,141.527 390.314,139.402C390.273,137.277 390.71,135.282 391.523,133.319C392.523,130.902 394.523,128.527 396.356,127.236C397.731,125.486 400.315,121.652 402.773,118.986C405.231,116.319 409.273,112.069 411.689,110.027C414.106,107.986 418.356,104.527 420.273,103.319C422.189,102.111 429.273,97.777 429.273,97.777C426.898,96.111 411.606,86.611 407.939,84.361C404.273,82.111 387.398,71.944 383.148,69.527C378.898,67.111 353.189,52.61 350.439,50.944C349.439,50.277 347.148,48.985 347.814,45.069C348.481,41.152 350.314,38.986 351.689,37.861C353.064,36.736 357.856,35.735 361.064,37.694C364.273,39.652 384.398,49.486 386.856,50.652C389.314,51.819 407.168,60.465 413.168,62.902C419.168,65.34 434.15,71.384 440.668,73.902C446.168,76.027 455.543,79.902 458.356,80.84C461.168,81.777 464.981,82.777 469.481,82.402C473.981,82.027 478.731,81.965 482.918,82.84C487.106,83.715 489.043,84.215 489.043,84.215C489.043,84.215 491.106,83.902 492.918,83.59C494.731,83.277 497.793,83.027 500.731,83.777C503.668,84.527 510.793,87.34 515.918,88.34C521.043,89.34 527.418,90.215 530.168,90.527C532.918,90.84 544.793,92.215 551.793,92.152C558.793,92.09 562.106,91.402 567.293,92.09C572.481,92.777 581.731,94.59 585.481,95.902C589.231,97.215 592.856,98.965 594.481,101.152C596.106,103.34 596.168,104.465 593.981,105.715C593.981,105.715 593.793,107.402 592.418,107.402L587.668,107.402C586.106,107.402 585.856,105.777 585.856,105.777L574.043,105.777L572.731,106.027L488.293,106.027C488.293,106.027 488.043,105.84 486.856,105.84C485.668,105.84 476.168,106.277 470.918,107.152C465.668,108.027 456.166,110.323 450.606,114.09C444.793,118.027 440.106,124.09 434.543,133.84C428.981,143.59 428.044,146.798 423.606,149.819" style="fill:rgb(255,255,255);fill-rule:nonzero;"/>
    </g>
    <g transform="matrix(4.16667,0,0,4.16667,-1448.76,-152.424)" id="lid">
        <path d="M575.189,106.027L487.522,106.027L483.522,132.36C483.522,132.36 449.523,133.86 432.356,139.86C429.189,144.86 426.356,149.027 420.689,150.694C415.022,152.36 411.356,152.527 407.522,150.86L403.689,149.194L400.897,150.194L400.356,151.36C400.356,151.36 392.689,147.36 391.856,143.527C391.022,139.694 389.689,133.36 394.856,129.027C395.689,128.36 397.189,126.569 397.189,126.569L398.856,124.694C395.022,125.527 386.856,127.527 386.856,138.694C386.856,149.86 386.356,159.694 386.356,159.694C386.356,159.694 381.689,161.36 380.022,163.694C378.356,166.027 376.022,169.194 375.022,178.694C372.356,181.694 371.189,181.694 373.189,187.527L373.022,191.027C373.022,191.027 370.356,193.36 370.356,194.527C370.356,195.694 372.189,199.194 372.189,199.194C372.189,200.527 371.856,202.86 371.856,202.86C371.856,202.86 370.022,203.193 369.689,206.36C369.356,209.527 371.522,210.86 371.522,210.86L371.522,221.194C371.522,221.194 370.856,223.194 375.022,223.194L592.856,223.194C594.689,223.194 595.856,222.527 595.856,220.527C595.856,218.527 596.022,210.027 596.022,210.027C596.022,210.027 598.022,208.527 598.022,206.194C598.022,203.86 595.522,202.527 595.522,202.527L595.356,198.527C595.356,198.527 597.022,197.527 597.022,194.86C597.022,192.194 594.522,191.027 594.522,191.027L593.856,186.86C593.856,186.86 595.189,185.194 595.189,183.027C595.189,180.86 592.689,179.027 592.689,179.027C592.689,179.027 592.022,171.36 589.689,167.194C587.356,163.027 583.522,161.027 580.522,159.194C580.522,150.86 579.189,118.194 575.189,106.027" style="fill:#b8e81d;fill-rule:nonzero;"/>
    </g>
    <g transform="matrix(4.16667,0,0,4.16667,-1448.76,-152.424)" id="bottle">
        <path d="M590.234,262.084C590.234,262.084 592.567,261.25 592.901,258.917C593.234,256.584 595.567,235.751 595.567,233.751C595.567,231.751 595.734,229.084 591.567,227.417C587.401,225.751 584.401,224.751 584.401,224.751L383.734,224.251C379.567,226.084 376.567,226.75 374.734,228.084C372.901,229.417 371.734,228.528 371.734,234.751C371.734,241.584 372.234,248.917 374.234,258.751C374.234,258.751 374.401,261.584 376.401,262.251C375.685,262.966 376.716,263.494 376.654,264.084L590.119,264.084C589.96,263.023 591.026,262.401 590.234,262.084" style="fill:#b8e81d;fill-opacity:0.898039;fill-rule:nonzero;"/>
    </g>
    <g transform="matrix(4.16667,0,0,4.16667,-1448.76,-152.424)" id="bottle">
        <path d="M379.333,404.667L380.09,406.333L378.09,408.5L372.333,506.667C372.333,506.667 370.833,583.168 370.333,592.334C369.833,601.5 370.901,648.499 370.734,663.333C370.567,678.167 370.833,722.167 371.333,730C371.833,737.833 377.567,757 397.4,757L572.067,757C587.733,757 594.346,741.479 595.001,731.667C595.834,719.167 596.001,617.334 596.334,592C596.603,571.484 591.757,427.999 589.425,408.833L587.592,406.667L588.592,404.667L379.333,404.667Z" style="fill:#b8e81d;fill-opacity:0.898039;fill-rule:nonzero;"/>
    </g>
    <g transform="matrix(4.16667,0,0,4.16667,-1448.76,-152.424)" id="grip">
        <path d="M585.75,373.25L586.854,372.304C586.854,372.304 584.667,349.22 583.667,337.387C582.667,325.554 582.667,312.554 583.667,306.554C584.667,300.554 586.5,288.01 586.5,288.01L584.333,287.344C584.333,287.344 589.619,267.554 590.119,263.887C590.111,263.829 585.477,263.721 589,263.721L376.98,263.721C376.913,264.367 376.239,265.117 376.5,266.25C377,268.417 381.708,285 382.375,288L380.25,288.25L382.5,306.25C383,310.25 383.75,314.5 383.75,317C383.75,319.5 384.549,324.887 384.216,328.887C383.882,332.887 382.75,344.417 382.25,348.25C381.75,352.083 380.716,366.554 380.216,368.387C379.716,370.22 378.75,373.75 378.75,373.75L381.5,374.25L380.924,384.512L378,405.667L588.5,405.75L585.75,373.25Z" style="fill:#b8e81d;fill-rule:nonzero;"/>
    </g>
</svg>
