<?xml version="1.0" standalone="no"?>
<!DOCTYPE svg PUBLIC "-//W3C//DTD SVG 1.1//EN" "http://www.w3.org/Graphics/SVG/1.1/DTD/svg11.dtd">
<svg width="3900" height="3600" viewBox="0 0 3900 3600" version="1.1" xmlns="http://www.w3.org/2000/svg" xmlns:xlink="http://www.w3.org/1999/xlink" xml:space="preserve" style="fill-rule:evenodd;clip-rule:evenodd;stroke-linecap:round;stroke-linejoin:round;stroke-miterlimit:1.41421;">
    <g id="Bottle Outline" transform="matrix(4.16667,0,0,4.16667,0,0)">
        <g>
            <g transform="matrix(1,0,0,1,742.489,48.512)">
                <text x="0px" y="0px" style="font-family:'Arial-BoldMT';font-size:13px;fill:rgb(35,31,32);">28oz Grip</text>
            </g>
            <g transform="matrix(1,0,0,1,805.337,48.512)">
                <text x="0px" y="0px" style="font-family:'ArialMT';font-size:13px;fill:rgb(35,31,32);">I</text>
            </g>
            <g transform="matrix(1,0,0,1,812.561,48.512)">
                <text x="0px" y="0px" style="font-family:'Arial-BoldMT';font-size:13px;fill:rgb(35,31,32);">SportMixer</text>
            </g>
            <g transform="matrix(1,0,0,1,742.489,61.712)">
                <text x="0px" y="0px" style="font-family:'Arial-BoldMT';font-size:11px;fill:rgb(35,31,32);">Note:</text>
            </g>
            <g transform="matrix(1,0,0,1,773.652,61.712)">
                <text x="0px" y="0px" style="font-family:'ArialMT';font-size:11px;fill:rgb(35,31,32);">V</text>
            </g>
            <g transform="matrix(1,0,0,1,780.389,61.712)">
                <text x="0px" y="0px" style="font-family:'ArialMT';font-size:11px;fill:rgb(35,31,32);">olume is measured to</text>
            </g>
            <g transform="matrix(1,0,0,1,742.489,74.912)">
                <text x="0px" y="0px" style="font-family:'ArialMT';font-size:11px;fill:rgb(35,31,32);">cup brim. For aesthetic purposes,</text>
            </g>
            <g transform="matrix(1,0,0,1,742.489,88.112)">
                <text x="0px" y="0px" style="font-family:'ArialMT';font-size:11px;fill:rgb(35,31,32);">the measurement markings</text>
            </g>
            <g transform="matrix(1,0,0,1,742.489,101.312)">
                <text x="0px" y="0px" style="font-family:'ArialMT';font-size:11px;fill:rgb(35,31,32);">only go to 26 ounces.</text>
            </g>
        </g>
        <path d="M52.557,816.522L53.436,816.522L53.436,822.528L56.315,822.528L56.315,823.257L52.557,823.257L52.557,816.522Z" style="fill:rgb(35,31,32);fill-rule:nonzero;"/>
        <path d="M59.116,822.708C59.955,822.708 60.585,821.919 60.585,820.819C60.585,820 60.176,818.97 59.136,818.97C58.107,818.97 57.657,819.93 57.657,820.85C57.657,821.908 58.257,822.708 59.106,822.708L59.116,822.708ZM59.086,823.368C57.787,823.368 56.767,822.408 56.767,820.879C56.767,819.26 57.837,818.311 59.166,818.311C60.555,818.311 61.495,819.32 61.495,820.789C61.495,822.588 60.245,823.368 59.096,823.368L59.086,823.368Z" style="fill:rgb(35,31,32);fill-rule:nonzero;"/>
        <path d="M65.875,820.319C65.875,820.179 65.865,820.049 65.825,819.929C65.666,819.41 65.245,818.99 64.596,818.99C63.756,818.99 63.157,819.7 63.157,820.829C63.157,821.768 63.646,822.568 64.586,822.568C65.135,822.568 65.625,822.228 65.806,821.659C65.855,821.518 65.875,821.348 65.875,821.188L65.875,820.319ZM66.755,822.548C66.755,823.668 66.524,824.337 66.065,824.766C65.585,825.196 64.906,825.346 64.296,825.346C63.716,825.346 63.077,825.207 62.687,824.947L62.907,824.267C63.227,824.477 63.726,824.657 64.326,824.657C65.226,824.657 65.886,824.187 65.886,822.958L65.886,822.428L65.865,822.428C65.605,822.878 65.076,823.238 64.326,823.238C63.126,823.238 62.267,822.218 62.267,820.869C62.267,819.23 63.336,818.31 64.456,818.31C65.295,818.31 65.746,818.74 65.965,819.139L65.985,819.139L66.015,818.421L66.794,818.421C66.765,818.76 66.755,819.15 66.755,819.739L66.755,822.548Z" style="fill:rgb(35,31,32);fill-rule:nonzero;"/>
        <path d="M70.206,822.708C71.045,822.708 71.675,821.919 71.675,820.819C71.675,820 71.266,818.97 70.226,818.97C69.197,818.97 68.747,819.93 68.747,820.85C68.747,821.908 69.347,822.708 70.196,822.708L70.206,822.708ZM70.176,823.368C68.877,823.368 67.857,822.408 67.857,820.879C67.857,819.26 68.927,818.311 70.256,818.311C71.645,818.311 72.585,819.32 72.585,820.789C72.585,822.588 71.335,823.368 70.186,823.368L70.176,823.368Z" style="fill:rgb(35,31,32);fill-rule:nonzero;"/>
        <path d="M75.737,822.198C76.127,822.448 76.687,822.637 77.286,822.637C78.176,822.637 78.695,822.178 78.695,821.489C78.695,820.869 78.336,820.499 77.426,820.159C76.327,819.76 75.647,819.179 75.647,818.24C75.647,817.191 76.517,816.411 77.826,816.411C78.506,816.411 79.015,816.571 79.305,816.741L79.066,817.451C78.856,817.321 78.406,817.131 77.796,817.131C76.877,817.131 76.527,817.68 76.527,818.14C76.527,818.77 76.937,819.08 77.866,819.439C79.006,819.889 79.575,820.429 79.575,821.419C79.575,822.458 78.816,823.368 77.226,823.368C76.577,823.368 75.867,823.168 75.508,822.927L75.737,822.198Z" style="fill:rgb(35,31,32);fill-rule:nonzero;"/>
        <path d="M80.737,818.421L81.616,818.421L81.616,823.258L80.737,823.258L80.737,818.421ZM81.157,817.531C80.827,817.531 80.607,817.271 80.607,816.961C80.607,816.651 80.837,816.401 81.177,816.401C81.517,816.401 81.736,816.651 81.736,816.961C81.736,817.271 81.517,817.531 81.167,817.531L81.157,817.531Z" style="fill:rgb(35,31,32);fill-rule:nonzero;"/>
        <path d="M82.527,822.748L84.716,819.899C84.936,819.63 85.126,819.4 85.356,819.14L85.356,819.12L82.727,819.12L82.727,818.421L86.415,818.421L86.415,818.97L84.246,821.789C84.047,822.049 83.846,822.298 83.627,822.538L83.627,822.559L86.455,822.559L86.455,823.258L82.527,823.258L82.527,822.748Z" style="fill:rgb(35,31,32);fill-rule:nonzero;"/>
        <path d="M87.357,818.421L88.236,818.421L88.236,823.258L87.357,823.258L87.357,818.421ZM87.777,817.531C87.447,817.531 87.227,817.271 87.227,816.961C87.227,816.651 87.457,816.401 87.797,816.401C88.137,816.401 88.356,816.651 88.356,816.961C88.356,817.271 88.137,817.531 87.787,817.531L87.777,817.531Z" style="fill:rgb(35,31,32);fill-rule:nonzero;"/>
        <path d="M89.697,819.73C89.697,819.22 89.687,818.821 89.657,818.421L90.437,818.421L90.487,819.21L90.507,819.21C90.746,818.761 91.306,818.311 92.106,818.311C92.776,818.311 93.815,818.71 93.815,820.37L93.815,823.258L92.935,823.258L92.935,820.47C92.935,819.69 92.645,819.031 91.816,819.031C91.246,819.031 90.797,819.44 90.636,819.93C90.596,820.041 90.576,820.2 90.576,820.34L90.576,823.258L89.697,823.258L89.697,819.73Z" style="fill:rgb(35,31,32);fill-rule:nonzero;"/>
        <path d="M98.505,820.319C98.505,820.179 98.495,820.049 98.455,819.929C98.295,819.41 97.876,818.99 97.226,818.99C96.386,818.99 95.787,819.7 95.787,820.829C95.787,821.768 96.276,822.568 97.216,822.568C97.765,822.568 98.255,822.228 98.435,821.659C98.485,821.518 98.505,821.348 98.505,821.188L98.505,820.319ZM99.384,822.548C99.384,823.668 99.155,824.337 98.695,824.766C98.215,825.196 97.536,825.346 96.926,825.346C96.346,825.346 95.707,825.207 95.317,824.947L95.537,824.267C95.857,824.477 96.356,824.657 96.956,824.657C97.856,824.657 98.515,824.187 98.515,822.958L98.515,822.428L98.495,822.428C98.235,822.878 97.706,823.238 96.956,823.238C95.756,823.238 94.897,822.218 94.897,820.869C94.897,819.23 95.966,818.31 97.086,818.31C97.925,818.31 98.375,818.74 98.595,819.139L98.615,819.139L98.645,818.421L99.424,818.421C99.395,818.76 99.384,819.15 99.384,819.739L99.384,822.548Z" style="fill:rgb(35,31,32);fill-rule:nonzero;"/>
        <path d="M104.946,817.012C104.396,817.012 104.106,817.471 104.106,817.991C104.106,818.471 104.336,818.84 104.616,819.2C105.305,818.811 105.736,818.45 105.736,817.881C105.736,817.471 105.506,817.012 104.956,817.012L104.946,817.012ZM104.766,822.708C105.345,822.708 105.825,822.449 106.145,822.099C105.745,821.669 104.996,820.839 104.256,819.98C103.886,820.21 103.386,820.64 103.386,821.349C103.386,822.118 103.946,822.708 104.756,822.708L104.766,822.708ZM107.204,823.258C107.015,823.069 106.835,822.878 106.575,822.609C105.995,823.138 105.356,823.368 104.606,823.368C103.297,823.368 102.537,822.489 102.537,821.479C102.537,820.56 103.087,819.94 103.856,819.51L103.856,819.48C103.516,819.04 103.287,818.551 103.287,818.071C103.287,817.251 103.886,816.411 105.006,816.411C105.845,816.411 106.495,816.961 106.495,817.841C106.495,818.551 106.085,819.111 105.016,819.64L105.016,819.67C105.586,820.34 106.225,821.07 106.655,821.549C106.965,821.079 107.175,820.43 107.304,819.58L108.104,819.58C107.924,820.64 107.634,821.479 107.134,822.069C107.494,822.449 107.844,822.828 108.244,823.258L107.204,823.258Z" style="fill:rgb(35,31,32);fill-rule:nonzero;"/>
        <path d="M112.026,819.85C112.216,819.9 112.466,819.92 112.746,819.92C113.805,819.92 114.435,819.401 114.435,818.491C114.435,817.591 113.805,817.162 112.846,817.162C112.466,817.162 112.176,817.202 112.026,817.232L112.026,819.85ZM111.157,816.612C111.576,816.532 112.126,816.472 112.826,816.472C113.685,816.472 114.315,816.672 114.714,817.032C115.085,817.351 115.315,817.841 115.315,818.441C115.315,819.05 115.134,819.531 114.785,819.88C114.325,820.37 113.575,820.62 112.726,820.62C112.466,820.62 112.226,820.61 112.026,820.56L112.026,823.258L111.157,823.258L111.157,816.612Z" style="fill:rgb(35,31,32);fill-rule:nonzero;"/>
        <rect x="116.397" y="816.162" width="0.879" height="7.096" style="fill:rgb(35,31,32);"/>
        <path d="M121.286,820.789C120.327,820.769 119.237,820.939 119.237,821.879C119.237,822.458 119.617,822.718 120.057,822.718C120.696,822.718 121.106,822.318 121.246,821.908C121.276,821.818 121.286,821.719 121.286,821.629L121.286,820.789ZM122.145,822.099C122.145,822.518 122.165,822.928 122.215,823.258L121.426,823.258L121.346,822.648L121.316,822.648C121.056,823.028 120.526,823.368 119.837,823.368C118.857,823.368 118.357,822.678 118.357,821.978C118.357,820.81 119.397,820.17 121.266,820.18L121.266,820.079C121.266,819.68 121.156,818.95 120.166,818.96C119.707,818.96 119.237,819.09 118.897,819.32L118.697,818.73C119.097,818.48 119.687,818.31 120.296,818.31C121.786,818.31 122.145,819.32 122.145,820.289L122.145,822.099Z" style="fill:rgb(35,31,32);fill-rule:nonzero;"/>
        <path d="M127.006,823.088C126.776,823.198 126.266,823.368 125.617,823.368C124.157,823.368 123.208,822.378 123.208,820.889C123.208,819.4 124.228,818.311 125.807,818.311C126.326,818.311 126.786,818.441 127.026,818.57L126.826,819.24C126.616,819.13 126.286,819.01 125.807,819.01C124.697,819.01 124.098,819.84 124.098,820.85C124.098,821.969 124.817,822.658 125.777,822.658C126.277,822.658 126.606,822.538 126.856,822.429L127.006,823.088Z" style="fill:rgb(35,31,32);fill-rule:nonzero;"/>
        <path d="M131.047,820.359C131.057,819.809 130.817,818.93 129.838,818.93C128.938,818.93 128.558,819.75 128.488,820.359L131.047,820.359ZM128.479,820.989C128.499,822.178 129.248,822.668 130.128,822.668C130.757,822.668 131.147,822.558 131.467,822.428L131.627,823.047C131.317,823.187 130.777,823.357 130.007,823.357C128.528,823.357 127.629,822.368 127.629,820.919C127.629,819.45 128.499,818.3 129.908,818.3C131.487,818.3 131.897,819.689 131.897,820.579C131.897,820.758 131.887,820.899 131.867,820.999L128.479,820.989Z" style="fill:rgb(35,31,32);fill-rule:nonzero;"/>
        <path d="M132.989,819.73C132.989,819.22 132.969,818.821 132.949,818.421L133.718,818.421L133.759,819.201L133.789,819.201C134.058,818.741 134.508,818.311 135.318,818.311C135.968,818.311 136.467,818.71 136.677,819.281L136.697,819.281C136.847,819.001 137.047,818.8 137.247,818.651C137.537,818.431 137.846,818.311 138.306,818.311C138.956,818.311 139.906,818.731 139.906,820.41L139.906,823.258L139.046,823.258L139.046,820.52C139.046,819.581 138.696,819.031 137.996,819.031C137.487,819.031 137.107,819.401 136.947,819.82C136.907,819.95 136.877,820.11 136.877,820.26L136.877,823.258L136.017,823.258L136.017,820.36C136.017,819.581 135.677,819.031 135.008,819.031C134.468,819.031 134.058,819.47 133.919,819.91C133.868,820.041 133.849,820.19 133.849,820.34L133.849,823.258L132.989,823.258L132.989,819.73Z" style="fill:rgb(35,31,32);fill-rule:nonzero;"/>
        <path d="M144.397,820.359C144.407,819.809 144.167,818.93 143.188,818.93C142.288,818.93 141.908,819.75 141.838,820.359L144.397,820.359ZM141.829,820.989C141.849,822.178 142.598,822.668 143.478,822.668C144.107,822.668 144.497,822.558 144.817,822.428L144.977,823.047C144.667,823.187 144.127,823.357 143.357,823.357C141.878,823.357 140.979,822.368 140.979,820.919C140.979,819.45 141.849,818.3 143.258,818.3C144.837,818.3 145.247,819.689 145.247,820.579C145.247,820.758 145.237,820.899 145.217,820.999L141.829,820.989Z" style="fill:rgb(35,31,32);fill-rule:nonzero;"/>
        <path d="M146.339,819.73C146.339,819.22 146.329,818.821 146.299,818.421L147.079,818.421L147.129,819.21L147.149,819.21C147.388,818.761 147.948,818.311 148.748,818.311C149.418,818.311 150.457,818.71 150.457,820.37L150.457,823.258L149.577,823.258L149.577,820.47C149.577,819.69 149.288,819.031 148.458,819.031C147.888,819.031 147.439,819.44 147.278,819.93C147.238,820.041 147.218,820.2 147.218,820.34L147.218,823.258L146.339,823.258L146.339,819.73Z" style="fill:rgb(35,31,32);fill-rule:nonzero;"/>
        <path d="M152.909,817.261L152.909,818.421L154.168,818.421L154.168,819.09L152.909,819.09L152.909,821.698C152.909,822.298 153.079,822.638 153.569,822.638C153.808,822.638 153.949,822.618 154.078,822.578L154.118,823.248C153.949,823.308 153.679,823.368 153.339,823.368C152.929,823.368 152.599,823.228 152.389,822.998C152.149,822.729 152.05,822.298 152.05,821.729L152.05,819.09L151.3,819.09L151.3,818.421L152.05,818.421L152.05,817.532L152.909,817.261Z" style="fill:rgb(35,31,32);fill-rule:nonzero;"/>
        <path d="M158.181,817.261L156.132,817.261L156.132,816.522L161.119,816.522L161.119,817.261L159.06,817.261L159.06,823.258L158.181,823.258L158.181,817.261Z" style="fill:rgb(35,31,32);fill-rule:nonzero;"/>
        <path d="M164.27,820.359C164.28,819.809 164.04,818.93 163.061,818.93C162.161,818.93 161.781,819.75 161.711,820.359L164.27,820.359ZM161.702,820.989C161.722,822.178 162.471,822.668 163.351,822.668C163.98,822.668 164.37,822.558 164.69,822.428L164.85,823.047C164.54,823.187 164,823.357 163.23,823.357C161.751,823.357 160.852,822.368 160.852,820.919C160.852,819.45 161.722,818.3 163.131,818.3C164.71,818.3 165.12,819.689 165.12,820.579C165.12,820.758 165.109,820.899 165.09,820.999L161.702,820.989Z" style="fill:rgb(35,31,32);fill-rule:nonzero;"/>
        <path d="M166.212,819.73C166.212,819.22 166.192,818.821 166.172,818.421L166.941,818.421L166.982,819.201L167.012,819.201C167.281,818.741 167.731,818.311 168.541,818.311C169.191,818.311 169.69,818.71 169.9,819.281L169.92,819.281C170.07,819.001 170.27,818.8 170.47,818.651C170.759,818.431 171.069,818.311 171.529,818.311C172.179,818.311 173.129,818.731 173.129,820.41L173.129,823.258L172.269,823.258L172.269,820.52C172.269,819.581 171.919,819.031 171.219,819.031C170.71,819.031 170.33,819.401 170.17,819.82C170.13,819.95 170.1,820.11 170.1,820.26L170.1,823.258L169.24,823.258L169.24,820.36C169.24,819.581 168.9,819.031 168.231,819.031C167.691,819.031 167.281,819.47 167.142,819.91C167.091,820.041 167.072,820.19 167.072,820.34L167.072,823.258L166.212,823.258L166.212,819.73Z" style="fill:rgb(35,31,32);fill-rule:nonzero;"/>
        <path d="M175.431,821.289C175.431,821.409 175.441,821.539 175.471,821.648C175.621,822.259 176.161,822.678 176.781,822.678C177.71,822.678 178.25,821.919 178.25,820.81C178.25,819.84 177.75,819.01 176.821,819.01C176.221,819.01 175.651,819.43 175.481,820.09C175.461,820.21 175.431,820.34 175.431,820.449L175.431,821.289ZM174.552,820C174.552,819.38 174.542,818.88 174.512,818.421L175.301,818.421L175.351,819.25L175.371,819.25C175.721,818.65 176.301,818.31 177.08,818.31C178.26,818.31 179.139,819.3 179.139,820.769C179.139,822.508 178.07,823.368 176.94,823.368C176.291,823.368 175.741,823.088 175.451,822.608L175.431,822.608L175.431,825.236L174.552,825.236L174.552,820Z" style="fill:rgb(35,31,32);fill-rule:nonzero;"/>
        <rect x="180.242" y="816.162" width="0.879" height="7.096" style="fill:rgb(35,31,32);"/>
        <path d="M185.13,820.789C184.171,820.769 183.081,820.939 183.081,821.879C183.081,822.458 183.461,822.718 183.901,822.718C184.54,822.718 184.95,822.318 185.09,821.908C185.12,821.818 185.13,821.719 185.13,821.629L185.13,820.789ZM185.989,822.099C185.989,822.518 186.009,822.928 186.059,823.258L185.27,823.258L185.19,822.648L185.16,822.648C184.9,823.028 184.37,823.368 183.681,823.368C182.701,823.368 182.201,822.678 182.201,821.978C182.201,820.81 183.241,820.17 185.11,820.18L185.11,820.079C185.11,819.68 185,818.95 184.01,818.96C183.551,818.96 183.081,819.09 182.741,819.32L182.541,818.73C182.941,818.48 183.531,818.31 184.14,818.31C185.63,818.31 185.989,819.32 185.989,820.289L185.989,822.099Z" style="fill:rgb(35,31,32);fill-rule:nonzero;"/>
        <path d="M188.422,817.261L188.422,818.421L189.681,818.421L189.681,819.09L188.422,819.09L188.422,821.698C188.422,822.298 188.592,822.638 189.082,822.638C189.321,822.638 189.462,822.618 189.591,822.578L189.631,823.248C189.462,823.308 189.192,823.368 188.852,823.368C188.442,823.368 188.112,823.228 187.902,822.998C187.662,822.729 187.563,822.298 187.563,821.729L187.563,819.09L186.813,819.09L186.813,818.421L187.563,818.421L187.563,817.532L188.422,817.261Z" style="fill:rgb(35,31,32);fill-rule:nonzero;"/>
        <path d="M193.682,820.359C193.692,819.809 193.452,818.93 192.473,818.93C191.573,818.93 191.193,819.75 191.123,820.359L193.682,820.359ZM191.114,820.989C191.134,822.178 191.883,822.668 192.763,822.668C193.392,822.668 193.782,822.558 194.102,822.428L194.262,823.047C193.952,823.187 193.412,823.357 192.642,823.357C191.163,823.357 190.264,822.368 190.264,820.919C190.264,819.45 191.134,818.3 192.543,818.3C194.122,818.3 194.532,819.689 194.532,820.579C194.532,820.758 194.522,820.899 194.502,820.999L191.114,820.989Z" style="fill:rgb(35,31,32);fill-rule:nonzero;"/>
        <path d="M165.019,768.706C165.019,766.439 166.734,765.613 168.298,765.613C170.226,765.613 171.759,766.747 171.759,768.647L171.759,772.506C171.759,774.77 169.981,775.601 168.418,775.601C166.489,775.601 165.019,774.495 165.019,772.597L165.019,768.706ZM167.409,778.815C168.817,778.815 170.93,777.928 171.818,776.701L171.851,776.701L171.851,778.448L175.494,778.448L175.494,756.605L171.759,756.605L171.759,764.389L171.666,764.389C170.868,763.345 169.43,762.457 167.682,762.457C164.192,762.457 161.221,764.571 161.221,768.828L161.221,772.628C161.221,776.641 163.977,778.815 167.409,778.815M129.827,797.887C129.827,800.643 128.327,802.017 125.788,802.017C123.066,802.017 121.6,800.396 121.6,797.98L121.6,793.94C121.6,791.34 123.158,789.84 125.696,789.84C128.449,789.84 129.827,791.492 129.827,793.818L129.827,797.887ZM125.696,787.915C122.239,787.915 119.303,790.024 119.303,794.061L119.303,798.04C119.303,801.925 122.026,803.974 125.788,803.974C129.274,803.974 132.152,801.805 132.152,797.795L132.152,794.034C132.152,790.147 129.487,787.915 125.696,787.915M155.127,778.45L158.863,778.45L158.863,768.399C158.863,764.662 156.901,762.458 153.381,762.458C151.633,762.458 149.98,763.193 148.937,764.694L148.877,764.694L148.877,762.765L145.233,762.765L145.233,778.45L148.97,778.45L148.97,769.654C148.97,766.991 150.165,765.734 152.217,765.734C154.115,765.734 155.127,766.991 155.127,769.351L155.127,778.45ZM147.472,783.448L145.212,783.448L145.212,788.25L138.142,788.25L138.142,783.446L135.878,783.446L135.878,788.25L133.216,788.25L133.216,790.084L135.878,790.084L135.878,800.364C135.878,802.995 137.681,803.854 139.7,803.854C140.199,803.854 141.062,803.798 141.866,803.631L141.866,801.628C141.365,801.716 140.862,801.773 140.314,801.773C138.937,801.773 138.142,801.315 138.142,799.785L138.142,790.084L145.212,790.084L145.212,800.366C145.212,802.996 147.018,803.854 149.036,803.854C149.53,803.854 150.396,803.8 151.199,803.632L151.199,801.627C150.699,801.715 150.195,801.772 149.647,801.772C148.269,801.772 147.472,801.315 147.472,799.783L147.472,790.084L151.724,790.084L151.724,788.25L147.472,788.25L147.472,783.448ZM156.549,799.906L156.549,781.735L154.257,781.735L154.257,799.813C154.257,801.59 154.837,803.762 157.775,803.762C158.507,803.762 159.456,803.641 160.221,803.394L160.221,801.649C159.671,801.712 159.15,801.805 158.539,801.805C157.13,801.805 156.549,800.977 156.549,799.906M188.127,769.074L181.786,769.074L181.786,768.859C181.786,766.501 183.498,765.643 185.093,765.643C186.626,765.643 188.127,766.501 188.127,768.646L188.127,769.074ZM185.093,762.485C181.203,762.485 177.896,764.938 177.896,769.351L177.896,772.414C177.896,776.701 181.356,778.815 185.215,778.815C187.97,778.815 190.454,777.773 191.679,775.322L188.802,773.669C187.97,774.862 186.655,775.689 185.399,775.689C183.408,775.689 181.786,774.526 181.786,772.534L181.786,771.677L191.861,771.677L191.861,768.646C191.861,764.479 188.495,762.485 185.093,762.485M171.735,794.766L163.689,794.766L163.689,794.095C163.689,791.645 165.313,789.81 167.79,789.81C170.358,789.81 171.735,791.556 171.735,793.881L171.735,794.766ZM167.911,787.913C164.209,787.913 161.336,790.271 161.336,794.493L161.336,797.735C161.336,801.957 164.181,803.976 167.942,803.976C170.145,803.976 172.347,803.241 173.724,801.099L171.983,800.058C171.155,801.099 169.869,802.018 168.094,802.018C165.407,802.018 163.689,800.456 163.689,797.949L163.689,796.358L173.999,796.358L173.999,793.94C173.999,789.963 171.309,787.913 167.911,787.913M203.102,762.458C201.234,762.458 198.906,763.713 197.988,765.367L197.926,765.367L197.926,762.765L194.28,762.765L194.28,778.45L198.019,778.45L198.019,770.423C198.019,767.511 200.128,765.89 202.949,765.89C203.471,765.89 203.866,765.89 204.358,765.98L204.358,762.552C203.96,762.458 203.502,762.458 203.102,762.458M177.219,791.462C176.358,791.462 175.677,790.771 175.677,789.896C175.677,789.019 176.358,788.328 177.219,788.328C178.079,788.328 178.752,789.019 178.752,789.896C178.752,790.771 178.079,791.462 177.219,791.462M177.219,787.976C176.157,787.976 175.294,788.83 175.294,789.896C175.294,790.959 176.157,791.818 177.219,791.818C178.279,791.818 179.144,790.959 179.144,789.896C179.144,788.83 178.279,787.976 177.219,787.976M177.279,789.805L176.933,789.805L176.933,789.177L177.279,789.177C177.484,789.177 177.622,789.317 177.622,789.491C177.622,789.667 177.484,789.805 177.279,789.805M177.997,789.491C177.997,789.145 177.723,788.853 177.33,788.853L176.55,788.853L176.55,790.931L176.933,790.931L176.933,790.105L177.192,790.105L177.622,790.931L178.05,790.931L177.588,790.057C177.817,789.976 177.997,789.783 177.997,789.491M88.298,778.595C87.762,779.073 86.367,780.32 83.074,782.801C68.404,793.856 57.308,798.274 57.115,798.354C57.039,798.385 56.949,798.358 56.909,798.285C56.869,798.213 56.892,798.119 56.962,798.073C58.15,797.295 59.308,796.46 60.458,795.592C76.9,783.202 86.915,772.323 88.496,770.62C89.05,770.022 89.81,769.126 89.915,768.43C90.04,767.625 89.559,766.436 88.492,765.022C87.426,763.607 86.417,762.817 85.609,762.716C84.911,762.625 83.838,763.109 83.113,763.477C81.04,764.525 67.821,771.154 51.379,783.545C50.228,784.411 49.108,785.294 48.03,786.222C47.968,786.276 47.873,786.272 47.813,786.215C47.754,786.155 47.752,786.062 47.804,785.997C47.933,785.833 55.238,776.386 69.908,765.329C73.202,762.85 74.784,761.852 75.392,761.468C76.315,760.884 77.91,759.659 76.696,758.049C76.024,757.156 74.525,756.474 72.71,756.214C72.111,756.154 71.729,756.227 71.286,756.293C67.977,756.786 60.518,760.081 53.187,765.605C51.306,767.023 49.511,768.59 48.793,769.24C48.73,769.296 48.636,769.295 48.574,769.237C48.514,769.179 48.509,769.083 48.563,769.019C48.747,768.742 48.812,768.644 49.228,768.124C51.452,765.332 54.677,762.285 57.405,760.221C57.539,760.121 58.325,759.536 58.942,759.205C59.242,759.044 59.413,759.035 59.674,758.959C59.776,758.932 59.874,758.881 59.893,758.617C59.903,758.468 59.845,758.329 59.737,758.188C59.391,757.728 58.958,757.712 58.732,757.716C58.077,757.725 57.246,758.003 54.8,759.846C51.523,762.314 49.174,764.87 48.011,766.323C47.202,767.335 45.674,769.365 45.389,771.232C45.313,771.695 45.196,772.849 45.758,773.593C46.732,774.888 48.387,773.777 48.866,773.349C49.627,772.663 51.517,770.925 54.013,769.043C61.456,763.434 68.358,760.289 72.175,758.839C72.175,758.839 72.766,758.607 73.024,758.515C73.101,758.487 73.211,758.53 73.236,758.628C73.262,758.726 73.18,758.797 73.13,758.823C70.594,760.185 68.218,761.447 64.373,764.345C57.715,769.361 52.272,774.526 47.709,780.164C46.794,781.284 45.262,783.16 44.785,784.585C44.031,786.84 45.704,789.493 46.012,789.903C47.653,792.08 49.68,790.09 51.409,788.863C55.714,785.811 65.448,779.496 67.671,778.023C74.182,773.706 82.94,768.56 83.588,768.163C84.236,767.767 85.382,767.101 85.641,766.977C85.707,766.944 85.79,766.964 85.836,767.023C85.88,767.084 85.877,767.169 85.827,767.224C85.638,767.439 84.682,768.357 84.121,768.87C83.561,769.385 76.199,776.385 70.256,781.454C68.227,783.184 59.474,790.801 55.352,794.099C53.698,795.423 51.227,796.823 52.868,798.998C53.176,799.408 55.265,801.748 57.641,801.644C59.142,801.579 61.367,800.623 62.697,800.053C69.373,797.219 75.837,793.41 82.495,788.394C86.34,785.497 88.209,783.56 90.217,781.497C90.257,781.457 90.347,781.399 90.434,781.449C90.521,781.501 90.532,781.619 90.484,781.683C90.324,781.908 89.938,782.412 89.938,782.412C87.493,785.681 82.568,791.447 75.123,797.059C72.628,798.939 70.434,800.276 69.567,800.819C69.021,801.161 67.499,802.445 68.474,803.74C69.036,804.484 70.178,804.689 70.642,804.745C72.515,804.985 74.889,804.077 76.084,803.578C77.801,802.858 80.905,801.306 84.182,798.837C86.627,796.993 87.125,796.271 87.313,795.643C87.378,795.428 87.482,795.007 87.135,794.547C87.029,794.405 86.913,794.311 86.768,794.28C86.508,794.226 86.433,794.304 86.376,794.394C86.232,794.626 86.176,794.787 85.938,795.032C85.45,795.532 84.671,796.128 84.539,796.228C81.802,798.284 77.984,800.544 74.689,801.911C74.073,802.166 73.961,802.204 73.644,802.304C73.567,802.338 73.478,802.307 73.438,802.232C73.399,802.158 73.423,802.066 73.495,802.021C74.318,801.51 76.32,800.218 78.201,798.799C85.531,793.273 90.754,787.014 92.141,783.968C92.328,783.56 92.501,783.213 92.61,782.622C92.86,780.805 92.617,779.177 91.944,778.284C90.731,776.673 89.114,777.869 88.298,778.595M110.037,801.467L104.41,801.467L104.41,793.42L110.006,793.42C112.697,793.42 114.716,794.613 114.716,797.367C114.716,800.152 112.697,801.467 110.037,801.467M104.41,783.847L109.79,783.847C112.27,783.847 114.133,784.911 114.133,787.518C114.133,790.116 112.087,791.34 109.638,791.34L104.41,791.34L104.41,783.847ZM112.761,792.165L112.761,792.136C115.206,791.431 116.551,789.444 116.551,787.147C116.551,783.567 114.105,781.734 110.313,781.734L101.93,781.734L101.93,803.578L110.555,803.578C113.953,803.578 117.192,801.589 117.192,797.49C117.192,794.919 115.665,792.688 112.761,792.165M132.798,768.859C132.798,766.501 134.513,765.643 136.104,765.643C137.64,765.643 139.137,766.501 139.137,768.646L139.137,769.074L132.798,769.074L132.798,768.859ZM136.227,778.815C138.985,778.815 141.467,777.773 142.691,775.322L139.813,773.669C138.985,774.862 137.668,775.689 136.413,775.689C134.422,775.689 132.798,774.526 132.798,772.534L132.798,771.677L142.875,771.677L142.875,768.646C142.875,764.479 139.506,762.485 136.104,762.485C132.217,762.485 128.908,764.938 128.908,769.351L128.908,772.414C128.908,776.701 132.369,778.815 136.227,778.815M124.772,778.664C125.755,778.664 126.98,778.448 127.773,778.232L127.773,775.385C127.1,775.444 126.735,775.506 126.061,775.506C125.051,775.506 124.712,774.927 124.712,774.222L124.712,756.605L120.976,756.605L120.976,774.251C120.976,775.661 121.069,778.664 124.772,778.664M111.12,774.987L106.004,774.987L106.004,769.01L111.148,769.01C113.415,769.01 114.671,769.932 114.671,771.924C114.671,773.914 113.295,774.987 111.12,774.987M106.004,760.069L110.627,760.069C112.679,760.069 114.058,760.864 114.058,762.765C114.058,764.542 112.863,765.581 110.811,765.581L106.004,765.581L106.004,760.069ZM114.947,766.9L114.947,766.87C117.181,765.826 118.04,764.201 118.04,762.24C118.04,758.475 115.529,756.605 111.305,756.605L101.931,756.605L101.931,778.447L111.823,778.447C115.437,778.447 118.714,776.273 118.714,772.167C118.714,769.716 117.458,767.573 114.947,766.9" style="fill:rgb(35,31,32);fill-rule:nonzero;"/>
        <rect x="238.161" y="690.568" width="631.936" height="21.164" style="fill:rgb(15,24,32);"/>
        <path d="M806.168,701.613L806.168,699.609C806.168,699.273 806.051,698.988 805.815,698.756C805.58,698.525 805.295,698.408 804.96,698.408L800.26,698.408C799.925,698.408 799.64,698.525 799.405,698.756C799.17,698.988 799.052,699.273 799.052,699.609L799.052,701.613C799.052,701.949 799.176,702.236 799.423,702.476C799.67,702.717 799.961,702.836 800.296,702.836L804.924,702.836C805.259,702.836 805.55,702.717 805.797,702.476C806.044,702.236 806.168,701.949 806.168,701.613M807.068,701.9C807.068,702.332 806.916,702.701 806.612,703.004C806.308,703.308 805.94,703.461 805.508,703.461L799.712,703.461C799.28,703.461 798.912,703.308 798.608,703.004C798.304,702.701 798.152,702.332 798.152,701.9L798.152,699.332C798.152,698.9 798.304,698.533 798.608,698.228C798.912,697.925 799.28,697.773 799.712,697.773L805.508,697.773C805.94,697.773 806.308,697.925 806.612,698.228C806.916,698.533 807.068,698.9 807.068,699.332L807.068,701.9Z" style="fill:rgb(168,168,170);fill-rule:nonzero;"/>
        <path d="M817.82,703.148C817.82,703.357 817.716,703.46 817.508,703.46L809.793,703.46C809.576,703.46 809.468,703.353 809.468,703.136C809.468,703.033 809.516,702.945 809.612,702.873L815.024,699.021C815.12,698.949 815.169,698.861 815.169,698.757C815.169,698.541 815.064,698.433 814.856,698.433L810.368,698.433C810.152,698.433 810.045,698.328 810.045,698.121C810.045,697.904 810.152,697.796 810.368,697.796L817.184,697.796C817.4,697.796 817.508,697.904 817.508,698.119C817.508,698.248 817.444,698.343 817.315,698.406L811.915,702.234C811.82,702.308 811.772,702.4 811.772,702.511C811.772,702.72 811.876,702.824 812.085,702.824L817.508,702.824C817.716,702.824 817.82,702.933 817.82,703.148" style="fill:rgb(168,168,170);fill-rule:nonzero;"/>
        <path d="M850.015,702.988C850.015,703.117 849.97,703.224 849.881,703.31C849.791,703.398 849.686,703.443 849.565,703.443C849.443,703.443 849.337,703.398 849.248,703.31C849.161,703.222 849.115,703.119 849.115,703L849.115,699.386C849.115,699.234 849.048,699.16 848.916,699.16C848.83,699.16 848.752,699.199 848.683,699.279L845.754,702.351C845.635,702.478 845.494,702.543 845.334,702.543C845.183,702.543 845.051,702.482 844.939,702.363L841.975,699.244C841.905,699.172 841.83,699.134 841.753,699.134C841.613,699.134 841.542,699.211 841.542,699.363L841.542,702.986C841.542,703.115 841.498,703.222 841.41,703.31C841.32,703.398 841.214,703.443 841.093,703.443C840.971,703.443 840.867,703.398 840.777,703.31C840.687,703.224 840.643,703.121 840.643,703L840.643,698.246C840.643,698.127 840.687,698.023 840.776,697.935C840.864,697.847 840.968,697.802 841.089,697.802L841.329,697.802C841.466,697.802 841.603,697.871 841.74,698.002L845.341,701.775L848.924,698.068C849.1,697.892 849.247,697.802 849.369,697.802L849.572,697.802C849.867,697.802 850.015,697.947 850.015,698.234L850.015,702.988Z" style="fill:rgb(168,168,170);fill-rule:nonzero;"/>
        <path d="M859.17,703C859.17,703.127 859.126,703.234 859.038,703.318C858.95,703.402 858.842,703.443 858.714,703.443L852.87,703.443C852.742,703.443 852.634,703.402 852.546,703.318C852.458,703.234 852.414,703.131 852.414,703.012L852.414,698.248C852.414,698.127 852.458,698.023 852.546,697.936C852.634,697.848 852.742,697.803 852.87,697.803C853.166,697.803 853.314,697.947 853.314,698.236L853.314,702.1C853.314,702.227 853.357,702.338 853.446,702.43C853.534,702.521 853.638,702.568 853.758,702.568L858.714,702.568C858.842,702.568 858.95,702.609 859.038,702.693C859.126,702.777 859.17,702.879 859.17,703" style="fill:rgb(168,168,170);fill-rule:nonzero;"/>
        <path d="M809.771,678.15C809.771,677.941 809.663,677.838 809.447,677.838C809.382,677.838 809.331,677.853 809.291,677.884L805.753,680.185C805.649,680.257 805.597,680.351 805.597,680.463C805.597,680.671 805.705,680.775 805.921,680.775L809.447,680.775C809.663,680.775 809.771,680.668 809.771,680.451L809.771,678.15ZM812.169,681.375L810.994,681.375C810.77,681.375 810.658,681.478 810.658,681.687L810.658,682.359C810.658,682.654 810.51,682.802 810.214,682.802C809.917,682.802 809.771,682.658 809.771,682.371L809.771,681.699C809.771,681.482 809.663,681.375 809.447,681.375L803.834,681.375C803.753,681.375 803.686,681.347 803.63,681.291C803.623,681.283 803.614,681.275 803.606,681.267C803.598,681.259 803.589,681.248 803.582,681.232C803.478,681.064 803.501,680.927 803.654,680.824L809.231,677.213C809.271,677.181 809.327,677.166 809.398,677.166L810.214,677.166C810.51,677.166 810.658,677.31 810.658,677.597L810.658,680.439C810.658,680.664 810.766,680.775 810.982,680.775L812.158,680.775C812.357,680.775 812.457,680.875 812.457,681.076C812.457,681.275 812.361,681.375 812.169,681.375" style="fill:rgb(168,168,170);fill-rule:nonzero;"/>
        <path d="M810.804,644.648C810.588,644.429 810.328,644.318 810.026,644.318L805.803,644.298C805.565,644.296 805.348,644.384 805.156,644.56C804.971,644.744 804.877,644.96 804.875,645.209L804.875,645.283C804.873,645.627 804.992,645.914 805.231,646.14C805.479,646.382 805.77,646.503 806.106,646.505L810.016,646.523C810.311,646.527 810.568,646.418 810.784,646.203C811,645.986 811.11,645.724 811.113,645.418C811.114,645.113 811.01,644.857 810.804,644.648M811.49,646.64C811.153,646.982 810.744,647.15 810.264,647.148L805.527,647.127C805.096,647.125 804.729,646.972 804.426,646.666C804.123,646.345 803.973,645.972 803.976,645.548L804.43,643.031C804.612,641.994 805.133,641.476 805.996,641.482L810.686,641.502C810.895,641.502 810.997,641.605 810.996,641.81C810.995,642.021 810.891,642.127 810.683,642.127L806.533,642.107C805.863,642.103 805.461,642.49 805.329,643.271C805.321,643.279 805.317,643.306 805.317,643.355C805.316,643.566 805.427,643.673 805.651,643.673L810.268,643.695C810.748,643.697 811.155,643.867 811.489,644.203C811.831,644.539 812.002,644.947 811.998,645.423C811.996,645.902 811.827,646.308 811.49,646.64" style="fill:rgb(168,168,170);fill-rule:nonzero;"/>
        <path d="M810.308,607.264C810.123,607.08 809.904,606.989 809.649,606.989L806.338,606.989C806.098,606.989 805.882,607.075 805.691,607.252C805.506,607.436 805.414,607.657 805.414,607.912C805.414,608.159 805.506,608.375 805.691,608.559C805.873,608.743 806.09,608.836 806.338,608.836L809.649,608.836C809.896,608.836 810.112,608.743 810.295,608.559C810.48,608.375 810.572,608.159 810.572,607.912C810.572,607.672 810.484,607.455 810.308,607.264M810.848,609.819C810.672,609.643 810.454,609.555 810.2,609.555L805.798,609.555C805.559,609.555 805.342,609.643 805.151,609.819C804.967,610.002 804.875,610.219 804.875,610.467C804.875,610.723 804.963,610.938 805.139,611.114C805.323,611.297 805.538,611.391 805.787,611.391L810.2,611.391C810.448,611.391 810.66,611.301 810.836,611.127C811.02,610.942 811.112,610.723 811.112,610.467C811.112,610.211 811.024,609.994 810.848,609.819M811.543,611.557C811.239,611.862 810.875,612.014 810.452,612.014L805.522,612.014C805.098,612.014 804.735,611.862 804.431,611.557C804.127,611.254 803.975,610.891 803.975,610.467C803.975,609.922 804.196,609.502 804.635,609.207C804.755,609.127 804.815,609.024 804.815,608.895C804.815,608.832 804.795,608.768 804.755,608.701C804.603,608.455 804.528,608.188 804.528,607.901C804.528,607.485 804.679,607.125 804.984,606.821C805.287,606.516 805.653,606.366 806.077,606.366L809.898,606.366C810.315,606.366 810.678,606.512 810.991,606.809C811.303,607.112 811.459,607.477 811.459,607.901C811.459,608.164 811.379,608.432 811.219,608.701C811.188,608.76 811.171,608.823 811.171,608.895C811.171,609.032 811.227,609.135 811.336,609.207C811.778,609.51 811.998,609.93 811.998,610.467C811.998,610.891 811.847,611.254 811.543,611.557" style="fill:rgb(168,168,170);fill-rule:nonzero;"/>
        <path d="M802.835,577.055C802.54,577.055 802.392,576.907 802.392,576.612L802.392,572.496C802.392,572.289 802.327,572.102 802.2,571.934C802.064,571.766 801.892,571.66 801.685,571.621C801.859,571.399 802.092,571.285 802.38,571.285C802.628,571.285 802.839,571.373 803.015,571.551C803.19,571.725 803.278,571.938 803.278,572.186L803.278,576.612C803.278,576.907 803.131,577.055 802.835,577.055" style="fill:rgb(168,168,170);fill-rule:nonzero;"/>
        <path d="M813.401,573.207C813.401,572.871 813.285,572.586 813.053,572.353C812.813,572.113 812.526,571.992 812.19,571.992L808.376,571.992C808.04,571.992 807.756,572.109 807.524,572.342C807.284,572.582 807.165,572.871 807.165,573.207L807.165,575.203C807.165,575.541 807.288,575.83 807.536,576.07C807.784,576.311 808.076,576.432 808.412,576.432L812.154,576.432C812.481,576.432 812.773,576.314 813.029,576.082C813.277,575.842 813.401,575.555 813.401,575.215L813.401,573.207ZM813.833,576.6C813.529,576.902 813.161,577.055 812.729,577.055L807.837,577.055C807.404,577.055 807.036,576.902 806.733,576.6C806.428,576.295 806.277,575.928 806.277,575.496L806.277,572.93C806.277,572.496 806.428,572.129 806.733,571.826C807.036,571.521 807.404,571.369 807.837,571.369L812.729,571.369C813.161,571.369 813.529,571.521 813.833,571.826C814.136,572.129 814.288,572.496 814.288,572.93L814.288,575.496C814.288,575.928 814.136,576.295 813.833,576.6" style="fill:rgb(168,168,170);fill-rule:nonzero;"/>
        <path d="M803.057,540.477C802.762,540.477 802.614,540.329 802.614,540.032L802.614,535.918C802.614,535.709 802.549,535.522 802.422,535.354C802.286,535.188 802.114,535.082 801.907,535.041C802.081,534.819 802.314,534.707 802.602,534.707C802.85,534.707 803.061,534.795 803.237,534.971C803.411,535.147 803.5,535.36 803.5,535.606L803.5,540.032C803.5,540.329 803.353,540.477 803.057,540.477" style="fill:rgb(168,168,170);fill-rule:nonzero;"/>
        <path d="M813.935,539.721C813.657,540.073 813.268,540.307 812.772,540.428C812.652,540.459 812.512,540.475 812.352,540.475L806.943,540.475C806.823,540.475 806.719,540.432 806.631,540.344C806.543,540.256 806.499,540.153 806.499,540.032C806.499,539.856 806.559,539.731 806.679,539.659L812.52,536.377C812.664,536.297 812.736,536.168 812.736,535.992C812.736,535.864 812.692,535.742 812.604,535.631C812.516,535.51 812.416,535.451 812.304,535.451L809.414,535.451C809.102,535.451 808.802,535.502 808.514,535.608C808.186,535.725 807.951,535.889 807.807,536.098C807.687,536.266 807.555,536.35 807.411,536.35C807.283,536.35 807.174,536.307 807.086,536.219C806.998,536.131 806.956,536.024 806.956,535.895C806.956,535.823 807.003,535.719 807.099,535.582C807.491,535.078 808.046,534.826 808.766,534.826L812.543,534.826C812.845,534.826 813.098,534.922 813.303,535.116C813.517,535.323 813.623,535.571 813.623,535.86C813.623,536.266 813.438,536.578 813.067,536.793L808.67,539.264C808.567,539.321 808.514,539.409 808.514,539.53C808.514,539.744 808.623,539.852 808.838,539.852L811.608,539.852C811.897,539.852 812.196,539.797 812.508,539.684C812.841,539.565 813.079,539.401 813.221,539.194C813.331,539.034 813.461,538.953 813.612,538.953C813.731,538.953 813.839,538.992 813.935,539.073C814.023,539.16 814.067,539.268 814.067,539.397C814.067,539.5 814.023,539.61 813.935,539.721" style="fill:rgb(168,168,170);fill-rule:nonzero;"/>
        <path d="M802.583,505.033C802.288,505.033 802.14,504.885 802.14,504.59L802.14,500.474C802.14,500.267 802.075,500.08 801.948,499.912C801.812,499.744 801.64,499.64 801.433,499.599C801.607,499.377 801.84,499.263 802.128,499.263C802.376,499.263 802.587,499.351 802.763,499.529C802.938,499.703 803.026,499.916 803.026,500.164L803.026,504.59C803.026,504.885 802.879,505.033 802.583,505.033" style="fill:rgb(168,168,170);fill-rule:nonzero;"/>
        <path d="M811.854,500.381C811.854,500.172 811.747,500.069 811.531,500.069C811.465,500.069 811.414,500.084 811.374,500.115L807.835,502.416C807.733,502.488 807.68,502.582 807.68,502.694C807.68,502.902 807.788,503.006 808.004,503.006L811.531,503.006C811.747,503.006 811.854,502.899 811.854,502.68L811.854,500.381ZM814.252,503.606L813.077,503.606C812.853,503.606 812.741,503.709 812.741,503.918L812.741,504.59C812.741,504.885 812.594,505.033 812.297,505.033C812,505.033 811.854,504.889 811.854,504.602L811.854,503.93C811.854,503.715 811.747,503.606 811.531,503.606L805.917,503.606C805.836,503.606 805.769,503.578 805.714,503.522C805.706,503.514 805.697,503.506 805.69,503.498C805.681,503.49 805.672,503.479 805.666,503.463C805.561,503.295 805.584,503.158 805.738,503.055L811.315,499.444C811.354,499.412 811.411,499.397 811.481,499.397L812.297,499.397C812.594,499.397 812.741,499.541 812.741,499.828L812.741,502.67C812.741,502.895 812.849,503.006 813.065,503.006L814.241,503.006C814.44,503.006 814.541,503.108 814.541,503.307C814.541,503.506 814.445,503.606 814.252,503.606" style="fill:rgb(168,168,170);fill-rule:nonzero;"/>
        <path d="M802.835,464.084C802.54,464.084 802.392,463.936 802.392,463.639L802.392,459.525C802.392,459.318 802.327,459.13 802.2,458.961C802.064,458.794 801.892,458.689 801.685,458.65C801.859,458.426 802.092,458.314 802.38,458.314C802.628,458.314 802.839,458.402 803.015,458.578C803.19,458.754 803.278,458.966 803.278,459.214L803.278,463.639C803.278,463.936 803.131,464.084 802.835,464.084" style="fill:rgb(168,168,170);fill-rule:nonzero;"/>
        <path d="M813.089,461.578C812.874,461.361 812.613,461.252 812.31,461.252L808.088,461.252C807.849,461.252 807.632,461.342 807.441,461.517C807.257,461.703 807.165,461.92 807.165,462.17L807.165,462.242C807.165,462.588 807.284,462.873 807.525,463.098C807.773,463.338 808.064,463.459 808.402,463.459L812.31,463.459C812.606,463.459 812.862,463.351 813.077,463.135C813.294,462.918 813.401,462.656 813.401,462.349C813.401,462.045 813.298,461.787 813.089,461.578M813.785,463.57C813.449,463.912 813.042,464.084 812.562,464.084L807.824,464.084C807.393,464.084 807.025,463.932 806.721,463.627C806.417,463.307 806.265,462.935 806.265,462.512L806.709,459.993C806.885,458.954 807.404,458.433 808.269,458.433L812.958,458.433C813.165,458.433 813.27,458.536 813.27,458.74C813.27,458.952 813.165,459.058 812.958,459.058L808.808,459.058C808.136,459.058 807.735,459.448 807.609,460.226C807.601,460.235 807.597,460.264 807.597,460.312C807.597,460.523 807.708,460.629 807.933,460.629L812.55,460.629C813.029,460.629 813.437,460.797 813.774,461.131C814.116,461.465 814.288,461.873 814.288,462.349C814.288,462.828 814.12,463.236 813.785,463.57" style="fill:rgb(168,168,170);fill-rule:nonzero;"/>
        <path d="M839.399,685.809C839.103,685.809 838.956,685.661 838.956,685.366L838.956,681.25C838.956,681.043 838.892,680.856 838.763,680.688C838.628,680.52 838.456,680.416 838.248,680.375C838.423,680.153 838.656,680.039 838.943,680.039C839.191,680.039 839.404,680.127 839.58,680.303C839.755,680.479 839.843,680.692 839.843,680.94L839.843,685.366C839.843,685.661 839.695,685.809 839.399,685.809" style="fill:rgb(168,168,170);fill-rule:nonzero;"/>
        <path d="M849.966,681.961C849.966,681.625 849.85,681.34 849.618,681.107C849.378,680.867 849.09,680.748 848.754,680.748L844.941,680.748C844.606,680.748 844.32,680.863 844.089,681.096C843.85,681.336 843.729,681.625 843.729,681.961L843.729,683.957C843.729,684.295 843.854,684.584 844.102,684.824C844.349,685.065 844.641,685.186 844.977,685.186L848.719,685.186C849.046,685.186 849.338,685.068 849.594,684.836C849.842,684.596 849.966,684.307 849.966,683.971L849.966,681.961ZM850.398,685.352C850.094,685.656 849.727,685.809 849.295,685.809L844.401,685.809C843.969,685.809 843.602,685.656 843.297,685.352C842.994,685.049 842.842,684.682 842.842,684.25L842.842,681.684C842.842,681.25 842.994,680.883 843.297,680.58C843.602,680.275 843.969,680.123 844.401,680.123L849.295,680.123C849.727,680.123 850.094,680.275 850.398,680.58C850.701,680.883 850.854,681.25 850.854,681.684L850.854,684.25C850.854,684.682 850.701,685.049 850.398,685.352" style="fill:rgb(168,168,170);fill-rule:nonzero;"/>
        <path d="M860.376,681.961C860.376,681.625 860.26,681.34 860.027,681.107C859.788,680.867 859.5,680.748 859.164,680.748L855.351,680.748C855.016,680.748 854.73,680.863 854.499,681.096C854.26,681.336 854.139,681.625 854.139,681.961L854.139,683.957C854.139,684.295 854.264,684.584 854.512,684.824C854.759,685.065 855.051,685.186 855.387,685.186L859.129,685.186C859.456,685.186 859.748,685.068 860.004,684.836C860.252,684.596 860.376,684.307 860.376,683.971L860.376,681.961ZM860.808,685.352C860.504,685.656 860.137,685.809 859.705,685.809L854.811,685.809C854.379,685.809 854.012,685.656 853.707,685.352C853.404,685.049 853.252,684.682 853.252,684.25L853.252,681.684C853.252,681.25 853.404,680.883 853.707,680.58C854.012,680.275 854.379,680.123 854.811,680.123L859.705,680.123C860.137,680.123 860.504,680.275 860.808,680.58C861.111,680.883 861.264,681.25 861.264,681.684L861.264,684.25C861.264,684.682 861.111,685.049 860.808,685.352" style="fill:rgb(168,168,170);fill-rule:nonzero;"/>
        <path d="M842.991,632.973C842.713,633.325 842.325,633.559 841.828,633.68C841.708,633.711 841.568,633.727 841.409,633.727L835.999,633.727C835.88,633.727 835.776,633.684 835.688,633.594C835.599,633.508 835.555,633.403 835.555,633.282C835.555,633.106 835.616,632.983 835.735,632.909L841.577,629.627C841.72,629.547 841.792,629.42 841.792,629.243C841.792,629.116 841.749,628.993 841.661,628.883C841.573,628.762 841.472,628.702 841.36,628.702L838.47,628.702C838.159,628.702 837.858,628.754 837.571,628.858C837.243,628.977 837.007,629.141 836.863,629.35C836.743,629.518 836.611,629.602 836.468,629.602C836.339,629.602 836.231,629.559 836.143,629.469C836.055,629.381 836.012,629.274 836.012,629.147C836.012,629.075 836.059,628.971 836.155,628.834C836.548,628.33 837.102,628.077 837.823,628.077L841.6,628.077C841.901,628.077 842.155,628.174 842.36,628.368C842.573,628.575 842.68,628.823 842.68,629.11C842.68,629.518 842.495,629.83 842.124,630.045L837.726,632.516C837.623,632.573 837.571,632.659 837.571,632.78C837.571,632.996 837.679,633.104 837.894,633.104L840.665,633.104C840.953,633.104 841.253,633.047 841.565,632.936C841.897,632.817 842.136,632.653 842.278,632.444C842.387,632.284 842.518,632.203 842.668,632.203C842.788,632.203 842.895,632.243 842.991,632.325C843.079,632.411 843.124,632.52 843.124,632.649C843.124,632.752 843.079,632.86 842.991,632.973" style="fill:rgb(168,168,170);fill-rule:nonzero;"/>
        <path d="M852.659,629.881C852.659,629.545 852.542,629.26 852.31,629.026C852.071,628.785 851.782,628.666 851.447,628.666L847.634,628.666C847.298,628.666 847.013,628.781 846.782,629.014C846.542,629.256 846.422,629.545 846.422,629.881L846.422,631.877C846.422,632.213 846.546,632.502 846.794,632.742C847.042,632.983 847.333,633.104 847.669,633.104L851.411,633.104C851.739,633.104 852.03,632.988 852.286,632.756C852.534,632.514 852.659,632.227 852.659,631.889L852.659,629.881ZM853.091,633.272C852.786,633.576 852.419,633.727 851.987,633.727L847.093,633.727C846.661,633.727 846.294,633.576 845.99,633.272C845.686,632.967 845.534,632.6 845.534,632.168L845.534,629.602C845.534,629.17 845.686,628.803 845.99,628.498C846.294,628.194 846.661,628.043 847.093,628.043L851.987,628.043C852.419,628.043 852.786,628.194 853.091,628.498C853.393,628.803 853.546,629.17 853.546,629.602L853.546,632.168C853.546,632.6 853.393,632.967 853.091,633.272" style="fill:rgb(168,168,170);fill-rule:nonzero;"/>
        <path d="M863.069,629.881C863.069,629.545 862.952,629.26 862.72,629.026C862.481,628.785 862.192,628.666 861.857,628.666L858.043,628.666C857.708,628.666 857.423,628.781 857.192,629.014C856.952,629.256 856.832,629.545 856.832,629.881L856.832,631.877C856.832,632.213 856.956,632.502 857.204,632.742C857.452,632.983 857.743,633.104 858.079,633.104L861.821,633.104C862.149,633.104 862.44,632.988 862.696,632.756C862.944,632.514 863.069,632.227 863.069,631.889L863.069,629.881ZM863.501,633.272C863.196,633.576 862.829,633.727 862.397,633.727L857.503,633.727C857.071,633.727 856.704,633.576 856.4,633.272C856.096,632.967 855.944,632.6 855.944,632.168L855.944,629.602C855.944,629.17 856.096,628.803 856.4,628.498C856.704,628.194 857.071,628.043 857.503,628.043L862.397,628.043C862.829,628.043 863.196,628.194 863.501,628.498C863.803,628.803 863.956,629.17 863.956,629.602L863.956,632.168C863.956,632.6 863.803,632.967 863.501,633.272" style="fill:rgb(168,168,170);fill-rule:nonzero;"/>
        <path d="M842.681,572.83C842.376,573.135 842.013,573.287 841.589,573.287L837.367,573.287C836.64,573.287 836.079,573.035 835.689,572.531C835.6,572.418 835.556,572.31 835.556,572.207C835.556,571.912 835.704,571.764 835.999,571.764C836.152,571.764 836.288,571.848 836.408,572.016C836.712,572.437 837.244,572.65 838.003,572.65L841.337,572.664C841.585,572.664 841.796,572.574 841.973,572.398C842.157,572.215 842.249,571.996 842.249,571.74C842.249,571.508 842.16,571.295 841.985,571.103C841.8,570.92 841.581,570.828 841.326,570.828L840.018,570.828C839.89,570.828 839.783,570.797 839.695,570.73C839.598,570.66 839.55,570.572 839.55,570.469C839.55,570.365 839.594,570.281 839.682,570.217C839.778,570.142 839.89,570.107 840.018,570.107L840.785,570.107C841.035,570.107 841.249,570.016 841.433,569.832C841.617,569.648 841.708,569.432 841.708,569.184C841.708,568.953 841.62,568.742 841.445,568.549C841.261,568.365 841.041,568.271 840.785,568.271L838.003,568.271C837.691,568.271 837.396,568.326 837.115,568.428C836.787,568.549 836.552,568.713 836.408,568.92C836.288,569.088 836.152,569.172 835.999,569.172C835.88,569.172 835.777,569.129 835.689,569.041C835.6,568.953 835.556,568.846 835.556,568.717C835.556,568.621 835.6,568.518 835.689,568.404C836.079,567.9 836.636,567.648 837.355,567.648L841.037,567.648C841.477,567.648 841.845,567.797 842.141,568.094C842.445,568.396 842.597,568.756 842.597,569.172C842.597,569.435 842.517,569.705 842.357,569.976C842.325,570.033 842.308,570.1 842.308,570.18C842.308,570.309 842.365,570.408 842.476,570.48C842.916,570.775 843.136,571.195 843.136,571.74C843.136,572.164 842.984,572.525 842.681,572.83" style="fill:rgb(168,168,170);fill-rule:nonzero;"/>
        <path d="M852.659,569.44C852.659,569.103 852.542,568.819 852.31,568.585C852.071,568.345 851.782,568.224 851.447,568.224L847.634,568.224C847.298,568.224 847.013,568.339 846.782,568.575C846.542,568.815 846.422,569.103 846.422,569.44L846.422,571.435C846.422,571.773 846.546,572.063 846.794,572.301C847.042,572.544 847.333,572.662 847.669,572.662L851.411,572.662C851.739,572.662 852.03,572.546 852.286,572.315C852.534,572.075 852.659,571.786 852.659,571.448L852.659,569.44ZM853.091,572.83C852.786,573.135 852.419,573.287 851.987,573.287L847.093,573.287C846.661,573.287 846.294,573.135 845.99,572.83C845.686,572.527 845.534,572.159 845.534,571.727L845.534,569.161C845.534,568.728 845.686,568.362 845.99,568.059C846.294,567.752 846.661,567.602 847.093,567.602L851.987,567.602C852.419,567.602 852.786,567.752 853.091,568.059C853.393,568.362 853.546,568.728 853.546,569.161L853.546,571.727C853.546,572.159 853.393,572.527 853.091,572.83" style="fill:rgb(168,168,170);fill-rule:nonzero;"/>
        <path d="M863.069,569.44C863.069,569.103 862.952,568.819 862.72,568.585C862.481,568.345 862.192,568.224 861.857,568.224L858.043,568.224C857.708,568.224 857.423,568.339 857.192,568.575C856.952,568.815 856.832,569.103 856.832,569.44L856.832,571.435C856.832,571.773 856.956,572.063 857.204,572.301C857.452,572.544 857.743,572.662 858.079,572.662L861.821,572.662C862.149,572.662 862.44,572.546 862.696,572.315C862.944,572.075 863.069,571.786 863.069,571.448L863.069,569.44ZM863.501,572.83C863.196,573.135 862.829,573.287 862.397,573.287L857.503,573.287C857.071,573.287 856.704,573.135 856.4,572.83C856.096,572.527 855.944,572.159 855.944,571.727L855.944,569.161C855.944,568.728 856.096,568.362 856.4,568.059C856.704,567.752 857.071,567.602 857.503,567.602L862.397,567.602C862.829,567.602 863.196,567.752 863.501,568.059C863.803,568.362 863.956,568.728 863.956,569.161L863.956,571.727C863.956,572.159 863.803,572.527 863.501,572.83" style="fill:rgb(168,168,170);fill-rule:nonzero;"/>
        <path d="M841.248,507.613C841.248,507.404 841.142,507.301 840.925,507.301C840.86,507.301 840.81,507.316 840.769,507.347L837.23,509.648C837.127,509.72 837.074,509.814 837.074,509.926C837.074,510.133 837.183,510.238 837.398,510.238L840.925,510.238C841.142,510.238 841.248,510.131 841.248,509.912L841.248,507.613ZM843.646,510.838L842.472,510.838C842.248,510.838 842.137,510.941 842.137,511.15L842.137,511.822C842.137,512.117 841.988,512.265 841.691,512.265C841.396,512.265 841.248,512.121 841.248,511.834L841.248,511.162C841.248,510.947 841.142,510.838 840.925,510.838L835.312,510.838C835.232,510.838 835.164,510.808 835.107,510.754C835.101,510.746 835.092,510.738 835.084,510.73C835.076,510.722 835.068,510.711 835.061,510.695C834.956,510.527 834.98,510.388 835.132,510.287L840.709,506.676C840.748,506.644 840.805,506.629 840.877,506.629L841.691,506.629C841.988,506.629 842.137,506.773 842.137,507.06L842.137,509.902C842.137,510.127 842.244,510.238 842.46,510.238L843.635,510.238C843.835,510.238 843.936,510.338 843.936,510.539C843.936,510.738 843.839,510.838 843.646,510.838" style="fill:rgb(168,168,170);fill-rule:nonzero;"/>
        <path d="M853.218,508.418C853.218,508.082 853.102,507.797 852.87,507.564C852.63,507.324 852.342,507.203 852.006,507.203L848.193,507.203C847.858,507.203 847.572,507.32 847.341,507.553C847.102,507.793 846.981,508.082 846.981,508.418L846.981,510.414C846.981,510.752 847.106,511.041 847.354,511.281C847.601,511.522 847.893,511.643 848.229,511.643L851.971,511.643C852.298,511.643 852.59,511.525 852.846,511.293C853.094,511.053 853.218,510.764 853.218,510.426L853.218,508.418ZM853.65,511.811C853.346,512.113 852.979,512.266 852.547,512.266L847.653,512.266C847.221,512.266 846.854,512.113 846.549,511.811C846.246,511.506 846.094,511.139 846.094,510.705L846.094,508.141C846.094,507.707 846.246,507.34 846.549,507.037C846.854,506.732 847.221,506.58 847.653,506.58L852.547,506.58C852.979,506.58 853.346,506.732 853.65,507.037C853.953,507.34 854.106,507.707 854.106,508.141L854.106,510.705C854.106,511.139 853.953,511.506 853.65,511.811" style="fill:rgb(168,168,170);fill-rule:nonzero;"/>
        <path d="M863.628,508.418C863.628,508.082 863.512,507.797 863.279,507.564C863.04,507.324 862.752,507.203 862.416,507.203L858.603,507.203C858.268,507.203 857.982,507.32 857.751,507.553C857.512,507.793 857.391,508.082 857.391,508.418L857.391,510.414C857.391,510.752 857.516,511.041 857.764,511.281C858.011,511.522 858.303,511.643 858.639,511.643L862.381,511.643C862.708,511.643 863,511.525 863.256,511.293C863.504,511.053 863.628,510.764 863.628,510.426L863.628,508.418ZM864.06,511.811C863.756,512.113 863.389,512.266 862.957,512.266L858.063,512.266C857.631,512.266 857.264,512.113 856.959,511.811C856.656,511.506 856.504,511.139 856.504,510.705L856.504,508.141C856.504,507.707 856.656,507.34 856.959,507.037C857.264,506.732 857.631,506.58 858.063,506.58L862.957,506.58C863.389,506.58 863.756,506.732 864.06,507.037C864.363,507.34 864.516,507.707 864.516,508.141L864.516,510.705C864.516,511.139 864.363,511.506 864.06,511.811" style="fill:rgb(168,168,170);fill-rule:nonzero;"/>
        <path d="M842.846,448.862C842.498,449.196 842.092,449.363 841.629,449.363L837.143,449.363C836.424,449.363 835.867,449.116 835.477,448.62C835.389,448.508 835.344,448.401 835.344,448.297C835.344,448.002 835.492,447.852 835.787,447.852C835.932,447.852 836.065,447.936 836.184,448.104C836.321,448.304 836.555,448.465 836.891,448.584C837.172,448.688 837.471,448.74 837.791,448.74L841.377,448.74C841.672,448.74 841.924,448.634 842.133,448.425C842.348,448.211 842.457,447.948 842.457,447.642C842.457,447.338 842.352,447.08 842.145,446.87C841.928,446.654 841.668,446.545 841.367,446.545L835.787,446.545C835.66,446.545 835.549,446.498 835.45,446.402C835.356,446.304 835.321,446.205 835.344,446.101L835.776,444.17C835.848,443.867 836,443.715 836.233,443.715L842.026,443.715C842.242,443.715 842.348,443.822 842.348,444.039C842.348,444.248 842.242,444.349 842.026,444.349L836.963,444.362C836.715,444.362 836.563,444.511 836.508,444.808L836.364,445.474C836.34,445.58 836.375,445.679 836.471,445.777C836.569,445.873 836.68,445.922 836.807,445.922L841.629,445.922C842.1,445.922 842.502,446.09 842.834,446.424C843.174,446.758 843.344,447.164 843.344,447.642C843.344,448.121 843.178,448.527 842.846,448.862" style="fill:rgb(168,168,170);fill-rule:nonzero;"/>
        <path d="M852.879,445.518C852.879,445.182 852.762,444.897 852.531,444.664C852.291,444.424 852.002,444.303 851.666,444.303L847.854,444.303C847.518,444.303 847.233,444.419 847.002,444.652C846.762,444.893 846.641,445.182 846.641,445.518L846.641,447.514C846.641,447.85 846.766,448.139 847.014,448.379C847.262,448.621 847.553,448.741 847.889,448.741L851.631,448.741C851.959,448.741 852.25,448.624 852.506,448.393C852.754,448.152 852.879,447.864 852.879,447.527L852.879,445.518ZM853.311,448.909C853.006,449.213 852.639,449.365 852.207,449.365L847.313,449.365C846.881,449.365 846.514,449.213 846.209,448.909C845.906,448.604 845.754,448.238 845.754,447.805L845.754,445.239C845.754,444.807 845.906,444.438 846.209,444.135C846.514,443.831 846.881,443.68 847.313,443.68L852.207,443.68C852.639,443.68 853.006,443.831 853.311,444.135C853.613,444.438 853.766,444.807 853.766,445.239L853.766,447.805C853.766,448.238 853.613,448.604 853.311,448.909" style="fill:rgb(168,168,170);fill-rule:nonzero;"/>
        <path d="M863.289,445.518C863.289,445.182 863.172,444.897 862.941,444.664C862.701,444.424 862.412,444.303 862.076,444.303L858.264,444.303C857.928,444.303 857.643,444.419 857.412,444.652C857.172,444.893 857.051,445.182 857.051,445.518L857.051,447.514C857.051,447.85 857.176,448.139 857.424,448.379C857.672,448.621 857.963,448.741 858.299,448.741L862.041,448.741C862.369,448.741 862.66,448.624 862.916,448.393C863.164,448.152 863.289,447.864 863.289,447.527L863.289,445.518ZM863.721,448.909C863.416,449.213 863.049,449.365 862.617,449.365L857.723,449.365C857.291,449.365 856.924,449.213 856.619,448.909C856.316,448.604 856.164,448.238 856.164,447.805L856.164,445.239C856.164,444.807 856.316,444.438 856.619,444.135C856.924,443.831 857.291,443.68 857.723,443.68L862.617,443.68C863.049,443.68 863.416,443.831 863.721,444.135C864.023,444.438 864.176,444.807 864.176,445.239L864.176,447.805C864.176,448.238 864.023,448.604 863.721,448.909" style="fill:rgb(168,168,170);fill-rule:nonzero;"/>
        <rect x="828.058" y="434.127" width="0.932" height="249.355" style="fill:rgb(168,168,170);"/>
        <path d="M806.935,247.585C806.657,247.937 806.268,248.171 805.772,248.292C805.652,248.323 805.512,248.339 805.352,248.339L799.943,248.339C799.823,248.339 799.719,248.296 799.631,248.208C799.543,248.12 799.499,248.016 799.499,247.895C799.499,247.719 799.559,247.595 799.679,247.522L805.52,244.241C805.664,244.161 805.736,244.031 805.736,243.856C805.736,243.728 805.692,243.606 805.604,243.495C805.516,243.374 805.416,243.314 805.304,243.314L802.414,243.314C802.102,243.314 801.802,243.366 801.514,243.471C801.186,243.589 800.951,243.753 800.807,243.962C800.687,244.13 800.555,244.214 800.411,244.214C800.283,244.214 800.174,244.171 800.086,244.083C799.998,243.995 799.956,243.887 799.956,243.759C799.956,243.687 800.003,243.583 800.099,243.446C800.491,242.942 801.046,242.69 801.766,242.69L805.543,242.69C805.845,242.69 806.098,242.786 806.303,242.98C806.517,243.187 806.623,243.435 806.623,243.723C806.623,244.13 806.438,244.441 806.067,244.657L801.67,247.128C801.567,247.185 801.514,247.273 801.514,247.393C801.514,247.608 801.623,247.716 801.838,247.716L804.608,247.716C804.897,247.716 805.196,247.661 805.508,247.548C805.841,247.429 806.079,247.265 806.221,247.057C806.331,246.897 806.461,246.816 806.612,246.816C806.731,246.816 806.839,246.856 806.935,246.937C807.023,247.024 807.067,247.132 807.067,247.261C807.067,247.364 807.023,247.473 806.935,247.585" style="fill:rgb(168,168,170);fill-rule:nonzero;"/>
        <path d="M814.513,245.797C814.298,245.58 814.037,245.471 813.734,245.471L809.512,245.471C809.273,245.471 809.056,245.56 808.865,245.737C808.681,245.922 808.589,246.139 808.589,246.388L808.589,246.46C808.589,246.806 808.708,247.091 808.949,247.317C809.197,247.557 809.488,247.678 809.826,247.678L813.734,247.678C814.03,247.678 814.286,247.57 814.501,247.353C814.718,247.136 814.825,246.875 814.825,246.569C814.825,246.263 814.722,246.006 814.513,245.797M815.209,247.788C814.873,248.13 814.466,248.302 813.986,248.302L809.248,248.302C808.817,248.302 808.449,248.15 808.145,247.846C807.841,247.526 807.689,247.155 807.689,246.731L808.133,244.212C808.309,243.173 808.828,242.653 809.693,242.653L814.382,242.653C814.589,242.653 814.694,242.755 814.694,242.959C814.694,243.171 814.589,243.277 814.382,243.277L810.232,243.277C809.56,243.277 809.159,243.667 809.033,244.446C809.025,244.454 809.021,244.483 809.021,244.531C809.021,244.742 809.132,244.848 809.357,244.848L813.974,244.848C814.453,244.848 814.861,245.015 815.198,245.35C815.54,245.684 815.712,246.091 815.712,246.569C815.712,247.047 815.544,247.454 815.209,247.788" style="fill:rgb(168,168,170);fill-rule:nonzero;"/>
        <rect x="828.058" y="239.857" width="0.932" height="10.8" style="fill:rgb(168,168,170);"/>
        <path d="M843.249,243.365L839.839,247.721C839.751,247.831 839.641,247.886 839.509,247.886C839.398,247.886 839.304,247.846 839.223,247.765C839.142,247.685 839.102,247.586 839.102,247.469C839.102,247.381 839.132,247.301 839.191,247.227L841.897,243.752C841.94,243.693 841.962,243.634 841.962,243.575C841.962,243.384 841.866,243.288 841.676,243.288L838.211,243.288C837.925,243.288 837.649,243.336 837.386,243.431C837.085,243.541 836.868,243.692 836.736,243.882C836.634,244.029 836.513,244.102 836.374,244.102C836.264,244.102 836.169,244.062 836.088,243.981C836.007,243.901 835.967,243.805 835.967,243.695C835.967,243.6 836.007,243.501 836.088,243.398C836.446,242.936 836.957,242.705 837.616,242.705L842.919,242.705C843.028,242.705 843.126,242.745 843.21,242.826C843.295,242.907 843.337,243.006 843.337,243.123C843.337,243.211 843.308,243.292 843.249,243.365" style="fill:rgb(168,168,170);fill-rule:nonzero;"/>
        <path d="M850.847,245.718C850.632,245.501 850.371,245.392 850.068,245.392L845.846,245.392C845.607,245.392 845.39,245.481 845.199,245.658C845.015,245.843 844.923,246.06 844.923,246.309L844.923,246.381C844.923,246.727 845.042,247.012 845.283,247.238C845.531,247.478 845.822,247.599 846.16,247.599L850.068,247.599C850.364,247.599 850.62,247.491 850.835,247.274C851.052,247.057 851.159,246.796 851.159,246.49C851.159,246.184 851.056,245.927 850.847,245.718M851.543,247.709C851.207,248.051 850.8,248.223 850.32,248.223L845.582,248.223C845.151,248.223 844.783,248.071 844.479,247.767C844.175,247.447 844.023,247.076 844.023,246.652L844.467,244.133C844.643,243.094 845.162,242.574 846.027,242.574L850.716,242.574C850.923,242.574 851.028,242.676 851.028,242.88C851.028,243.092 850.923,243.198 850.716,243.198L846.566,243.198C845.894,243.198 845.493,243.588 845.367,244.367C845.359,244.375 845.355,244.404 845.355,244.452C845.355,244.663 845.466,244.769 845.691,244.769L850.308,244.769C850.787,244.769 851.195,244.936 851.532,245.271C851.874,245.605 852.046,246.012 852.046,246.49C852.046,246.968 851.878,247.375 851.543,247.709" style="fill:rgb(168,168,170);fill-rule:nonzero;"/>
        <path d="M860.289,244.381C860.289,244.045 860.172,243.76 859.941,243.527C859.701,243.287 859.412,243.167 859.076,243.167L855.264,243.167C854.928,243.167 854.643,243.283 854.412,243.515C854.172,243.756 854.051,244.045 854.051,244.381L854.051,246.377C854.051,246.714 854.176,247.003 854.424,247.243C854.672,247.484 854.963,247.604 855.299,247.604L859.041,247.604C859.369,247.604 859.66,247.488 859.916,247.256C860.164,247.015 860.289,246.727 860.289,246.39L860.289,244.381ZM860.721,247.772C860.416,248.076 860.049,248.228 859.617,248.228L854.723,248.228C854.291,248.228 853.924,248.076 853.619,247.772C853.316,247.468 853.164,247.101 853.164,246.669L853.164,244.102C853.164,243.67 853.316,243.302 853.619,242.999C853.924,242.695 854.291,242.543 854.723,242.543L859.617,242.543C860.049,242.543 860.416,242.695 860.721,242.999C861.023,243.302 861.176,243.67 861.176,244.102L861.176,246.669C861.176,247.101 861.023,247.468 860.721,247.772" style="fill:rgb(168,168,170);fill-rule:nonzero;"/>
        <path d="M608.596,699.637L612.059,699.637C612.31,699.637 612.558,699.682 612.798,699.77C613.023,699.854 613.181,699.959 613.271,700.084C613.665,700.631 614.312,700.662 614.71,700.265C614.89,700.085 614.981,699.866 614.981,699.614C614.981,699.407 614.903,699.202 614.748,699.005C614.26,698.376 613.568,698.057 612.69,698.057L608.035,698.057C607.474,698.057 606.99,698.255 606.597,698.646C606.206,699.036 606.008,699.52 606.008,700.082C606.008,700.646 606.209,701.13 606.606,701.52C607,701.909 607.486,702.108 608.047,702.108L612.367,702.108C613.137,702.108 613.137,702.434 613.137,702.59C613.137,702.746 613.137,703.073 612.403,703.073L608.922,703.073C608.676,703.073 608.426,703.027 608.18,702.938C607.957,702.856 607.799,702.75 607.709,702.624C607.448,702.26 607.141,702.184 606.93,702.184C606.681,702.184 606.456,702.279 606.283,702.455C606.103,702.631 606.008,702.857 606.008,703.106C606.008,703.314 606.086,703.519 606.24,703.716C606.721,704.337 607.409,704.653 608.287,704.653L612.942,704.653C613.505,704.653 613.992,704.448 614.388,704.042C614.782,703.64 614.981,703.152 614.981,702.59C614.981,702.029 614.782,701.54 614.388,701.138C613.992,700.733 613.507,700.528 612.946,700.528L608.621,700.528C607.852,700.528 607.852,700.215 607.852,700.082C607.852,699.938 607.852,699.637 608.596,699.637" style="fill:rgb(168,168,170);fill-rule:nonzero;"/>
        <path d="M624.008,700.262C624.008,700.434 623.948,700.576 623.827,700.697C623.702,700.818 623.558,700.877 623.385,700.877L619.168,700.877C619.044,700.877 618.945,700.835 618.855,700.747C618.767,700.659 618.725,700.558 618.725,700.436L618.725,700.078C618.725,699.953 618.765,699.852 618.851,699.762C618.935,699.677 619.031,699.637 619.156,699.637L623.397,699.637C623.568,699.637 623.709,699.697 623.828,699.819C623.949,699.944 624.008,700.089 624.008,700.262M623.658,698.057L617.803,698.057C617.553,698.057 617.334,698.148 617.15,698.328C616.972,698.51 616.881,698.729 616.881,698.979L616.881,703.731C616.881,703.979 616.975,704.203 617.152,704.38C617.332,704.561 617.552,704.653 617.803,704.653C618.054,704.653 618.274,704.561 618.454,704.38C618.631,704.203 618.725,703.979 618.725,703.731L618.725,702.903C618.725,702.776 618.765,702.674 618.851,702.584C618.936,702.497 619.033,702.457 619.158,702.457L623.658,702.457C624.259,702.457 624.781,702.239 625.212,701.807C625.636,701.375 625.852,700.852 625.852,700.25C625.852,699.648 625.636,699.126 625.21,698.7C624.783,698.274 624.261,698.057 623.658,698.057" style="fill:rgb(168,168,170);fill-rule:nonzero;"/>
        <path d="M635.481,700.322L635.481,702.326C635.481,702.529 635.406,702.699 635.25,702.847C635.095,702.999 634.919,703.072 634.711,703.072L630.067,703.072C629.86,703.072 629.683,702.999 629.525,702.846C629.373,702.699 629.297,702.529 629.297,702.326L629.297,700.322C629.297,700.118 629.369,699.949 629.515,699.805C629.668,699.657 629.834,699.588 630.042,699.588L634.747,699.588C634.952,699.588 635.121,699.658 635.266,699.804C635.411,699.948 635.481,700.117 635.481,700.322M635.288,698.008L629.491,698.008C628.928,698.008 628.443,698.208 628.048,698.602C627.654,698.997 627.454,699.483 627.454,700.047L627.454,702.613C627.454,703.176 627.656,703.661 628.055,704.058C628.454,704.452 628.94,704.652 629.501,704.652L635.288,704.652C635.85,704.652 636.335,704.452 636.73,704.057C637.125,703.66 637.325,703.175 637.325,702.613L637.325,700.047C637.325,699.485 637.125,699 636.73,698.602C636.335,698.208 635.85,698.008 635.288,698.008" style="fill:rgb(168,168,170);fill-rule:nonzero;"/>
        <path d="M646.352,700.262C646.352,700.434 646.292,700.576 646.171,700.697C646.046,700.818 645.902,700.877 645.729,700.877L641.512,700.877C641.388,700.877 641.289,700.835 641.199,700.747C641.111,700.659 641.069,700.558 641.069,700.436L641.069,700.078C641.069,699.953 641.109,699.852 641.195,699.762C641.279,699.677 641.375,699.637 641.5,699.637L645.741,699.637C645.912,699.637 646.053,699.697 646.172,699.819C646.293,699.944 646.352,700.089 646.352,700.262M647.866,701.42C648.084,701.066 648.196,700.672 648.196,700.25C648.196,699.648 647.98,699.126 647.554,698.7C647.127,698.274 646.605,698.057 646.002,698.057L640.147,698.057C639.897,698.057 639.678,698.148 639.494,698.328C639.316,698.51 639.225,698.729 639.225,698.979L639.225,703.741C639.225,703.993 639.316,704.212 639.496,704.392C639.857,704.753 640.435,704.754 640.8,704.391C640.978,704.209 641.069,703.99 641.069,703.739L641.069,702.907C641.069,702.779 641.109,702.676 641.195,702.586C641.281,702.498 641.378,702.457 641.502,702.457L644.383,702.457C644.545,702.457 644.677,702.511 644.798,702.625L646.646,704.407C646.827,704.577 647.033,704.664 647.256,704.664C647.507,704.664 647.73,704.569 647.915,704.38C648.101,704.195 648.196,703.972 648.196,703.719C648.196,703.474 648.103,703.257 647.917,703.072L647.027,702.201C647.374,702.021 647.656,701.758 647.866,701.42" style="fill:rgb(168,168,170);fill-rule:nonzero;"/>
        <path d="M658.025,698.057L650.177,698.057C649.956,698.057 649.766,698.135 649.62,698.285C649.465,698.435 649.388,698.624 649.388,698.846C649.388,699.066 649.468,699.261 649.618,699.408C649.77,699.56 649.958,699.637 650.177,699.637L653.168,699.638L653.168,703.741C653.168,703.994 653.262,704.214 653.451,704.395C653.635,704.566 653.854,704.653 654.101,704.653C654.354,704.653 654.573,704.56 654.749,704.377C654.921,704.201 655.011,703.977 655.011,703.731L655.012,699.637L658.025,699.637C658.243,699.637 658.436,699.558 658.587,699.408C658.737,699.257 658.816,699.063 658.816,698.846C658.816,698.63 658.737,698.437 658.588,698.288C658.44,698.137 658.245,698.057 658.025,698.057" style="fill:rgb(168,168,170);fill-rule:nonzero;"/>
        <path d="M670.018,698.043L669.797,698.043C669.593,698.043 669.378,698.161 669.139,698.406L665.437,702.235L661.709,698.33C661.516,698.14 661.308,698.043 661.09,698.043L660.829,698.043C660.63,698.043 660.452,698.118 660.318,698.255C660.173,698.395 660.096,698.573 660.096,698.772L660.096,703.922C660.096,704.119 660.169,704.292 660.316,704.439C660.605,704.722 661.06,704.726 661.353,704.437C661.496,704.294 661.571,704.111 661.571,703.908L661.549,699.984C661.558,699.984 661.58,699.995 661.609,700.023L664.818,703.403C665.164,703.771 665.724,703.756 666.064,703.392L669.242,700.057C669.254,700.043 669.265,700.033 669.274,700.026L669.274,703.922C669.274,704.116 669.349,704.294 669.494,704.439C669.638,704.58 669.813,704.652 670.012,704.652C670.21,704.652 670.39,704.578 670.529,704.439C670.673,704.298 670.748,704.114 670.748,703.908L670.748,698.76C670.748,698.311 670.476,698.043 670.018,698.043" style="fill:rgb(168,168,170);fill-rule:nonzero;"/>
        <path d="M673.592,698.043C673.386,698.043 673.203,698.118 673.066,698.259C672.921,698.403 672.848,698.576 672.848,698.773L672.848,703.934C672.848,704.13 672.925,704.307 673.068,704.444C673.206,704.58 673.388,704.652 673.592,704.652C673.79,704.652 673.969,704.577 674.107,704.437C674.249,704.294 674.324,704.116 674.324,703.922L674.324,698.76C674.324,698.311 674.05,698.043 673.592,698.043" style="fill:rgb(168,168,170);fill-rule:nonzero;"/>
        <path d="M685.297,699.256C685.441,699.163 685.633,699.016 685.633,698.799C685.633,698.667 685.589,698.474 685.377,698.305C685.107,698.089 684.821,698.044 684.489,698.239L681.756,700.076C681.359,700.352 680.776,700.375 680.335,700.087L677.55,698.237C677.283,698.066 676.945,698.079 676.673,698.307C676.467,698.474 676.424,698.659 676.424,698.785C676.424,699.035 676.661,699.199 676.743,699.255L679.412,701.026C679.554,701.115 679.614,701.236 679.608,701.426C679.608,701.677 679.509,701.774 679.423,701.831L676.741,703.61C676.605,703.701 676.424,703.848 676.424,704.059C676.424,704.191 676.469,704.383 676.683,704.551C676.949,704.76 677.243,704.798 677.552,704.624L680.296,702.805C680.759,702.499 681.276,702.493 681.722,702.791L684.504,704.619C684.632,704.693 684.767,704.731 684.902,704.731C685.076,704.731 685.239,704.666 685.384,704.543C685.59,704.376 685.633,704.191 685.633,704.065C685.633,703.809 685.38,703.647 685.3,703.595L682.651,701.837C682.504,701.739 682.436,701.613 682.436,701.446C682.441,701.261 682.507,701.131 682.64,701.04L685.297,699.256Z" style="fill:rgb(168,168,170);fill-rule:nonzero;"/>
        <path d="M689.945,699.231L693.539,699.231C693.844,699.231 694.143,699.283 694.427,699.384C694.731,699.493 694.948,699.638 695.075,699.822C695.404,700.273 695.917,700.287 696.217,699.98C696.36,699.84 696.435,699.659 696.435,699.454C696.435,699.293 696.37,699.127 696.241,698.965C695.77,698.354 695.095,698.044 694.235,698.044L688.465,698.055C688.269,698.055 688.091,698.129 687.95,698.271C687.807,698.414 687.732,698.591 687.732,698.786L687.732,703.936C687.732,704.385 688.007,704.653 688.465,704.653L694.236,704.653C695.093,704.653 695.768,704.345 696.24,703.738C696.372,703.569 696.435,703.408 696.435,703.245C696.435,703.042 696.36,702.86 696.221,702.72C695.913,702.404 695.403,702.419 695.071,702.883C694.949,703.061 694.743,703.206 694.46,703.31C694.155,703.421 693.849,703.477 693.552,703.477L689.957,703.477C689.747,703.477 689.573,703.407 689.424,703.26C689.279,703.12 689.209,702.95 689.209,702.739C689.209,702.526 689.278,702.351 689.424,702.204C689.565,702.058 689.735,701.987 689.943,701.987L693.705,701.987C693.899,701.987 694.071,701.929 694.212,701.818C694.418,701.662 694.461,701.476 694.461,701.348C694.461,701.222 694.419,701.038 694.215,700.878C694.071,700.765 693.899,700.708 693.705,700.708L689.957,700.708C689.746,700.708 689.571,700.638 689.424,700.495C689.279,700.354 689.209,700.185 689.209,699.977C689.209,699.765 689.278,699.592 689.423,699.447C689.565,699.301 689.735,699.231 689.945,699.231" style="fill:rgb(168,168,170);fill-rule:nonzero;"/>
        <path d="M706.258,700.17C706.258,700.43 706.169,700.646 705.987,700.827C705.806,701.009 705.59,701.098 705.328,701.098L700.76,701.098C700.55,701.098 700.376,701.027 700.227,700.883C700.082,700.742 700.012,700.573 700.012,700.365L700.012,699.977C700.012,699.767 700.081,699.593 700.226,699.446C700.368,699.301 700.538,699.231 700.748,699.231L705.34,699.231C705.6,699.231 705.813,699.32 705.991,699.505C706.171,699.689 706.258,699.906 706.258,700.17M706.555,702.056C707.337,701.666 707.733,701.028 707.733,700.16C707.733,699.574 707.525,699.069 707.113,698.658C706.7,698.25 706.196,698.043 705.612,698.043L699.268,698.043C699.07,698.043 698.891,698.118 698.753,698.259C698.611,698.401 698.535,698.583 698.535,698.785L698.535,703.934C698.535,704.133 698.612,704.312 698.755,704.448C699.04,704.733 699.511,704.73 699.788,704.452C699.935,704.312 700.012,704.133 700.012,703.934L700.012,703.037C700.012,702.825 700.083,702.651 700.23,702.505C700.378,702.358 700.546,702.285 700.746,702.285L703.846,702.285C704.1,702.285 704.31,702.369 704.489,702.542L706.489,704.464C706.624,704.596 706.8,704.666 706.994,704.666C707.193,704.666 707.366,704.594 707.513,704.45C707.656,704.31 707.733,704.127 707.733,703.922C707.733,703.712 707.65,703.526 707.499,703.39L706.503,702.435C706.429,702.36 706.42,702.299 706.42,702.26C706.42,702.18 706.445,702.114 706.555,702.056" style="fill:rgb(168,168,170);fill-rule:nonzero;"/>
        <path d="M712.981,698.082L709.168,698.082C708.929,698.082 708.768,698.246 708.768,698.49C708.768,698.729 708.929,698.891 709.168,698.891L710.61,698.855L710.61,700.863C710.61,701.143 710.794,701.322 711.079,701.322C711.205,701.322 711.318,701.274 711.404,701.188C711.498,701.099 711.547,700.984 711.547,700.857L711.518,698.891L712.983,698.891C713.226,698.891 713.389,698.729 713.389,698.49C713.389,698.246 713.225,698.082 712.981,698.082" style="fill:rgb(168,168,170);fill-rule:nonzero;"/>
        <path d="M718.293,698.082L718.193,698.082C718.023,698.082 717.889,698.197 717.799,698.287L716.239,699.901L714.663,698.25C714.548,698.139 714.422,698.082 714.289,698.082L714.172,698.082C714.046,698.082 713.933,698.13 713.843,698.22C713.753,698.31 713.705,698.423 713.705,698.547L713.705,700.857C713.705,700.981 713.753,701.095 713.843,701.185C714.021,701.363 714.327,701.359 714.499,701.188C714.593,701.099 714.643,700.981 714.643,700.85L714.643,699.437L715.858,700.718C716.067,700.94 716.423,700.931 716.618,700.714L717.82,699.453L717.82,700.855C717.82,700.983 717.87,701.099 717.96,701.185C718.05,701.274 718.164,701.322 718.289,701.322C718.413,701.322 718.531,701.273 718.62,701.185C718.71,701.095 718.758,700.979 718.758,700.852L718.758,698.541C718.758,698.262 718.575,698.082 718.293,698.082" style="fill:rgb(168,168,170);fill-rule:nonzero;"/>
        <path d="M268.487,704.896L265.827,704.896L265.827,701.786L268.503,701.786C269.68,701.786 270.335,702.265 270.335,703.303C270.335,704.338 269.618,704.896 268.487,704.896M265.827,697.137L268.231,697.137C269.299,697.137 270.014,697.551 270.014,698.54C270.014,699.462 269.393,700.003 268.326,700.003L265.827,700.003L265.827,697.137ZM270.477,700.689L270.477,700.674C271.639,700.131 272.087,699.288 272.087,698.265C272.087,696.308 270.78,695.334 268.584,695.334L263.708,695.334L263.708,706.696L268.852,706.696C270.731,706.696 272.437,705.565 272.437,703.43C272.437,702.154 271.784,701.041 270.477,700.689" style="fill:rgb(168,168,170);fill-rule:nonzero;"/>
        <path d="M342.293,696.229L341.118,696.229L341.118,698.728L337.44,698.728L337.44,696.229L336.263,696.229L336.263,698.728L334.879,698.728L334.879,699.681L336.263,699.681L336.263,705.027C336.263,706.395 337.201,706.841 338.251,706.841C338.511,706.841 338.959,706.811 339.378,706.725L339.378,705.684C339.116,705.727 338.855,705.759 338.571,705.759C337.855,705.759 337.44,705.519 337.44,704.724L337.44,699.681L341.118,699.681L341.118,705.027C341.118,706.395 342.056,706.841 343.105,706.841C343.362,706.841 343.814,706.812 344.23,706.725L344.23,705.681C343.97,705.727 343.708,705.759 343.424,705.759C342.706,705.759 342.293,705.519 342.293,704.724L342.293,699.681L344.504,699.681L344.504,698.728L342.293,698.728L342.293,696.229Z" style="fill:rgb(168,168,170);fill-rule:nonzero;"/>
        <path d="M333.116,703.737C333.116,705.172 332.337,705.885 331.015,705.885C329.6,705.885 328.838,705.041 328.838,703.786L328.838,701.685C328.838,700.334 329.648,699.553 330.97,699.553C332.399,699.553 333.116,700.412 333.116,701.623L333.116,703.737ZM330.97,698.551C329.17,698.551 327.643,699.646 327.643,701.748L327.643,703.817C327.643,705.837 329.059,706.902 331.015,706.902C332.829,706.902 334.325,705.775 334.325,703.688L334.325,701.734C334.325,699.713 332.94,698.551 330.97,698.551" style="fill:rgb(168,168,170);fill-rule:nonzero;"/>
        <path d="M347.013,704.787L347.013,695.339L345.821,695.339L345.821,704.74C345.821,705.664 346.122,706.794 347.651,706.794C348.031,706.794 348.523,706.729 348.923,706.601L348.923,705.695C348.636,705.726 348.365,705.775 348.047,705.775C347.316,705.775 347.013,705.345 347.013,704.787" style="fill:rgb(168,168,170);fill-rule:nonzero;"/>
        <path d="M359.087,698.724L358.682,698.724L358.682,697.991L359.087,697.991C359.329,697.991 359.488,698.154 359.488,698.359C359.488,698.566 359.329,698.724 359.087,698.724M359.929,698.359C359.929,697.955 359.608,697.615 359.146,697.615L358.232,697.615L358.232,700.049L358.682,700.049L358.682,699.08L358.985,699.08L359.488,700.049L359.991,700.049L359.448,699.021C359.72,698.929 359.929,698.702 359.929,698.359" style="fill:rgb(168,168,170);fill-rule:nonzero;"/>
        <path d="M359.019,700.669C358.007,700.669 357.212,699.859 357.212,698.836C357.212,697.809 358.007,696.996 359.019,696.996C360.025,696.996 360.814,697.809 360.814,698.836C360.814,699.859 360.025,700.669 359.019,700.669M359.019,696.58C357.773,696.58 356.761,697.584 356.761,698.836C356.761,700.077 357.773,701.087 359.019,701.087C360.26,701.087 361.273,700.077 361.273,698.836C361.273,697.584 360.26,696.58 359.019,696.58" style="fill:rgb(168,168,170);fill-rule:nonzero;"/>
        <path d="M354.909,702.113L350.725,702.113L350.725,701.764C350.725,700.492 351.57,699.538 352.858,699.538C354.194,699.538 354.909,700.446 354.909,701.654L354.909,702.113ZM352.921,698.551C350.995,698.551 349.502,699.776 349.502,701.972L349.502,703.658C349.502,705.855 350.981,706.905 352.938,706.905C354.083,706.905 355.228,706.521 355.944,705.406L355.039,704.867C354.608,705.406 353.938,705.885 353.016,705.885C351.618,705.885 350.725,705.075 350.725,703.769L350.725,702.941L356.087,702.941L356.087,701.685C356.087,699.617 354.687,698.551 352.921,698.551" style="fill:rgb(168,168,170);fill-rule:nonzero;"/>
        <path d="M322.825,705.599L319.899,705.599L319.899,701.414L322.808,701.414C324.208,701.414 325.258,702.036 325.258,703.468C325.258,704.917 324.208,705.599 322.825,705.599M319.899,696.437L322.696,696.437C323.987,696.437 324.956,696.99 324.956,698.347C324.956,699.697 323.891,700.334 322.618,700.334L319.899,700.334L319.899,696.437ZM324.242,700.761L324.242,700.746C325.513,700.38 326.213,699.347 326.213,698.154C326.213,696.29 324.94,695.339 322.968,695.339L318.609,695.339L318.609,706.696L323.095,706.696C324.861,706.696 326.547,705.661 326.547,703.531C326.547,702.195 325.752,701.036 324.242,700.761" style="fill:rgb(168,168,170);fill-rule:nonzero;"/>
        <path d="M300.021,703.605C300.021,704.782 299.096,705.213 298.284,705.213C297.28,705.213 296.516,704.639 296.516,703.654L296.516,701.628C296.516,700.452 297.408,700.023 298.221,700.023C299.223,700.023 300.021,700.612 300.021,701.597L300.021,703.605ZM300.021,699.384L299.973,699.384C299.557,698.841 298.81,698.38 297.901,698.38C296.086,698.38 294.541,699.478 294.541,701.692L294.541,703.669C294.541,705.755 295.975,706.886 297.76,706.886C298.492,706.886 299.59,706.423 300.051,705.786L300.069,705.786L300.069,706.696L301.963,706.696L301.963,695.334L300.021,695.334L300.021,699.384Z" style="fill:rgb(168,168,170);fill-rule:nonzero;"/>
        <path d="M290.465,698.38C289.556,698.38 288.696,698.761 288.153,699.543L288.122,699.543L288.122,698.539L286.228,698.539L286.228,706.695L288.171,706.695L288.171,702.122C288.171,700.738 288.792,700.083 289.861,700.083C290.846,700.083 291.372,700.738 291.372,701.963L291.372,706.695L293.316,706.695L293.316,701.47C293.316,699.526 292.294,698.38 290.465,698.38" style="fill:rgb(168,168,170);fill-rule:nonzero;"/>
        <path d="M283.058,701.82L279.761,701.82L279.761,701.708C279.761,700.48 280.654,700.037 281.48,700.037C282.279,700.037 283.058,700.48 283.058,701.596L283.058,701.82ZM281.48,698.392C279.458,698.392 277.738,699.668 277.738,701.963L277.738,703.556C277.738,705.785 279.538,706.885 281.544,706.885C282.979,706.885 284.27,706.343 284.906,705.068L283.41,704.208C282.979,704.83 282.294,705.26 281.64,705.26C280.605,705.26 279.761,704.654 279.761,703.619L279.761,703.173L285.002,703.173L285.002,701.596C285.002,699.431 283.249,698.392 281.48,698.392" style="fill:rgb(168,168,170);fill-rule:nonzero;"/>
        <path d="M313.661,699.892L313.63,699.892L313.63,698.539L311.733,698.539L311.733,706.696L313.678,706.696L313.678,702.523C313.678,701.008 314.774,700.164 316.241,700.164C316.513,700.164 316.719,700.164 316.974,700.211L316.974,698.427C316.766,698.38 316.528,698.38 316.32,698.38C315.348,698.38 314.14,699.034 313.661,699.892" style="fill:rgb(168,168,170);fill-rule:nonzero;"/>
        <path d="M275.557,704.497L275.557,695.334L273.614,695.334L273.614,704.512C273.614,705.246 273.661,706.807 275.587,706.807C276.099,706.807 276.736,706.695 277.148,706.584L277.148,705.101C276.798,705.131 276.609,705.165 276.257,705.165C275.732,705.165 275.557,704.862 275.557,704.497" style="fill:rgb(168,168,170);fill-rule:nonzero;"/>
        <path d="M259.185,700.384C259.007,700.542 258.544,700.956 257.453,701.78C252.583,705.448 248.902,706.914 248.837,706.941C248.812,706.95 248.782,706.942 248.769,706.917C248.755,706.893 248.763,706.863 248.787,706.847C249.181,706.589 249.565,706.311 249.947,706.023C255.404,701.912 258.726,698.303 259.251,697.738C259.435,697.539 259.687,697.241 259.722,697.01C259.763,696.743 259.604,696.349 259.249,695.879C258.896,695.41 258.561,695.148 258.292,695.113C258.061,695.084 257.705,695.245 257.464,695.366C256.777,695.714 252.39,697.913 246.933,702.026C246.552,702.314 246.18,702.607 245.822,702.914C245.802,702.932 245.77,702.931 245.75,702.912C245.731,702.892 245.73,702.861 245.747,702.84C245.79,702.785 248.214,699.651 253.082,695.981C254.175,695.158 254.701,694.827 254.902,694.699C255.208,694.505 255.738,694.1 255.335,693.566C255.113,693.269 254.615,693.042 254.012,692.955C253.814,692.936 253.687,692.961 253.54,692.982C252.441,693.146 249.966,694.239 247.534,696.073C246.91,696.543 246.314,697.064 246.076,697.279C246.054,697.297 246.024,697.297 246.003,697.278C245.984,697.259 245.982,697.227 245.999,697.206C246.06,697.113 246.081,697.081 246.22,696.908C246.958,695.983 248.028,694.971 248.933,694.285C248.978,694.253 249.239,694.059 249.443,693.948C249.543,693.896 249.6,693.893 249.686,693.867C249.72,693.858 249.753,693.841 249.759,693.754C249.762,693.703 249.743,693.657 249.706,693.612C249.592,693.459 249.449,693.453 249.373,693.455C249.157,693.457 248.88,693.55 248.07,694.161C246.982,694.981 246.203,695.828 245.816,696.311C245.547,696.647 245.04,697.321 244.947,697.941C244.921,698.094 244.882,698.476 245.068,698.724C245.392,699.153 245.941,698.785 246.1,698.643C246.353,698.414 246.98,697.838 247.808,697.213C250.278,695.353 252.568,694.308 253.835,693.826C253.835,693.826 254.031,693.75 254.117,693.719C254.142,693.711 254.179,693.725 254.187,693.757C254.195,693.789 254.167,693.813 254.152,693.822C253.31,694.275 252.522,694.693 251.246,695.655C249.037,697.32 247.23,699.032 245.716,700.905C245.413,701.276 244.904,701.899 244.746,702.371C244.496,703.119 245.05,703.999 245.154,704.136C245.697,704.858 246.371,704.197 246.944,703.791C248.372,702.779 251.602,700.682 252.34,700.194C254.501,698.761 257.408,697.054 257.623,696.922C257.837,696.79 258.218,696.57 258.304,696.528C258.326,696.517 258.353,696.524 258.369,696.543C258.382,696.564 258.382,696.592 258.365,696.611C258.302,696.682 257.985,696.987 257.798,697.155C257.613,697.327 255.17,699.65 253.199,701.332C252.525,701.905 249.62,704.434 248.252,705.528C247.704,705.967 246.883,706.433 247.428,707.155C247.531,707.29 248.223,708.067 249.012,708.033C249.509,708.011 250.248,707.694 250.689,707.504C252.906,706.563 255.05,705.3 257.259,703.636C258.536,702.673 259.156,702.031 259.822,701.346C259.835,701.333 259.865,701.314 259.894,701.33C259.923,701.348 259.926,701.387 259.912,701.407C259.858,701.483 259.73,701.65 259.73,701.65C258.917,702.735 257.284,704.649 254.813,706.51C253.986,707.135 253.257,707.578 252.969,707.759C252.789,707.872 252.283,708.299 252.607,708.728C252.793,708.974 253.172,709.043 253.326,709.061C253.948,709.141 254.736,708.84 255.132,708.673C255.702,708.436 256.732,707.92 257.82,707.1C258.63,706.488 258.796,706.249 258.859,706.041C258.88,705.969 258.914,705.83 258.8,705.678C258.764,705.63 258.726,705.599 258.677,705.588C258.591,705.57 258.566,705.597 258.547,705.626C258.499,705.702 258.481,705.756 258.402,705.838C258.24,706.003 257.982,706.202 257.937,706.235C257.03,706.917 255.763,707.666 254.669,708.121C254.464,708.205 254.427,708.218 254.323,708.251C254.296,708.262 254.267,708.252 254.253,708.228C254.241,708.202 254.249,708.173 254.273,708.157C254.546,707.988 255.21,707.559 255.834,707.087C258.267,705.254 260,703.177 260.46,702.167C260.522,702.031 260.58,701.915 260.617,701.72C260.699,701.116 260.619,700.576 260.395,700.28C259.993,699.746 259.456,700.142 259.185,700.384" style="fill:rgb(168,168,170);fill-rule:nonzero;"/>
        <path d="M308.533,701.82L305.236,701.82L305.236,701.708C305.236,700.48 306.127,700.037 306.956,700.037C307.753,700.037 308.533,700.48 308.533,701.596L308.533,701.82ZM306.956,698.392C304.932,698.392 303.214,699.668 303.214,701.963L303.214,703.556C303.214,705.785 305.012,706.885 307.018,706.885C308.452,706.885 309.743,706.343 310.38,705.068L308.884,704.208C308.452,704.83 307.767,705.26 307.114,705.26C306.079,705.26 305.236,704.654 305.236,703.619L305.236,703.173L310.475,703.173L310.475,701.596C310.475,699.431 308.723,698.392 306.956,698.392" style="fill:rgb(168,168,170);fill-rule:nonzero;"/>
    </g>
</svg>
