<?xml version="1.0" standalone="no"?>
<!DOCTYPE svg PUBLIC "-//W3C//DTD SVG 1.1//EN" "http://www.w3.org/Graphics/SVG/1.1/DTD/svg11.dtd">
<svg width="3900" height="3600" viewBox="0 0 3900 3600" version="1.1" xmlns="http://www.w3.org/2000/svg" xmlns:xlink="http://www.w3.org/1999/xlink" xml:space="preserve" style="fill-rule:evenodd;clip-rule:evenodd;stroke-linejoin:round;stroke-miterlimit:1.41421;">
    <g id="Bottle Outline" transform="matrix(4.16667,0,0,4.16667,0,0)">
        <rect x="238.161" y="690.568" width="631.936" height="21.164" style="fill:rgb(15,24,32);"/>
        <path d="M806.168,701.613L806.168,699.609C806.168,699.273 806.051,698.988 805.815,698.756C805.58,698.525 805.295,698.408 804.96,698.408L800.26,698.408C799.925,698.408 799.64,698.525 799.405,698.756C799.17,698.988 799.052,699.273 799.052,699.609L799.052,701.613C799.052,701.949 799.176,702.236 799.423,702.476C799.67,702.717 799.961,702.836 800.296,702.836L804.924,702.836C805.259,702.836 805.55,702.717 805.797,702.476C806.044,702.236 806.168,701.949 806.168,701.613M807.068,701.9C807.068,702.332 806.916,702.701 806.612,703.004C806.308,703.308 805.94,703.461 805.508,703.461L799.712,703.461C799.28,703.461 798.912,703.308 798.608,703.004C798.304,702.701 798.152,702.332 798.152,701.9L798.152,699.332C798.152,698.9 798.304,698.533 798.608,698.228C798.912,697.925 799.28,697.773 799.712,697.773L805.508,697.773C805.94,697.773 806.308,697.925 806.612,698.228C806.916,698.533 807.068,698.9 807.068,699.332L807.068,701.9Z" style="fill:rgb(168,168,170);fill-rule:nonzero;"/>
        <path d="M817.82,703.148C817.82,703.357 817.716,703.46 817.508,703.46L809.793,703.46C809.576,703.46 809.468,703.353 809.468,703.136C809.468,703.033 809.516,702.945 809.612,702.873L815.024,699.021C815.12,698.949 815.169,698.861 815.169,698.757C815.169,698.541 815.064,698.433 814.856,698.433L810.368,698.433C810.152,698.433 810.045,698.328 810.045,698.121C810.045,697.904 810.152,697.796 810.368,697.796L817.184,697.796C817.4,697.796 817.508,697.904 817.508,698.119C817.508,698.248 817.444,698.343 817.315,698.406L811.915,702.234C811.82,702.308 811.772,702.4 811.772,702.511C811.772,702.72 811.876,702.824 812.085,702.824L817.508,702.824C817.716,702.824 817.82,702.933 817.82,703.148" style="fill:rgb(168,168,170);fill-rule:nonzero;"/>
        <path d="M850.015,702.988C850.015,703.117 849.97,703.224 849.881,703.31C849.791,703.398 849.686,703.443 849.565,703.443C849.443,703.443 849.337,703.398 849.248,703.31C849.161,703.222 849.115,703.119 849.115,703L849.115,699.386C849.115,699.234 849.048,699.16 848.916,699.16C848.83,699.16 848.752,699.199 848.683,699.279L845.754,702.351C845.635,702.478 845.494,702.543 845.334,702.543C845.183,702.543 845.051,702.482 844.939,702.363L841.975,699.244C841.905,699.172 841.83,699.134 841.753,699.134C841.613,699.134 841.542,699.211 841.542,699.363L841.542,702.986C841.542,703.115 841.498,703.222 841.41,703.31C841.32,703.398 841.214,703.443 841.093,703.443C840.971,703.443 840.867,703.398 840.777,703.31C840.687,703.224 840.643,703.121 840.643,703L840.643,698.246C840.643,698.127 840.687,698.023 840.776,697.935C840.864,697.847 840.968,697.802 841.089,697.802L841.329,697.802C841.466,697.802 841.603,697.871 841.74,698.002L845.341,701.775L848.924,698.068C849.1,697.892 849.247,697.802 849.369,697.802L849.572,697.802C849.867,697.802 850.015,697.947 850.015,698.234L850.015,702.988Z" style="fill:rgb(168,168,170);fill-rule:nonzero;"/>
        <path d="M859.17,703C859.17,703.127 859.126,703.234 859.038,703.318C858.95,703.402 858.842,703.443 858.714,703.443L852.87,703.443C852.742,703.443 852.634,703.402 852.546,703.318C852.458,703.234 852.414,703.131 852.414,703.012L852.414,698.248C852.414,698.127 852.458,698.023 852.546,697.936C852.634,697.848 852.742,697.803 852.87,697.803C853.166,697.803 853.314,697.947 853.314,698.236L853.314,702.1C853.314,702.227 853.357,702.338 853.446,702.43C853.534,702.521 853.638,702.568 853.758,702.568L858.714,702.568C858.842,702.568 858.95,702.609 859.038,702.693C859.126,702.777 859.17,702.879 859.17,703" style="fill:rgb(168,168,170);fill-rule:nonzero;"/>
        <path d="M809.771,678.15C809.771,677.941 809.663,677.838 809.447,677.838C809.382,677.838 809.331,677.853 809.291,677.884L805.753,680.185C805.649,680.257 805.597,680.351 805.597,680.463C805.597,680.671 805.705,680.775 805.921,680.775L809.447,680.775C809.663,680.775 809.771,680.668 809.771,680.451L809.771,678.15ZM812.169,681.375L810.994,681.375C810.77,681.375 810.658,681.478 810.658,681.687L810.658,682.359C810.658,682.654 810.51,682.802 810.214,682.802C809.917,682.802 809.771,682.658 809.771,682.371L809.771,681.699C809.771,681.482 809.663,681.375 809.447,681.375L803.834,681.375C803.753,681.375 803.686,681.347 803.63,681.291C803.623,681.283 803.614,681.275 803.606,681.267C803.598,681.259 803.589,681.248 803.582,681.232C803.478,681.064 803.501,680.927 803.654,680.824L809.231,677.213C809.271,677.181 809.327,677.166 809.398,677.166L810.214,677.166C810.51,677.166 810.658,677.31 810.658,677.597L810.658,680.439C810.658,680.664 810.766,680.775 810.982,680.775L812.158,680.775C812.357,680.775 812.457,680.875 812.457,681.076C812.457,681.275 812.361,681.375 812.169,681.375" style="fill:rgb(168,168,170);fill-rule:nonzero;"/>
        <path d="M810.804,644.648C810.588,644.429 810.328,644.318 810.026,644.318L805.803,644.298C805.565,644.296 805.348,644.384 805.156,644.56C804.971,644.744 804.877,644.96 804.875,645.209L804.875,645.283C804.873,645.627 804.992,645.914 805.231,646.14C805.479,646.382 805.77,646.503 806.106,646.505L810.016,646.523C810.311,646.527 810.568,646.418 810.784,646.203C811,645.986 811.11,645.724 811.113,645.418C811.114,645.113 811.01,644.857 810.804,644.648M811.49,646.64C811.153,646.982 810.744,647.15 810.264,647.148L805.527,647.127C805.096,647.125 804.729,646.972 804.426,646.666C804.123,646.345 803.973,645.972 803.976,645.548L804.43,643.031C804.612,641.994 805.133,641.476 805.996,641.482L810.686,641.502C810.895,641.502 810.997,641.605 810.996,641.81C810.995,642.021 810.891,642.127 810.683,642.127L806.533,642.107C805.863,642.103 805.461,642.49 805.329,643.271C805.321,643.279 805.317,643.306 805.317,643.355C805.316,643.566 805.427,643.673 805.651,643.673L810.268,643.695C810.748,643.697 811.155,643.867 811.489,644.203C811.831,644.539 812.002,644.947 811.998,645.423C811.996,645.902 811.827,646.308 811.49,646.64" style="fill:rgb(168,168,170);fill-rule:nonzero;"/>
        <path d="M810.308,607.264C810.123,607.08 809.904,606.989 809.649,606.989L806.338,606.989C806.098,606.989 805.882,607.075 805.691,607.252C805.506,607.436 805.414,607.657 805.414,607.912C805.414,608.159 805.506,608.375 805.691,608.559C805.873,608.743 806.09,608.836 806.338,608.836L809.649,608.836C809.896,608.836 810.112,608.743 810.295,608.559C810.48,608.375 810.572,608.159 810.572,607.912C810.572,607.672 810.484,607.455 810.308,607.264M810.848,609.819C810.672,609.643 810.454,609.555 810.2,609.555L805.798,609.555C805.559,609.555 805.342,609.643 805.151,609.819C804.967,610.002 804.875,610.219 804.875,610.467C804.875,610.723 804.963,610.938 805.139,611.114C805.323,611.297 805.538,611.391 805.787,611.391L810.2,611.391C810.448,611.391 810.66,611.301 810.836,611.127C811.02,610.942 811.112,610.723 811.112,610.467C811.112,610.211 811.024,609.994 810.848,609.819M811.543,611.557C811.239,611.862 810.875,612.014 810.452,612.014L805.522,612.014C805.098,612.014 804.735,611.862 804.431,611.557C804.127,611.254 803.975,610.891 803.975,610.467C803.975,609.922 804.196,609.502 804.635,609.207C804.755,609.127 804.815,609.024 804.815,608.895C804.815,608.832 804.795,608.768 804.755,608.701C804.603,608.455 804.528,608.188 804.528,607.901C804.528,607.485 804.679,607.125 804.984,606.821C805.287,606.516 805.653,606.366 806.077,606.366L809.898,606.366C810.315,606.366 810.678,606.512 810.991,606.809C811.303,607.112 811.459,607.477 811.459,607.901C811.459,608.164 811.379,608.432 811.219,608.701C811.188,608.76 811.171,608.823 811.171,608.895C811.171,609.032 811.227,609.135 811.336,609.207C811.778,609.51 811.998,609.93 811.998,610.467C811.998,610.891 811.847,611.254 811.543,611.557" style="fill:rgb(168,168,170);fill-rule:nonzero;"/>
        <path d="M802.835,577.055C802.54,577.055 802.392,576.907 802.392,576.612L802.392,572.496C802.392,572.289 802.327,572.102 802.2,571.934C802.064,571.766 801.892,571.66 801.685,571.621C801.859,571.399 802.092,571.285 802.38,571.285C802.628,571.285 802.839,571.373 803.015,571.551C803.19,571.725 803.278,571.938 803.278,572.186L803.278,576.612C803.278,576.907 803.131,577.055 802.835,577.055" style="fill:rgb(168,168,170);fill-rule:nonzero;"/>
        <path d="M813.401,573.207C813.401,572.871 813.285,572.586 813.053,572.353C812.813,572.113 812.526,571.992 812.19,571.992L808.376,571.992C808.04,571.992 807.756,572.109 807.524,572.342C807.284,572.582 807.165,572.871 807.165,573.207L807.165,575.203C807.165,575.541 807.288,575.83 807.536,576.07C807.784,576.311 808.076,576.432 808.412,576.432L812.154,576.432C812.481,576.432 812.773,576.314 813.029,576.082C813.277,575.842 813.401,575.555 813.401,575.215L813.401,573.207ZM813.833,576.6C813.529,576.902 813.161,577.055 812.729,577.055L807.837,577.055C807.404,577.055 807.036,576.902 806.733,576.6C806.428,576.295 806.277,575.928 806.277,575.496L806.277,572.93C806.277,572.496 806.428,572.129 806.733,571.826C807.036,571.521 807.404,571.369 807.837,571.369L812.729,571.369C813.161,571.369 813.529,571.521 813.833,571.826C814.136,572.129 814.288,572.496 814.288,572.93L814.288,575.496C814.288,575.928 814.136,576.295 813.833,576.6" style="fill:rgb(168,168,170);fill-rule:nonzero;"/>
        <path d="M803.057,540.477C802.762,540.477 802.614,540.329 802.614,540.032L802.614,535.918C802.614,535.709 802.549,535.522 802.422,535.354C802.286,535.188 802.114,535.082 801.907,535.041C802.081,534.819 802.314,534.707 802.602,534.707C802.85,534.707 803.061,534.795 803.237,534.971C803.411,535.147 803.5,535.36 803.5,535.606L803.5,540.032C803.5,540.329 803.353,540.477 803.057,540.477" style="fill:rgb(168,168,170);fill-rule:nonzero;"/>
        <path d="M813.935,539.721C813.657,540.073 813.268,540.307 812.772,540.428C812.652,540.459 812.512,540.475 812.352,540.475L806.943,540.475C806.823,540.475 806.719,540.432 806.631,540.344C806.543,540.256 806.499,540.153 806.499,540.032C806.499,539.856 806.559,539.731 806.679,539.659L812.52,536.377C812.664,536.297 812.736,536.168 812.736,535.992C812.736,535.864 812.692,535.742 812.604,535.631C812.516,535.51 812.416,535.451 812.304,535.451L809.414,535.451C809.102,535.451 808.802,535.502 808.514,535.608C808.186,535.725 807.951,535.889 807.807,536.098C807.687,536.266 807.555,536.35 807.411,536.35C807.283,536.35 807.174,536.307 807.086,536.219C806.998,536.131 806.956,536.024 806.956,535.895C806.956,535.823 807.003,535.719 807.099,535.582C807.491,535.078 808.046,534.826 808.766,534.826L812.543,534.826C812.845,534.826 813.098,534.922 813.303,535.116C813.517,535.323 813.623,535.571 813.623,535.86C813.623,536.266 813.438,536.578 813.067,536.793L808.67,539.264C808.567,539.321 808.514,539.409 808.514,539.53C808.514,539.744 808.623,539.852 808.838,539.852L811.608,539.852C811.897,539.852 812.196,539.797 812.508,539.684C812.841,539.565 813.079,539.401 813.221,539.194C813.331,539.034 813.461,538.953 813.612,538.953C813.731,538.953 813.839,538.992 813.935,539.073C814.023,539.16 814.067,539.268 814.067,539.397C814.067,539.5 814.023,539.61 813.935,539.721" style="fill:rgb(168,168,170);fill-rule:nonzero;"/>
        <path d="M802.583,505.033C802.288,505.033 802.14,504.885 802.14,504.59L802.14,500.474C802.14,500.267 802.075,500.08 801.948,499.912C801.812,499.744 801.64,499.64 801.433,499.599C801.607,499.377 801.84,499.263 802.128,499.263C802.376,499.263 802.587,499.351 802.763,499.529C802.938,499.703 803.026,499.916 803.026,500.164L803.026,504.59C803.026,504.885 802.879,505.033 802.583,505.033" style="fill:rgb(168,168,170);fill-rule:nonzero;"/>
        <path d="M811.854,500.381C811.854,500.172 811.747,500.069 811.531,500.069C811.465,500.069 811.414,500.084 811.374,500.115L807.835,502.416C807.733,502.488 807.68,502.582 807.68,502.694C807.68,502.902 807.788,503.006 808.004,503.006L811.531,503.006C811.747,503.006 811.854,502.899 811.854,502.68L811.854,500.381ZM814.252,503.606L813.077,503.606C812.853,503.606 812.741,503.709 812.741,503.918L812.741,504.59C812.741,504.885 812.594,505.033 812.297,505.033C812,505.033 811.854,504.889 811.854,504.602L811.854,503.93C811.854,503.715 811.747,503.606 811.531,503.606L805.917,503.606C805.836,503.606 805.769,503.578 805.714,503.522C805.706,503.514 805.697,503.506 805.69,503.498C805.681,503.49 805.672,503.479 805.666,503.463C805.561,503.295 805.584,503.158 805.738,503.055L811.315,499.444C811.354,499.412 811.411,499.397 811.481,499.397L812.297,499.397C812.594,499.397 812.741,499.541 812.741,499.828L812.741,502.67C812.741,502.895 812.849,503.006 813.065,503.006L814.241,503.006C814.44,503.006 814.541,503.108 814.541,503.307C814.541,503.506 814.445,503.606 814.252,503.606" style="fill:rgb(168,168,170);fill-rule:nonzero;"/>
        <path d="M802.835,464.084C802.54,464.084 802.392,463.936 802.392,463.639L802.392,459.525C802.392,459.318 802.327,459.13 802.2,458.961C802.064,458.794 801.892,458.689 801.685,458.65C801.859,458.426 802.092,458.314 802.38,458.314C802.628,458.314 802.839,458.402 803.015,458.578C803.19,458.754 803.278,458.966 803.278,459.214L803.278,463.639C803.278,463.936 803.131,464.084 802.835,464.084" style="fill:rgb(168,168,170);fill-rule:nonzero;"/>
        <path d="M813.089,461.578C812.874,461.361 812.613,461.252 812.31,461.252L808.088,461.252C807.849,461.252 807.632,461.342 807.441,461.517C807.257,461.703 807.165,461.92 807.165,462.17L807.165,462.242C807.165,462.588 807.284,462.873 807.525,463.098C807.773,463.338 808.064,463.459 808.402,463.459L812.31,463.459C812.606,463.459 812.862,463.351 813.077,463.135C813.294,462.918 813.401,462.656 813.401,462.349C813.401,462.045 813.298,461.787 813.089,461.578M813.785,463.57C813.449,463.912 813.042,464.084 812.562,464.084L807.824,464.084C807.393,464.084 807.025,463.932 806.721,463.627C806.417,463.307 806.265,462.935 806.265,462.512L806.709,459.993C806.885,458.954 807.404,458.433 808.269,458.433L812.958,458.433C813.165,458.433 813.27,458.536 813.27,458.74C813.27,458.952 813.165,459.058 812.958,459.058L808.808,459.058C808.136,459.058 807.735,459.448 807.609,460.226C807.601,460.235 807.597,460.264 807.597,460.312C807.597,460.523 807.708,460.629 807.933,460.629L812.55,460.629C813.029,460.629 813.437,460.797 813.774,461.131C814.116,461.465 814.288,461.873 814.288,462.349C814.288,462.828 814.12,463.236 813.785,463.57" style="fill:rgb(168,168,170);fill-rule:nonzero;"/>
        <path d="M839.399,685.809C839.103,685.809 838.956,685.661 838.956,685.366L838.956,681.25C838.956,681.043 838.892,680.856 838.763,680.688C838.628,680.52 838.456,680.416 838.248,680.375C838.423,680.153 838.656,680.039 838.943,680.039C839.191,680.039 839.404,680.127 839.58,680.303C839.755,680.479 839.843,680.692 839.843,680.94L839.843,685.366C839.843,685.661 839.695,685.809 839.399,685.809" style="fill:rgb(168,168,170);fill-rule:nonzero;"/>
        <path d="M849.966,681.961C849.966,681.625 849.85,681.34 849.618,681.107C849.378,680.867 849.09,680.748 848.754,680.748L844.941,680.748C844.606,680.748 844.32,680.863 844.089,681.096C843.85,681.336 843.729,681.625 843.729,681.961L843.729,683.957C843.729,684.295 843.854,684.584 844.102,684.824C844.349,685.065 844.641,685.186 844.977,685.186L848.719,685.186C849.046,685.186 849.338,685.068 849.594,684.836C849.842,684.596 849.966,684.307 849.966,683.971L849.966,681.961ZM850.398,685.352C850.094,685.656 849.727,685.809 849.295,685.809L844.401,685.809C843.969,685.809 843.602,685.656 843.297,685.352C842.994,685.049 842.842,684.682 842.842,684.25L842.842,681.684C842.842,681.25 842.994,680.883 843.297,680.58C843.602,680.275 843.969,680.123 844.401,680.123L849.295,680.123C849.727,680.123 850.094,680.275 850.398,680.58C850.701,680.883 850.854,681.25 850.854,681.684L850.854,684.25C850.854,684.682 850.701,685.049 850.398,685.352" style="fill:rgb(168,168,170);fill-rule:nonzero;"/>
        <path d="M860.376,681.961C860.376,681.625 860.26,681.34 860.027,681.107C859.788,680.867 859.5,680.748 859.164,680.748L855.351,680.748C855.016,680.748 854.73,680.863 854.499,681.096C854.26,681.336 854.139,681.625 854.139,681.961L854.139,683.957C854.139,684.295 854.264,684.584 854.512,684.824C854.759,685.065 855.051,685.186 855.387,685.186L859.129,685.186C859.456,685.186 859.748,685.068 860.004,684.836C860.252,684.596 860.376,684.307 860.376,683.971L860.376,681.961ZM860.808,685.352C860.504,685.656 860.137,685.809 859.705,685.809L854.811,685.809C854.379,685.809 854.012,685.656 853.707,685.352C853.404,685.049 853.252,684.682 853.252,684.25L853.252,681.684C853.252,681.25 853.404,680.883 853.707,680.58C854.012,680.275 854.379,680.123 854.811,680.123L859.705,680.123C860.137,680.123 860.504,680.275 860.808,680.58C861.111,680.883 861.264,681.25 861.264,681.684L861.264,684.25C861.264,684.682 861.111,685.049 860.808,685.352" style="fill:rgb(168,168,170);fill-rule:nonzero;"/>
        <path d="M842.991,632.973C842.713,633.325 842.325,633.559 841.828,633.68C841.708,633.711 841.568,633.727 841.409,633.727L835.999,633.727C835.88,633.727 835.776,633.684 835.688,633.594C835.599,633.508 835.555,633.403 835.555,633.282C835.555,633.106 835.616,632.983 835.735,632.909L841.577,629.627C841.72,629.547 841.792,629.42 841.792,629.243C841.792,629.116 841.749,628.993 841.661,628.883C841.573,628.762 841.472,628.702 841.36,628.702L838.47,628.702C838.159,628.702 837.858,628.754 837.571,628.858C837.243,628.977 837.007,629.141 836.863,629.35C836.743,629.518 836.611,629.602 836.468,629.602C836.339,629.602 836.231,629.559 836.143,629.469C836.055,629.381 836.012,629.274 836.012,629.147C836.012,629.075 836.059,628.971 836.155,628.834C836.548,628.33 837.102,628.077 837.823,628.077L841.6,628.077C841.901,628.077 842.155,628.174 842.36,628.368C842.573,628.575 842.68,628.823 842.68,629.11C842.68,629.518 842.495,629.83 842.124,630.045L837.726,632.516C837.623,632.573 837.571,632.659 837.571,632.78C837.571,632.996 837.679,633.104 837.894,633.104L840.665,633.104C840.953,633.104 841.253,633.047 841.565,632.936C841.897,632.817 842.136,632.653 842.278,632.444C842.387,632.284 842.518,632.203 842.668,632.203C842.788,632.203 842.895,632.243 842.991,632.325C843.079,632.411 843.124,632.52 843.124,632.649C843.124,632.752 843.079,632.86 842.991,632.973" style="fill:rgb(168,168,170);fill-rule:nonzero;"/>
        <path d="M852.659,629.881C852.659,629.545 852.542,629.26 852.31,629.026C852.071,628.785 851.782,628.666 851.447,628.666L847.634,628.666C847.298,628.666 847.013,628.781 846.782,629.014C846.542,629.256 846.422,629.545 846.422,629.881L846.422,631.877C846.422,632.213 846.546,632.502 846.794,632.742C847.042,632.983 847.333,633.104 847.669,633.104L851.411,633.104C851.739,633.104 852.03,632.988 852.286,632.756C852.534,632.514 852.659,632.227 852.659,631.889L852.659,629.881ZM853.091,633.272C852.786,633.576 852.419,633.727 851.987,633.727L847.093,633.727C846.661,633.727 846.294,633.576 845.99,633.272C845.686,632.967 845.534,632.6 845.534,632.168L845.534,629.602C845.534,629.17 845.686,628.803 845.99,628.498C846.294,628.194 846.661,628.043 847.093,628.043L851.987,628.043C852.419,628.043 852.786,628.194 853.091,628.498C853.393,628.803 853.546,629.17 853.546,629.602L853.546,632.168C853.546,632.6 853.393,632.967 853.091,633.272" style="fill:rgb(168,168,170);fill-rule:nonzero;"/>
        <path d="M863.069,629.881C863.069,629.545 862.952,629.26 862.72,629.026C862.481,628.785 862.192,628.666 861.857,628.666L858.043,628.666C857.708,628.666 857.423,628.781 857.192,629.014C856.952,629.256 856.832,629.545 856.832,629.881L856.832,631.877C856.832,632.213 856.956,632.502 857.204,632.742C857.452,632.983 857.743,633.104 858.079,633.104L861.821,633.104C862.149,633.104 862.44,632.988 862.696,632.756C862.944,632.514 863.069,632.227 863.069,631.889L863.069,629.881ZM863.501,633.272C863.196,633.576 862.829,633.727 862.397,633.727L857.503,633.727C857.071,633.727 856.704,633.576 856.4,633.272C856.096,632.967 855.944,632.6 855.944,632.168L855.944,629.602C855.944,629.17 856.096,628.803 856.4,628.498C856.704,628.194 857.071,628.043 857.503,628.043L862.397,628.043C862.829,628.043 863.196,628.194 863.501,628.498C863.803,628.803 863.956,629.17 863.956,629.602L863.956,632.168C863.956,632.6 863.803,632.967 863.501,633.272" style="fill:rgb(168,168,170);fill-rule:nonzero;"/>
        <path d="M842.681,572.83C842.376,573.135 842.013,573.287 841.589,573.287L837.367,573.287C836.64,573.287 836.079,573.035 835.689,572.531C835.6,572.418 835.556,572.31 835.556,572.207C835.556,571.912 835.704,571.764 835.999,571.764C836.152,571.764 836.288,571.848 836.408,572.016C836.712,572.437 837.244,572.65 838.003,572.65L841.337,572.664C841.585,572.664 841.796,572.574 841.973,572.398C842.157,572.215 842.249,571.996 842.249,571.74C842.249,571.508 842.16,571.295 841.985,571.103C841.8,570.92 841.581,570.828 841.326,570.828L840.018,570.828C839.89,570.828 839.783,570.797 839.695,570.73C839.598,570.66 839.55,570.572 839.55,570.469C839.55,570.365 839.594,570.281 839.682,570.217C839.778,570.142 839.89,570.107 840.018,570.107L840.785,570.107C841.035,570.107 841.249,570.016 841.433,569.832C841.617,569.648 841.708,569.432 841.708,569.184C841.708,568.953 841.62,568.742 841.445,568.549C841.261,568.365 841.041,568.271 840.785,568.271L838.003,568.271C837.691,568.271 837.396,568.326 837.115,568.428C836.787,568.549 836.552,568.713 836.408,568.92C836.288,569.088 836.152,569.172 835.999,569.172C835.88,569.172 835.777,569.129 835.689,569.041C835.6,568.953 835.556,568.846 835.556,568.717C835.556,568.621 835.6,568.518 835.689,568.404C836.079,567.9 836.636,567.648 837.355,567.648L841.037,567.648C841.477,567.648 841.845,567.797 842.141,568.094C842.445,568.396 842.597,568.756 842.597,569.172C842.597,569.435 842.517,569.705 842.357,569.976C842.325,570.033 842.308,570.1 842.308,570.18C842.308,570.309 842.365,570.408 842.476,570.48C842.916,570.775 843.136,571.195 843.136,571.74C843.136,572.164 842.984,572.525 842.681,572.83" style="fill:rgb(168,168,170);fill-rule:nonzero;"/>
        <path d="M852.659,569.44C852.659,569.103 852.542,568.819 852.31,568.585C852.071,568.345 851.782,568.224 851.447,568.224L847.634,568.224C847.298,568.224 847.013,568.339 846.782,568.575C846.542,568.815 846.422,569.103 846.422,569.44L846.422,571.435C846.422,571.773 846.546,572.063 846.794,572.301C847.042,572.544 847.333,572.662 847.669,572.662L851.411,572.662C851.739,572.662 852.03,572.546 852.286,572.315C852.534,572.075 852.659,571.786 852.659,571.448L852.659,569.44ZM853.091,572.83C852.786,573.135 852.419,573.287 851.987,573.287L847.093,573.287C846.661,573.287 846.294,573.135 845.99,572.83C845.686,572.527 845.534,572.159 845.534,571.727L845.534,569.161C845.534,568.728 845.686,568.362 845.99,568.059C846.294,567.752 846.661,567.602 847.093,567.602L851.987,567.602C852.419,567.602 852.786,567.752 853.091,568.059C853.393,568.362 853.546,568.728 853.546,569.161L853.546,571.727C853.546,572.159 853.393,572.527 853.091,572.83" style="fill:rgb(168,168,170);fill-rule:nonzero;"/>
        <path d="M863.069,569.44C863.069,569.103 862.952,568.819 862.72,568.585C862.481,568.345 862.192,568.224 861.857,568.224L858.043,568.224C857.708,568.224 857.423,568.339 857.192,568.575C856.952,568.815 856.832,569.103 856.832,569.44L856.832,571.435C856.832,571.773 856.956,572.063 857.204,572.301C857.452,572.544 857.743,572.662 858.079,572.662L861.821,572.662C862.149,572.662 862.44,572.546 862.696,572.315C862.944,572.075 863.069,571.786 863.069,571.448L863.069,569.44ZM863.501,572.83C863.196,573.135 862.829,573.287 862.397,573.287L857.503,573.287C857.071,573.287 856.704,573.135 856.4,572.83C856.096,572.527 855.944,572.159 855.944,571.727L855.944,569.161C855.944,568.728 856.096,568.362 856.4,568.059C856.704,567.752 857.071,567.602 857.503,567.602L862.397,567.602C862.829,567.602 863.196,567.752 863.501,568.059C863.803,568.362 863.956,568.728 863.956,569.161L863.956,571.727C863.956,572.159 863.803,572.527 863.501,572.83" style="fill:rgb(168,168,170);fill-rule:nonzero;"/>
        <path d="M841.248,507.613C841.248,507.404 841.142,507.301 840.925,507.301C840.86,507.301 840.81,507.316 840.769,507.347L837.23,509.648C837.127,509.72 837.074,509.814 837.074,509.926C837.074,510.133 837.183,510.238 837.398,510.238L840.925,510.238C841.142,510.238 841.248,510.131 841.248,509.912L841.248,507.613ZM843.646,510.838L842.472,510.838C842.248,510.838 842.137,510.941 842.137,511.15L842.137,511.822C842.137,512.117 841.988,512.265 841.691,512.265C841.396,512.265 841.248,512.121 841.248,511.834L841.248,511.162C841.248,510.947 841.142,510.838 840.925,510.838L835.312,510.838C835.232,510.838 835.164,510.808 835.107,510.754C835.101,510.746 835.092,510.738 835.084,510.73C835.076,510.722 835.068,510.711 835.061,510.695C834.956,510.527 834.98,510.388 835.132,510.287L840.709,506.676C840.748,506.644 840.805,506.629 840.877,506.629L841.691,506.629C841.988,506.629 842.137,506.773 842.137,507.06L842.137,509.902C842.137,510.127 842.244,510.238 842.46,510.238L843.635,510.238C843.835,510.238 843.936,510.338 843.936,510.539C843.936,510.738 843.839,510.838 843.646,510.838" style="fill:rgb(168,168,170);fill-rule:nonzero;"/>
        <path d="M853.218,508.418C853.218,508.082 853.102,507.797 852.87,507.564C852.63,507.324 852.342,507.203 852.006,507.203L848.193,507.203C847.858,507.203 847.572,507.32 847.341,507.553C847.102,507.793 846.981,508.082 846.981,508.418L846.981,510.414C846.981,510.752 847.106,511.041 847.354,511.281C847.601,511.522 847.893,511.643 848.229,511.643L851.971,511.643C852.298,511.643 852.59,511.525 852.846,511.293C853.094,511.053 853.218,510.764 853.218,510.426L853.218,508.418ZM853.65,511.811C853.346,512.113 852.979,512.266 852.547,512.266L847.653,512.266C847.221,512.266 846.854,512.113 846.549,511.811C846.246,511.506 846.094,511.139 846.094,510.705L846.094,508.141C846.094,507.707 846.246,507.34 846.549,507.037C846.854,506.732 847.221,506.58 847.653,506.58L852.547,506.58C852.979,506.58 853.346,506.732 853.65,507.037C853.953,507.34 854.106,507.707 854.106,508.141L854.106,510.705C854.106,511.139 853.953,511.506 853.65,511.811" style="fill:rgb(168,168,170);fill-rule:nonzero;"/>
        <path d="M863.628,508.418C863.628,508.082 863.512,507.797 863.279,507.564C863.04,507.324 862.752,507.203 862.416,507.203L858.603,507.203C858.268,507.203 857.982,507.32 857.751,507.553C857.512,507.793 857.391,508.082 857.391,508.418L857.391,510.414C857.391,510.752 857.516,511.041 857.764,511.281C858.011,511.522 858.303,511.643 858.639,511.643L862.381,511.643C862.708,511.643 863,511.525 863.256,511.293C863.504,511.053 863.628,510.764 863.628,510.426L863.628,508.418ZM864.06,511.811C863.756,512.113 863.389,512.266 862.957,512.266L858.063,512.266C857.631,512.266 857.264,512.113 856.959,511.811C856.656,511.506 856.504,511.139 856.504,510.705L856.504,508.141C856.504,507.707 856.656,507.34 856.959,507.037C857.264,506.732 857.631,506.58 858.063,506.58L862.957,506.58C863.389,506.58 863.756,506.732 864.06,507.037C864.363,507.34 864.516,507.707 864.516,508.141L864.516,510.705C864.516,511.139 864.363,511.506 864.06,511.811" style="fill:rgb(168,168,170);fill-rule:nonzero;"/>
        <path d="M842.846,448.862C842.498,449.196 842.092,449.363 841.629,449.363L837.143,449.363C836.424,449.363 835.867,449.116 835.477,448.62C835.389,448.508 835.344,448.401 835.344,448.297C835.344,448.002 835.492,447.852 835.787,447.852C835.932,447.852 836.065,447.936 836.184,448.104C836.321,448.304 836.555,448.465 836.891,448.584C837.172,448.688 837.471,448.74 837.791,448.74L841.377,448.74C841.672,448.74 841.924,448.634 842.133,448.425C842.348,448.211 842.457,447.948 842.457,447.642C842.457,447.338 842.352,447.08 842.145,446.87C841.928,446.654 841.668,446.545 841.367,446.545L835.787,446.545C835.66,446.545 835.549,446.498 835.45,446.402C835.356,446.304 835.321,446.205 835.344,446.101L835.776,444.17C835.848,443.867 836,443.715 836.233,443.715L842.026,443.715C842.242,443.715 842.348,443.822 842.348,444.039C842.348,444.248 842.242,444.349 842.026,444.349L836.963,444.362C836.715,444.362 836.563,444.511 836.508,444.808L836.364,445.474C836.34,445.58 836.375,445.679 836.471,445.777C836.569,445.873 836.68,445.922 836.807,445.922L841.629,445.922C842.1,445.922 842.502,446.09 842.834,446.424C843.174,446.758 843.344,447.164 843.344,447.642C843.344,448.121 843.178,448.527 842.846,448.862" style="fill:rgb(168,168,170);fill-rule:nonzero;"/>
        <path d="M852.879,445.518C852.879,445.182 852.762,444.897 852.531,444.664C852.291,444.424 852.002,444.303 851.666,444.303L847.854,444.303C847.518,444.303 847.233,444.419 847.002,444.652C846.762,444.893 846.641,445.182 846.641,445.518L846.641,447.514C846.641,447.85 846.766,448.139 847.014,448.379C847.262,448.621 847.553,448.741 847.889,448.741L851.631,448.741C851.959,448.741 852.25,448.624 852.506,448.393C852.754,448.152 852.879,447.864 852.879,447.527L852.879,445.518ZM853.311,448.909C853.006,449.213 852.639,449.365 852.207,449.365L847.313,449.365C846.881,449.365 846.514,449.213 846.209,448.909C845.906,448.604 845.754,448.238 845.754,447.805L845.754,445.239C845.754,444.807 845.906,444.438 846.209,444.135C846.514,443.831 846.881,443.68 847.313,443.68L852.207,443.68C852.639,443.68 853.006,443.831 853.311,444.135C853.613,444.438 853.766,444.807 853.766,445.239L853.766,447.805C853.766,448.238 853.613,448.604 853.311,448.909" style="fill:rgb(168,168,170);fill-rule:nonzero;"/>
        <path d="M863.289,445.518C863.289,445.182 863.172,444.897 862.941,444.664C862.701,444.424 862.412,444.303 862.076,444.303L858.264,444.303C857.928,444.303 857.643,444.419 857.412,444.652C857.172,444.893 857.051,445.182 857.051,445.518L857.051,447.514C857.051,447.85 857.176,448.139 857.424,448.379C857.672,448.621 857.963,448.741 858.299,448.741L862.041,448.741C862.369,448.741 862.66,448.624 862.916,448.393C863.164,448.152 863.289,447.864 863.289,447.527L863.289,445.518ZM863.721,448.909C863.416,449.213 863.049,449.365 862.617,449.365L857.723,449.365C857.291,449.365 856.924,449.213 856.619,448.909C856.316,448.604 856.164,448.238 856.164,447.805L856.164,445.239C856.164,444.807 856.316,444.438 856.619,444.135C856.924,443.831 857.291,443.68 857.723,443.68L862.617,443.68C863.049,443.68 863.416,443.831 863.721,444.135C864.023,444.438 864.176,444.807 864.176,445.239L864.176,447.805C864.176,448.238 864.023,448.604 863.721,448.909" style="fill:rgb(168,168,170);fill-rule:nonzero;"/>
        <rect x="828.058" y="434.127" width="0.932" height="249.355" style="fill:rgb(168,168,170);"/>
        <path d="M806.935,247.585C806.657,247.937 806.268,248.171 805.772,248.292C805.652,248.323 805.512,248.339 805.352,248.339L799.943,248.339C799.823,248.339 799.719,248.296 799.631,248.208C799.543,248.12 799.499,248.016 799.499,247.895C799.499,247.719 799.559,247.595 799.679,247.522L805.52,244.241C805.664,244.161 805.736,244.031 805.736,243.856C805.736,243.728 805.692,243.606 805.604,243.495C805.516,243.374 805.416,243.314 805.304,243.314L802.414,243.314C802.102,243.314 801.802,243.366 801.514,243.471C801.186,243.589 800.951,243.753 800.807,243.962C800.687,244.13 800.555,244.214 800.411,244.214C800.283,244.214 800.174,244.171 800.086,244.083C799.998,243.995 799.956,243.887 799.956,243.759C799.956,243.687 800.003,243.583 800.099,243.446C800.491,242.942 801.046,242.69 801.766,242.69L805.543,242.69C805.845,242.69 806.098,242.786 806.303,242.98C806.517,243.187 806.623,243.435 806.623,243.723C806.623,244.13 806.438,244.441 806.067,244.657L801.67,247.128C801.567,247.185 801.514,247.273 801.514,247.393C801.514,247.608 801.623,247.716 801.838,247.716L804.608,247.716C804.897,247.716 805.196,247.661 805.508,247.548C805.841,247.429 806.079,247.265 806.221,247.057C806.331,246.897 806.461,246.816 806.612,246.816C806.731,246.816 806.839,246.856 806.935,246.937C807.023,247.024 807.067,247.132 807.067,247.261C807.067,247.364 807.023,247.473 806.935,247.585" style="fill:rgb(168,168,170);fill-rule:nonzero;"/>
        <path d="M814.513,245.797C814.298,245.58 814.037,245.471 813.734,245.471L809.512,245.471C809.273,245.471 809.056,245.56 808.865,245.737C808.681,245.922 808.589,246.139 808.589,246.388L808.589,246.46C808.589,246.806 808.708,247.091 808.949,247.317C809.197,247.557 809.488,247.678 809.826,247.678L813.734,247.678C814.03,247.678 814.286,247.57 814.501,247.353C814.718,247.136 814.825,246.875 814.825,246.569C814.825,246.263 814.722,246.006 814.513,245.797M815.209,247.788C814.873,248.13 814.466,248.302 813.986,248.302L809.248,248.302C808.817,248.302 808.449,248.15 808.145,247.846C807.841,247.526 807.689,247.155 807.689,246.731L808.133,244.212C808.309,243.173 808.828,242.653 809.693,242.653L814.382,242.653C814.589,242.653 814.694,242.755 814.694,242.959C814.694,243.171 814.589,243.277 814.382,243.277L810.232,243.277C809.56,243.277 809.159,243.667 809.033,244.446C809.025,244.454 809.021,244.483 809.021,244.531C809.021,244.742 809.132,244.848 809.357,244.848L813.974,244.848C814.453,244.848 814.861,245.015 815.198,245.35C815.54,245.684 815.712,246.091 815.712,246.569C815.712,247.047 815.544,247.454 815.209,247.788" style="fill:rgb(168,168,170);fill-rule:nonzero;"/>
        <rect x="828.058" y="239.857" width="0.932" height="10.8" style="fill:rgb(168,168,170);"/>
        <path d="M843.249,243.365L839.839,247.721C839.751,247.831 839.641,247.886 839.509,247.886C839.398,247.886 839.304,247.846 839.223,247.765C839.142,247.685 839.102,247.586 839.102,247.469C839.102,247.381 839.132,247.301 839.191,247.227L841.897,243.752C841.94,243.693 841.962,243.634 841.962,243.575C841.962,243.384 841.866,243.288 841.676,243.288L838.211,243.288C837.925,243.288 837.649,243.336 837.386,243.431C837.085,243.541 836.868,243.692 836.736,243.882C836.634,244.029 836.513,244.102 836.374,244.102C836.264,244.102 836.169,244.062 836.088,243.981C836.007,243.901 835.967,243.805 835.967,243.695C835.967,243.6 836.007,243.501 836.088,243.398C836.446,242.936 836.957,242.705 837.616,242.705L842.919,242.705C843.028,242.705 843.126,242.745 843.21,242.826C843.295,242.907 843.337,243.006 843.337,243.123C843.337,243.211 843.308,243.292 843.249,243.365" style="fill:rgb(168,168,170);fill-rule:nonzero;"/>
        <path d="M850.847,245.718C850.632,245.501 850.371,245.392 850.068,245.392L845.846,245.392C845.607,245.392 845.39,245.481 845.199,245.658C845.015,245.843 844.923,246.06 844.923,246.309L844.923,246.381C844.923,246.727 845.042,247.012 845.283,247.238C845.531,247.478 845.822,247.599 846.16,247.599L850.068,247.599C850.364,247.599 850.62,247.491 850.835,247.274C851.052,247.057 851.159,246.796 851.159,246.49C851.159,246.184 851.056,245.927 850.847,245.718M851.543,247.709C851.207,248.051 850.8,248.223 850.32,248.223L845.582,248.223C845.151,248.223 844.783,248.071 844.479,247.767C844.175,247.447 844.023,247.076 844.023,246.652L844.467,244.133C844.643,243.094 845.162,242.574 846.027,242.574L850.716,242.574C850.923,242.574 851.028,242.676 851.028,242.88C851.028,243.092 850.923,243.198 850.716,243.198L846.566,243.198C845.894,243.198 845.493,243.588 845.367,244.367C845.359,244.375 845.355,244.404 845.355,244.452C845.355,244.663 845.466,244.769 845.691,244.769L850.308,244.769C850.787,244.769 851.195,244.936 851.532,245.271C851.874,245.605 852.046,246.012 852.046,246.49C852.046,246.968 851.878,247.375 851.543,247.709" style="fill:rgb(168,168,170);fill-rule:nonzero;"/>
        <path d="M860.289,244.381C860.289,244.045 860.172,243.76 859.941,243.527C859.701,243.287 859.412,243.167 859.076,243.167L855.264,243.167C854.928,243.167 854.643,243.283 854.412,243.515C854.172,243.756 854.051,244.045 854.051,244.381L854.051,246.377C854.051,246.714 854.176,247.003 854.424,247.243C854.672,247.484 854.963,247.604 855.299,247.604L859.041,247.604C859.369,247.604 859.66,247.488 859.916,247.256C860.164,247.015 860.289,246.727 860.289,246.39L860.289,244.381ZM860.721,247.772C860.416,248.076 860.049,248.228 859.617,248.228L854.723,248.228C854.291,248.228 853.924,248.076 853.619,247.772C853.316,247.468 853.164,247.101 853.164,246.669L853.164,244.102C853.164,243.67 853.316,243.302 853.619,242.999C853.924,242.695 854.291,242.543 854.723,242.543L859.617,242.543C860.049,242.543 860.416,242.695 860.721,242.999C861.023,243.302 861.176,243.67 861.176,244.102L861.176,246.669C861.176,247.101 861.023,247.468 860.721,247.772" style="fill:rgb(168,168,170);fill-rule:nonzero;"/>
        <path d="M608.596,699.637L612.059,699.637C612.31,699.637 612.558,699.682 612.798,699.77C613.023,699.854 613.181,699.959 613.271,700.084C613.665,700.631 614.312,700.662 614.71,700.265C614.89,700.085 614.981,699.866 614.981,699.614C614.981,699.407 614.903,699.202 614.748,699.005C614.26,698.376 613.568,698.057 612.69,698.057L608.035,698.057C607.474,698.057 606.99,698.255 606.597,698.646C606.206,699.036 606.008,699.52 606.008,700.082C606.008,700.646 606.209,701.13 606.606,701.52C607,701.909 607.486,702.108 608.047,702.108L612.367,702.108C613.137,702.108 613.137,702.434 613.137,702.59C613.137,702.746 613.137,703.073 612.403,703.073L608.922,703.073C608.676,703.073 608.426,703.027 608.18,702.938C607.957,702.856 607.799,702.75 607.709,702.624C607.448,702.26 607.141,702.184 606.93,702.184C606.681,702.184 606.456,702.279 606.283,702.455C606.103,702.631 606.008,702.857 606.008,703.106C606.008,703.314 606.086,703.519 606.24,703.716C606.721,704.337 607.409,704.653 608.287,704.653L612.942,704.653C613.505,704.653 613.992,704.448 614.388,704.042C614.782,703.64 614.981,703.152 614.981,702.59C614.981,702.029 614.782,701.54 614.388,701.138C613.992,700.733 613.507,700.528 612.946,700.528L608.621,700.528C607.852,700.528 607.852,700.215 607.852,700.082C607.852,699.938 607.852,699.637 608.596,699.637" style="fill:rgb(168,168,170);fill-rule:nonzero;"/>
        <path d="M624.008,700.262C624.008,700.434 623.948,700.576 623.827,700.697C623.702,700.818 623.558,700.877 623.385,700.877L619.168,700.877C619.044,700.877 618.945,700.835 618.855,700.747C618.767,700.659 618.725,700.558 618.725,700.436L618.725,700.078C618.725,699.953 618.765,699.852 618.851,699.762C618.935,699.677 619.031,699.637 619.156,699.637L623.397,699.637C623.568,699.637 623.709,699.697 623.828,699.819C623.949,699.944 624.008,700.089 624.008,700.262M623.658,698.057L617.803,698.057C617.553,698.057 617.334,698.148 617.15,698.328C616.972,698.51 616.881,698.729 616.881,698.979L616.881,703.731C616.881,703.979 616.975,704.203 617.152,704.38C617.332,704.561 617.552,704.653 617.803,704.653C618.054,704.653 618.274,704.561 618.454,704.38C618.631,704.203 618.725,703.979 618.725,703.731L618.725,702.903C618.725,702.776 618.765,702.674 618.851,702.584C618.936,702.497 619.033,702.457 619.158,702.457L623.658,702.457C624.259,702.457 624.781,702.239 625.212,701.807C625.636,701.375 625.852,700.852 625.852,700.25C625.852,699.648 625.636,699.126 625.21,698.7C624.783,698.274 624.261,698.057 623.658,698.057" style="fill:rgb(168,168,170);fill-rule:nonzero;"/>
        <path d="M635.481,700.322L635.481,702.326C635.481,702.529 635.406,702.699 635.25,702.847C635.095,702.999 634.919,703.072 634.711,703.072L630.067,703.072C629.86,703.072 629.683,702.999 629.525,702.846C629.373,702.699 629.297,702.529 629.297,702.326L629.297,700.322C629.297,700.118 629.369,699.949 629.515,699.805C629.668,699.657 629.834,699.588 630.042,699.588L634.747,699.588C634.952,699.588 635.121,699.658 635.266,699.804C635.411,699.948 635.481,700.117 635.481,700.322M635.288,698.008L629.491,698.008C628.928,698.008 628.443,698.208 628.048,698.602C627.654,698.997 627.454,699.483 627.454,700.047L627.454,702.613C627.454,703.176 627.656,703.661 628.055,704.058C628.454,704.452 628.94,704.652 629.501,704.652L635.288,704.652C635.85,704.652 636.335,704.452 636.73,704.057C637.125,703.66 637.325,703.175 637.325,702.613L637.325,700.047C637.325,699.485 637.125,699 636.73,698.602C636.335,698.208 635.85,698.008 635.288,698.008" style="fill:rgb(168,168,170);fill-rule:nonzero;"/>
        <path d="M646.352,700.262C646.352,700.434 646.292,700.576 646.171,700.697C646.046,700.818 645.902,700.877 645.729,700.877L641.512,700.877C641.388,700.877 641.289,700.835 641.199,700.747C641.111,700.659 641.069,700.558 641.069,700.436L641.069,700.078C641.069,699.953 641.109,699.852 641.195,699.762C641.279,699.677 641.375,699.637 641.5,699.637L645.741,699.637C645.912,699.637 646.053,699.697 646.172,699.819C646.293,699.944 646.352,700.089 646.352,700.262M647.866,701.42C648.084,701.066 648.196,700.672 648.196,700.25C648.196,699.648 647.98,699.126 647.554,698.7C647.127,698.274 646.605,698.057 646.002,698.057L640.147,698.057C639.897,698.057 639.678,698.148 639.494,698.328C639.316,698.51 639.225,698.729 639.225,698.979L639.225,703.741C639.225,703.993 639.316,704.212 639.496,704.392C639.857,704.753 640.435,704.754 640.8,704.391C640.978,704.209 641.069,703.99 641.069,703.739L641.069,702.907C641.069,702.779 641.109,702.676 641.195,702.586C641.281,702.498 641.378,702.457 641.502,702.457L644.383,702.457C644.545,702.457 644.677,702.511 644.798,702.625L646.646,704.407C646.827,704.577 647.033,704.664 647.256,704.664C647.507,704.664 647.73,704.569 647.915,704.38C648.101,704.195 648.196,703.972 648.196,703.719C648.196,703.474 648.103,703.257 647.917,703.072L647.027,702.201C647.374,702.021 647.656,701.758 647.866,701.42" style="fill:rgb(168,168,170);fill-rule:nonzero;"/>
        <path d="M658.025,698.057L650.177,698.057C649.956,698.057 649.766,698.135 649.62,698.285C649.465,698.435 649.388,698.624 649.388,698.846C649.388,699.066 649.468,699.261 649.618,699.408C649.77,699.56 649.958,699.637 650.177,699.637L653.168,699.638L653.168,703.741C653.168,703.994 653.262,704.214 653.451,704.395C653.635,704.566 653.854,704.653 654.101,704.653C654.354,704.653 654.573,704.56 654.749,704.377C654.921,704.201 655.011,703.977 655.011,703.731L655.012,699.637L658.025,699.637C658.243,699.637 658.436,699.558 658.587,699.408C658.737,699.257 658.816,699.063 658.816,698.846C658.816,698.63 658.737,698.437 658.588,698.288C658.44,698.137 658.245,698.057 658.025,698.057" style="fill:rgb(168,168,170);fill-rule:nonzero;"/>
        <path d="M670.018,698.043L669.797,698.043C669.593,698.043 669.378,698.161 669.139,698.406L665.437,702.235L661.709,698.33C661.516,698.14 661.308,698.043 661.09,698.043L660.829,698.043C660.63,698.043 660.452,698.118 660.318,698.255C660.173,698.395 660.096,698.573 660.096,698.772L660.096,703.922C660.096,704.119 660.169,704.292 660.316,704.439C660.605,704.722 661.06,704.726 661.353,704.437C661.496,704.294 661.571,704.111 661.571,703.908L661.549,699.984C661.558,699.984 661.58,699.995 661.609,700.023L664.818,703.403C665.164,703.771 665.724,703.756 666.064,703.392L669.242,700.057C669.254,700.043 669.265,700.033 669.274,700.026L669.274,703.922C669.274,704.116 669.349,704.294 669.494,704.439C669.638,704.58 669.813,704.652 670.012,704.652C670.21,704.652 670.39,704.578 670.529,704.439C670.673,704.298 670.748,704.114 670.748,703.908L670.748,698.76C670.748,698.311 670.476,698.043 670.018,698.043" style="fill:rgb(168,168,170);fill-rule:nonzero;"/>
        <path d="M673.592,698.043C673.386,698.043 673.203,698.118 673.066,698.259C672.921,698.403 672.848,698.576 672.848,698.773L672.848,703.934C672.848,704.13 672.925,704.307 673.068,704.444C673.206,704.58 673.388,704.652 673.592,704.652C673.79,704.652 673.969,704.577 674.107,704.437C674.249,704.294 674.324,704.116 674.324,703.922L674.324,698.76C674.324,698.311 674.05,698.043 673.592,698.043" style="fill:rgb(168,168,170);fill-rule:nonzero;"/>
        <path d="M685.297,699.256C685.441,699.163 685.633,699.016 685.633,698.799C685.633,698.667 685.589,698.474 685.377,698.305C685.107,698.089 684.821,698.044 684.489,698.239L681.756,700.076C681.359,700.352 680.776,700.375 680.335,700.087L677.55,698.237C677.283,698.066 676.945,698.079 676.673,698.307C676.467,698.474 676.424,698.659 676.424,698.785C676.424,699.035 676.661,699.199 676.743,699.255L679.412,701.026C679.554,701.115 679.614,701.236 679.608,701.426C679.608,701.677 679.509,701.774 679.423,701.831L676.741,703.61C676.605,703.701 676.424,703.848 676.424,704.059C676.424,704.191 676.469,704.383 676.683,704.551C676.949,704.76 677.243,704.798 677.552,704.624L680.296,702.805C680.759,702.499 681.276,702.493 681.722,702.791L684.504,704.619C684.632,704.693 684.767,704.731 684.902,704.731C685.076,704.731 685.239,704.666 685.384,704.543C685.59,704.376 685.633,704.191 685.633,704.065C685.633,703.809 685.38,703.647 685.3,703.595L682.651,701.837C682.504,701.739 682.436,701.613 682.436,701.446C682.441,701.261 682.507,701.131 682.64,701.04L685.297,699.256Z" style="fill:rgb(168,168,170);fill-rule:nonzero;"/>
        <path d="M689.945,699.231L693.539,699.231C693.844,699.231 694.143,699.283 694.427,699.384C694.731,699.493 694.948,699.638 695.075,699.822C695.404,700.273 695.917,700.287 696.217,699.98C696.36,699.84 696.435,699.659 696.435,699.454C696.435,699.293 696.37,699.127 696.241,698.965C695.77,698.354 695.095,698.044 694.235,698.044L688.465,698.055C688.269,698.055 688.091,698.129 687.95,698.271C687.807,698.414 687.732,698.591 687.732,698.786L687.732,703.936C687.732,704.385 688.007,704.653 688.465,704.653L694.236,704.653C695.093,704.653 695.768,704.345 696.24,703.738C696.372,703.569 696.435,703.408 696.435,703.245C696.435,703.042 696.36,702.86 696.221,702.72C695.913,702.404 695.403,702.419 695.071,702.883C694.949,703.061 694.743,703.206 694.46,703.31C694.155,703.421 693.849,703.477 693.552,703.477L689.957,703.477C689.747,703.477 689.573,703.407 689.424,703.26C689.279,703.12 689.209,702.95 689.209,702.739C689.209,702.526 689.278,702.351 689.424,702.204C689.565,702.058 689.735,701.987 689.943,701.987L693.705,701.987C693.899,701.987 694.071,701.929 694.212,701.818C694.418,701.662 694.461,701.476 694.461,701.348C694.461,701.222 694.419,701.038 694.215,700.878C694.071,700.765 693.899,700.708 693.705,700.708L689.957,700.708C689.746,700.708 689.571,700.638 689.424,700.495C689.279,700.354 689.209,700.185 689.209,699.977C689.209,699.765 689.278,699.592 689.423,699.447C689.565,699.301 689.735,699.231 689.945,699.231" style="fill:rgb(168,168,170);fill-rule:nonzero;"/>
        <path d="M706.258,700.17C706.258,700.43 706.169,700.646 705.987,700.827C705.806,701.009 705.59,701.098 705.328,701.098L700.76,701.098C700.55,701.098 700.376,701.027 700.227,700.883C700.082,700.742 700.012,700.573 700.012,700.365L700.012,699.977C700.012,699.767 700.081,699.593 700.226,699.446C700.368,699.301 700.538,699.231 700.748,699.231L705.34,699.231C705.6,699.231 705.813,699.32 705.991,699.505C706.171,699.689 706.258,699.906 706.258,700.17M706.555,702.056C707.337,701.666 707.733,701.028 707.733,700.16C707.733,699.574 707.525,699.069 707.113,698.658C706.7,698.25 706.196,698.043 705.612,698.043L699.268,698.043C699.07,698.043 698.891,698.118 698.753,698.259C698.611,698.401 698.535,698.583 698.535,698.785L698.535,703.934C698.535,704.133 698.612,704.312 698.755,704.448C699.04,704.733 699.511,704.73 699.788,704.452C699.935,704.312 700.012,704.133 700.012,703.934L700.012,703.037C700.012,702.825 700.083,702.651 700.23,702.505C700.378,702.358 700.546,702.285 700.746,702.285L703.846,702.285C704.1,702.285 704.31,702.369 704.489,702.542L706.489,704.464C706.624,704.596 706.8,704.666 706.994,704.666C707.193,704.666 707.366,704.594 707.513,704.45C707.656,704.31 707.733,704.127 707.733,703.922C707.733,703.712 707.65,703.526 707.499,703.39L706.503,702.435C706.429,702.36 706.42,702.299 706.42,702.26C706.42,702.18 706.445,702.114 706.555,702.056" style="fill:rgb(168,168,170);fill-rule:nonzero;"/>
        <path d="M712.981,698.082L709.168,698.082C708.929,698.082 708.768,698.246 708.768,698.49C708.768,698.729 708.929,698.891 709.168,698.891L710.61,698.855L710.61,700.863C710.61,701.143 710.794,701.322 711.079,701.322C711.205,701.322 711.318,701.274 711.404,701.188C711.498,701.099 711.547,700.984 711.547,700.857L711.518,698.891L712.983,698.891C713.226,698.891 713.389,698.729 713.389,698.49C713.389,698.246 713.225,698.082 712.981,698.082" style="fill:rgb(168,168,170);fill-rule:nonzero;"/>
        <path d="M718.293,698.082L718.193,698.082C718.023,698.082 717.889,698.197 717.799,698.287L716.239,699.901L714.663,698.25C714.548,698.139 714.422,698.082 714.289,698.082L714.172,698.082C714.046,698.082 713.933,698.13 713.843,698.22C713.753,698.31 713.705,698.423 713.705,698.547L713.705,700.857C713.705,700.981 713.753,701.095 713.843,701.185C714.021,701.363 714.327,701.359 714.499,701.188C714.593,701.099 714.643,700.981 714.643,700.85L714.643,699.437L715.858,700.718C716.067,700.94 716.423,700.931 716.618,700.714L717.82,699.453L717.82,700.855C717.82,700.983 717.87,701.099 717.96,701.185C718.05,701.274 718.164,701.322 718.289,701.322C718.413,701.322 718.531,701.273 718.62,701.185C718.71,701.095 718.758,700.979 718.758,700.852L718.758,698.541C718.758,698.262 718.575,698.082 718.293,698.082" style="fill:rgb(168,168,170);fill-rule:nonzero;"/>
    </g>
</svg>
