<?xml version="1.0" standalone="no"?><!DOCTYPE svg PUBLIC "-//W3C//DTD SVG 1.1//EN" "http://www.w3.org/Graphics/SVG/1.1/DTD/svg11.dtd"><svg width="100%" height="100%" viewBox="0 0 835 123" version="1.1" xmlns="http://www.w3.org/2000/svg" xmlns:xlink="http://www.w3.org/1999/xlink" xml:space="preserve" style="fill-rule:evenodd;clip-rule:evenodd;stroke-linejoin:round;stroke-miterlimit:1.41421;"><path d="M580.848,56.472l0,-0.114c9.251,-2.671 14.346,-10.19 14.346,-18.884c0,-13.553 -9.258,-20.494 -23.617,-20.494l-31.741,0l0,82.698l32.656,0c12.866,0 25.126,-7.528 25.126,-23.046c0,-9.736 -5.779,-18.181 -16.77,-20.16ZM549.226,24.975l20.372,0c9.388,0 16.439,4.036 16.439,13.903c0,9.836 -7.743,14.469 -17.017,14.469l-19.794,0l0,-28.372ZM570.528,91.687l-21.302,0l0,-30.464l21.186,0c10.189,0 17.832,4.519 17.832,14.939c0,10.548 -7.643,15.525 -17.716,15.525ZM827.825,46.345c0,-1.309 -1.038,-2.411 -2.527,-2.411l-2.949,0l0,7.861l1.448,0l0,-3.12l0.983,0l1.624,3.12l1.623,0l-1.746,-3.308c0.865,-0.309 1.544,-1.035 1.544,-2.142ZM825.109,47.535l-1.312,0l0,-2.381l1.312,0c0.775,0 1.295,0.531 1.295,1.191c0,0.667 -0.52,1.19 -1.295,1.19ZM824.881,40.606c-4.021,0 -7.288,3.239 -7.288,7.276c0,4.023 3.267,7.277 7.288,7.277c4.015,0 7.291,-3.254 7.291,-7.277c-0.002,-4.037 -3.277,-7.276 -7.291,-7.276ZM824.881,53.807c-3.263,0 -5.84,-2.612 -5.84,-5.925c0,-3.319 2.577,-5.937 5.84,-5.937c3.254,0 5.8,2.618 5.8,5.937c0,3.313 -2.546,5.925 -5.8,5.925ZM789.64,40.375c-14.011,0 -24.891,8.924 -24.891,24.909l0,12.275c0,15.982 10.773,23.623 25.008,23.623c8.344,0 16.679,-2.776 21.889,-10.89l-6.589,-3.944c-3.131,3.944 -8.003,7.422 -14.721,7.422c-10.176,0 -16.681,-5.912 -16.681,-15.401l0,-6.024l39.034,0l0,-9.157c0.002,-15.057 -10.186,-22.813 -23.049,-22.813ZM804.118,66.314l-30.462,0l0,-2.539c0,-9.271 6.148,-16.221 15.526,-16.221c9.727,0 14.936,6.606 14.936,15.413l0,3.347ZM746.625,85.777l0,-68.793l-8.679,0l0,68.443c0,6.729 2.2,14.949 13.319,14.949c2.772,0 6.364,-0.46 9.258,-1.392l0,-6.605c-2.078,0.232 -4.05,0.585 -6.363,0.585c-5.334,-0.001 -7.535,-3.13 -7.535,-7.187ZM712.26,23.47l-8.556,0l0,18.18l-26.767,0l0,-18.189l-8.573,0l0,18.189l-10.075,0l0,6.944l10.075,0l0,38.917c0,9.96 6.825,13.216 14.469,13.216c1.89,0 5.161,-0.218 8.203,-0.85l0,-7.583c-1.896,0.337 -3.801,0.553 -5.873,0.553c-5.217,0 -8.226,-1.733 -8.226,-7.53l0,-36.725l26.767,0l0,38.928c0,9.957 6.836,13.207 14.48,13.207c1.866,0 5.148,-0.212 8.187,-0.846l0,-7.588c-1.899,0.332 -3.801,0.551 -5.872,0.551c-5.222,0 -8.238,-1.73 -8.238,-7.528l0,-36.724l16.101,0l0,-6.942l-16.101,0l0,-18.18l-0.001,0ZM629.817,40.378c-13.09,0 -24.205,7.988 -24.205,23.27l0,15.061c0,14.711 10.307,22.47 24.55,22.47c13.201,0 24.097,-8.215 24.097,-23.394l0,-14.241c0,-14.714 -10.089,-23.166 -24.442,-23.166ZM645.455,78.13c0,10.433 -5.679,15.635 -15.293,15.635c-10.303,0 -15.854,-6.134 -15.854,-15.28l0,-15.294c0,-9.844 5.897,-15.524 15.509,-15.524c10.422,0 15.638,6.257 15.638,15.066l0,15.397Z" style="fill:#fff;fill-rule:nonzero;"/><path d="M191.226,56.011l0,-0.118c8.468,-3.953 11.728,-10.112 11.728,-17.548c0,-14.275 -9.523,-21.365 -25.537,-21.365l-35.539,0l0,82.805l37.504,0c13.702,0 26.122,-8.24 26.122,-23.807c0,-9.294 -4.762,-17.419 -14.278,-19.967M157.32,30.113l17.531,0c7.776,0 13,3.013 13,10.219c0,6.738 -4.523,10.675 -12.307,10.675l-18.224,0l0,-20.894ZM176.715,86.668l-19.395,0l0,-22.659l19.504,0c8.593,0 13.355,3.492 13.355,11.044c0,7.547 -5.217,11.615 -13.464,11.615ZM228.475,100.605c3.724,0 8.369,-0.816 11.376,-1.634l0,-10.798c-2.551,0.23 -3.938,0.463 -6.496,0.463c-3.824,0 -5.108,-2.196 -5.108,-4.871l0,-66.784l-14.164,0l0,66.898c-0.002,5.342 0.352,16.726 14.392,16.726ZM271.899,101.178c10.457,0 19.865,-3.948 24.504,-13.243l-10.912,-6.264c-3.135,4.523 -8.13,7.66 -12.891,7.66c-7.545,0 -13.699,-4.409 -13.699,-11.961l0,-3.253l38.203,0l0,-11.49c0,-15.794 -12.775,-23.354 -25.667,-23.354c-14.741,0 -27.286,9.302 -27.286,26.026l0,11.615c0,16.255 13.121,24.264 27.748,24.264ZM258.9,63.435c0,-8.941 6.503,-12.193 12.535,-12.193c5.818,0 11.498,3.252 11.498,11.385l0,1.625l-24.033,0l0,-0.817ZM525.426,39.166c-7.084,0 -15.908,4.757 -19.391,11.032l-0.23,0l0,-9.867l-13.825,0l0,59.463l14.172,0l0,-30.429c0,-11.044 8.001,-17.187 18.697,-17.187c1.975,0 3.473,0 5.339,0.346l0,-13.003c-1.512,-0.355 -3.247,-0.355 -4.762,-0.355ZM457.154,39.273c-14.749,0 -27.286,9.302 -27.286,26.026l0,11.615c0,16.255 13.118,24.264 27.742,24.264c10.447,0 19.865,-3.948 24.509,-13.243l-10.91,-6.264c-3.152,4.523 -8.137,7.66 -12.9,7.66c-7.549,0 -13.697,-4.409 -13.697,-11.961l0,-3.253l38.197,0l0,-11.49c0,-15.794 -12.763,-23.354 -25.655,-23.354ZM468.653,64.252l-24.04,0l0,-0.817c0,-8.941 6.493,-12.193 12.542,-12.193c5.81,0 11.5,3.252 11.5,11.385l0,1.625l-0.002,0ZM343.547,99.794l14.162,0l0,-38.098c0,-14.174 -7.433,-22.53 -20.778,-22.53c-6.627,0 -12.891,2.791 -16.846,8.479l-0.23,0l0,-7.314l-13.815,0l0,59.463l14.17,0l0,-33.343c0,-10.097 4.528,-14.86 12.306,-14.86c7.196,0 11.033,4.763 11.033,13.705l0,34.498l-0.002,0ZM390.113,101.182c5.339,0 13.344,-3.368 16.715,-8.013l0.122,0l0,6.62l13.807,0l0,-82.808l-14.156,0l0,29.504l-0.35,0c-3.029,-3.953 -8.479,-7.322 -15.104,-7.322c-13.23,0 -24.494,8.016 -24.494,24.156l0,14.404c-0.002,15.214 10.446,23.459 23.46,23.459ZM381.051,62.856c0,-8.593 6.5,-11.722 12.431,-11.722c7.303,0 13.119,4.292 13.119,11.497l0,14.627c0,8.587 -6.738,11.733 -12.667,11.733c-7.312,0 -12.882,-4.187 -12.882,-11.385l0,-14.75l-0.001,0Z" style="fill:#fff;fill-rule:nonzero;"/><path d="M110.143,56.458c-1.353,1.207 -4.867,4.347 -13.166,10.598c-36.971,27.86 -64.933,38.996 -65.418,39.195c-0.194,0.078 -0.417,0.009 -0.518,-0.175c-0.102,-0.183 -0.044,-0.416 0.132,-0.532c2.995,-1.962 5.911,-4.067 8.811,-6.253c41.434,-31.223 66.673,-58.638 70.656,-62.932c1.396,-1.504 3.31,-3.765 3.575,-5.519c0.316,-2.028 -0.896,-5.021 -3.584,-8.587c-2.688,-3.565 -5.231,-5.556 -7.265,-5.812c-1.76,-0.228 -4.463,0.991 -6.291,1.917c-5.225,2.643 -38.535,19.351 -79.97,50.573c-2.9,2.186 -5.726,4.408 -8.439,6.744c-0.16,0.14 -0.398,0.13 -0.547,-0.017c-0.15,-0.149 -0.154,-0.383 -0.024,-0.547c0.326,-0.412 18.734,-24.221 55.705,-52.084c8.298,-6.25 12.285,-8.763 13.818,-9.732c2.326,-1.47 6.344,-4.557 3.287,-8.614c-1.696,-2.25 -5.471,-3.971 -10.048,-4.626c-1.506,-0.148 -2.468,0.031 -3.587,0.199c-8.339,1.245 -27.134,9.548 -45.609,23.471c-4.741,3.571 -9.263,7.52 -11.074,9.158c-0.156,0.143 -0.396,0.139 -0.55,-0.007c-0.154,-0.148 -0.165,-0.388 -0.028,-0.549c0.463,-0.699 0.628,-0.944 1.675,-2.258c5.603,-7.034 13.728,-14.714 20.605,-19.915c0.339,-0.25 2.319,-1.724 3.874,-2.558c0.755,-0.407 1.187,-0.431 1.845,-0.619c0.257,-0.072 0.504,-0.2 0.552,-0.866c0.024,-0.376 -0.124,-0.722 -0.392,-1.079c-0.873,-1.159 -1.963,-1.199 -2.535,-1.191c-1.649,0.023 -3.746,0.724 -9.907,5.367c-8.257,6.224 -14.176,12.663 -17.108,16.325c-2.042,2.548 -5.889,7.665 -6.609,12.37c-0.188,1.164 -0.486,4.073 0.928,5.95c2.459,3.263 6.627,0.465 7.834,-0.619c1.92,-1.723 6.682,-6.108 12.97,-10.847c18.759,-14.138 36.151,-22.06 45.769,-25.715c0,0 1.488,-0.583 2.143,-0.817c0.192,-0.069 0.469,0.038 0.533,0.286c0.063,0.245 -0.141,0.422 -0.267,0.491c-6.393,3.431 -12.379,6.612 -22.07,13.914c-16.777,12.643 -30.493,25.658 -41.994,39.864c-2.305,2.826 -6.166,7.551 -7.367,11.142c-1.902,5.682 2.316,12.368 3.092,13.403c4.132,5.484 9.242,0.469 13.598,-2.62c10.85,-7.691 35.381,-23.607 40.983,-27.318c16.407,-10.878 38.478,-23.847 40.111,-24.848c1.633,-1 4.521,-2.679 5.173,-2.989c0.17,-0.082 0.376,-0.032 0.492,0.119c0.112,0.151 0.105,0.365 -0.022,0.504c-0.477,0.541 -2.886,2.856 -4.3,4.149c-1.41,1.294 -19.963,18.936 -34.939,31.71c-5.113,4.361 -27.174,23.554 -37.558,31.865c-4.17,3.336 -10.397,6.863 -6.264,12.348c0.777,1.033 6.043,6.929 12.029,6.667c3.784,-0.165 9.392,-2.574 12.742,-4.009c16.825,-7.142 33.115,-16.74 49.894,-29.381c9.689,-7.304 14.398,-12.181 19.46,-17.379c0.099,-0.103 0.326,-0.25 0.543,-0.121c0.222,0.129 0.249,0.426 0.13,0.589c-0.406,0.566 -1.377,1.837 -1.377,1.837c-6.164,8.237 -18.573,22.769 -37.334,36.91c-6.289,4.738 -11.817,8.104 -14.002,9.475c-1.376,0.863 -5.211,4.098 -2.754,7.361c1.414,1.877 4.293,2.393 5.463,2.533c4.72,0.604 10.701,-1.684 13.712,-2.942c4.329,-1.812 12.151,-5.727 20.408,-11.947c6.162,-4.644 7.416,-6.466 7.891,-8.047c0.165,-0.544 0.427,-1.603 -0.447,-2.763c-0.269,-0.358 -0.561,-0.596 -0.929,-0.674c-0.654,-0.14 -0.843,0.062 -0.984,0.29c-0.362,0.581 -0.505,0.988 -1.105,1.604c-1.231,1.263 -3.192,2.763 -3.526,3.018c-6.895,5.179 -16.517,10.871 -24.822,14.317c-1.551,0.645 -1.833,0.738 -2.632,0.989c-0.194,0.088 -0.42,0.008 -0.52,-0.179c-0.1,-0.187 -0.037,-0.416 0.143,-0.529c2.076,-1.291 7.117,-4.548 11.858,-8.122c18.474,-13.924 31.637,-29.702 35.13,-37.374c0.47,-1.03 0.909,-1.904 1.182,-3.394c0.631,-4.578 0.019,-8.684 -1.677,-10.933c-3.056,-4.056 -7.132,-1.044 -9.187,0.787Z" style="fill:#fff;fill-rule:nonzero;"/></svg>