<?xml version="1.0" standalone="no"?>
<!DOCTYPE svg PUBLIC "-//W3C//DTD SVG 1.1//EN" "http://www.w3.org/Graphics/SVG/1.1/DTD/svg11.dtd" >
<svg>
<metadata>
Created by FontForge 20110222 at Mon Jun  9 07:25:58 2014
 By Orthosie Webhosting
Copyright (c) 2007 by George Triantafyllakos. All rights reserved.
</metadata>
<defs>
<font id="BPdotsSquares-Bold" horiz-adv-x="600" >
  <font-face 
    font-family="BPdotsSquares"
    font-weight="700"
    font-stretch="normal"
    units-per-em="1000"
    panose-1="2 0 5 6 0 0 0 2 0 4"
    ascent="800"
    descent="-200"
    x-height="490"
    cap-height="690"
    bbox="-16 -215 590 1115"
    underline-thickness="50"
    underline-position="-50"
    unicode-range="U+0020-2265"
  />
<missing-glyph 
 />
    <glyph glyph-name=".notdef" 
 />
    <glyph glyph-name="B" unicode="B" 
d="M-15 -15v705h405v-100h100v-205h-100v-95h100v-205h-100v-100h-405zM90 585v-195h295v195h-295zM90 285v-195h295v195h-295z" />
    <glyph glyph-name="C" unicode="C" 
d="M-15 85v505h100v100h305v-100h100v-105h-105v100h-295v-495h295v100h105v-105h-100v-100h-305v100h-100z" />
    <glyph glyph-name="D" unicode="D" 
d="M-15 -15v705h405v-100h100v-505h-100v-100h-405zM90 585v-495h295v495h-295z" />
    <glyph glyph-name="E" unicode="E" 
d="M-15 -15v705h505v-105h-400v-195h300v-105h-300v-195h400v-105h-505z" />
    <glyph glyph-name="F" unicode="F" 
d="M90 285v-300h-105v705h505v-105h-400v-195h300v-105h-300z" />
    <glyph glyph-name="G" unicode="G" 
d="M90 585v-495h295v95h-100v105h205v-305h-405v100h-100v505h100v100h305v-100h100v-105h-105v100h-295z" />
    <glyph glyph-name="H" unicode="H" 
d="M90 285v-300h-105v705h105v-300h295v300h105v-705h-105v300h-295z" />
    <glyph glyph-name="I" unicode="I" 
d="M-15 585v105h505v-105h-200v-495h200v-105h-505v105h200v495h-200z" />
    <glyph glyph-name="J" unicode="J" 
d="M-15 585v105h405v-605h-100v-100h-205v100h-100v105h105v-100h195v495h-300z" />
    <glyph glyph-name="K" unicode="K" 
d="M285 185v100h-195v-300h-105v705h105v-300h195v100h100v200h105v-205h-100v-100h-100v-95h100v-100h100v-205h-105v200h-100z" />
    <glyph glyph-name="L" unicode="L" 
d="M-15 -15v705h105v-600h400v-105h-505z" />
    <glyph glyph-name="M" unicode="M" 
d="M185 185v200h-95v-400h-105v705h105v-100h100v-200h95v200h100v100h105v-705h-105v400h-95v-200h-105z" />
    <glyph glyph-name="N" unicode="N" 
d="M185 285v200h-95v-500h-105v705h105v-100h100v-100h100v-200h95v400h105v-705h-105v200h-100v100h-100z" />
    <glyph glyph-name="P" unicode="P" 
d="M90 185v-200h-105v705h405v-100h100v-305h-100v-100h-300zM385 290v295h-295v-295h295z" />
    <glyph glyph-name="Q" unicode="Q" 
d="M-15 85v505h100v100h305v-100h100v-505h-100v-100h-100v-95h100v-105h-105v100h-100v100h-100v100h-100zM90 585v-495h95v100h105v-100h95v495h-295z" />
    <glyph glyph-name="R" unicode="R" 
d="M285 185v100h-195v-300h-105v705h405v-100h100v-205h-100v-195h100v-205h-105v200h-100zM90 585v-195h295v195h-295z" />
    <glyph glyph-name="S" unicode="S" 
d="M90 585v-195h300v-100h100v-205h-100v-100h-405v105h400v195h-300v100h-100v205h100v100h405v-105h-400z" />
    <glyph glyph-name="T" unicode="T" 
d="M-15 585v105h505v-105h-200v-600h-105v600h-200z" />
    <glyph glyph-name="U" unicode="U" 
d="M-15 85v605h105v-600h295v600h105v-605h-100v-100h-305v100h-100z" />
    <glyph glyph-name="W" unicode="W" 
d="M285 -15v200h-95v-200h-105v200h-100v505h105v-500h95v400h105v-400h95v500h105v-505h-100v-200h-105z" />
    <glyph glyph-name="V" unicode="V" 
d="M-15 285v405h105v-400h100v-200h95v200h100v400h105v-405h-100v-200h-100v-100h-105v100h-100v200h-100z" />
    <glyph glyph-name="X" unicode="X" 
d="M285 185v100h-95v-100h-100v-200h-105v205h100v100h100v95h-100v100h-100v205h105v-200h100v-100h95v100h100v200h105v-205h-100v-100h-100v-95h100v-100h100v-205h-105v200h-100z" />
    <glyph glyph-name="Y" unicode="Y" 
d="M-15 385v305h105v-300h100v-100h95v100h100v300h105v-305h-100v-100h-100v-300h-105v300h-100v100h-100z" />
    <glyph glyph-name="Z" unicode="Z" 
d="M-15 -15v205h100v100h100v100h100v100h100v95h-400v105h505v-205h-100v-100h-100v-100h-100v-100h-100v-95h400v-105h-505z" />
    <glyph glyph-name="backslash" unicode="\" 
d="M85 485v205h105v-200h100v-100h100v-200h100v-205h-105v200h-100v200h-100v100h-100z" />
    <glyph glyph-name="bracketright" unicode="]" 
d="M185 -15v105h100v495h-100v105h205v-705h-205z" />
    <glyph glyph-name="asciicircum" unicode="^" 
d="M285 585v100h-95v-100h-105v105h100v100h105v-100h100v-105h-105z" />
    <glyph glyph-name="underscore" unicode="_" 
d="M-15 -15v105h505v-105h-505z" />
    <glyph glyph-name="grave" unicode="`" 
d="M-15 685v105h105v-100h200v-105h-205v100h-100z" />
    <glyph glyph-name="exclam" unicode="!" 
d="M185 285v405h105v-405h-105zM185 -15v205h105v-205h-105z" />
    <glyph glyph-name="quotedbl" unicode="&#x22;" 
d="M85 385v105h100v200h105v-200h96v200h105v-205h-101v-100h-105v100h-95v-100h-105z" />
    <glyph glyph-name="numbersign" unicode="#" 
d="M285 -15v200h-95v-200h-105v200h-100v105h100v95h-100v105h100v200h105v-200h95v200h105v-200h100v-105h-100v-95h100v-105h-100v-200h-105zM190 385v-95h95v95h-95z" />
    <glyph glyph-name="dollar" unicode="$" 
d="M-15 -15v105h200v95h-100v100h-100v105h100v100h100v100h105v-100h200v-105h-200v-95h100v-100h100v-105h-100v-100h-100v-100h-105v100h-200zM290 185v-95h95v95h-95zM90 385v-95h95v95h-95z" />
    <glyph glyph-name="percent" unicode="%" 
d="M185 -15v200h-95v-200h-105v205h100v200h100v95h-200v205h205v-200h95v200h105v-205h-100v-100h-100v-195h200v-205h-205z" />
    <glyph glyph-name="ampersand" unicode="&#x26;" 
d="M-15 385v205h100v100h205v-105h-200v-195h400v-105h-100v-200h-100v-100h-205v100h-100v205h100v95h-100zM90 285v-195h195v195h-195z" />
    <glyph glyph-name="quotesingle" unicode="'" 
d="M185 386v105h100v200h105v-206h-100v-99h-105z" />
    <glyph glyph-name="parenleft" unicode="(" 
d="M185 85v505h100v100h105v-105h-100v-495h100v-105h-105v100h-100z" />
    <glyph glyph-name="parenright" unicode=")" 
d="M185 585v105h105v-100h100v-505h-100v-100h-105v105h100v495h-100z" />
    <glyph glyph-name="asterisk" unicode="*" 
d="M185 385v100h-95v-100h-105v105h100v95h-100v105h105v-100h95v100h105v-105h-100v-95h100v-105h-105z" />
    <glyph glyph-name="plus" unicode="+" 
d="M290 185v-200h-105v200h-200v105h200v200h105v-200h200v-105h-200z" />
    <glyph glyph-name="comma" unicode="," 
d="M85 -115v105h100v200h105v-205h-100v-100h-105z" />
    <glyph glyph-name="hyphen" unicode="-" 
d="M85 185v105h305v-105h-305z" />
    <glyph glyph-name="period" unicode="." 
d="M185 -15v205h105v-205h-105z" />
    <glyph glyph-name="slash" unicode="/" 
d="M85 -15v205h100v200h100v100h100v200h105v-205h-100v-100h-100v-200h-100v-200h-105z" />
    <glyph glyph-name="zero" unicode="0" 
d="M-15 85v305h100v100h305v-100h100v-305h-100v-100h-305v100h-100zM385 90v195h-95v-100h-100v-95h195zM90 385v-195h95v100h100v95h-195z" />
    <glyph glyph-name="one" unicode="1" 
d="M-15 -15v105h200v295h-200v105h305v-400h200v-105h-505z" />
    <glyph glyph-name="two" unicode="2" 
d="M-15 -15v105h100v100h100v100h200v95h-295v-100h-105v105h100v100h305v-100h100v-105h-100v-100h-200v-95h300v-105h-505z" />
    <glyph glyph-name="three" unicode="3" 
d="M-15 285v105h100v100h305v-100h100v-205h-100v-95h100v-205h-100v-100h-305v100h-100v105h105v-100h295v195h-300v105h300v195h-295v-100h-105z" />
    <glyph glyph-name="four" unicode="4" 
d="M-15 -15v205h100v100h100v100h100v100h105v-400h100v-105h-100v-200h-105v200h-300zM285 90v195h-95v-100h-100v-95h195z" />
    <glyph glyph-name="five" unicode="5" 
d="M90 385v-195h300v-100h100v-205h-100v-100h-405v105h400v195h-400v405h505v-105h-400z" />
    <glyph glyph-name="six" unicode="6" 
d="M190 585v-100h-100v-95h300v-100h100v-205h-100v-100h-305v100h-100v405h100v100h100v100h205v-105h-200zM90 285v-195h295v195h-295z" />
    <glyph glyph-name="seven" unicode="7" 
d="M-15 385v105h505v-205h-100v-100h-100v-100h-100v-300h-105v305h100v100h100v100h100v95h-400z" />
    <glyph glyph-name="eight" unicode="8" 
d="M-15 85v205h100v95h-100v205h100v100h305v-100h100v-205h-100v-95h100v-205h-100v-100h-305v100h-100zM90 285v-195h295v195h-295zM90 585v-195h295v195h-295z" />
    <glyph glyph-name="nine" unicode="9" 
d="M85 -215v105h200v100h100v95h-300v100h-100v205h100v100h305v-100h100v-405h-100v-100h-100v-100h-205zM90 385v-195h295v195h-295z" />
    <glyph glyph-name="colon" unicode=":" 
d="M185 -15v205h105v-205h-105zM185 285v205h105v-205h-105z" />
    <glyph glyph-name="semicolon" unicode=";" 
d="M85 -115v105h100v200h105v-205h-100v-100h-105zM185 285v205h105v-205h-105z" />
    <glyph glyph-name="less" unicode="&#x3c;" 
d="M85 185v105h100v100h100v100h105v-105h-100v-100h-100v-95h100v-100h100v-105h-105v100h-100v100h-100z" />
    <glyph glyph-name="equal" unicode="=" 
d="M-15 85v105h505v-105h-505zM-15 285v105h505v-105h-505z" />
    <glyph glyph-name="greater" unicode="&#x3e;" 
d="M185 385v105h105v-100h100v-100h100v-105h-100v-100h-100v-100h-105v105h100v100h100v95h-100v100h-100z" />
    <glyph glyph-name="question" unicode="?" 
d="M-15 485v105h100v100h305v-100h100v-205h-100v-100h-205v105h200v195h-295v-100h-105zM185 -15v205h105v-205h-105z" />
    <glyph glyph-name="at" unicode="@" 
d="M90 185v-95h400v-105h-405v100h-100v505h100v100h305v-100h100v-405h-400zM90 585v-195h95v100h200v95h-295zM190 385v-95h95v95h-95z" />
    <glyph glyph-name="braceleft" unicode="{" 
d="M85 285v105h100v200h100v100h105v-105h-100v-200h-100v-95h100v-200h100v-105h-105v100h-100v200h-100z" />
    <glyph glyph-name="bar" unicode="|" 
d="M185 -15v705h105v-705h-105z" />
    <glyph glyph-name="braceright" unicode="}" 
d="M185 585v105h105v-100h100v-200h100v-105h-100v-200h-100v-100h-105v105h100v200h100v95h-100v200h-100z" />
    <glyph glyph-name="asciitilde" unicode="~" 
d="M-15 285v105h100v100h105v-100h100v-100h95v100h105v-105h-100v-100h-105v100h-100v100h-95v-100h-105z" />
    <glyph glyph-name="Euro" unicode="&#x20ac;" 
d="M190 585v-95h200v-105h-200v-95h100v-105h-100v-95h300v-105h-305v100h-100v100h-100v105h100v95h-100v105h100v100h100v100h305v-105h-300z" />
    <glyph glyph-name="quotesinglbase" unicode="&#x201a;" 
d="M185 -115v105h100v200h105v-205h-100v-100h-105z" />
    <glyph glyph-name="florin" unicode="&#x192;" 
d="M290 385v-500h-100v-100h-205v105h200v495h-100v105h100v100h100v100h205v-105h-200v-95h200v-105h-200z" />
    <glyph glyph-name="quotedblbase" unicode="&#x201e;" 
d="M285 -115v100h-95v-100h-105v105h100v200h105v-200h95v200h105v-205h-100v-100h-105z" />
    <glyph glyph-name="ellipsis" unicode="&#x2026;" 
d="M-15 -15v205h105v-205h-105zM385 -15v205h105v-205h-105zM185 -15v205h105v-205h-105z" />
    <glyph glyph-name="dagger" unicode="&#x2020;" 
d="M85 385v105h100v200h105v-200h100v-105h-100v-400h-105v400h-100z" />
    <glyph glyph-name="daggerdbl" unicode="&#x2021;" 
d="M85 385v105h100v200h105v-200h100v-105h-100v-95h100v-105h-100v-200h-105v200h-100v105h100v95h-100z" />
    <glyph glyph-name="perthousand" unicode="&#x2030;" 
d="M185 -15v200h-95v-200h-105v205h100v200h100v100h100v200h105v-205h-100v-100h-100v-195h100v-205h-105zM-15 485v205h105v-205h-105zM385 -15v205h105v-205h-105z" />
    <glyph glyph-name="guilsinglleft" unicode="&#x2039;" 
d="M85 185v105h100v100h100v100h105v-105h-100v-100h-100v-95h100v-100h100v-105h-105v100h-100v100h-100z" />
    <glyph glyph-name="quoteleft" unicode="&#x2018;" 
d="M185 385v205h100v100h105v-105h-100v-200h-105z" />
    <glyph glyph-name="quoteright" unicode="&#x2019;" 
d="M185 385v105h100v200h105v-205h-100v-100h-105z" />
    <glyph glyph-name="quotedblleft" unicode="&#x201c;" 
d="M285 385v200h-95v-200h-105v205h100v100h105v-100h95v100h105v-105h-100v-200h-105z" />
    <glyph glyph-name="quotedblright" unicode="&#x201d;" 
d="M285 385v100h-95v-100h-105v105h100v200h105v-200h95v200h105v-205h-100v-100h-105z" />
    <glyph glyph-name="bullet" unicode="&#x2022;" 
d="M-15 185v305h305v-305h-305z" />
    <glyph glyph-name="endash" unicode="&#x2013;" 
d="M85 185v105h305v-105h-305z" />
    <glyph glyph-name="emdash" unicode="&#x2014;" 
d="M-15 185v105h505v-105h-505z" />
    <glyph glyph-name="trademark" unicode="&#x2122;" 
d="M285 385v200h-95v-200h-105v200h-100v105h405v-100h95v100h105v-305h-105v100h-95v-100h-105z" />
    <glyph glyph-name="guilsinglright" unicode="&#x203a;" 
d="M185 385v105h105v-100h100v-100h100v-105h-100v-100h-100v-100h-105v105h100v100h100v95h-100v100h-100z" />
    <glyph glyph-name="dieresistonos" unicode="&#x385;" 
d="M185 585v305h105v-305h-105zM-15 585v205h105v-205h-105zM385 585v205h105v-205h-105z" />
    <glyph glyph-name="sterling" unicode="&#xa3;" 
d="M-15 285v105h100v200h100v100h205v-100h100v-105h-105v100h-195v-195h200v-105h-200v-195h300v-105h-505v105h100v195h-100z" />
    <glyph glyph-name="currency" unicode="&#xa4;" 
d="M90 85v-100h-105v105h100v295h-100v105h105v-100h295v100h105v-105h-100v-295h100v-105h-105v100h-295zM190 285v-95h95v95h-95z" />
    <glyph glyph-name="yen" unicode="&#xa5;" 
d="M-15 485v205h105v-200h100v-100h95v100h100v200h105v-205h-100v-100h-100v-95h200v-105h-200v-200h-105v200h-200v105h200v95h-100v100h-100z" />
    <glyph glyph-name="brokenbar" unicode="&#xa6;" 
d="M185 -15v305h105v-305h-105zM185 385v305h105v-305h-105z" />
    <glyph glyph-name="section" unicode="&#xa7;" 
d="M85 -15v105h300v95h-200v100h-100v105h100v95h-100v105h100v100h305v-105h-300v-95h200v-100h100v-105h-100v-95h100v-105h-100v-100h-305zM190 385v-95h195v95h-195z" />
    <glyph glyph-name="dieresis" unicode="&#xa8;" 
d="M-15 585v205h105v-205h-105zM385 585v205h105v-205h-105z" />
    <glyph glyph-name="copyright" unicode="&#xa9;" 
d="M-15 85v305h100v100h305v-100h100v-305h-100v-100h-305v100h-100zM385 90v295h-95v-100h-100v-95h100v-100h95zM90 185v-95h95v95h-95zM90 385v-95h95v95h-95z" />
    <glyph glyph-name="guillemotleft" unicode="&#xab;" 
d="M-15 185v105h100v100h100v100h105v-100h95v100h105v-105h-100v-100h-100v-95h100v-100h100v-105h-105v100h-95v-100h-105v100h-100v100h-100zM190 385v-95h95v95h-95zM90 285v-95h95v95h-95zM190 185v-95h95v95h-95z" />
    <glyph glyph-name="logicalnot" unicode="&#xac;" 
d="M-15 185v105h505v-305h-105v200h-400z" />
    <glyph glyph-name="uni00AD" unicode="&#xad;" 
d="M85 185v105h305v-105h-305z" />
    <glyph glyph-name="registered" unicode="&#xae;" 
d="M-15 285v305h100v100h305v-100h100v-305h-100v-100h-305v100h-100zM185 385v200h-95v-295h195v95h-100zM290 485v-95h95v95h-95z" />
    <glyph glyph-name="degree" unicode="&#xb0;" 
d="M-15 485v105h100v100h105v-100h100v-105h-100v-100h-105v100h-100zM90 585v-95h95v95h-95z" />
    <glyph glyph-name="plusminus" unicode="&#xb1;" 
d="M-15 285v105h200v100h105v-100h200v-105h-200v-100h-105v100h-200zM-15 -15v105h505v-105h-505z" />
    <glyph glyph-name="twosuperior" unicode="&#xb2;" 
d="M-15 285v205h100v95h-100v105h105v-100h100v-105h-100v-95h100v-105h-205z" />
    <glyph glyph-name="threesuperior" unicode="&#xb3;" 
d="M-15 285v105h100v195h-100v105h105v-100h100v-305h-205z" />
    <glyph glyph-name="tonos" unicode="&#x384;" 
d="M-15 585v105h100v100h105v-105h-100v-100h-105z" />
    <glyph glyph-name="mu" unicode="&#xb5;" 
d="M-15 -215v705h105v-400h195v100h100v300h105v-505h-105v100h-95v-100h-200v-200h-105z" />
    <glyph glyph-name="paragraph" unicode="&#xb6;" 
d="M-15 385v205h100v100h205v-705h-105v300h-100v100h-100zM385 -15v705h105v-705h-105z" />
    <glyph glyph-name="periodcentered" unicode="&#xb7;" 
d="M85 185v205h105v-205h-105z" />
    <glyph glyph-name="guillemotright" unicode="&#xbb;" 
d="M185 -15v100h-95v-100h-105v105h100v100h100v95h-100v100h-100v105h105v-100h95v100h105v-100h100v-100h100v-105h-100v-100h-100v-100h-105zM290 285v-95h95v95h-95zM190 185v-95h95v95h-95zM190 385v-95h95v95h-95z" />
    <glyph glyph-name="onehalf" unicode="&#xbd;" 
d="M385 285v100h-95v-200h-100v-200h-105v205h100v195h-100v200h-100v105h205v-300h95v100h100v200h105v-205h-100v-95h100v-100h100v-105h-100v-95h100v-105h-205v205h100v95h-100z" />
    <glyph glyph-name="Alpha" unicode="&#x391;" 
d="M90 185v-200h-105v605h100v100h305v-100h100v-605h-105v200h-295zM90 585v-295h295v295h-295z" />
    <glyph glyph-name="Beta" unicode="&#x392;" 
d="M-15 -15v705h405v-100h100v-205h-100v-95h100v-205h-100v-100h-405zM90 585v-195h295v195h-295zM90 285v-195h295v195h-295z" />
    <glyph glyph-name="Gamma" unicode="&#x393;" 
d="M-15 -15v705h505v-105h-400v-600h-105z" />
    <glyph glyph-name="Delta" unicode="&#x2206;" 
d="M-15 -15v605h100v100h305v-100h100v-605h-505zM90 585v-495h295v495h-295z" />
    <glyph glyph-name="Epsilon" unicode="&#x395;" 
d="M-15 -15v705h505v-105h-400v-195h300v-105h-300v-195h400v-105h-505z" />
    <glyph glyph-name="Zeta" unicode="&#x396;" 
d="M-15 -15v205h100v100h100v100h100v100h100v95h-400v105h505v-205h-100v-100h-100v-100h-100v-100h-100v-95h400v-105h-505z" />
    <glyph glyph-name="Eta" unicode="&#x397;" 
d="M90 285v-300h-105v705h105v-300h295v300h105v-705h-105v300h-295z" />
    <glyph glyph-name="Theta" unicode="&#x398;" 
d="M-15 85v505h100v100h305v-100h100v-505h-100v-100h-305v100h-100zM385 390v195h-295v-195h295zM90 285v-195h295v195h-295z" />
    <glyph glyph-name="Iota" unicode="&#x399;" 
d="M-15 585v105h505v-105h-200v-495h200v-105h-505v105h200v495h-200z" />
    <glyph glyph-name="Kappa" unicode="&#x39a;" 
d="M285 185v100h-195v-300h-105v705h105v-300h195v100h100v200h105v-205h-100v-100h-100v-95h100v-100h100v-205h-105v200h-100z" />
    <glyph glyph-name="Lambda" unicode="&#x39b;" 
d="M385 -15v600h-295v-600h-105v605h100v100h305v-100h100v-605h-105z" />
    <glyph glyph-name="Mu" unicode="&#x39c;" 
d="M185 185v200h-95v-400h-105v705h105v-100h100v-200h95v200h100v100h105v-705h-105v400h-95v-200h-105z" />
    <glyph glyph-name="Nu" unicode="&#x39d;" 
d="M185 285v200h-95v-500h-105v705h105v-100h100v-100h100v-200h95v400h105v-705h-105v200h-100v100h-100z" />
    <glyph glyph-name="Xi" unicode="&#x39e;" 
d="M-15 -15v105h200v195h-100v105h100v195h-200v105h505v-105h-200v-195h100v-105h-100v-195h200v-105h-505z" />
    <glyph glyph-name="Pi" unicode="&#x3a0;" 
d="M90 585v-600h-105v705h505v-705h-105v600h-295z" />
    <glyph glyph-name="Rho" unicode="&#x3a1;" 
d="M90 185v-200h-105v705h405v-100h100v-305h-100v-100h-300zM385 290v295h-295v-295h295z" />
    <glyph glyph-name="Sigma" unicode="&#x3a3;" 
d="M-15 -15v205h100v100h100v95h-100v100h-100v205h505v-105h-400v-95h100v-100h100v-105h-100v-100h-100v-95h400v-105h-505z" />
    <glyph glyph-name="Tau" unicode="&#x3a4;" 
d="M-15 585v105h505v-105h-200v-600h-105v600h-200z" />
    <glyph glyph-name="Upsilon" unicode="&#x3a5;" 
d="M-15 385v305h105v-300h100v-100h95v100h100v300h105v-305h-100v-100h-100v-300h-105v300h-100v100h-100z" />
    <glyph glyph-name="Phi" unicode="&#x3a6;" 
d="M-15 185v305h100v100h100v100h105v-100h100v-100h100v-305h-100v-100h-100v-100h-105v100h-100v100h-100zM385 190v295h-95v-295h95zM185 190v295h-95v-295h95z" />
    <glyph glyph-name="Chi" unicode="&#x3a7;" 
d="M285 185v100h-95v-100h-100v-200h-105v205h100v100h100v95h-100v100h-100v205h105v-200h100v-100h95v100h100v200h105v-205h-100v-100h-100v-95h100v-100h100v-205h-105v200h-100z" />
    <glyph glyph-name="Psi" unicode="&#x3a8;" 
d="M-15 285v405h105v-400h95v400h105v-400h95v400h105v-405h-100v-100h-100v-200h-105v200h-100v100h-100z" />
    <glyph glyph-name="Omega" unicode="&#x2126;" 
d="M-15 285v305h100v100h305v-100h100v-305h-100v-100h-305v100h-100zM90 585v-295h295v295h-295zM-15 -15v105h505v-105h-505z" />
    <glyph glyph-name="a" unicode="a" 
d="M85 385v105h305v-100h100v-405h-405v100h-100v105h100v100h300v95h-300zM90 185v-95h295v95h-295z" />
    <glyph glyph-name="b" unicode="b" 
d="M90 690v-300h95v100h205v-100h100v-305h-100v-100h-405v705h105zM385 385h-195v-100h-100v-195h295v295z" />
    <glyph glyph-name="c" unicode="c" 
d="M90 385v-295h295v100h105v-105h-100v-100h-305v100h-100v305h100v100h305v-100h100v-105h-105v100h-295z" />
    <glyph glyph-name="e" unicode="e" 
d="M-15 85v305h100v100h305v-100h100v-205h-400v-95h400v-105h-405v100h-100zM90 385v-95h295v95h-295z" />
    <glyph glyph-name="d" unicode="d" 
d="M-15 85v305h100v100h300v200h105v-705h-105v100h-95v-100h-205v100h-100zM90 385v-295h195v100h100v195h-295z" />
    <glyph glyph-name="f" unicode="f" 
d="M85 385v105h100v100h100v100h205v-105h-200v-95h200v-105h-200v-295h200v-105h-505v105h200v295h-100z" />
    <glyph glyph-name="h" unicode="h" 
d="M90 385v-400h-105v705h105v-200h300v-100h100v-405h-105v400h-295z" />
    <glyph glyph-name="i" unicode="i" 
d="M-15 -15v105h200v295h-200v105h305v-400h200v-105h-505zM185 585v105h105v-105h-105z" />
    <glyph glyph-name="j" unicode="j" 
d="M-15 -115v105h105v-100h295v495h-300v105h405v-605h-100v-100h-305v100h-100zM385 585v105h105v-105h-105z" />
    <glyph glyph-name="k" unicode="k" 
d="M285 85v100h-195v-200h-105v705h105v-400h195v200h105v-205h-100v-95h100v-100h100v-105h-105v100h-100z" />
    <glyph glyph-name="l" unicode="l" 
d="M-15 -15v105h200v495h-200v105h305v-600h200v-105h-505z" />
    <glyph glyph-name="m" unicode="m" 
d="M185 -15v300h-95v-300h-105v505h105v-100h95v100h105v-100h95v100h105v-505h-105v300h-95v-300h-105z" />
    <glyph glyph-name="n" unicode="n" 
d="M385 -15v400h-195v-100h-100v-300h-105v505h105v-100h95v100h205v-100h100v-405h-105z" />
    <glyph glyph-name="o" unicode="o" 
d="M-15 85v305h100v100h305v-100h100v-305h-100v-100h-305v100h-100zM90 385v-295h295v295h-295z" />
    <glyph glyph-name="p" unicode="p" 
d="M-15 -215v705h105v-100h95v100h205v-100h100v-305h-100v-100h-300v-200h-105zM190 385v-100h-100v-195h295v295h-195z" />
    <glyph glyph-name="q" unicode="q" 
d="M-15 85v305h100v100h405v-705h-105v300h-95v-100h-205v100h-100zM90 385v-295h195v100h100v195h-295z" />
    <glyph glyph-name="r" unicode="r" 
d="M290 385v-100h-100v-195h200v-105h-405v105h100v295h-100v105h205v-100h95v100h205v-105h-200z" />
    <glyph glyph-name="s" unicode="s" 
d="M-15 -15v105h400v95h-300v100h-100v105h100v100h405v-105h-400v-95h300v-100h100v-105h-100v-100h-405z" />
    <glyph glyph-name="t" unicode="t" 
d="M290 385v-295h200v-105h-205v100h-100v300h-200v105h200v100h105v-100h200v-105h-200z" />
    <glyph glyph-name="u" unicode="u" 
d="M385 -15v100h-95v-100h-205v100h-100v405h105v-400h195v100h100v300h105v-505h-105z" />
    <glyph glyph-name="v" unicode="v" 
d="M-15 285v205h105v-200h100v-200h95v200h100v200h105v-205h-100v-200h-100v-100h-105v100h-100v200h-100z" />
    <glyph glyph-name="w" unicode="w" 
d="M285 -15v200h-95v-200h-105v200h-100v305h105v-300h95v200h105v-200h95v300h105v-305h-100v-200h-105z" />
    <glyph glyph-name="x" unicode="x" 
d="M90 185v-200h-105v205h100v95h-100v205h105v-200h295v200h105v-205h-100v-95h100v-205h-105v200h-295z" />
    <glyph glyph-name="y" unicode="y" 
d="M-15 285v205h105v-200h100v-200h95v200h100v200h105v-205h-100v-200h-100v-200h-100v-100h-205v105h200v195h-100v200h-100z" />
    <glyph glyph-name="z" unicode="z" 
d="M-15 -15v105h100v100h100v100h100v95h-300v105h505v-105h-100v-100h-100v-100h-100v-95h300v-105h-505z" />
    <glyph glyph-name="omega" unicode="&#x3c9;" 
d="M285 -15v100h-95v-100h-105v100h-100v405h105v-400h95v300h105v-300h95v400h105v-405h-100v-100h-105z" />
    <glyph glyph-name="psi" unicode="&#x3c8;" 
d="M-15 85v405h105v-400h95v500h105v-500h95v400h105v-405h-100v-100h-100v-200h-105v200h-100v100h-100z" />
    <glyph glyph-name="chi" unicode="&#x3c7;" 
d="M285 -15v100h-95v-100h-100v-200h-105v205h100v100h100v95h-100v100h-100v205h105v-200h100v-100h95v100h100v200h105v-205h-100v-100h-100v-95h100v-100h100v-205h-105v200h-100z" />
    <glyph glyph-name="phi" unicode="&#x3c6;" 
d="M-15 85v305h100v100h100v200h105v-200h100v-100h100v-305h-100v-100h-100v-200h-105v200h-100v100h-100zM290 385v-295h95v295h-95zM185 90v295h-95v-295h95z" />
    <glyph glyph-name="upsilon" unicode="&#x3c5;" 
d="M-15 85v405h105v-400h295v400h105v-405h-100v-100h-305v100h-100z" />
    <glyph glyph-name="tau" unicode="&#x3c4;" 
d="M185 85v300h-200v105h505v-105h-200v-295h200v-105h-205v100h-100z" />
    <glyph glyph-name="sigma" unicode="&#x3c3;" 
d="M-15 85v305h100v100h405v-105h-100v-95h100v-205h-100v-100h-305v100h-100zM90 385v-295h295v195h-100v100h-195z" />
    <glyph glyph-name="rho" unicode="&#x3c1;" 
d="M-15 -215v605h100v100h305v-100h100v-305h-100v-100h-300v-200h-105zM90 385v-295h295v295h-295z" />
    <glyph glyph-name="pi" unicode="&#x3c0;" 
d="M385 -15v400h-295v-400h-105v505h505v-505h-105z" />
    <glyph glyph-name="omicron" unicode="&#x3bf;" 
d="M-15 85v305h100v100h305v-100h100v-305h-100v-100h-305v100h-100zM90 385v-295h295v295h-295z" />
    <glyph glyph-name="xi" unicode="&#x3be;" 
d="M90 585v-195h300v-105h-300v-195h400v-205h-100v-100h-105v105h100v95h-300v100h-100v205h100v95h-100v205h100v100h405v-105h-400z" />
    <glyph glyph-name="nu" unicode="&#x3bd;" 
d="M-15 285v205h105v-200h100v-200h95v100h100v300h105v-305h-100v-100h-100v-100h-105v100h-100v200h-100z" />
    <glyph glyph-name="lambda" unicode="&#x3bb;" 
d="M90 385v-400h-105v405h100v100h300v95h-300v105h305v-100h100v-605h-105v400h-295z" />
    <glyph glyph-name="kappa" unicode="&#x3ba;" 
d="M90 185v-200h-105v505h105v-200h195v100h100v100h105v-105h-100v-100h-100v-95h100v-100h100v-105h-105v100h-100v100h-195z" />
    <glyph glyph-name="iota" unicode="&#x3b9;" 
d="M-15 -15v105h200v295h-200v105h305v-400h200v-105h-505z" />
    <glyph glyph-name="theta" unicode="&#x3b8;" 
d="M-15 285v105h100v200h100v100h105v-100h100v-200h100v-105h-100v-200h-100v-100h-105v100h-100v200h-100zM190 285v-195h95v195h-95zM285 390v195h-95v-195h95z" />
    <glyph glyph-name="eta" unicode="&#x3b7;" 
d="M190 385v-100h-100v-300h-105v505h105v-100h95v100h205v-100h100v-605h-105v600h-195z" />
    <glyph glyph-name="zeta" unicode="&#x3b6;" 
d="M385 -115v100h-300v100h-100v305h100v100h300v95h-300v105h305v-100h100v-105h-100v-100h-300v-295h400v-205h-105zM275 -215v105h105v-105h-105z" />
    <glyph glyph-name="epsilon" unicode="&#x3b5;" 
d="M-15 285v105h100v100h405v-105h-400v-95h300v-105h-300v-95h400v-105h-405v100h-100v105h100v95h-100z" />
    <glyph glyph-name="delta" unicode="&#x3b4;" 
d="M89 585v-95h301v-100h100v-305h-100v-100h-305v100h-100v305h99v95h-100v105h101v100h305v-105h-301zM90 385v-295h295v295h-295z" />
    <glyph glyph-name="gamma" unicode="&#x3b3;" 
d="M-15 285v205h105v-200h100v-200h95v100h100v300h105v-305h-100v-100h-100v-300h-105v300h-100v200h-100z" />
    <glyph glyph-name="beta" unicode="&#x3b2;" 
d="M-15 -215v805h100v100h305v-100h100v-205h-100v-95h100v-205h-100v-100h-300v-200h-105zM90 585v-495h295v195h-200v105h200v195h-295z" />
    <glyph glyph-name="alpha" unicode="&#x3b1;" 
d="M-15 85v305h100v100h205v-100h95v100h105v-505h-105v100h-95v-100h-205v100h-100zM90 385v-295h195v100h100v95h-100v100h-195z" />
    <glyph glyph-name="bracketleft" unicode="[" 
d="M185 -15v705h205v-105h-100v-495h100v-105h-205z" />
    <glyph glyph-name="g" unicode="g" 
d="M85 -215v105h300v195h-95v-100h-205v100h-100v305h100v100h405v-605h-100v-100h-305zM90 385v-295h195v100h100v195h-295z" />
    <glyph glyph-name="space" unicode=" " 
 />
    <glyph glyph-name="Alphatonos" unicode="&#x386;" 
d="M385 -15v200h-95v-200h-105v605h100v100h105v-100h100v-605h-105zM-15 385v305h105v-305h-105zM385 290v295h-95v-295h95z" />
    <glyph glyph-name="Epsilontonos" unicode="&#x388;" 
d="M185 -15v705h305v-105h-200v-195h100v-105h-100v-195h200v-105h-305zM-15 385v305h105v-305h-105z" />
    <glyph glyph-name="Etatonos" unicode="&#x389;" 
d="M385 -15v300h-95v-300h-105v705h105v-300h95v300h105v-705h-105zM-15 385v305h105v-305h-105z" />
    <glyph glyph-name="Iotatonos" unicode="&#x38a;" 
d="M185 -15v105h100v495h-100v105h305v-105h-100v-495h100v-105h-305zM-15 385v305h105v-305h-105z" />
    <glyph glyph-name="Omicrontonos" unicode="&#x38c;" 
d="M185 85v505h100v100h105v-100h100v-505h-100v-100h-105v100h-100zM385 90v495h-95v-495h95zM-15 385v305h105v-305h-105z" />
    <glyph glyph-name="Upsilontonos" unicode="&#x38e;" 
d="M185 385v305h105v-300h95v300h105v-305h-100v-400h-105v400h-100zM-15 385v305h105v-305h-105z" />
    <glyph glyph-name="Omegatonos" unicode="&#x38f;" 
d="M185 285v305h100v100h105v-100h100v-305h-100v-100h-105v100h-100zM185 -15v105h305v-105h-305zM-15 385v305h105v-305h-105zM385 290v295h-95v-295h95z" />
    <glyph glyph-name="sigma1" unicode="&#x3c2;" 
d="M90 385v-295h300v-100h90v-105h-90v-100h-105v105h90v95h-290v100h-100v305h100v100h405v-105h-400z" />
    <glyph glyph-name="Iotadieresis" unicode="&#x3aa;" 
d="M-15 585v105h505v-105h-200v-495h200v-105h-505v105h200v495h-200zM-15 810v205h105v-205h-105zM385 810v205h105v-205h-105z" />
    <glyph glyph-name="Upsilondieresis" unicode="&#x3ab;" 
d="M-15 385v305h105v-300h100v-100h95v100h100v300h105v-305h-100v-100h-100v-300h-105v300h-100v100h-100zM-15 810v205h105v-205h-105zM385 810v205h105v-205h-105z" />
    <glyph glyph-name="alphatonos" unicode="&#x3ac;" 
d="M-15 85v305h100v100h205v-100h95v100h105v-505h-105v100h-95v-100h-205v100h-100zM90 385v-295h195v100h100v95h-100v100h-195zM185 585v105h100v100h105v-105h-100v-100h-105z" />
    <glyph glyph-name="epsilontonos" unicode="&#x3ad;" 
d="M-15 285v105h100v100h405v-105h-400v-95h300v-105h-300v-95h400v-105h-405v100h-100v105h100v95h-100zM185 585v105h100v100h105v-105h-100v-100h-105z" />
    <glyph glyph-name="etatonos" unicode="&#x3ae;" 
d="M190 385v-100h-100v-300h-105v505h105v-100h95v100h205v-100h100v-605h-105v600h-195zM185 585v105h100v100h105v-105h-100v-100h-105z" />
    <glyph glyph-name="iotatonos" unicode="&#x3af;" 
d="M-15 -15v105h200v295h-200v105h305v-400h200v-105h-505zM185 585v105h100v100h105v-105h-100v-100h-105z" />
    <glyph glyph-name="upsilondieresistonos" unicode="&#x3b0;" 
d="M-15 85v405h105v-400h295v400h105v-405h-100v-100h-305v100h-100zM185 585v305h105v-305h-105zM-15 585v205h105v-205h-105zM385 585v205h105v-205h-105z" />
    <glyph glyph-name="iotadieresis" unicode="&#x3ca;" 
d="M-15 -15v105h200v295h-200v105h305v-400h200v-105h-505zM-15 585v205h105v-205h-105zM385 585v205h105v-205h-105z" />
    <glyph glyph-name="upsilondieresis" unicode="&#x3cb;" 
d="M-15 85v405h105v-400h295v400h105v-405h-100v-100h-305v100h-100zM-15 585v205h105v-205h-105zM385 585v205h105v-205h-105z" />
    <glyph glyph-name="omicrontonos" unicode="&#x3cc;" 
d="M-15 85v305h100v100h305v-100h100v-305h-100v-100h-305v100h-100zM90 385v-295h295v295h-295zM185 585v105h100v100h105v-105h-100v-100h-105z" />
    <glyph glyph-name="upsilontonos" unicode="&#x3cd;" 
d="M-15 85v405h105v-400h295v400h105v-405h-100v-100h-305v100h-100zM185 585v105h100v100h105v-105h-100v-100h-105z" />
    <glyph glyph-name="omegatonos" unicode="&#x3ce;" 
d="M285 -15v100h-95v-100h-105v100h-100v405h105v-400h95v300h105v-300h95v400h105v-405h-100v-100h-105zM185 585v105h100v100h105v-105h-100v-100h-105z" />
    <glyph glyph-name="A.smcp" 
d="M90 185v-200h-105v405h100v100h305v-100h100v-405h-105v200h-295zM90 385v-95h295v95h-295z" />
    <glyph glyph-name="B.smcp" 
d="M-15 -15v505h405v-100h100v-105h-100v-95h100v-105h-100v-100h-405zM90 385v-95h295v95h-295zM90 185v-95h295v95h-295z" />
    <glyph glyph-name="C.smcp" 
d="M90 385v-295h400v-105h-405v100h-100v305h100v100h405v-105h-400z" />
    <glyph glyph-name="D.smcp" 
d="M-15 -15v505h405v-100h100v-305h-100v-100h-405zM90 385v-295h295v295h-295z" />
    <glyph glyph-name="E.smcp" 
d="M90 185v-95h400v-105h-505v505h505v-105h-400v-95h300v-105h-300z" />
    <glyph glyph-name="F.smcp" 
d="M90 185v-200h-105v505h505v-105h-400v-95h300v-105h-300z" />
    <glyph glyph-name="G.smcp" 
d="M90 385v-295h295v95h-100v105h205v-305h-405v100h-100v305h100v100h405v-105h-400z" />
    <glyph glyph-name="H.smcp" 
d="M90 185v-200h-105v505h105v-200h295v200h105v-505h-105v200h-295z" />
    <glyph glyph-name="I.smcp" 
d="M290 385v-295h200v-105h-505v105h200v295h-200v105h505v-105h-200z" />
    <glyph glyph-name="J.smcp" 
d="M-15 85v105h105v-100h195v295h-300v105h405v-405h-100v-100h-205v100h-100z" />
    <glyph glyph-name="K.smcp" 
d="M90 185v-200h-105v505h105v-200h295v200h105v-205h-100v-95h100v-205h-105v200h-295z" />
    <glyph glyph-name="L.smcp" 
d="M-15 -15v505h105v-400h400v-105h-505z" />
    <glyph glyph-name="M.smcp" 
d="M185 85v200h-95v-300h-105v505h105v-100h100v-100h95v100h100v100h105v-505h-105v300h-95v-200h-105z" />
    <glyph glyph-name="N.smcp" 
d="M185 185v100h-95v-300h-105v505h105v-100h100v-100h100v-100h95v300h105v-505h-105v100h-100v100h-100z" />
    <glyph glyph-name="O.smcp" 
d="M-15 85v305h100v100h305v-100h100v-305h-100v-100h-305v100h-100zM90 385v-295h295v295h-295z" />
    <glyph glyph-name="P.smcp" 
d="M90 185v-200h-105v505h405v-100h100v-105h-100v-100h-300zM385 385h-295v-95h295v95z" />
    <glyph glyph-name="Q.smcp" 
d="M-15 85v305h100v100h305v-100h100v-305h-100v-100h-100v-95h100v-105h-105v100h-100v100h-100v100h-100zM90 385v-295h95v100h105v-100h95v295h-295z" />
    <glyph glyph-name="R.smcp" 
d="M285 85v100h-195v-200h-105v505h405v-100h100v-105h-100v-195h100v-105h-105v100h-100zM90 385v-95h295v95h-295z" />
    <glyph glyph-name="S.smcp" 
d="M-15 -15v105h400v95h-300v100h-100v105h100v100h405v-105h-400v-95h300v-100h100v-105h-100v-100h-405z" />
    <glyph glyph-name="T.smcp" 
d="M290 385v-400h-105v400h-200v105h505v-105h-200z" />
    <glyph glyph-name="U.smcp" 
d="M-15 85v405h105v-400h295v400h105v-405h-100v-100h-305v100h-100z" />
    <glyph glyph-name="V.smcp" 
d="M-15 185v305h105v-300h100v-100h95v100h100v300h105v-305h-100v-100h-100v-100h-105v100h-100v100h-100z" />
    <glyph glyph-name="W.smcp" 
d="M285 -15v100h-95v-100h-105v100h-100v405h105v-400h95v300h105v-300h95v400h105v-405h-100v-100h-105z" />
    <glyph glyph-name="X.smcp" 
d="M90 185v-200h-105v205h100v95h-100v205h105v-200h295v200h105v-205h-100v-95h100v-205h-105v200h-295z" />
    <glyph glyph-name="Y.smcp" 
d="M-15 285v205h105v-200h100v-100h95v100h100v200h105v-205h-100v-100h-100v-200h-105v200h-100v100h-100z" />
    <glyph glyph-name="Z.smcp" 
d="M-15 -15v105h100v100h100v100h100v95h-300v105h505v-105h-100v-100h-100v-100h-100v-95h300v-105h-505z" />
    <glyph glyph-name="Alpha.smcp" 
d="M90 185v-200h-105v405h100v100h305v-100h100v-405h-105v200h-295zM90 385v-95h295v95h-295z" />
    <glyph glyph-name="Beta.smcp" 
d="M-15 -15v505h405v-100h100v-105h-100v-95h100v-105h-100v-100h-405zM90 385v-95h295v95h-295zM90 185v-95h295v95h-295z" />
    <glyph glyph-name="Gamma.smcp" 
d="M90 385v-400h-105v505h505v-105h-400z" />
    <glyph glyph-name="Delta.smcp" 
d="M-15 -15v405h100v100h305v-100h100v-405h-505zM90 385v-295h295v295h-295z" />
    <glyph glyph-name="Epsilon.smcp" 
d="M90 185v-95h400v-105h-505v505h505v-105h-400v-95h300v-105h-300z" />
    <glyph glyph-name="Zeta.smcp" 
d="M-15 -15v105h100v100h100v100h100v95h-300v105h505v-105h-100v-100h-100v-100h-100v-95h300v-105h-505z" />
    <glyph glyph-name="Eta.smcp" 
d="M90 185v-200h-105v505h105v-200h295v200h105v-505h-105v200h-295z" />
    <glyph glyph-name="Etatonos.smcp" 
d="M90 185v-200h-105v505h105v-200h295v200h105v-505h-105v200h-295zM185 585v105h100v100h105v-105h-100v-100h-105z" />
    <glyph glyph-name="Theta.smcp" 
d="M-15 85v305h100v100h305v-100h100v-305h-100v-100h-305v100h-100zM90 90h295v95h-295v-95zM90 385v-95h295v95h-295z" />
    <glyph glyph-name="Iota.smcp" 
d="M290 385v-295h200v-105h-505v105h200v295h-200v105h505v-105h-200z" />
    <glyph glyph-name="Iotatonos.smcp" 
d="M185 585v105h100v100h105v-105h-100v-100h-105zM290 385v-295h200v-105h-505v105h200v295h-200v105h505v-105h-200z" />
    <glyph glyph-name="Iotadieresis.smcp" 
d="M-15 585v205h105v-205h-105zM385 585v205h105v-205h-105zM290 385v-295h200v-105h-505v105h200v295h-200v105h505v-105h-200z" />
    <glyph glyph-name="Kappa.smcp" 
d="M90 185v-200h-105v505h105v-200h295v200h105v-205h-100v-95h100v-205h-105v200h-295z" />
    <glyph glyph-name="Lambda.smcp" 
d="M90 385v-400h-105v405h100v100h305v-100h100v-405h-105v400h-295z" />
    <glyph glyph-name="Mu.smcp" 
d="M185 85v200h-95v-300h-105v505h105v-100h100v-100h95v100h100v100h105v-505h-105v300h-95v-200h-105z" />
    <glyph glyph-name="Nu.smcp" 
d="M185 185v100h-95v-300h-105v505h105v-100h100v-100h100v-100h95v300h105v-505h-105v100h-100v100h-100z" />
    <glyph glyph-name="Xi.smcp" 
d="M-15 -15v105h200v95h-100v105h100v95h-200v105h505v-105h-200v-95h100v-105h-100v-95h200v-105h-505z" />
    <glyph glyph-name="Omicron.smcp" 
d="M-15 85v305h100v100h305v-100h100v-305h-100v-100h-305v100h-100zM90 385v-295h295v295h-295z" />
    <glyph glyph-name="Omicrontonos.smcp" 
d="M-15 85v305h100v100h305v-100h100v-305h-100v-100h-305v100h-100zM90 385v-295h295v295h-295zM185 585v105h100v100h105v-105h-100v-100h-105z" />
    <glyph glyph-name="Pi.smcp" 
d="M385 -15v400h-295v-400h-105v505h505v-505h-105z" />
    <glyph glyph-name="Rho.smcp" 
d="M90 185v-200h-105v505h405v-100h100v-105h-100v-100h-300zM385 385h-295v-95h295v95z" />
    <glyph glyph-name="Sigma.smcp" 
d="M190 385v-95h100v-105h-100v-95h300v-105h-505v105h100v100h100v95h-100v100h-100v105h505v-105h-300z" />
    <glyph glyph-name="Tau.smcp" 
d="M290 385v-400h-105v400h-200v105h505v-105h-200z" />
    <glyph glyph-name="Upsilon.smcp" 
d="M-15 285v205h105v-200h100v-100h95v100h100v200h105v-205h-100v-100h-100v-200h-105v200h-100v100h-100z" />
    <glyph glyph-name="Upsilontonos.smcp" 
d="M-15 285v205h105v-200h100v-100h95v100h100v200h105v-205h-100v-100h-100v-200h-105v200h-100v100h-100zM185 585v105h100v100h105v-105h-100v-100h-105z" />
    <glyph glyph-name="Upsilondieresis.smcp" 
d="M-15 285v205h105v-200h100v-100h95v100h100v200h105v-205h-100v-100h-100v-200h-105v200h-100v100h-100zM-15 585v205h105v-205h-105zM385 585v205h105v-205h-105z" />
    <glyph glyph-name="Phi.smcp" 
d="M-15 185v105h100v100h100v100h105v-100h100v-100h100v-105h-100v-100h-100v-100h-105v100h-100v100h-100zM290 285v-95h95v95h-95zM90 285v-95h95v95h-95z" />
    <glyph glyph-name="Chi.smcp" 
d="M90 185v-200h-105v205h100v95h-100v205h105v-200h295v200h105v-205h-100v-95h100v-205h-105v200h-295z" />
    <glyph glyph-name="Psi.smcp" 
d="M-15 285v205h105v-200h95v200h105v-200h95v200h105v-205h-100v-100h-100v-200h-105v200h-100v100h-100z" />
    <glyph glyph-name="Omega.smcp" 
d="M-15 285v105h100v100h305v-100h100v-105h-100v-100h-305v100h-100zM-15 -15v105h505v-105h-505zM90 385v-95h295v95h-295z" />
    <glyph glyph-name="Omegatonos.smcp" 
d="M-15 285v105h100v100h305v-100h100v-105h-100v-100h-305v100h-100zM-15 -15v105h505v-105h-505zM90 385v-95h295v95h-295zM185 585v105h100v100h105v-105h-100v-100h-105z" />
    <glyph glyph-name="Alphatonos.smcp" 
d="M90 185v-200h-105v405h100v100h305v-100h100v-405h-105v200h-295zM90 385v-95h295v95h-295zM185 585v105h100v100h105v-105h-100v-100h-105z" />
    <glyph glyph-name="Epsilontonos.smcp" 
d="M90 185v-95h400v-105h-505v505h505v-105h-400v-95h300v-105h-300zM185 585v105h100v100h105v-105h-100v-100h-105z" />
    <glyph glyph-name="iotadieresistonos" unicode="&#x390;" 
d="M-15 -15v105h200v295h-200v105h305v-400h200v-105h-505zM185 585v305h105v-305h-105zM-15 585v205h105v-205h-105zM385 585v205h105v-205h-105z" />
    <glyph glyph-name="Iotadieresistonos.smcp" 
d="M290 385v-295h200v-105h-505v105h200v295h-200v105h505v-105h-200zM185 585v305h105v-305h-105zM-15 585v205h105v-205h-105zM385 585v205h105v-205h-105z" />
    <glyph glyph-name="Upsilondieresistonos.smcp" 
d="M-15 285v205h105v-200h100v-100h95v100h100v200h105v-205h-100v-100h-100v-200h-105v200h-100v100h-100zM185 585v305h105v-305h-105zM-15 585v205h105v-205h-105zM385 585v205h105v-205h-105z" />
    <glyph glyph-name="theta.alt" 
d="M-15 85v205h105v-200h195v295h-200v100h-100v105h100v100h205v-100h100v-100h100v-105h-100v-300h-100v-100h-205v100h-100zM90 585v-95h195v95h-195z" />
    <glyph glyph-name="beta.alt" 
d="M-15 85v405h100v100h100v100h205v-100h100v-205h-100v-95h100v-205h-100v-100h-305v100h-100zM190 585v-100h-100v-195h95v100h200v195h-195zM190 285v-100h-100v-95h295v195h-195z" />
    <glyph glyph-name="rho.alt" 
d="M-15 -115v505h100v100h305v-100h100v-305h-100v-100h-300v-95h100v-105h-105v100h-100zM90 385v-295h295v295h-295z" />
    <glyph glyph-name="phi.alt" 
d="M-15 85v405h105v-400h95v300h100v100h105v-100h100v-305h-100v-100h-100v-200h-105v200h-100v100h-100zM385 90v295h-95v-295h95z" />
    <glyph glyph-name="gamma.alt" 
d="M-15 385v105h105v-100h100v-200h95v100h100v200h105v-205h-100v-100h-100v-95h100v-205h-100v-100h-105v100h-100v205h100v95h-100v200h-100zM285 -110v195h-95v-195h95z" />
    <glyph glyph-name="mu.alt" 
d="M-15 -115v605h105v-400h195v100h100v300h105v-505h-105v100h-95v-100h-200v-95h100v-105h-105v100h-100z" />
    <glyph glyph-name="adieresis" unicode="&#xe4;" 
d="M85 385v105h305v-100h100v-405h-405v100h-100v105h100v100h300v95h-300zM90 185v-95h295v95h-295zM-15 585v205h105v-205h-105zM385 585v205h105v-205h-105z" />
    <glyph glyph-name="oe" unicode="&#x153;" 
d="M285 -15v100h-95v-100h-105v100h-100v305h100v100h105v-100h95v100h105v-100h100v-205h-200v-95h200v-105h-205zM90 385v-295h95v295h-95zM290 385v-95h95v95h-95z" />
    <glyph glyph-name="odieresis" unicode="&#xf6;" 
d="M-15 85v305h100v100h305v-100h100v-305h-100v-100h-305v100h-100zM90 385v-295h295v295h-295zM-15 585v205h105v-205h-105zM385 585v205h105v-205h-105z" />
    <glyph glyph-name="agrave" unicode="&#xe0;" 
d="M85 385v105h305v-100h100v-405h-405v100h-100v105h100v100h300v95h-300zM90 185v-95h295v95h-295zM85 685v105h105v-100h200v-105h-205v100h-100z" />
    <glyph glyph-name="Odieresis" unicode="&#xd6;" 
d="M-15 810v205h105v-205h-105zM385 810v205h105v-205h-105zM-15 85v505h100v100h305v-100h100v-505h-100v-100h-305v100h-100zM90 585v-495h295v495h-295z" />
    <glyph glyph-name="Adieresis" unicode="&#xc4;" 
d="M90 185v-200h-105v605h100v100h305v-100h100v-605h-105v200h-295zM90 585v-295h295v295h-295zM-15 810v205h105v-205h-105zM385 810v205h105v-205h-105z" />
    <glyph glyph-name="idieresis" unicode="&#xef;" 
d="M-15 385v105h305v-400h200v-105h-505v105h200v295h-200zM385 585v205h105v-205h-105zM-15 585v205h105v-205h-105z" />
    <glyph glyph-name="edieresis" unicode="&#xeb;" 
d="M-15 85v305h100v100h305v-100h100v-205h-400v-95h400v-105h-405v100h-100zM90 385v-95h295v95h-295zM-15 585v205h105v-205h-105zM385 585v205h105v-205h-105z" />
    <glyph glyph-name="egrave" unicode="&#xe8;" 
d="M-15 85v305h100v100h305v-100h100v-205h-400v-95h400v-105h-405v100h-100zM90 385v-95h295v95h-295zM85 685v105h105v-100h200v-105h-205v100h-100z" />
    <glyph glyph-name="divide" unicode="&#xf7;" 
d="M-15 185v105h505v-105h-505zM185 385v105h105v-105h-105zM185 -15v105h105v-105h-105z" />
    <glyph glyph-name="afii00208" unicode="&#x2015;" 
d="M-15 185v105h505v-105h-505z" />
    <glyph glyph-name="ugrave" unicode="&#xf9;" 
d="M385 -15v100h-95v-100h-205v100h-100v405h105v-400h195v100h100v300h105v-505h-105zM85 685v105h105v-100h200v-105h-205v100h-100z" />
    <glyph glyph-name="udieresis" unicode="&#xfc;" 
d="M385 -15v100h-95v-100h-205v100h-100v405h105v-400h195v100h100v300h105v-505h-105zM-15 585v205h105v-205h-105zM385 585v205h105v-205h-105z" />
    <glyph glyph-name="notequal" unicode="&#x2260;" 
d="M190 85v-100h-105v100h-100v105h200v95h-200v105h300v100h100v200h105v-205h-100v-95h100v-105h-200v-95h200v-105h-300z" />
    <glyph glyph-name="approxequal" unicode="&#x2248;" 
d="M-15 285v105h100v100h105v-100h100v-100h95v100h105v-105h-100v-100h-105v100h-100v100h-95v-100h-105zM-15 85v105h100v100h105v-100h100v-100h95v100h105v-105h-100v-100h-105v100h-100v100h-95v-100h-105z" />
    <glyph glyph-name="ccedilla" unicode="&#xe7;" 
d="M90 385v-295h295v100h105v-105h-100v-100h-305v100h-100v305h100v100h305v-100h100v-105h-105v100h-295zM85 -215v105h100v100h105v-105h-100v-100h-105z" />
    <glyph glyph-name="acircumflex" unicode="&#xe2;" 
d="M85 385v105h305v-100h100v-405h-405v100h-100v105h100v100h300v95h-300zM90 185v-95h295v95h-295z" />
    <glyph glyph-name="circumflex" unicode="&#x2c6;" 
d="M285 585v100h-95v-100h-105v105h100v100h105v-100h100v-105h-105z" />
    <glyph glyph-name="acute" unicode="&#xb4;" 
d="M85 585v105h200v100h105v-105h-100v-100h-205z" />
    <glyph glyph-name="Eacute" unicode="&#xc9;" 
d="M-15 -15v705h505v-105h-400v-195h300v-105h-300v-195h400v-105h-505zM85 810v105h200v100h105v-105h-100v-100h-205z" />
    <glyph glyph-name="Udieresis" unicode="&#xdc;" 
d="M-15 85v605h105v-600h295v600h105v-605h-100v-100h-305v100h-100zM-15 810v205h105v-205h-105zM385 810v205h105v-205h-105z" />
    <glyph glyph-name="onesuperior" unicode="&#xb9;" 
d="M-15 285v105h100v195h-100v105h205v-300h100v-105h-305z" />
    <glyph glyph-name="eacute" unicode="&#xe9;" 
d="M-15 85v305h100v100h305v-100h100v-205h-400v-95h400v-105h-405v100h-100zM90 385v-95h295v95h-295zM85 585v105h200v100h105v-105h-100v-100h-205z" />
    <glyph glyph-name="ecircumflex" unicode="&#xea;" 
d="M-15 85v305h100v100h305v-100h100v-205h-400v-95h400v-105h-405v100h-100zM90 385v-95h295v95h-295zM285 585v100h-95v-100h-105v105h100v100h105v-100h100v-105h-105z" />
    <glyph glyph-name="icircumflex" unicode="&#xee;" 
d="M-15 -15v105h200v295h-200v105h305v-400h200v-105h-505zM85 585v105h100v100h105v-100h100v-105h-105v100h-95v-100h-105z" />
    <glyph glyph-name="ocircumflex" unicode="&#xf4;" 
d="M-15 85v305h100v100h305v-100h100v-305h-100v-100h-305v100h-100zM90 385v-295h295v295h-295zM285 585v100h-95v-100h-105v105h100v100h105v-100h100v-105h-105z" />
    <glyph glyph-name="ucircumflex" unicode="&#xfb;" 
d="M385 -15v100h-95v-100h-205v100h-100v405h105v-400h195v100h100v300h105v-505h-105zM285 585v100h-95v-100h-105v105h100v100h105v-100h100v-105h-105z" />
    <glyph glyph-name="lessequal" unicode="&#x2264;" 
d="M-15 285v105h200v100h305v-105h-300v-95h300v-105h-305v100h-200zM-15 -15v105h505v-105h-505z" />
    <glyph glyph-name="greaterequal" unicode="&#x2265;" 
d="M-15 185v105h300v95h-300v105h305v-100h200v-105h-200v-100h-305zM-15 -15v105h505v-105h-505z" />
    <glyph glyph-name="germandbls" unicode="&#xdf;" 
d="M185 285v105h100v195h-95v-100h-100v-500h-105v505h100v100h100v100h105v-100h100v-205h-100v-95h100v-100h100v-105h-100v-100h-205v105h200v95h-100v100h-100z" />
    <glyph glyph-name="caron" unicode="&#x2c7;" 
d="M85 685v105h105v-100h95v100h105v-105h-100v-100h-105v100h-100z" />
    <glyph glyph-name="scaron" unicode="&#x161;" 
d="M-15 -15v105h400v95h-300v100h-100v105h100v100h405v-105h-400v-95h300v-100h100v-105h-100v-100h-405zM85 685v105h105v-100h95v100h105v-105h-100v-100h-105v100h-100z" />
    <glyph glyph-name="ccaron" unicode="&#x10d;" 
d="M90 385v-295h295v100h105v-105h-100v-100h-305v100h-100v305h100v100h305v-100h100v-105h-105v100h-295zM85 685v105h105v-100h95v100h105v-105h-100v-100h-105v100h-100z" />
    <glyph glyph-name="Dcaron" unicode="&#x10e;" 
d="M-15 -15v705h405v-100h100v-505h-100v-100h-405zM90 585v-495h295v495h-295zM85 910v105h105v-100h95v100h105v-105h-100v-100h-105v100h-100z" />
    <glyph glyph-name="ecaron" unicode="&#x11b;" 
d="M-15 85v305h100v100h305v-100h100v-205h-400v-95h400v-105h-405v100h-100zM90 385v-95h295v95h-295zM85 685v105h105v-100h95v100h105v-105h-100v-100h-105v100h-100z" />
    <glyph glyph-name="Ncaron" unicode="&#x147;" 
d="M185 285v200h-95v-500h-105v705h105v-100h100v-100h100v-200h95v400h105v-705h-105v200h-100v100h-100zM85 910v105h105v-100h95v100h105v-105h-100v-100h-105v100h-100z" />
    <glyph glyph-name="ncaron" unicode="&#x148;" 
d="M385 -15v400h-195v-100h-100v-300h-105v505h105v-100h95v100h205v-100h100v-405h-105zM85 685v105h105v-100h95v100h105v-105h-100v-100h-105v100h-100z" />
    <glyph glyph-name="rcaron" unicode="&#x159;" 
d="M290 385v-100h-100v-195h200v-105h-405v105h100v295h-100v105h205v-100h95v100h205v-105h-200zM85 685v105h105v-100h95v100h105v-105h-100v-100h-105v100h-100z" />
    <glyph glyph-name="Scaron" unicode="&#x160;" 
d="M90 585v-195h300v-100h100v-205h-100v-100h-405v105h400v195h-300v100h-100v205h100v100h405v-105h-400zM85 910v105h105v-100h95v100h105v-105h-100v-100h-105v100h-100z" />
    <glyph glyph-name="Tcaron" unicode="&#x164;" 
d="M-15 585v105h505v-105h-200v-600h-105v600h-200zM85 910v105h105v-100h95v100h105v-105h-100v-100h-105v100h-100z" />
    <glyph glyph-name="Zcaron" unicode="&#x17d;" 
d="M-15 -15v205h100v100h100v100h100v100h100v95h-400v105h505v-205h-100v-100h-100v-100h-100v-100h-100v-95h400v-105h-505zM85 910v105h105v-100h95v100h105v-105h-100v-100h-105v100h-100z" />
    <glyph glyph-name="zcaron" unicode="&#x17e;" 
d="M-15 -15v105h100v100h100v100h100v95h-300v105h505v-105h-100v-100h-100v-100h-100v-95h300v-105h-505zM85 685v105h105v-100h95v100h105v-105h-100v-100h-105v100h-100z" />
    <glyph glyph-name="macron" unicode="&#xaf;" 
d="M85 585v105h305v-105h-305z" />
    <glyph glyph-name="Amacron" unicode="&#x100;" 
d="M90 185v-200h-105v605h100v100h305v-100h100v-605h-105v200h-295zM90 585v-295h295v295h-295zM85 810v105h305v-105h-305z" />
    <glyph glyph-name="amacron" unicode="&#x101;" 
d="M85 385v105h305v-100h100v-405h-405v100h-100v105h100v100h300v95h-300zM90 185v-95h295v95h-295zM85 585v105h305v-105h-305z" />
    <glyph glyph-name="Emacron" unicode="&#x112;" 
d="M-15 -15v705h505v-105h-400v-195h300v-105h-300v-195h400v-105h-505zM85 810v105h305v-105h-305z" />
    <glyph glyph-name="emacron" unicode="&#x113;" 
d="M-15 85v305h100v100h305v-100h100v-205h-400v-95h400v-105h-405v100h-100zM90 385v-95h295v95h-295zM85 585v105h305v-105h-305z" />
    <glyph glyph-name="imacron" unicode="&#x12b;" 
d="M-15 -15v105h200v295h-200v105h305v-400h200v-105h-505zM85 585v105h305v-105h-305z" />
    <glyph glyph-name="Omacron" unicode="&#x14c;" 
d="M85 810v105h305v-105h-305zM-15 85v505h100v100h305v-100h100v-505h-100v-100h-305v100h-100zM90 585v-495h295v495h-295z" />
    <glyph glyph-name="omacron" unicode="&#x14d;" 
d="M-15 85v305h100v100h305v-100h100v-305h-100v-100h-305v100h-100zM90 385v-295h295v295h-295zM85 585v105h305v-105h-305z" />
    <glyph glyph-name="Umacron" unicode="&#x16a;" 
d="M-15 85v605h105v-600h295v600h105v-605h-100v-100h-305v100h-100zM85 810v105h305v-105h-305z" />
    <glyph glyph-name="umacron" unicode="&#x16b;" 
d="M385 -15v100h-95v-100h-205v100h-100v405h105v-400h195v100h100v300h105v-505h-105zM85 585v105h305v-105h-305z" />
    <glyph glyph-name="aacute" unicode="&#xe1;" 
d="M85 385v105h305v-100h100v-405h-405v100h-100v105h100v100h300v95h-300zM90 185v-95h295v95h-295zM85 585v105h200v100h105v-105h-100v-100h-205z" />
    <glyph glyph-name="Ccaron" unicode="&#x10c;" 
d="M-15 85v505h100v100h305v-100h100v-105h-105v100h-295v-495h295v100h105v-105h-100v-100h-305v100h-100zM85 910v105h105v-100h95v100h105v-105h-100v-100h-105v100h-100z" />
    <glyph glyph-name="Cacute" unicode="&#x106;" 
d="M-15 85v505h100v100h305v-100h100v-105h-105v100h-295v-495h295v100h105v-105h-100v-100h-305v100h-100zM85 810v105h200v100h105v-105h-100v-100h-205z" />
    <glyph glyph-name="cacute" unicode="&#x107;" 
d="M90 385v-295h295v100h105v-105h-100v-100h-305v100h-100v305h100v100h305v-100h100v-105h-105v100h-295zM85 585v105h200v100h105v-105h-100v-100h-205z" />
    <glyph glyph-name="Zacute" unicode="&#x179;" 
d="M-15 -15v205h100v100h100v100h100v100h100v95h-400v105h505v-205h-100v-100h-100v-100h-100v-100h-100v-95h400v-105h-505zM85 810v105h200v100h105v-105h-100v-100h-205z" />
    <glyph glyph-name="zacute" unicode="&#x17a;" 
d="M-15 -15v105h100v100h100v100h100v95h-300v105h505v-105h-100v-100h-100v-100h-100v-95h300v-105h-505zM85 585v105h200v100h105v-105h-100v-100h-205z" />
    <glyph glyph-name="iacute" unicode="&#xed;" 
d="M-15 -15v105h200v295h-200v105h305v-400h200v-105h-505zM85 585v105h200v100h105v-105h-100v-100h-205z" />
    <glyph glyph-name="oacute" unicode="&#xf3;" 
d="M-15 85v305h100v100h305v-100h100v-305h-100v-100h-305v100h-100zM90 385v-295h295v295h-295zM85 585v105h200v100h105v-105h-100v-100h-205z" />
    <glyph glyph-name="uacute" unicode="&#xfa;" 
d="M385 -15v100h-95v-100h-205v100h-100v405h105v-400h195v100h100v300h105v-505h-105zM85 585v105h200v100h105v-105h-100v-100h-205z" />
    <glyph glyph-name="Ecaron" unicode="&#x11a;" 
d="M-15 -15v705h505v-105h-400v-195h300v-105h-300v-195h400v-105h-505zM85 910v105h105v-100h95v100h105v-105h-100v-100h-105v100h-100z" />
    <glyph glyph-name="Lcaron" unicode="&#x13d;" 
d="M-15 -15v705h105v-600h400v-105h-505zM285 585v105h100v200h105v-205h-100v-100h-105z" />
    <glyph glyph-name="Lacute" unicode="&#x139;" 
d="M-15 -15v705h105v-600h400v-105h-505zM85 810v105h200v100h105v-105h-100v-100h-205z" />
    <glyph glyph-name="lacute" unicode="&#x13a;" 
d="M-15 -15v105h200v495h-200v105h305v-600h200v-105h-505zM85 810v105h200v100h105v-105h-100v-100h-205z" />
    <glyph glyph-name="Nacute" unicode="&#x143;" 
d="M185 285v200h-95v-500h-105v705h105v-100h100v-100h100v-200h95v400h105v-705h-105v200h-100v100h-100zM85 810v105h200v100h105v-105h-100v-100h-205z" />
    <glyph glyph-name="nacute" unicode="&#x144;" 
d="M385 -15v400h-195v-100h-100v-300h-105v505h105v-100h95v100h205v-100h100v-405h-105zM85 585v105h200v100h105v-105h-100v-100h-205z" />
    <glyph glyph-name="Racute" unicode="&#x154;" 
d="M285 185v100h-195v-300h-105v705h405v-100h100v-205h-100v-195h100v-205h-105v200h-100zM90 585v-195h295v195h-295zM85 810v105h200v100h105v-105h-100v-100h-205z" />
    <glyph glyph-name="racute" unicode="&#x155;" 
d="M290 385v-100h-100v-195h200v-105h-405v105h100v295h-100v105h205v-100h95v100h205v-105h-200zM85 585v105h200v100h105v-105h-100v-100h-205z" />
    <glyph glyph-name="Rcaron" unicode="&#x158;" 
d="M285 185v100h-195v-300h-105v705h405v-100h100v-205h-100v-195h100v-205h-105v200h-100zM90 585v-195h295v195h-295zM85 910v105h105v-100h95v100h105v-105h-100v-100h-105v100h-100z" />
    <glyph glyph-name="Sacute" unicode="&#x15a;" 
d="M90 585v-195h300v-100h100v-205h-100v-100h-405v105h400v195h-300v100h-100v205h100v100h405v-105h-400zM185 810v105h200v100h105v-105h-100v-100h-205z" />
    <glyph glyph-name="sacute" unicode="&#x15b;" 
d="M-15 -15v105h400v95h-300v100h-100v105h100v100h405v-105h-400v-95h300v-100h100v-105h-100v-100h-405zM185 585v105h200v100h105v-105h-100v-100h-205z" />
    <glyph glyph-name="Aacute" unicode="&#xc1;" 
d="M90 185v-200h-105v605h100v100h305v-100h100v-605h-105v200h-295zM90 585v-295h295v295h-295zM85 810v105h200v100h105v-105h-100v-100h-205z" />
    <glyph glyph-name="tcaron" unicode="&#x165;" 
d="M-15 385v105h100v100h105v-500h100v-105h-105v100h-100v300h-100zM285 385v105h100v200h105v-205h-100v-100h-105z" />
    <glyph glyph-name="Iacute" unicode="&#xcd;" 
d="M-15 585v105h505v-105h-200v-495h200v-105h-505v105h200v495h-200zM85 810v105h200v100h105v-105h-100v-100h-205z" />
    <glyph glyph-name="Oacute" unicode="&#xd3;" 
d="M85 810v105h200v100h105v-105h-100v-100h-205zM-15 85v505h100v100h305v-100h100v-505h-100v-100h-305v100h-100zM90 585v-495h295v495h-295z" />
    <glyph glyph-name="Ocircumflex" unicode="&#xd4;" 
d="M285 810v100h-95v-100h-105v105h100v100h105v-100h100v-105h-105zM-15 85v505h100v100h305v-100h100v-505h-100v-100h-305v100h-100zM90 585v-495h295v495h-295z" />
    <glyph glyph-name="Uacute" unicode="&#xda;" 
d="M-15 85v605h105v-600h295v600h105v-605h-100v-100h-305v100h-100zM85 810v105h200v100h105v-105h-100v-100h-205z" />
    <glyph glyph-name="Yacute" unicode="&#xdd;" 
d="M-15 385v305h105v-300h100v-100h95v100h100v300h105v-305h-100v-100h-100v-300h-105v300h-100v100h-100zM85 810v105h200v100h105v-105h-100v-100h-205z" />
    <glyph glyph-name="yacute" unicode="&#xfd;" 
d="M-15 285v205h105v-200h100v-200h95v200h100v200h105v-205h-100v-200h-100v-200h-100v-100h-205v105h200v195h-100v200h-100zM85 585v105h200v100h105v-105h-100v-100h-205z" />
    <glyph glyph-name="ogonek" unicode="&#x2db;" 
d="M185 -115v105h105v-100h100v-105h-105v100h-100z" />
    <glyph glyph-name="Aogonek" unicode="&#x104;" 
d="M90 185v-200h-105v605h100v100h305v-100h100v-605h-105v200h-295zM90 585v-295h295v295h-295zM285 -115v105h105v-100h100v-105h-105v100h-100z" />
    <glyph glyph-name="aogonek" unicode="&#x105;" 
d="M85 385v105h305v-100h100v-405h-405v100h-100v105h100v100h300v95h-300zM90 185v-95h295v95h-295zM285 -115v105h105v-100h100v-105h-105v100h-100z" />
    <glyph glyph-name="Eogonek" unicode="&#x118;" 
d="M-15 -15v705h505v-105h-400v-195h300v-105h-300v-195h400v-105h-505zM285 -115v105h105v-100h100v-105h-105v100h-100z" />
    <glyph glyph-name="eogonek" unicode="&#x119;" 
d="M-15 85v305h100v100h305v-100h100v-205h-400v-95h400v-105h-405v100h-100zM90 385v-95h295v95h-295zM285 -115v105h105v-100h100v-105h-105v100h-100z" />
    <glyph glyph-name="Iogonek" unicode="&#x12e;" 
d="M-15 585v105h505v-105h-200v-495h200v-105h-505v105h200v495h-200zM185 -115v105h105v-100h100v-105h-105v100h-100z" />
    <glyph glyph-name="iogonek" unicode="&#x12f;" 
d="M-15 -15v105h200v295h-200v105h305v-400h200v-105h-505zM185 585v105h105v-105h-105zM185 -115v105h105v-100h100v-105h-105v100h-100z" />
    <glyph glyph-name="Uogonek" unicode="&#x172;" 
d="M-15 85v605h105v-600h295v600h105v-605h-100v-100h-305v100h-100zM185 -115v105h105v-100h100v-105h-105v100h-100z" />
    <glyph glyph-name="uogonek" unicode="&#x173;" 
d="M385 -15v100h-95v-100h-205v100h-100v405h105v-400h195v100h100v300h105v-505h-105zM285 -115v105h105v-100h100v-105h-105v100h-100z" />
    <glyph glyph-name="dotaccent" unicode="&#x2d9;" 
d="M185 585v105h105v-105h-105z" />
    <glyph glyph-name="Edotaccent" unicode="&#x116;" 
d="M-15 -15v705h505v-105h-400v-195h300v-105h-300v-195h400v-105h-505zM185 810v105h105v-105h-105z" />
    <glyph glyph-name="edotaccent" unicode="&#x117;" 
d="M-15 85v305h100v100h305v-100h100v-205h-400v-95h400v-105h-405v100h-100zM90 385v-95h295v95h-295zM185 585v105h105v-105h-105z" />
    <glyph glyph-name="Zdotaccent" unicode="&#x17b;" 
d="M-15 -15v205h100v100h100v100h100v100h100v95h-400v105h505v-205h-100v-100h-100v-100h-100v-100h-100v-95h400v-105h-505zM185 810v105h105v-105h-105z" />
    <glyph glyph-name="zdotaccent" unicode="&#x17c;" 
d="M-15 -15v105h100v100h100v100h100v95h-300v105h505v-105h-100v-100h-100v-100h-100v-95h300v-105h-505zM185 585v105h105v-105h-105z" />
    <glyph glyph-name="dcaron" unicode="&#x10f;" 
d="M-15 85v305h100v100h100v200h105v-200h95v200h105v-205h-100v-100h-100v-400h-205v100h-100zM185 90v295h-95v-295h95z" />
    <glyph glyph-name="Dcroat" unicode="&#x110;" 
d="M-13 287v105h98v298h305v-100h100v-505h-100v-100h-305v302h-98zM385 90v495h-195v-193h102v-105h-102v-197h195z" />
    <glyph glyph-name="gcommaaccent" unicode="&#x123;" 
d="M85 -215v105h300v195h-95v-100h-205v100h-100v305h100v100h405v-605h-100v-100h-305zM90 385v-295h195v100h100v195h-295zM185 610v205h100v100h105v-105h-100v-200h-105z" />
    <glyph glyph-name="commaaccent" 
d="M185 -215v105h100v100h105v-105h-100v-100h-105z" />
    <glyph glyph-name="Kcommaaccent" unicode="&#x136;" 
d="M285 185v100h-195v-300h-105v705h105v-300h195v100h100v200h105v-205h-100v-100h-100v-95h100v-100h100v-205h-105v200h-100zM85 -215v105h100v100h105v-105h-100v-100h-105z" />
    <glyph glyph-name="Lcommaaccent" unicode="&#x13b;" 
d="M-15 -15v705h105v-600h400v-105h-505zM85 -215v105h100v100h105v-105h-100v-100h-105z" />
    <glyph glyph-name="lcommaaccent" unicode="&#x13c;" 
d="M-15 -15v105h200v495h-200v105h305v-600h200v-105h-505zM85 -215v105h100v100h105v-105h-100v-100h-105z" />
    <glyph glyph-name="Ncommaaccent" unicode="&#x145;" 
d="M185 285v200h-95v-500h-105v705h105v-100h100v-100h100v-200h95v400h105v-705h-105v200h-100v100h-100zM85 -215v105h100v100h105v-105h-100v-100h-105z" />
    <glyph glyph-name="ncommaaccent" unicode="&#x146;" 
d="M385 -15v400h-195v-100h-100v-300h-105v505h105v-100h95v100h205v-100h100v-405h-105zM85 -215v105h100v100h105v-105h-100v-100h-105z" />
    <glyph glyph-name="Rcommaaccent" unicode="&#x156;" 
d="M285 185v100h-195v-300h-105v705h405v-100h100v-205h-100v-195h100v-205h-105v200h-100zM90 585v-195h295v195h-295zM85 -215v105h100v100h105v-105h-100v-100h-105z" />
    <glyph glyph-name="rcommaaccent" unicode="&#x157;" 
d="M290 385v-100h-100v-195h200v-105h-405v105h100v295h-100v105h205v-100h95v100h205v-105h-200zM-15 -215v105h100v100h105v-105h-100v-100h-105z" />
    <glyph glyph-name="kcommaaccent" unicode="&#x137;" 
d="M285 85v100h-195v-200h-105v705h105v-400h195v200h105v-205h-100v-95h100v-100h100v-105h-105v100h-100zM85 -215v105h100v100h105v-105h-100v-100h-105z" />
    <glyph glyph-name="Gcommaaccent" unicode="&#x122;" 
d="M90 585v-495h295v95h-100v105h205v-305h-405v100h-100v505h100v100h305v-100h100v-105h-105v100h-295zM85 -215v105h100v100h105v-105h-100v-100h-105z" />
    <glyph glyph-name="lcaron" unicode="&#x13e;" 
d="M-15 -15v105h100v495h-100v105h205v-600h100v-105h-305zM285 385v105h100v200h105v-205h-100v-100h-105z" />
    <glyph glyph-name="hungarumlaut" unicode="&#x2dd;" 
d="M285 585v100h-95v-100h-105v105h100v100h105v-100h95v100h105v-105h-100v-100h-105z" />
    <glyph glyph-name="Ohungarumlaut" unicode="&#x150;" 
d="M285 810v100h-95v-100h-105v105h100v100h105v-100h95v100h105v-105h-100v-100h-105zM-15 85v505h100v100h305v-100h100v-505h-100v-100h-305v100h-100zM90 585v-495h295v495h-295z" />
    <glyph glyph-name="ohungarumlaut" unicode="&#x151;" 
d="M-15 85v305h100v100h305v-100h100v-305h-100v-100h-305v100h-100zM90 385v-295h295v295h-295zM285 585v100h-95v-100h-105v105h100v100h105v-100h95v100h105v-105h-100v-100h-105z" />
    <glyph glyph-name="Uhungarumlaut" unicode="&#x170;" 
d="M-15 85v605h105v-600h295v600h105v-605h-100v-100h-305v100h-100zM285 810v100h-95v-100h-105v105h100v100h105v-100h95v100h105v-105h-100v-100h-105z" />
    <glyph glyph-name="uhungarumlaut" unicode="&#x171;" 
d="M385 -15v100h-95v-100h-205v100h-100v405h105v-400h195v100h100v300h105v-505h-105zM285 585v100h-95v-100h-105v105h100v100h105v-100h95v100h105v-105h-100v-100h-105z" />
    <glyph glyph-name="dcroat" unicode="&#x111;" 
d="M-15 85v305h100v100h200v200h105v-400h102v-105h-102v-200h-305v100h-100zM90 385v-295h195v95h-98v105h98v95h-195z" />
    <glyph glyph-name="ring" unicode="&#x2da;" 
d="M85 685v105h100v100h105v-100h100v-105h-100v-100h-105v100h-100zM190 785v-95h95v95h-95z" />
    <glyph glyph-name="uring" unicode="&#x16f;" 
d="M385 -15v100h-95v-100h-205v100h-100v405h105v-400h195v100h100v300h105v-505h-105zM85 685v105h100v100h105v-100h100v-105h-100v-100h-105v100h-100zM190 785v-95h95v95h-95z" />
    <glyph glyph-name="Uring" unicode="&#x16e;" 
d="M-15 85v605h105v-600h295v600h105v-605h-100v-100h-305v100h-100zM85 910v105h100v100h105v-100h100v-105h-100v-100h-105v100h-100zM190 1010v-95h95v95h-95z" />
    <glyph glyph-name="lslash" unicode="&#x142;" 
d="M-15 585v105h305v-300h100v-105h-100v-195h200v-105h-505v105h200v195h-99v105h99v195h-200z" />
    <glyph glyph-name="Lslash" unicode="&#x141;" 
d="M-15 285v105h100v300h105v-300h100v-105h-100v-195h300v-105h-405v300h-100z" />
    <glyph glyph-name="igrave" unicode="&#xec;" 
d="M-15 -15v105h200v295h-200v105h305v-400h200v-105h-505zM85 685v105h105v-100h200v-105h-205v100h-100z" />
    <glyph glyph-name="Aring" unicode="&#xc5;" 
d="M90 185v-200h-105v605h100v100h305v-100h100v-605h-105v200h-295zM90 585v-295h295v295h-295zM85 910v105h100v100h105v-100h100v-105h-100v-100h-105v100h-100zM190 1010v-95h95v95h-95z" />
    <glyph glyph-name="cedilla" unicode="&#xb8;" 
d="M85 -215v105h100v100h105v-105h-100v-100h-105z" />
    <glyph glyph-name="tilde" unicode="&#x2dc;" 
d="M-15 585v105h100v100h105v-100h195v100h105v-105h-100v-100h-205v100h-95v-100h-105z" />
    <glyph glyph-name="otilde" unicode="&#xf5;" 
d="M-15 85v305h100v100h305v-100h100v-305h-100v-100h-305v100h-100zM90 385v-295h295v295h-295zM-15 585v105h100v100h105v-100h195v100h105v-105h-100v-100h-205v100h-95v-100h-105z" />
    <glyph glyph-name="Otilde" unicode="&#xd5;" 
d="M-15 810v105h100v100h105v-100h195v100h105v-105h-100v-100h-205v100h-95v-100h-105zM-15 85v505h100v100h305v-100h100v-505h-100v-100h-305v100h-100zM90 585v-495h295v495h-295z" />
    <glyph glyph-name="Ntilde" unicode="&#xd1;" 
d="M185 285v200h-95v-500h-105v705h105v-100h100v-100h100v-200h95v400h105v-705h-105v200h-100v100h-100zM-15 810v105h100v100h105v-100h195v100h105v-105h-100v-100h-205v100h-95v-100h-105z" />
    <glyph glyph-name="atilde" unicode="&#xe3;" 
d="M85 385v105h305v-100h100v-405h-405v100h-100v105h100v100h300v95h-300zM90 185v-95h295v95h-295zM-15 585v105h100v100h105v-100h195v100h105v-105h-100v-100h-205v100h-95v-100h-105z" />
    <glyph glyph-name="aring" unicode="&#xe5;" 
d="M85 385v105h305v-100h100v-405h-405v100h-100v105h100v100h300v95h-300zM90 185v-95h295v95h-295zM85 685v105h100v100h105v-100h100v-105h-100v-100h-105v100h-100zM190 785v-95h95v95h-95z" />
    <glyph glyph-name="ntilde" unicode="&#xf1;" 
d="M385 -15v400h-195v-100h-100v-300h-105v505h105v-100h95v100h205v-100h100v-405h-105zM-15 585v105h100v100h105v-100h195v100h105v-105h-100v-100h-205v100h-95v-100h-105z" />
    <glyph glyph-name="ograve" unicode="&#xf2;" 
d="M-15 85v305h100v100h305v-100h100v-305h-100v-100h-305v100h-100zM90 385v-295h295v295h-295zM85 685v105h105v-100h200v-105h-205v100h-100z" />
    <glyph glyph-name="cent" unicode="&#xa2;" 
d="M385 285v100h-95v-295h95v100h105v-105h-100v-100h-100v-100h-105v100h-100v100h-100v305h100v100h100v100h105v-100h100v-100h100v-105h-105zM90 385v-295h95v295h-95z" />
    <glyph glyph-name="Oslash" unicode="&#xd8;" 
d="M-15 85v505h100v100h305v-100h100v-505h-100v-100h-305v100h-100zM186 190v300h99v95h-195v-395h96zM385 90v395h-94v-300h-99v-95h193z" />
    <glyph glyph-name="oslash" unicode="&#xf8;" 
d="M91 -15v-100h-105v105h99v95h-100v305h100v100h300v100h105v-105h-100v-95h100v-305h-100v-100h-299zM385 90v195h-95v-100h-100v-95h195zM90 385v-195h95v100h100v95h-195z" />
    <glyph glyph-name="Agrave" unicode="&#xc0;" 
d="M90 185v-200h-105v605h100v100h305v-100h100v-605h-105v200h-295zM90 585v-295h295v295h-295zM85 910v105h105v-100h200v-105h-205v100h-100z" />
    <glyph glyph-name="Atilde" unicode="&#xc3;" 
d="M90 185v-200h-105v605h100v100h305v-100h100v-605h-105v200h-295zM90 585v-295h295v295h-295zM-15 810v105h100v100h105v-100h195v100h105v-105h-100v-100h-205v100h-95v-100h-105z" />
    <glyph glyph-name="Acircumflex" unicode="&#xc2;" 
d="M90 185v-200h-105v605h100v100h305v-100h100v-605h-105v200h-295zM90 585v-295h295v295h-295zM285 810v100h-95v-100h-105v105h100v100h105v-100h100v-105h-105z" />
    <glyph glyph-name="Egrave" unicode="&#xc8;" 
d="M-15 -15v705h505v-105h-400v-195h300v-105h-300v-195h400v-105h-505zM85 910v105h105v-100h200v-105h-205v100h-100z" />
    <glyph glyph-name="Icircumflex" unicode="&#xce;" 
d="M-15 585v105h505v-105h-200v-495h200v-105h-505v105h200v495h-200zM285 810v100h-95v-100h-105v105h100v100h105v-100h100v-105h-105z" />
    <glyph glyph-name="Idieresis" unicode="&#xcf;" 
d="M-15 585v105h505v-105h-200v-495h200v-105h-505v105h200v495h-200zM-15 810v205h105v-205h-105zM385 810v205h105v-205h-105z" />
    <glyph glyph-name="Igrave" unicode="&#xcc;" 
d="M-15 585v105h505v-105h-200v-495h200v-105h-505v105h200v495h-200zM85 910v105h105v-100h200v-105h-205v100h-100z" />
    <glyph glyph-name="Ograve" unicode="&#xd2;" 
d="M85 910v105h105v-100h200v-105h-205v100h-100zM-15 85v505h100v100h305v-100h100v-505h-100v-100h-305v100h-100zM90 585v-495h295v495h-295z" />
    <glyph glyph-name="Ucircumflex" unicode="&#xdb;" 
d="M-15 85v605h105v-600h295v600h105v-605h-100v-100h-305v100h-100zM285 810v100h-95v-100h-105v105h100v100h105v-100h100v-105h-105z" />
    <glyph glyph-name="Ugrave" unicode="&#xd9;" 
d="M-15 85v605h105v-600h295v600h105v-605h-100v-100h-305v100h-100zM85 910v105h105v-100h200v-105h-205v100h-100z" />
    <glyph glyph-name="dotlessi" unicode="&#x131;" 
d="M-15 -15v105h200v295h-200v105h305v-400h200v-105h-505z" />
    <glyph glyph-name="Edieresis" unicode="&#xcb;" 
d="M-15 -15v705h505v-105h-400v-195h300v-105h-300v-195h400v-105h-505zM-15 810v205h105v-205h-105zM385 810v205h105v-205h-105z" />
    <glyph glyph-name="Ecircumflex" unicode="&#xca;" 
d="M-15 -15v705h505v-105h-400v-195h300v-105h-300v-195h400v-105h-505zM285 810v100h-95v-100h-105v105h100v100h105v-100h100v-105h-105z" />
    <glyph glyph-name="Ccedilla" unicode="&#xc7;" 
d="M-15 85v505h100v100h305v-100h100v-105h-105v100h-295v-495h295v100h105v-105h-100v-100h-305v100h-100zM85 -215v105h100v100h105v-105h-100v-100h-105z" />
    <glyph glyph-name="ae" unicode="&#xe6;" 
d="M85 385v105h105v-100h95v100h105v-100h100v-105h-100v-100h-100v-95h200v-105h-405v100h-100v105h100v100h100v95h-100zM290 385v-95h95v95h-95zM90 185v-95h95v95h-95z" />
    <glyph glyph-name="AE" unicode="&#xc6;" 
d="M185 -15v200h-95v-200h-105v605h100v100h405v-105h-200v-195h100v-105h-100v-195h200v-105h-305zM185 290v295h-95v-295h95z" />
    <glyph glyph-name="OE" unicode="&#x152;" 
d="M-15 85v505h100v100h405v-105h-200v-195h100v-105h-100v-195h200v-105h-405v100h-100zM185 90v495h-95v-495h95z" />
    <glyph glyph-name="questiondown" unicode="&#xbf;" 
d="M490 190v-105h-100v-100h-305v100h-100v205h100v100h205v-105h-200v-195h295v100h105zM290 690v-205h-105v205h105z" />
    <glyph glyph-name="exclamdown" unicode="&#xa1;" 
d="M185 -15v405h105v-405h-105zM185 485v205h105v-205h-105z" />
    <glyph glyph-name="fraction" unicode="&#x2044;" 
d="M85 -15v205h100v200h100v100h100v200h105v-205h-100v-100h-100v-200h-100v-200h-105z" />
    <glyph glyph-name="ydieresis" unicode="&#xff;" 
d="M-15 285v205h105v-200h100v-200h95v200h100v200h105v-205h-100v-200h-100v-200h-100v-100h-205v105h200v195h-100v200h-100zM-15 585v205h105v-205h-105zM385 585v205h105v-205h-105z" />
    <glyph glyph-name="Ydieresis" unicode="&#x178;" 
d="M-15 385v305h105v-300h100v-100h95v100h100v300h105v-305h-100v-100h-100v-300h-105v300h-100v100h-100zM-15 810v205h105v-205h-105zM385 810v205h105v-205h-105z" />
    <glyph glyph-name="Eth" unicode="&#xd0;" 
d="M-15 285v105h100v300h305v-100h100v-505h-100v-100h-305v300h-100zM385 90v495h-195v-195h100v-105h-100v-195h195z" />
    <glyph glyph-name="thorn" unicode="&#xfe;" 
d="M-15 -215v905h105v-200h300v-100h100v-305h-100v-100h-300v-200h-105zM90 385v-295h295v295h-295z" />
    <glyph glyph-name="Thorn" unicode="&#xde;" 
d="M-15 -15v705h105v-100h300v-100h100v-205h-100v-100h-300v-200h-105zM90 485v-195h295v195h-295z" />
    <glyph glyph-name="eth" unicode="&#xf0;" 
d="M85 585v105h205v-100h95v100h105v-105h-100v-95h100v-405h-100v-100h-304v100h-101v205h100v100h100v100h100v95h-200zM90 285v-195h295v195h-295zM290 485v-95h95v95h-95z" />
    <glyph glyph-name="breve" unicode="&#x2d8;" 
d="M85 685v105h105v-100h95v100h105v-105h-100v-100h-105v100h-100z" />
    <glyph glyph-name="Abreve" unicode="&#x102;" 
d="M90 185v-200h-105v605h100v100h305v-100h100v-605h-105v200h-295zM90 585v-295h295v295h-295zM85 910v105h105v-100h95v100h105v-105h-100v-100h-105v100h-100z" />
    <glyph glyph-name="Scommaaccent" unicode="&#x218;" 
d="M90 585v-195h300v-100h100v-205h-100v-100h-100v-100h-100v-100h-105v105h100v95h-200v105h400v195h-300v100h-100v205h100v100h405v-105h-400z" />
    <glyph glyph-name="abreve" unicode="&#x103;" 
d="M85 385v105h305v-100h100v-405h-405v100h-100v105h100v100h300v95h-300zM90 185v-95h295v95h-295zM85 685v105h105v-100h95v100h105v-105h-100v-100h-105v100h-100z" />
    <glyph glyph-name="scommaaccent" unicode="&#x219;" 
d="M-15 -15v105h400v95h-300v100h-100v105h100v100h405v-105h-400v-95h300v-100h100v-105h-100v-100h-405zM85 -215v105h100v100h105v-105h-100v-100h-105z" />
    <glyph glyph-name="Tcommaaccent" unicode="&#x162;" 
d="M-15 585v105h505v-105h-200v-600h-105v600h-200zM85 -215v105h100v100h105v-105h-100v-100h-105z" />
    <glyph glyph-name="tcommaaccent" unicode="&#x163;" 
d="M290 385v-295h200v-105h-205v100h-100v300h-200v105h200v100h105v-100h200v-105h-200zM85 -215v105h100v100h105v-105h-100v-100h-105z" />
    <glyph glyph-name="Gbreve" unicode="&#x11e;" 
d="M90 585v-495h295v95h-100v105h205v-305h-405v100h-100v505h100v100h305v-100h100v-105h-105v100h-295zM85 910v105h105v-100h95v100h105v-105h-100v-100h-105v100h-100z" />
    <glyph glyph-name="gbreve" unicode="&#x11f;" 
d="M85 -215v105h300v195h-95v-100h-205v100h-100v305h100v100h405v-605h-100v-100h-305zM90 385v-295h195v100h100v195h-295zM85 685v105h105v-100h95v100h105v-105h-100v-100h-105v100h-100z" />
    <glyph glyph-name="Idotaccent" unicode="&#x130;" 
d="M-15 585v105h505v-105h-200v-495h200v-105h-505v105h200v495h-200zM185 810v105h105v-105h-105z" />
    <glyph glyph-name="Scedilla" unicode="&#x15e;" 
d="M90 585v-195h300v-100h100v-205h-100v-100h-405v105h400v195h-300v100h-100v205h100v100h405v-105h-400zM85 -215v105h100v100h105v-105h-100v-100h-105z" />
    <glyph glyph-name="scedilla" unicode="&#x15f;" 
d="M-15 -15v105h400v95h-300v100h-100v105h100v100h405v-105h-400v-95h300v-100h100v-105h-100v-100h-405zM85 -215v105h100v100h105v-105h-100v-100h-105z" />
    <glyph glyph-name="multiply" unicode="&#xd7;" 
d="M285 85v100h-95v-100h-100v-100h-105v105h100v100h100v95h-100v100h-100v105h105v-100h100v-100h95v100h100v100h105v-105h-100v-100h-100v-95h100v-100h100v-105h-105v100h-100z" />
    <glyph glyph-name="onequarter" unicode="&#xbc;" 
d="M-15 585v105h205v-300h95v100h100v200h105v-205h-100v-100h-100v-200h-100v-200h-105v205h100v195h-100v200h-100zM385 185v105h100v100h105v-405h-105v200h-100z" />
    <glyph glyph-name="threequarters" unicode="&#xbe;" 
d="M-15 585v105h105v-100h100v-200h95v100h100v200h105v-205h-100v-100h-100v-200h-100v-200h-105v205h100v95h-200v105h100v195h-100zM385 185v105h100v100h105v-405h-105v200h-100z" />
    <glyph glyph-name="ordfeminine" unicode="&#xaa;" 
d="M85 585v105h105v-100h100v-305h-205v100h-100v105h200v95h-100z" />
    <glyph glyph-name="ordmasculine" unicode="&#xba;" 
d="M-15 485v105h100v100h105v-100h100v-105h-100v-100h-105v100h-100zM90 585v-95h95v95h-95z" />
    <glyph glyph-name="A" unicode="A" 
d="M90 185v-200h-105v605h100v100h305v-100h100v-605h-105v200h-295zM90 585v-295h295v295h-295z" />
    <glyph glyph-name="O" unicode="O" 
d="M-15 85v505h100v100h305v-100h100v-505h-100v-100h-305v100h-100zM90 585v-495h295v495h-295z" />
    <glyph glyph-name="Omicron" unicode="&#x39f;" 
d="M-15 85v505h100v100h305v-100h100v-505h-100v-100h-305v100h-100zM90 585v-495h295v495h-295z" />
    <glyph glyph-name="uni0394" unicode="&#x394;" 
d="M-15 -15v605h100v100h305v-100h100v-605h-505zM90 585v-495h295v495h-295z" />
    <glyph glyph-name="uni03A9" unicode="&#x3a9;" 
d="M-15 285v305h100v100h305v-100h100v-305h-100v-100h-305v100h-100zM90 585v-295h295v295h-295zM-15 -15v105h505v-105h-505z" />
    <glyph glyph-name="uni03BC" unicode="&#x3bc;" 
d="M-15 -215v705h105v-400h195v100h100v300h105v-505h-105v100h-95v-100h-200v-200h-105z" />
    <glyph glyph-name="zero.lf" 
d="M-15 85v505h100v100h305v-100h100v-505h-100v-100h-305v100h-100zM185 190v300h100v95h-195v-395h95zM385 90v395h-95v-300h-100v-95h195z" />
    <glyph glyph-name="one.lf" 
d="M-15 -15v105h200v495h-200v105h305v-600h200v-105h-505z" />
    <glyph glyph-name="two.lf" 
d="M-15 485v105h100v100h305v-100h100v-205h-100v-100h-100v-100h-100v-95h300v-105h-505v105h100v100h100v100h100v100h100v195h-295v-100h-105z" />
    <glyph glyph-name="three.lf" 
d="M-15 485v105h100v100h305v-100h100v-205h-100v-95h100v-205h-100v-100h-305v100h-100v105h105v-100h295v195h-300v105h300v195h-295v-100h-105z" />
    <glyph glyph-name="four.lf" 
d="M-15 185v205h100v100h100v100h100v100h105v-400h100v-105h-100v-200h-105v200h-300zM285 290v195h-95v-100h-100v-95h195z" />
    <glyph glyph-name="five.lf" 
d="M90 585v-195h300v-100h100v-205h-100v-100h-405v105h400v195h-400v405h505v-105h-400z" />
    <glyph glyph-name="six.lf" 
d="M190 585v-100h-100v-95h300v-100h100v-205h-100v-100h-305v100h-100v405h100v100h100v100h205v-105h-200zM90 285v-195h295v195h-295z" />
    <glyph glyph-name="seven.lf" 
d="M-15 585v105h505v-205h-100v-100h-100v-100h-100v-300h-105v305h100v100h100v100h100v95h-400z" />
    <glyph glyph-name="eight.lf" 
d="M-15 385v205h100v100h305v-100h100v-205h-100v-95h100v-205h-100v-100h-305v100h-100v205h100v95h-100zM90 585v-195h295v195h-295zM90 285v-195h295v195h-295z" />
    <glyph glyph-name="nine.lf" 
d="M85 -15v105h200v100h100v95h-300v100h-100v205h100v100h305v-100h100v-405h-100v-100h-100v-100h-205zM90 585v-195h295v195h-295z" />
    <glyph glyph-name="roundDotComponent" horiz-adv-x="75" 
d="M-15 -15v105h105v-105h-105z" />
  </font>
</defs>
</svg>
