<?xml version="1.0" encoding="UTF-8" standalone="no"?><svg xmlns="http://www.w3.org/2000/svg" xmlns:xlink="http://www.w3.org/1999/xlink" clip-rule="evenodd" stroke-miterlimit="4.00" viewBox="0 0 643 103"><desc>SVG generated by Keynote</desc><defs></defs><g transform="matrix(1.00, 0.00, -0.00, -1.00, 0.0, 103.0)"><image xlink:href="../../626647B6-AB4E-4ACF-89AC-808063E2EA4C/assets/316E51C0E96B2742C28F3047A35C3318.png" width="641.00" height="101.00" transform="matrix(1.00, 0.00, -0.00, -1.00, 1.0, 102.0)"></image><text xml:space="preserve" font-family="HelveticaNeue-Light" font-size="100.0" fill="#FEFFFE" transform="matrix(1.00, 0.00, -0.00, -1.00, -2.0, 29.0)">F</text><text xml:space="preserve" font-family="HelveticaNeue-Light" font-size="100.0" fill="#FEFFFE" transform="matrix(1.00, 0.00, -0.00, -1.00, 51.7, 29.0)">l</text><text xml:space="preserve" font-family="HelveticaNeue-Light" font-size="100.0" fill="#FEFFFE" transform="matrix(1.00, 0.00, -0.00, -1.00, 70.2, 29.0)">i</text><text xml:space="preserve" font-family="HelveticaNeue-Light" font-size="100.0" fill="#FEFFFE" transform="matrix(1.00, 0.00, -0.00, -1.00, 88.7, 29.0)">g</text><text xml:space="preserve" font-family="HelveticaNeue-Light" font-size="100.0" fill="#FEFFFE" transform="matrix(1.00, 0.00, -0.00, -1.00, 144.3, 29.0)">h</text><text xml:space="preserve" font-family="HelveticaNeue-Light" font-size="100.0" fill="#FEFFFE" transform="matrix(1.00, 0.00, -0.00, -1.00, 198.0, 29.0)">t</text><text xml:space="preserve" font-family="HelveticaNeue-Light" font-size="100.0" fill="#FEFFFE" transform="matrix(1.00, 0.00, -0.00, -1.00, 227.6, 29.0)"> </text><text xml:space="preserve" font-family="HelveticaNeue-Light" font-size="100.0" fill="#FEFFFE" transform="matrix(1.00, 0.00, -0.00, -1.00, 255.4, 29.0)">D</text><text xml:space="preserve" font-family="HelveticaNeue-Light" font-size="100.0" fill="#FEFFFE" transform="matrix(1.00, 0.00, -0.00, -1.00, 323.9, 29.0)">i</text><text xml:space="preserve" font-family="HelveticaNeue-Light" font-size="100.0" fill="#FEFFFE" transform="matrix(1.00, 0.00, -0.00, -1.00, 342.4, 29.0)">r</text><text xml:space="preserve" font-family="HelveticaNeue-Light" font-size="100.0" fill="#FEFFFE" transform="matrix(1.00, 0.00, -0.00, -1.00, 372.1, 29.0)">e</text><text xml:space="preserve" font-family="HelveticaNeue-Light" font-size="100.0" fill="#FEFFFE" transform="matrix(1.00, 0.00, -0.00, -1.00, 424.0, 29.0)">c</text><text xml:space="preserve" font-family="HelveticaNeue-Light" font-size="100.0" fill="#FEFFFE" transform="matrix(1.00, 0.00, -0.00, -1.00, 475.9, 29.0)">t</text><text xml:space="preserve" font-family="HelveticaNeue-Light" font-size="100.0" fill="#FEFFFE" transform="matrix(1.00, 0.00, -0.00, -1.00, 505.5, 29.0)">o</text><text xml:space="preserve" font-family="HelveticaNeue-Light" font-size="100.0" fill="#FEFFFE" transform="matrix(1.00, 0.00, -0.00, -1.00, 561.1, 29.0)">r</text><text xml:space="preserve" font-family="HelveticaNeue-Light" font-size="100.0" fill="#FEFFFE" transform="matrix(1.00, 0.00, -0.00, -1.00, 592.6, 29.0)">s</text></g></svg>